G04 #@! TF.GenerationSoftware,KiCad,Pcbnew,(5.1.5)-3*
G04 #@! TF.CreationDate,2020-01-31T15:08:37+01:00*
G04 #@! TF.ProjectId,Greenkeeper,47726565-6e6b-4656-9570-65722e6b6963,1.0*
G04 #@! TF.SameCoordinates,Original*
G04 #@! TF.FileFunction,Legend,Top*
G04 #@! TF.FilePolarity,Positive*
%FSLAX46Y46*%
G04 Gerber Fmt 4.6, Leading zero omitted, Abs format (unit mm)*
G04 Created by KiCad (PCBNEW (5.1.5)-3) date 2020-01-31 15:08:37*
%MOMM*%
%LPD*%
G04 APERTURE LIST*
%ADD10C,0.300000*%
%ADD11C,0.120000*%
%ADD12C,1.000000*%
%ADD13C,0.150000*%
G04 APERTURE END LIST*
D10*
X139128571Y-57257142D02*
X140271428Y-57257142D01*
X136588571Y-57257142D02*
X137731428Y-57257142D01*
X137160000Y-57828571D02*
X137160000Y-56685714D01*
D11*
X104140000Y-109220000D02*
X121920000Y-109220000D01*
X104140000Y-104140000D02*
X121920000Y-104140000D01*
X104140000Y-99060000D02*
X121920000Y-99060000D01*
X104140000Y-93980000D02*
X121920000Y-93980000D01*
X104140000Y-88900000D02*
X121920000Y-88900000D01*
X104140000Y-83820000D02*
X121920000Y-83820000D01*
D10*
X110422857Y-107842857D02*
X109922857Y-107842857D01*
X109922857Y-108628571D02*
X109922857Y-107128571D01*
X110637142Y-107128571D01*
X111780000Y-108557142D02*
X111637142Y-108628571D01*
X111351428Y-108628571D01*
X111208571Y-108557142D01*
X111137142Y-108414285D01*
X111137142Y-107842857D01*
X111208571Y-107700000D01*
X111351428Y-107628571D01*
X111637142Y-107628571D01*
X111780000Y-107700000D01*
X111851428Y-107842857D01*
X111851428Y-107985714D01*
X111137142Y-108128571D01*
X112494285Y-108628571D02*
X112494285Y-107128571D01*
X113137142Y-108628571D02*
X113137142Y-107842857D01*
X113065714Y-107700000D01*
X112922857Y-107628571D01*
X112708571Y-107628571D01*
X112565714Y-107700000D01*
X112494285Y-107771428D01*
X114065714Y-108628571D02*
X113922857Y-108557142D01*
X113851428Y-108414285D01*
X113851428Y-107128571D01*
X115208571Y-108557142D02*
X115065714Y-108628571D01*
X114780000Y-108628571D01*
X114637142Y-108557142D01*
X114565714Y-108414285D01*
X114565714Y-107842857D01*
X114637142Y-107700000D01*
X114780000Y-107628571D01*
X115065714Y-107628571D01*
X115208571Y-107700000D01*
X115280000Y-107842857D01*
X115280000Y-107985714D01*
X114565714Y-108128571D01*
X115922857Y-108628571D02*
X115922857Y-107628571D01*
X115922857Y-107914285D02*
X115994285Y-107771428D01*
X116065714Y-107700000D01*
X116208571Y-107628571D01*
X116351428Y-107628571D01*
X109534285Y-102048571D02*
X109891428Y-103548571D01*
X110177142Y-102477142D01*
X110462857Y-103548571D01*
X110820000Y-102048571D01*
X112034285Y-103548571D02*
X112034285Y-102762857D01*
X111962857Y-102620000D01*
X111820000Y-102548571D01*
X111534285Y-102548571D01*
X111391428Y-102620000D01*
X112034285Y-103477142D02*
X111891428Y-103548571D01*
X111534285Y-103548571D01*
X111391428Y-103477142D01*
X111320000Y-103334285D01*
X111320000Y-103191428D01*
X111391428Y-103048571D01*
X111534285Y-102977142D01*
X111891428Y-102977142D01*
X112034285Y-102905714D01*
X112677142Y-103477142D02*
X112820000Y-103548571D01*
X113105714Y-103548571D01*
X113248571Y-103477142D01*
X113320000Y-103334285D01*
X113320000Y-103262857D01*
X113248571Y-103120000D01*
X113105714Y-103048571D01*
X112891428Y-103048571D01*
X112748571Y-102977142D01*
X112677142Y-102834285D01*
X112677142Y-102762857D01*
X112748571Y-102620000D01*
X112891428Y-102548571D01*
X113105714Y-102548571D01*
X113248571Y-102620000D01*
X113891428Y-103477142D02*
X114034285Y-103548571D01*
X114320000Y-103548571D01*
X114462857Y-103477142D01*
X114534285Y-103334285D01*
X114534285Y-103262857D01*
X114462857Y-103120000D01*
X114320000Y-103048571D01*
X114105714Y-103048571D01*
X113962857Y-102977142D01*
X113891428Y-102834285D01*
X113891428Y-102762857D01*
X113962857Y-102620000D01*
X114105714Y-102548571D01*
X114320000Y-102548571D01*
X114462857Y-102620000D01*
X115748571Y-103477142D02*
X115605714Y-103548571D01*
X115320000Y-103548571D01*
X115177142Y-103477142D01*
X115105714Y-103334285D01*
X115105714Y-102762857D01*
X115177142Y-102620000D01*
X115320000Y-102548571D01*
X115605714Y-102548571D01*
X115748571Y-102620000D01*
X115820000Y-102762857D01*
X115820000Y-102905714D01*
X115105714Y-103048571D01*
X116462857Y-103548571D02*
X116462857Y-102548571D01*
X116462857Y-102834285D02*
X116534285Y-102691428D01*
X116605714Y-102620000D01*
X116748571Y-102548571D01*
X116891428Y-102548571D01*
X117177142Y-102548571D02*
X117748571Y-102548571D01*
X117391428Y-102048571D02*
X117391428Y-103334285D01*
X117462857Y-103477142D01*
X117605714Y-103548571D01*
X117748571Y-103548571D01*
X118891428Y-103548571D02*
X118891428Y-102762857D01*
X118820000Y-102620000D01*
X118677142Y-102548571D01*
X118391428Y-102548571D01*
X118248571Y-102620000D01*
X118891428Y-103477142D02*
X118748571Y-103548571D01*
X118391428Y-103548571D01*
X118248571Y-103477142D01*
X118177142Y-103334285D01*
X118177142Y-103191428D01*
X118248571Y-103048571D01*
X118391428Y-102977142D01*
X118748571Y-102977142D01*
X118891428Y-102905714D01*
X119605714Y-102548571D02*
X119605714Y-103548571D01*
X119605714Y-102691428D02*
X119677142Y-102620000D01*
X119820000Y-102548571D01*
X120034285Y-102548571D01*
X120177142Y-102620000D01*
X120248571Y-102762857D01*
X120248571Y-103548571D01*
X120962857Y-103548571D02*
X120962857Y-102048571D01*
X121105714Y-102977142D02*
X121534285Y-103548571D01*
X121534285Y-102548571D02*
X120962857Y-103120000D01*
X109637142Y-98468571D02*
X109637142Y-96968571D01*
X110208571Y-96968571D01*
X110351428Y-97040000D01*
X110422857Y-97111428D01*
X110494285Y-97254285D01*
X110494285Y-97468571D01*
X110422857Y-97611428D01*
X110351428Y-97682857D01*
X110208571Y-97754285D01*
X109637142Y-97754285D01*
X111780000Y-97468571D02*
X111780000Y-98468571D01*
X111137142Y-97468571D02*
X111137142Y-98254285D01*
X111208571Y-98397142D01*
X111351428Y-98468571D01*
X111565714Y-98468571D01*
X111708571Y-98397142D01*
X111780000Y-98325714D01*
X112494285Y-98468571D02*
X112494285Y-97468571D01*
X112494285Y-97611428D02*
X112565714Y-97540000D01*
X112708571Y-97468571D01*
X112922857Y-97468571D01*
X113065714Y-97540000D01*
X113137142Y-97682857D01*
X113137142Y-98468571D01*
X113137142Y-97682857D02*
X113208571Y-97540000D01*
X113351428Y-97468571D01*
X113565714Y-97468571D01*
X113708571Y-97540000D01*
X113780000Y-97682857D01*
X113780000Y-98468571D01*
X114494285Y-97468571D02*
X114494285Y-98968571D01*
X114494285Y-97540000D02*
X114637142Y-97468571D01*
X114922857Y-97468571D01*
X115065714Y-97540000D01*
X115137142Y-97611428D01*
X115208571Y-97754285D01*
X115208571Y-98182857D01*
X115137142Y-98325714D01*
X115065714Y-98397142D01*
X114922857Y-98468571D01*
X114637142Y-98468571D01*
X114494285Y-98397142D01*
X116422857Y-98397142D02*
X116280000Y-98468571D01*
X115994285Y-98468571D01*
X115851428Y-98397142D01*
X115780000Y-98254285D01*
X115780000Y-97682857D01*
X115851428Y-97540000D01*
X115994285Y-97468571D01*
X116280000Y-97468571D01*
X116422857Y-97540000D01*
X116494285Y-97682857D01*
X116494285Y-97825714D01*
X115780000Y-97968571D01*
X109780000Y-93317142D02*
X109994285Y-93388571D01*
X110351428Y-93388571D01*
X110494285Y-93317142D01*
X110565714Y-93245714D01*
X110637142Y-93102857D01*
X110637142Y-92960000D01*
X110565714Y-92817142D01*
X110494285Y-92745714D01*
X110351428Y-92674285D01*
X110065714Y-92602857D01*
X109922857Y-92531428D01*
X109851428Y-92460000D01*
X109780000Y-92317142D01*
X109780000Y-92174285D01*
X109851428Y-92031428D01*
X109922857Y-91960000D01*
X110065714Y-91888571D01*
X110422857Y-91888571D01*
X110637142Y-91960000D01*
X111065714Y-92388571D02*
X111637142Y-92388571D01*
X111280000Y-91888571D02*
X111280000Y-93174285D01*
X111351428Y-93317142D01*
X111494285Y-93388571D01*
X111637142Y-93388571D01*
X112780000Y-93388571D02*
X112780000Y-92602857D01*
X112708571Y-92460000D01*
X112565714Y-92388571D01*
X112280000Y-92388571D01*
X112137142Y-92460000D01*
X112780000Y-93317142D02*
X112637142Y-93388571D01*
X112280000Y-93388571D01*
X112137142Y-93317142D01*
X112065714Y-93174285D01*
X112065714Y-93031428D01*
X112137142Y-92888571D01*
X112280000Y-92817142D01*
X112637142Y-92817142D01*
X112780000Y-92745714D01*
X113280000Y-92388571D02*
X113851428Y-92388571D01*
X113494285Y-91888571D02*
X113494285Y-93174285D01*
X113565714Y-93317142D01*
X113708571Y-93388571D01*
X113851428Y-93388571D01*
X114994285Y-92388571D02*
X114994285Y-93388571D01*
X114351428Y-92388571D02*
X114351428Y-93174285D01*
X114422857Y-93317142D01*
X114565714Y-93388571D01*
X114780000Y-93388571D01*
X114922857Y-93317142D01*
X114994285Y-93245714D01*
X115637142Y-93317142D02*
X115780000Y-93388571D01*
X116065714Y-93388571D01*
X116208571Y-93317142D01*
X116280000Y-93174285D01*
X116280000Y-93102857D01*
X116208571Y-92960000D01*
X116065714Y-92888571D01*
X115851428Y-92888571D01*
X115708571Y-92817142D01*
X115637142Y-92674285D01*
X115637142Y-92602857D01*
X115708571Y-92460000D01*
X115851428Y-92388571D01*
X116065714Y-92388571D01*
X116208571Y-92460000D01*
X152400000Y-71120000D02*
X152400000Y-74930000D01*
X154940000Y-77470000D02*
G75*
G02X152400000Y-74930000I0J2540000D01*
G01*
X152400000Y-71120000D02*
G75*
G02X154940000Y-68580000I2540000J0D01*
G01*
X196850000Y-77470000D02*
X154940000Y-77470000D01*
X196850000Y-68580000D02*
X154940000Y-68580000D01*
X199390000Y-74930000D02*
X199390000Y-71120000D01*
X199390000Y-74930000D02*
G75*
G02X196850000Y-77470000I-2540000J0D01*
G01*
X196850000Y-68580000D02*
G75*
G02X199390000Y-71120000I0J-2540000D01*
G01*
D12*
X156212380Y-69890000D02*
X155736190Y-69651904D01*
X155021904Y-69651904D01*
X154307619Y-69890000D01*
X153831428Y-70366190D01*
X153593333Y-70842380D01*
X153355238Y-71794761D01*
X153355238Y-72509047D01*
X153593333Y-73461428D01*
X153831428Y-73937619D01*
X154307619Y-74413809D01*
X155021904Y-74651904D01*
X155498095Y-74651904D01*
X156212380Y-74413809D01*
X156450476Y-74175714D01*
X156450476Y-72509047D01*
X155498095Y-72509047D01*
X158593333Y-74651904D02*
X158593333Y-71318571D01*
X158593333Y-72270952D02*
X158831428Y-71794761D01*
X159069523Y-71556666D01*
X159545714Y-71318571D01*
X160021904Y-71318571D01*
X163593333Y-74413809D02*
X163117142Y-74651904D01*
X162164761Y-74651904D01*
X161688571Y-74413809D01*
X161450476Y-73937619D01*
X161450476Y-72032857D01*
X161688571Y-71556666D01*
X162164761Y-71318571D01*
X163117142Y-71318571D01*
X163593333Y-71556666D01*
X163831428Y-72032857D01*
X163831428Y-72509047D01*
X161450476Y-72985238D01*
X167879047Y-74413809D02*
X167402857Y-74651904D01*
X166450476Y-74651904D01*
X165974285Y-74413809D01*
X165736190Y-73937619D01*
X165736190Y-72032857D01*
X165974285Y-71556666D01*
X166450476Y-71318571D01*
X167402857Y-71318571D01*
X167879047Y-71556666D01*
X168117142Y-72032857D01*
X168117142Y-72509047D01*
X165736190Y-72985238D01*
X170260000Y-71318571D02*
X170260000Y-74651904D01*
X170260000Y-71794761D02*
X170498095Y-71556666D01*
X170974285Y-71318571D01*
X171688571Y-71318571D01*
X172164761Y-71556666D01*
X172402857Y-72032857D01*
X172402857Y-74651904D01*
X174783809Y-74651904D02*
X174783809Y-69651904D01*
X175260000Y-72747142D02*
X176688571Y-74651904D01*
X176688571Y-71318571D02*
X174783809Y-73223333D01*
X180736190Y-74413809D02*
X180260000Y-74651904D01*
X179307619Y-74651904D01*
X178831428Y-74413809D01*
X178593333Y-73937619D01*
X178593333Y-72032857D01*
X178831428Y-71556666D01*
X179307619Y-71318571D01*
X180260000Y-71318571D01*
X180736190Y-71556666D01*
X180974285Y-72032857D01*
X180974285Y-72509047D01*
X178593333Y-72985238D01*
X185021904Y-74413809D02*
X184545714Y-74651904D01*
X183593333Y-74651904D01*
X183117142Y-74413809D01*
X182879047Y-73937619D01*
X182879047Y-72032857D01*
X183117142Y-71556666D01*
X183593333Y-71318571D01*
X184545714Y-71318571D01*
X185021904Y-71556666D01*
X185260000Y-72032857D01*
X185260000Y-72509047D01*
X182879047Y-72985238D01*
X187402857Y-71318571D02*
X187402857Y-76318571D01*
X187402857Y-71556666D02*
X187879047Y-71318571D01*
X188831428Y-71318571D01*
X189307619Y-71556666D01*
X189545714Y-71794761D01*
X189783809Y-72270952D01*
X189783809Y-73699523D01*
X189545714Y-74175714D01*
X189307619Y-74413809D01*
X188831428Y-74651904D01*
X187879047Y-74651904D01*
X187402857Y-74413809D01*
X193831428Y-74413809D02*
X193355238Y-74651904D01*
X192402857Y-74651904D01*
X191926666Y-74413809D01*
X191688571Y-73937619D01*
X191688571Y-72032857D01*
X191926666Y-71556666D01*
X192402857Y-71318571D01*
X193355238Y-71318571D01*
X193831428Y-71556666D01*
X194069523Y-72032857D01*
X194069523Y-72509047D01*
X191688571Y-72985238D01*
X196212380Y-74651904D02*
X196212380Y-71318571D01*
X196212380Y-72270952D02*
X196450476Y-71794761D01*
X196688571Y-71556666D01*
X197164761Y-71318571D01*
X197640952Y-71318571D01*
D10*
X109780000Y-88237142D02*
X109994285Y-88308571D01*
X110351428Y-88308571D01*
X110494285Y-88237142D01*
X110565714Y-88165714D01*
X110637142Y-88022857D01*
X110637142Y-87880000D01*
X110565714Y-87737142D01*
X110494285Y-87665714D01*
X110351428Y-87594285D01*
X110065714Y-87522857D01*
X109922857Y-87451428D01*
X109851428Y-87380000D01*
X109780000Y-87237142D01*
X109780000Y-87094285D01*
X109851428Y-86951428D01*
X109922857Y-86880000D01*
X110065714Y-86808571D01*
X110422857Y-86808571D01*
X110637142Y-86880000D01*
X111065714Y-87308571D02*
X111637142Y-87308571D01*
X111280000Y-86808571D02*
X111280000Y-88094285D01*
X111351428Y-88237142D01*
X111494285Y-88308571D01*
X111637142Y-88308571D01*
X112780000Y-88308571D02*
X112780000Y-87522857D01*
X112708571Y-87380000D01*
X112565714Y-87308571D01*
X112280000Y-87308571D01*
X112137142Y-87380000D01*
X112780000Y-88237142D02*
X112637142Y-88308571D01*
X112280000Y-88308571D01*
X112137142Y-88237142D01*
X112065714Y-88094285D01*
X112065714Y-87951428D01*
X112137142Y-87808571D01*
X112280000Y-87737142D01*
X112637142Y-87737142D01*
X112780000Y-87665714D01*
X113280000Y-87308571D02*
X113851428Y-87308571D01*
X113494285Y-86808571D02*
X113494285Y-88094285D01*
X113565714Y-88237142D01*
X113708571Y-88308571D01*
X113851428Y-88308571D01*
X114994285Y-87308571D02*
X114994285Y-88308571D01*
X114351428Y-87308571D02*
X114351428Y-88094285D01*
X114422857Y-88237142D01*
X114565714Y-88308571D01*
X114780000Y-88308571D01*
X114922857Y-88237142D01*
X114994285Y-88165714D01*
X115637142Y-88237142D02*
X115780000Y-88308571D01*
X116065714Y-88308571D01*
X116208571Y-88237142D01*
X116280000Y-88094285D01*
X116280000Y-88022857D01*
X116208571Y-87880000D01*
X116065714Y-87808571D01*
X115851428Y-87808571D01*
X115708571Y-87737142D01*
X115637142Y-87594285D01*
X115637142Y-87522857D01*
X115708571Y-87380000D01*
X115851428Y-87308571D01*
X116065714Y-87308571D01*
X116208571Y-87380000D01*
X110065714Y-83228571D02*
X110065714Y-81728571D01*
X110637142Y-81728571D01*
X110780000Y-81800000D01*
X110851428Y-81871428D01*
X110922857Y-82014285D01*
X110922857Y-82228571D01*
X110851428Y-82371428D01*
X110780000Y-82442857D01*
X110637142Y-82514285D01*
X110065714Y-82514285D01*
X111780000Y-83228571D02*
X111637142Y-83157142D01*
X111565714Y-83085714D01*
X111494285Y-82942857D01*
X111494285Y-82514285D01*
X111565714Y-82371428D01*
X111637142Y-82300000D01*
X111780000Y-82228571D01*
X111994285Y-82228571D01*
X112137142Y-82300000D01*
X112208571Y-82371428D01*
X112280000Y-82514285D01*
X112280000Y-82942857D01*
X112208571Y-83085714D01*
X112137142Y-83157142D01*
X111994285Y-83228571D01*
X111780000Y-83228571D01*
X112780000Y-82228571D02*
X113065714Y-83228571D01*
X113351428Y-82514285D01*
X113637142Y-83228571D01*
X113922857Y-82228571D01*
X115065714Y-83157142D02*
X114922857Y-83228571D01*
X114637142Y-83228571D01*
X114494285Y-83157142D01*
X114422857Y-83014285D01*
X114422857Y-82442857D01*
X114494285Y-82300000D01*
X114637142Y-82228571D01*
X114922857Y-82228571D01*
X115065714Y-82300000D01*
X115137142Y-82442857D01*
X115137142Y-82585714D01*
X114422857Y-82728571D01*
X115780000Y-83228571D02*
X115780000Y-82228571D01*
X115780000Y-82514285D02*
X115851428Y-82371428D01*
X115922857Y-82300000D01*
X116065714Y-82228571D01*
X116208571Y-82228571D01*
D11*
X174477936Y-67750000D02*
X178582064Y-67750000D01*
X174477936Y-64330000D02*
X178582064Y-64330000D01*
X187881515Y-63500000D02*
G75*
G03X187881515Y-63500000I-3301515J0D01*
G01*
X116670000Y-66100000D02*
X116670000Y-65050000D01*
X115620000Y-65050000D02*
X116670000Y-65050000D01*
X110570000Y-74450000D02*
X101770000Y-74450000D01*
X101770000Y-74450000D02*
X101770000Y-65250000D01*
X116470000Y-71750000D02*
X116470000Y-74450000D01*
X116470000Y-74450000D02*
X114570000Y-74450000D01*
X101770000Y-65250000D02*
X116470000Y-65250000D01*
X116470000Y-65250000D02*
X116470000Y-67850000D01*
X119641252Y-114860000D02*
X119118748Y-114860000D01*
X119641252Y-116280000D02*
X119118748Y-116280000D01*
X134905001Y-71395001D02*
X134905001Y-68855001D01*
X134905001Y-68855001D02*
X132235001Y-68855001D01*
X132235001Y-71395001D02*
X132235001Y-109625001D01*
X132235001Y-66185001D02*
X132235001Y-68855001D01*
X147605001Y-68855001D02*
X150275001Y-68855001D01*
X147605001Y-68855001D02*
X147605001Y-106955001D01*
X147605001Y-106955001D02*
X150275001Y-106955001D01*
X134905001Y-71395001D02*
X132235001Y-71395001D01*
X134905001Y-71395001D02*
X134905001Y-106955001D01*
X134905001Y-106955001D02*
X132235001Y-106955001D01*
X132235001Y-109625001D02*
X150275001Y-109625001D01*
X150275001Y-109625001D02*
X150275001Y-66185001D01*
X150275001Y-66185001D02*
X132235001Y-66185001D01*
X130500000Y-122920000D02*
X130500000Y-120060000D01*
X130500000Y-120060000D02*
X128580000Y-120060000D01*
X128580000Y-120060000D02*
X128580000Y-122920000D01*
X137470000Y-120060000D02*
X137470000Y-122920000D01*
X139390000Y-120060000D02*
X137470000Y-120060000D01*
X139390000Y-122920000D02*
X139390000Y-120060000D01*
X146360000Y-120060000D02*
X146360000Y-122920000D01*
X148280000Y-120060000D02*
X146360000Y-120060000D01*
X148280000Y-122920000D02*
X148280000Y-120060000D01*
X157170000Y-122920000D02*
X157170000Y-120060000D01*
X157170000Y-120060000D02*
X155250000Y-120060000D01*
X155250000Y-120060000D02*
X155250000Y-122920000D01*
X164140000Y-120060000D02*
X164140000Y-122920000D01*
X166060000Y-120060000D02*
X164140000Y-120060000D01*
X166060000Y-122920000D02*
X166060000Y-120060000D01*
X174950000Y-122920000D02*
X174950000Y-120060000D01*
X174950000Y-120060000D02*
X173030000Y-120060000D01*
X173030000Y-120060000D02*
X173030000Y-122920000D01*
X107680000Y-81590000D02*
X104820000Y-81590000D01*
X104820000Y-81590000D02*
X104820000Y-83510000D01*
X104820000Y-83510000D02*
X107680000Y-83510000D01*
X104820000Y-88590000D02*
X107680000Y-88590000D01*
X104820000Y-86670000D02*
X104820000Y-88590000D01*
X107680000Y-86670000D02*
X104820000Y-86670000D01*
X107680000Y-91750000D02*
X104820000Y-91750000D01*
X104820000Y-91750000D02*
X104820000Y-93670000D01*
X104820000Y-93670000D02*
X107680000Y-93670000D01*
X104575000Y-98750000D02*
X107435000Y-98750000D01*
X104575000Y-96830000D02*
X104575000Y-98750000D01*
X107435000Y-96830000D02*
X104575000Y-96830000D01*
X107435000Y-101910000D02*
X104575000Y-101910000D01*
X104575000Y-101910000D02*
X104575000Y-103830000D01*
X104575000Y-103830000D02*
X107435000Y-103830000D01*
X104575000Y-108910000D02*
X107435000Y-108910000D01*
X104575000Y-106990000D02*
X104575000Y-108910000D01*
X107435000Y-106990000D02*
X104575000Y-106990000D01*
X161230000Y-91500000D02*
X163890000Y-91500000D01*
X161230000Y-83820000D02*
X161230000Y-91500000D01*
X163890000Y-83820000D02*
X163890000Y-91500000D01*
X161230000Y-83820000D02*
X163890000Y-83820000D01*
X161230000Y-82550000D02*
X161230000Y-81220000D01*
X161230000Y-81220000D02*
X162560000Y-81220000D01*
X126940000Y-74990000D02*
X129600000Y-74990000D01*
X126940000Y-72390000D02*
X126940000Y-74990000D01*
X129600000Y-72390000D02*
X129600000Y-74990000D01*
X126940000Y-72390000D02*
X129600000Y-72390000D01*
X126940000Y-71120000D02*
X126940000Y-69790000D01*
X126940000Y-69790000D02*
X128270000Y-69790000D01*
X124198748Y-83260000D02*
X124721252Y-83260000D01*
X124198748Y-81840000D02*
X124721252Y-81840000D01*
X124198748Y-86920000D02*
X124721252Y-86920000D01*
X124198748Y-88340000D02*
X124721252Y-88340000D01*
X124198748Y-93420000D02*
X124721252Y-93420000D01*
X124198748Y-92000000D02*
X124721252Y-92000000D01*
X124198748Y-97080000D02*
X124721252Y-97080000D01*
X124198748Y-98500000D02*
X124721252Y-98500000D01*
X124198748Y-103580000D02*
X124721252Y-103580000D01*
X124198748Y-102160000D02*
X124721252Y-102160000D01*
X124198748Y-107240000D02*
X124721252Y-107240000D01*
X124198748Y-108660000D02*
X124721252Y-108660000D01*
X164838748Y-107390000D02*
X165361252Y-107390000D01*
X164838748Y-105970000D02*
X165361252Y-105970000D01*
X174998748Y-105970000D02*
X175521252Y-105970000D01*
X174998748Y-107390000D02*
X175521252Y-107390000D01*
X185158748Y-107390000D02*
X185681252Y-107390000D01*
X185158748Y-105970000D02*
X185681252Y-105970000D01*
X195318748Y-105970000D02*
X195841252Y-105970000D01*
X195318748Y-107390000D02*
X195841252Y-107390000D01*
X121860000Y-58360000D02*
X121860000Y-61020000D01*
X127000000Y-58360000D02*
X121860000Y-58360000D01*
X127000000Y-61020000D02*
X121860000Y-61020000D01*
X127000000Y-58360000D02*
X127000000Y-61020000D01*
X128270000Y-58360000D02*
X129600000Y-58360000D01*
X129600000Y-58360000D02*
X129600000Y-59690000D01*
X150860000Y-63920000D02*
X155360000Y-63920000D01*
X149610000Y-59920000D02*
X149610000Y-61420000D01*
X155360000Y-57420000D02*
X150860000Y-57420000D01*
X156610000Y-61420000D02*
X156610000Y-59920000D01*
X161020000Y-104560000D02*
X165520000Y-104560000D01*
X159770000Y-100560000D02*
X159770000Y-102060000D01*
X165520000Y-98060000D02*
X161020000Y-98060000D01*
X166770000Y-102060000D02*
X166770000Y-100560000D01*
X176930000Y-102060000D02*
X176930000Y-100560000D01*
X175680000Y-98060000D02*
X171180000Y-98060000D01*
X169930000Y-100560000D02*
X169930000Y-102060000D01*
X171180000Y-104560000D02*
X175680000Y-104560000D01*
X187090000Y-102060000D02*
X187090000Y-100560000D01*
X185840000Y-98060000D02*
X181340000Y-98060000D01*
X180090000Y-100560000D02*
X180090000Y-102060000D01*
X181340000Y-104560000D02*
X185840000Y-104560000D01*
X191500000Y-104560000D02*
X196000000Y-104560000D01*
X190250000Y-100560000D02*
X190250000Y-102060000D01*
X196000000Y-98060000D02*
X191500000Y-98060000D01*
X197250000Y-102060000D02*
X197250000Y-100560000D01*
X112720000Y-122920000D02*
X112720000Y-120060000D01*
X112720000Y-120060000D02*
X110800000Y-120060000D01*
X110800000Y-120060000D02*
X110800000Y-122920000D01*
X119690000Y-120060000D02*
X119690000Y-122920000D01*
X121610000Y-120060000D02*
X119690000Y-120060000D01*
X121610000Y-122920000D02*
X121610000Y-120060000D01*
X181920000Y-120060000D02*
X181920000Y-122920000D01*
X183840000Y-120060000D02*
X181920000Y-120060000D01*
X183840000Y-122920000D02*
X183840000Y-120060000D01*
X192730000Y-122920000D02*
X192730000Y-120060000D01*
X192730000Y-120060000D02*
X190810000Y-120060000D01*
X190810000Y-120060000D02*
X190810000Y-122920000D01*
X103560000Y-113770000D02*
X103560000Y-117370000D01*
X103571522Y-113731522D02*
G75*
G02X108010000Y-115570000I1838478J-1838478D01*
G01*
X103571522Y-117408478D02*
G75*
G03X108010000Y-115570000I1838478J1838478D01*
G01*
X106120000Y-121658748D02*
X106120000Y-122181252D01*
X104700000Y-121658748D02*
X104700000Y-122181252D01*
X177860000Y-61020000D02*
X177860000Y-58360000D01*
X172720000Y-61020000D02*
X177860000Y-61020000D01*
X172720000Y-58360000D02*
X177860000Y-58360000D01*
X172720000Y-61020000D02*
X172720000Y-58360000D01*
X171450000Y-61020000D02*
X170120000Y-61020000D01*
X170120000Y-61020000D02*
X170120000Y-59690000D01*
X141030000Y-61020000D02*
X141030000Y-58360000D01*
X138430000Y-61020000D02*
X141030000Y-61020000D01*
X138430000Y-58360000D02*
X141030000Y-58360000D01*
X138430000Y-61020000D02*
X138430000Y-58360000D01*
X137160000Y-61020000D02*
X135830000Y-61020000D01*
X135830000Y-61020000D02*
X135830000Y-59690000D01*
X146890000Y-113550000D02*
X146890000Y-117400000D01*
X146899878Y-117438611D02*
G75*
G03X146890000Y-113550000I1690122J1948611D01*
G01*
X153610000Y-99120000D02*
X156270000Y-99120000D01*
X153610000Y-99060000D02*
X153610000Y-99120000D01*
X156270000Y-99060000D02*
X156270000Y-99120000D01*
X153610000Y-99060000D02*
X156270000Y-99060000D01*
X153610000Y-97790000D02*
X153610000Y-96460000D01*
X153610000Y-96460000D02*
X154940000Y-96460000D01*
X119440000Y-61020000D02*
X119440000Y-58360000D01*
X114300000Y-61020000D02*
X119440000Y-61020000D01*
X114300000Y-58360000D02*
X119440000Y-58360000D01*
X114300000Y-61020000D02*
X114300000Y-58360000D01*
X113030000Y-61020000D02*
X111700000Y-61020000D01*
X111700000Y-61020000D02*
X111700000Y-59690000D01*
X167700000Y-58360000D02*
X167700000Y-59690000D01*
X166370000Y-58360000D02*
X167700000Y-58360000D01*
X165100000Y-58360000D02*
X165100000Y-61020000D01*
X165100000Y-61020000D02*
X159960000Y-61020000D01*
X165100000Y-58360000D02*
X159960000Y-58360000D01*
X159960000Y-58360000D02*
X159960000Y-61020000D01*
D13*
X175887142Y-64842380D02*
X175553809Y-64366190D01*
X175315714Y-64842380D02*
X175315714Y-63842380D01*
X175696666Y-63842380D01*
X175791904Y-63890000D01*
X175839523Y-63937619D01*
X175887142Y-64032857D01*
X175887142Y-64175714D01*
X175839523Y-64270952D01*
X175791904Y-64318571D01*
X175696666Y-64366190D01*
X175315714Y-64366190D01*
X176839523Y-64842380D02*
X176268095Y-64842380D01*
X176553809Y-64842380D02*
X176553809Y-63842380D01*
X176458571Y-63985238D01*
X176363333Y-64080476D01*
X176268095Y-64128095D01*
X177220476Y-63937619D02*
X177268095Y-63890000D01*
X177363333Y-63842380D01*
X177601428Y-63842380D01*
X177696666Y-63890000D01*
X177744285Y-63937619D01*
X177791904Y-64032857D01*
X177791904Y-64128095D01*
X177744285Y-64270952D01*
X177172857Y-64842380D01*
X177791904Y-64842380D01*
X183937142Y-59952380D02*
X183603809Y-59476190D01*
X183365714Y-59952380D02*
X183365714Y-58952380D01*
X183746666Y-58952380D01*
X183841904Y-59000000D01*
X183889523Y-59047619D01*
X183937142Y-59142857D01*
X183937142Y-59285714D01*
X183889523Y-59380952D01*
X183841904Y-59428571D01*
X183746666Y-59476190D01*
X183365714Y-59476190D01*
X184889523Y-59952380D02*
X184318095Y-59952380D01*
X184603809Y-59952380D02*
X184603809Y-58952380D01*
X184508571Y-59095238D01*
X184413333Y-59190476D01*
X184318095Y-59238095D01*
X185222857Y-58952380D02*
X185841904Y-58952380D01*
X185508571Y-59333333D01*
X185651428Y-59333333D01*
X185746666Y-59380952D01*
X185794285Y-59428571D01*
X185841904Y-59523809D01*
X185841904Y-59761904D01*
X185794285Y-59857142D01*
X185746666Y-59904761D01*
X185651428Y-59952380D01*
X185365714Y-59952380D01*
X185270476Y-59904761D01*
X185222857Y-59857142D01*
X106786666Y-73112380D02*
X106786666Y-73826666D01*
X106739047Y-73969523D01*
X106643809Y-74064761D01*
X106500952Y-74112380D01*
X106405714Y-74112380D01*
X107739047Y-73112380D02*
X107262857Y-73112380D01*
X107215238Y-73588571D01*
X107262857Y-73540952D01*
X107358095Y-73493333D01*
X107596190Y-73493333D01*
X107691428Y-73540952D01*
X107739047Y-73588571D01*
X107786666Y-73683809D01*
X107786666Y-73921904D01*
X107739047Y-74017142D01*
X107691428Y-74064761D01*
X107596190Y-74112380D01*
X107358095Y-74112380D01*
X107262857Y-74064761D01*
X107215238Y-74017142D01*
X118737142Y-117672380D02*
X118403809Y-117196190D01*
X118165714Y-117672380D02*
X118165714Y-116672380D01*
X118546666Y-116672380D01*
X118641904Y-116720000D01*
X118689523Y-116767619D01*
X118737142Y-116862857D01*
X118737142Y-117005714D01*
X118689523Y-117100952D01*
X118641904Y-117148571D01*
X118546666Y-117196190D01*
X118165714Y-117196190D01*
X119689523Y-117672380D02*
X119118095Y-117672380D01*
X119403809Y-117672380D02*
X119403809Y-116672380D01*
X119308571Y-116815238D01*
X119213333Y-116910476D01*
X119118095Y-116958095D01*
X120546666Y-117005714D02*
X120546666Y-117672380D01*
X120308571Y-116624761D02*
X120070476Y-117339047D01*
X120689523Y-117339047D01*
X138183572Y-82716666D02*
X138659762Y-82716666D01*
X138088334Y-83002380D02*
X138421667Y-82002380D01*
X138755001Y-83002380D01*
X139088334Y-83002380D02*
X139088334Y-82335714D01*
X139088334Y-82526190D02*
X139135953Y-82430952D01*
X139183572Y-82383333D01*
X139278810Y-82335714D01*
X139374048Y-82335714D01*
X140135953Y-83002380D02*
X140135953Y-82002380D01*
X140135953Y-82954761D02*
X140040715Y-83002380D01*
X139850239Y-83002380D01*
X139755001Y-82954761D01*
X139707381Y-82907142D01*
X139659762Y-82811904D01*
X139659762Y-82526190D01*
X139707381Y-82430952D01*
X139755001Y-82383333D01*
X139850239Y-82335714D01*
X140040715Y-82335714D01*
X140135953Y-82383333D01*
X141040715Y-82335714D02*
X141040715Y-83002380D01*
X140612143Y-82335714D02*
X140612143Y-82859523D01*
X140659762Y-82954761D01*
X140755001Y-83002380D01*
X140897858Y-83002380D01*
X140993096Y-82954761D01*
X141040715Y-82907142D01*
X141516905Y-83002380D02*
X141516905Y-82335714D01*
X141516905Y-82002380D02*
X141469286Y-82050000D01*
X141516905Y-82097619D01*
X141564524Y-82050000D01*
X141516905Y-82002380D01*
X141516905Y-82097619D01*
X141993096Y-82335714D02*
X141993096Y-83002380D01*
X141993096Y-82430952D02*
X142040715Y-82383333D01*
X142135953Y-82335714D01*
X142278810Y-82335714D01*
X142374048Y-82383333D01*
X142421667Y-82478571D01*
X142421667Y-83002380D01*
X143040715Y-83002380D02*
X142945477Y-82954761D01*
X142897858Y-82907142D01*
X142850239Y-82811904D01*
X142850239Y-82526190D01*
X142897858Y-82430952D01*
X142945477Y-82383333D01*
X143040715Y-82335714D01*
X143183572Y-82335714D01*
X143278810Y-82383333D01*
X143326429Y-82430952D01*
X143374048Y-82526190D01*
X143374048Y-82811904D01*
X143326429Y-82907142D01*
X143278810Y-82954761D01*
X143183572Y-83002380D01*
X143040715Y-83002380D01*
X144326429Y-83002380D02*
X143755001Y-83002380D01*
X144040715Y-83002380D02*
X144040715Y-82002380D01*
X143945477Y-82145238D01*
X143850239Y-82240476D01*
X143755001Y-82288095D01*
X131642380Y-122658095D02*
X130642380Y-122658095D01*
X130642380Y-122420000D01*
X130690000Y-122277142D01*
X130785238Y-122181904D01*
X130880476Y-122134285D01*
X131070952Y-122086666D01*
X131213809Y-122086666D01*
X131404285Y-122134285D01*
X131499523Y-122181904D01*
X131594761Y-122277142D01*
X131642380Y-122420000D01*
X131642380Y-122658095D01*
X130642380Y-121753333D02*
X130642380Y-121134285D01*
X131023333Y-121467619D01*
X131023333Y-121324761D01*
X131070952Y-121229523D01*
X131118571Y-121181904D01*
X131213809Y-121134285D01*
X131451904Y-121134285D01*
X131547142Y-121181904D01*
X131594761Y-121229523D01*
X131642380Y-121324761D01*
X131642380Y-121610476D01*
X131594761Y-121705714D01*
X131547142Y-121753333D01*
X140532380Y-122658095D02*
X139532380Y-122658095D01*
X139532380Y-122420000D01*
X139580000Y-122277142D01*
X139675238Y-122181904D01*
X139770476Y-122134285D01*
X139960952Y-122086666D01*
X140103809Y-122086666D01*
X140294285Y-122134285D01*
X140389523Y-122181904D01*
X140484761Y-122277142D01*
X140532380Y-122420000D01*
X140532380Y-122658095D01*
X139865714Y-121229523D02*
X140532380Y-121229523D01*
X139484761Y-121467619D02*
X140199047Y-121705714D01*
X140199047Y-121086666D01*
X149422380Y-122658095D02*
X148422380Y-122658095D01*
X148422380Y-122420000D01*
X148470000Y-122277142D01*
X148565238Y-122181904D01*
X148660476Y-122134285D01*
X148850952Y-122086666D01*
X148993809Y-122086666D01*
X149184285Y-122134285D01*
X149279523Y-122181904D01*
X149374761Y-122277142D01*
X149422380Y-122420000D01*
X149422380Y-122658095D01*
X148422380Y-121181904D02*
X148422380Y-121658095D01*
X148898571Y-121705714D01*
X148850952Y-121658095D01*
X148803333Y-121562857D01*
X148803333Y-121324761D01*
X148850952Y-121229523D01*
X148898571Y-121181904D01*
X148993809Y-121134285D01*
X149231904Y-121134285D01*
X149327142Y-121181904D01*
X149374761Y-121229523D01*
X149422380Y-121324761D01*
X149422380Y-121562857D01*
X149374761Y-121658095D01*
X149327142Y-121705714D01*
X158312380Y-122658095D02*
X157312380Y-122658095D01*
X157312380Y-122420000D01*
X157360000Y-122277142D01*
X157455238Y-122181904D01*
X157550476Y-122134285D01*
X157740952Y-122086666D01*
X157883809Y-122086666D01*
X158074285Y-122134285D01*
X158169523Y-122181904D01*
X158264761Y-122277142D01*
X158312380Y-122420000D01*
X158312380Y-122658095D01*
X157312380Y-121229523D02*
X157312380Y-121420000D01*
X157360000Y-121515238D01*
X157407619Y-121562857D01*
X157550476Y-121658095D01*
X157740952Y-121705714D01*
X158121904Y-121705714D01*
X158217142Y-121658095D01*
X158264761Y-121610476D01*
X158312380Y-121515238D01*
X158312380Y-121324761D01*
X158264761Y-121229523D01*
X158217142Y-121181904D01*
X158121904Y-121134285D01*
X157883809Y-121134285D01*
X157788571Y-121181904D01*
X157740952Y-121229523D01*
X157693333Y-121324761D01*
X157693333Y-121515238D01*
X157740952Y-121610476D01*
X157788571Y-121658095D01*
X157883809Y-121705714D01*
X167202380Y-122658095D02*
X166202380Y-122658095D01*
X166202380Y-122420000D01*
X166250000Y-122277142D01*
X166345238Y-122181904D01*
X166440476Y-122134285D01*
X166630952Y-122086666D01*
X166773809Y-122086666D01*
X166964285Y-122134285D01*
X167059523Y-122181904D01*
X167154761Y-122277142D01*
X167202380Y-122420000D01*
X167202380Y-122658095D01*
X166202380Y-121753333D02*
X166202380Y-121086666D01*
X167202380Y-121515238D01*
X176092380Y-122658095D02*
X175092380Y-122658095D01*
X175092380Y-122420000D01*
X175140000Y-122277142D01*
X175235238Y-122181904D01*
X175330476Y-122134285D01*
X175520952Y-122086666D01*
X175663809Y-122086666D01*
X175854285Y-122134285D01*
X175949523Y-122181904D01*
X176044761Y-122277142D01*
X176092380Y-122420000D01*
X176092380Y-122658095D01*
X175520952Y-121515238D02*
X175473333Y-121610476D01*
X175425714Y-121658095D01*
X175330476Y-121705714D01*
X175282857Y-121705714D01*
X175187619Y-121658095D01*
X175140000Y-121610476D01*
X175092380Y-121515238D01*
X175092380Y-121324761D01*
X175140000Y-121229523D01*
X175187619Y-121181904D01*
X175282857Y-121134285D01*
X175330476Y-121134285D01*
X175425714Y-121181904D01*
X175473333Y-121229523D01*
X175520952Y-121324761D01*
X175520952Y-121515238D01*
X175568571Y-121610476D01*
X175616190Y-121658095D01*
X175711428Y-121705714D01*
X175901904Y-121705714D01*
X175997142Y-121658095D01*
X176044761Y-121610476D01*
X176092380Y-121515238D01*
X176092380Y-121324761D01*
X176044761Y-121229523D01*
X175997142Y-121181904D01*
X175901904Y-121134285D01*
X175711428Y-121134285D01*
X175616190Y-121181904D01*
X175568571Y-121229523D01*
X175520952Y-121324761D01*
X105941904Y-81352380D02*
X105941904Y-80352380D01*
X106180000Y-80352380D01*
X106322857Y-80400000D01*
X106418095Y-80495238D01*
X106465714Y-80590476D01*
X106513333Y-80780952D01*
X106513333Y-80923809D01*
X106465714Y-81114285D01*
X106418095Y-81209523D01*
X106322857Y-81304761D01*
X106180000Y-81352380D01*
X105941904Y-81352380D01*
X106989523Y-81352380D02*
X107180000Y-81352380D01*
X107275238Y-81304761D01*
X107322857Y-81257142D01*
X107418095Y-81114285D01*
X107465714Y-80923809D01*
X107465714Y-80542857D01*
X107418095Y-80447619D01*
X107370476Y-80400000D01*
X107275238Y-80352380D01*
X107084761Y-80352380D01*
X106989523Y-80400000D01*
X106941904Y-80447619D01*
X106894285Y-80542857D01*
X106894285Y-80780952D01*
X106941904Y-80876190D01*
X106989523Y-80923809D01*
X107084761Y-80971428D01*
X107275238Y-80971428D01*
X107370476Y-80923809D01*
X107418095Y-80876190D01*
X107465714Y-80780952D01*
X105465714Y-86432380D02*
X105465714Y-85432380D01*
X105703809Y-85432380D01*
X105846666Y-85480000D01*
X105941904Y-85575238D01*
X105989523Y-85670476D01*
X106037142Y-85860952D01*
X106037142Y-86003809D01*
X105989523Y-86194285D01*
X105941904Y-86289523D01*
X105846666Y-86384761D01*
X105703809Y-86432380D01*
X105465714Y-86432380D01*
X106989523Y-86432380D02*
X106418095Y-86432380D01*
X106703809Y-86432380D02*
X106703809Y-85432380D01*
X106608571Y-85575238D01*
X106513333Y-85670476D01*
X106418095Y-85718095D01*
X107608571Y-85432380D02*
X107703809Y-85432380D01*
X107799047Y-85480000D01*
X107846666Y-85527619D01*
X107894285Y-85622857D01*
X107941904Y-85813333D01*
X107941904Y-86051428D01*
X107894285Y-86241904D01*
X107846666Y-86337142D01*
X107799047Y-86384761D01*
X107703809Y-86432380D01*
X107608571Y-86432380D01*
X107513333Y-86384761D01*
X107465714Y-86337142D01*
X107418095Y-86241904D01*
X107370476Y-86051428D01*
X107370476Y-85813333D01*
X107418095Y-85622857D01*
X107465714Y-85527619D01*
X107513333Y-85480000D01*
X107608571Y-85432380D01*
X105465714Y-91512380D02*
X105465714Y-90512380D01*
X105703809Y-90512380D01*
X105846666Y-90560000D01*
X105941904Y-90655238D01*
X105989523Y-90750476D01*
X106037142Y-90940952D01*
X106037142Y-91083809D01*
X105989523Y-91274285D01*
X105941904Y-91369523D01*
X105846666Y-91464761D01*
X105703809Y-91512380D01*
X105465714Y-91512380D01*
X106989523Y-91512380D02*
X106418095Y-91512380D01*
X106703809Y-91512380D02*
X106703809Y-90512380D01*
X106608571Y-90655238D01*
X106513333Y-90750476D01*
X106418095Y-90798095D01*
X107941904Y-91512380D02*
X107370476Y-91512380D01*
X107656190Y-91512380D02*
X107656190Y-90512380D01*
X107560952Y-90655238D01*
X107465714Y-90750476D01*
X107370476Y-90798095D01*
X105220714Y-96592380D02*
X105220714Y-95592380D01*
X105458809Y-95592380D01*
X105601666Y-95640000D01*
X105696904Y-95735238D01*
X105744523Y-95830476D01*
X105792142Y-96020952D01*
X105792142Y-96163809D01*
X105744523Y-96354285D01*
X105696904Y-96449523D01*
X105601666Y-96544761D01*
X105458809Y-96592380D01*
X105220714Y-96592380D01*
X106744523Y-96592380D02*
X106173095Y-96592380D01*
X106458809Y-96592380D02*
X106458809Y-95592380D01*
X106363571Y-95735238D01*
X106268333Y-95830476D01*
X106173095Y-95878095D01*
X107125476Y-95687619D02*
X107173095Y-95640000D01*
X107268333Y-95592380D01*
X107506428Y-95592380D01*
X107601666Y-95640000D01*
X107649285Y-95687619D01*
X107696904Y-95782857D01*
X107696904Y-95878095D01*
X107649285Y-96020952D01*
X107077857Y-96592380D01*
X107696904Y-96592380D01*
X105220714Y-101672380D02*
X105220714Y-100672380D01*
X105458809Y-100672380D01*
X105601666Y-100720000D01*
X105696904Y-100815238D01*
X105744523Y-100910476D01*
X105792142Y-101100952D01*
X105792142Y-101243809D01*
X105744523Y-101434285D01*
X105696904Y-101529523D01*
X105601666Y-101624761D01*
X105458809Y-101672380D01*
X105220714Y-101672380D01*
X106744523Y-101672380D02*
X106173095Y-101672380D01*
X106458809Y-101672380D02*
X106458809Y-100672380D01*
X106363571Y-100815238D01*
X106268333Y-100910476D01*
X106173095Y-100958095D01*
X107077857Y-100672380D02*
X107696904Y-100672380D01*
X107363571Y-101053333D01*
X107506428Y-101053333D01*
X107601666Y-101100952D01*
X107649285Y-101148571D01*
X107696904Y-101243809D01*
X107696904Y-101481904D01*
X107649285Y-101577142D01*
X107601666Y-101624761D01*
X107506428Y-101672380D01*
X107220714Y-101672380D01*
X107125476Y-101624761D01*
X107077857Y-101577142D01*
X105220714Y-106752380D02*
X105220714Y-105752380D01*
X105458809Y-105752380D01*
X105601666Y-105800000D01*
X105696904Y-105895238D01*
X105744523Y-105990476D01*
X105792142Y-106180952D01*
X105792142Y-106323809D01*
X105744523Y-106514285D01*
X105696904Y-106609523D01*
X105601666Y-106704761D01*
X105458809Y-106752380D01*
X105220714Y-106752380D01*
X106744523Y-106752380D02*
X106173095Y-106752380D01*
X106458809Y-106752380D02*
X106458809Y-105752380D01*
X106363571Y-105895238D01*
X106268333Y-105990476D01*
X106173095Y-106038095D01*
X107601666Y-106085714D02*
X107601666Y-106752380D01*
X107363571Y-105704761D02*
X107125476Y-106419047D01*
X107744523Y-106419047D01*
X164711428Y-86812380D02*
X164711428Y-85812380D01*
X164949523Y-85812380D01*
X165092380Y-85860000D01*
X165187619Y-85955238D01*
X165235238Y-86050476D01*
X165282857Y-86240952D01*
X165282857Y-86383809D01*
X165235238Y-86574285D01*
X165187619Y-86669523D01*
X165092380Y-86764761D01*
X164949523Y-86812380D01*
X164711428Y-86812380D01*
X165711428Y-86812380D02*
X165711428Y-86145714D01*
X165711428Y-85812380D02*
X165663809Y-85860000D01*
X165711428Y-85907619D01*
X165759047Y-85860000D01*
X165711428Y-85812380D01*
X165711428Y-85907619D01*
X166140000Y-86764761D02*
X166235238Y-86812380D01*
X166425714Y-86812380D01*
X166520952Y-86764761D01*
X166568571Y-86669523D01*
X166568571Y-86621904D01*
X166520952Y-86526666D01*
X166425714Y-86479047D01*
X166282857Y-86479047D01*
X166187619Y-86431428D01*
X166140000Y-86336190D01*
X166140000Y-86288571D01*
X166187619Y-86193333D01*
X166282857Y-86145714D01*
X166425714Y-86145714D01*
X166520952Y-86193333D01*
X166997142Y-86145714D02*
X166997142Y-87145714D01*
X166997142Y-86193333D02*
X167092380Y-86145714D01*
X167282857Y-86145714D01*
X167378095Y-86193333D01*
X167425714Y-86240952D01*
X167473333Y-86336190D01*
X167473333Y-86621904D01*
X167425714Y-86717142D01*
X167378095Y-86764761D01*
X167282857Y-86812380D01*
X167092380Y-86812380D01*
X166997142Y-86764761D01*
X168044761Y-86812380D02*
X167949523Y-86764761D01*
X167901904Y-86669523D01*
X167901904Y-85812380D01*
X168854285Y-86812380D02*
X168854285Y-86288571D01*
X168806666Y-86193333D01*
X168711428Y-86145714D01*
X168520952Y-86145714D01*
X168425714Y-86193333D01*
X168854285Y-86764761D02*
X168759047Y-86812380D01*
X168520952Y-86812380D01*
X168425714Y-86764761D01*
X168378095Y-86669523D01*
X168378095Y-86574285D01*
X168425714Y-86479047D01*
X168520952Y-86431428D01*
X168759047Y-86431428D01*
X168854285Y-86383809D01*
X169235238Y-86145714D02*
X169473333Y-86812380D01*
X169711428Y-86145714D02*
X169473333Y-86812380D01*
X169378095Y-87050476D01*
X169330476Y-87098095D01*
X169235238Y-87145714D01*
X170616190Y-86812380D02*
X170044761Y-86812380D01*
X170330476Y-86812380D02*
X170330476Y-85812380D01*
X170235238Y-85955238D01*
X170140000Y-86050476D01*
X170044761Y-86098095D01*
X125182380Y-73993333D02*
X125896666Y-73993333D01*
X126039523Y-74040952D01*
X126134761Y-74136190D01*
X126182380Y-74279047D01*
X126182380Y-74374285D01*
X125182380Y-73612380D02*
X125182380Y-72993333D01*
X125563333Y-73326666D01*
X125563333Y-73183809D01*
X125610952Y-73088571D01*
X125658571Y-73040952D01*
X125753809Y-72993333D01*
X125991904Y-72993333D01*
X126087142Y-73040952D01*
X126134761Y-73088571D01*
X126182380Y-73183809D01*
X126182380Y-73469523D01*
X126134761Y-73564761D01*
X126087142Y-73612380D01*
X124293333Y-81352380D02*
X123960000Y-80876190D01*
X123721904Y-81352380D02*
X123721904Y-80352380D01*
X124102857Y-80352380D01*
X124198095Y-80400000D01*
X124245714Y-80447619D01*
X124293333Y-80542857D01*
X124293333Y-80685714D01*
X124245714Y-80780952D01*
X124198095Y-80828571D01*
X124102857Y-80876190D01*
X123721904Y-80876190D01*
X125245714Y-81352380D02*
X124674285Y-81352380D01*
X124960000Y-81352380D02*
X124960000Y-80352380D01*
X124864761Y-80495238D01*
X124769523Y-80590476D01*
X124674285Y-80638095D01*
X124293333Y-86432380D02*
X123960000Y-85956190D01*
X123721904Y-86432380D02*
X123721904Y-85432380D01*
X124102857Y-85432380D01*
X124198095Y-85480000D01*
X124245714Y-85527619D01*
X124293333Y-85622857D01*
X124293333Y-85765714D01*
X124245714Y-85860952D01*
X124198095Y-85908571D01*
X124102857Y-85956190D01*
X123721904Y-85956190D01*
X124674285Y-85527619D02*
X124721904Y-85480000D01*
X124817142Y-85432380D01*
X125055238Y-85432380D01*
X125150476Y-85480000D01*
X125198095Y-85527619D01*
X125245714Y-85622857D01*
X125245714Y-85718095D01*
X125198095Y-85860952D01*
X124626666Y-86432380D01*
X125245714Y-86432380D01*
X124293333Y-91512380D02*
X123960000Y-91036190D01*
X123721904Y-91512380D02*
X123721904Y-90512380D01*
X124102857Y-90512380D01*
X124198095Y-90560000D01*
X124245714Y-90607619D01*
X124293333Y-90702857D01*
X124293333Y-90845714D01*
X124245714Y-90940952D01*
X124198095Y-90988571D01*
X124102857Y-91036190D01*
X123721904Y-91036190D01*
X124626666Y-90512380D02*
X125245714Y-90512380D01*
X124912380Y-90893333D01*
X125055238Y-90893333D01*
X125150476Y-90940952D01*
X125198095Y-90988571D01*
X125245714Y-91083809D01*
X125245714Y-91321904D01*
X125198095Y-91417142D01*
X125150476Y-91464761D01*
X125055238Y-91512380D01*
X124769523Y-91512380D01*
X124674285Y-91464761D01*
X124626666Y-91417142D01*
X124293333Y-96592380D02*
X123960000Y-96116190D01*
X123721904Y-96592380D02*
X123721904Y-95592380D01*
X124102857Y-95592380D01*
X124198095Y-95640000D01*
X124245714Y-95687619D01*
X124293333Y-95782857D01*
X124293333Y-95925714D01*
X124245714Y-96020952D01*
X124198095Y-96068571D01*
X124102857Y-96116190D01*
X123721904Y-96116190D01*
X125150476Y-95925714D02*
X125150476Y-96592380D01*
X124912380Y-95544761D02*
X124674285Y-96259047D01*
X125293333Y-96259047D01*
X124293333Y-101672380D02*
X123960000Y-101196190D01*
X123721904Y-101672380D02*
X123721904Y-100672380D01*
X124102857Y-100672380D01*
X124198095Y-100720000D01*
X124245714Y-100767619D01*
X124293333Y-100862857D01*
X124293333Y-101005714D01*
X124245714Y-101100952D01*
X124198095Y-101148571D01*
X124102857Y-101196190D01*
X123721904Y-101196190D01*
X125198095Y-100672380D02*
X124721904Y-100672380D01*
X124674285Y-101148571D01*
X124721904Y-101100952D01*
X124817142Y-101053333D01*
X125055238Y-101053333D01*
X125150476Y-101100952D01*
X125198095Y-101148571D01*
X125245714Y-101243809D01*
X125245714Y-101481904D01*
X125198095Y-101577142D01*
X125150476Y-101624761D01*
X125055238Y-101672380D01*
X124817142Y-101672380D01*
X124721904Y-101624761D01*
X124674285Y-101577142D01*
X124293333Y-106752380D02*
X123960000Y-106276190D01*
X123721904Y-106752380D02*
X123721904Y-105752380D01*
X124102857Y-105752380D01*
X124198095Y-105800000D01*
X124245714Y-105847619D01*
X124293333Y-105942857D01*
X124293333Y-106085714D01*
X124245714Y-106180952D01*
X124198095Y-106228571D01*
X124102857Y-106276190D01*
X123721904Y-106276190D01*
X125150476Y-105752380D02*
X124960000Y-105752380D01*
X124864761Y-105800000D01*
X124817142Y-105847619D01*
X124721904Y-105990476D01*
X124674285Y-106180952D01*
X124674285Y-106561904D01*
X124721904Y-106657142D01*
X124769523Y-106704761D01*
X124864761Y-106752380D01*
X125055238Y-106752380D01*
X125150476Y-106704761D01*
X125198095Y-106657142D01*
X125245714Y-106561904D01*
X125245714Y-106323809D01*
X125198095Y-106228571D01*
X125150476Y-106180952D01*
X125055238Y-106133333D01*
X124864761Y-106133333D01*
X124769523Y-106180952D01*
X124721904Y-106228571D01*
X124674285Y-106323809D01*
X164933333Y-105482380D02*
X164600000Y-105006190D01*
X164361904Y-105482380D02*
X164361904Y-104482380D01*
X164742857Y-104482380D01*
X164838095Y-104530000D01*
X164885714Y-104577619D01*
X164933333Y-104672857D01*
X164933333Y-104815714D01*
X164885714Y-104910952D01*
X164838095Y-104958571D01*
X164742857Y-105006190D01*
X164361904Y-105006190D01*
X165504761Y-104910952D02*
X165409523Y-104863333D01*
X165361904Y-104815714D01*
X165314285Y-104720476D01*
X165314285Y-104672857D01*
X165361904Y-104577619D01*
X165409523Y-104530000D01*
X165504761Y-104482380D01*
X165695238Y-104482380D01*
X165790476Y-104530000D01*
X165838095Y-104577619D01*
X165885714Y-104672857D01*
X165885714Y-104720476D01*
X165838095Y-104815714D01*
X165790476Y-104863333D01*
X165695238Y-104910952D01*
X165504761Y-104910952D01*
X165409523Y-104958571D01*
X165361904Y-105006190D01*
X165314285Y-105101428D01*
X165314285Y-105291904D01*
X165361904Y-105387142D01*
X165409523Y-105434761D01*
X165504761Y-105482380D01*
X165695238Y-105482380D01*
X165790476Y-105434761D01*
X165838095Y-105387142D01*
X165885714Y-105291904D01*
X165885714Y-105101428D01*
X165838095Y-105006190D01*
X165790476Y-104958571D01*
X165695238Y-104910952D01*
X175093333Y-105482380D02*
X174760000Y-105006190D01*
X174521904Y-105482380D02*
X174521904Y-104482380D01*
X174902857Y-104482380D01*
X174998095Y-104530000D01*
X175045714Y-104577619D01*
X175093333Y-104672857D01*
X175093333Y-104815714D01*
X175045714Y-104910952D01*
X174998095Y-104958571D01*
X174902857Y-105006190D01*
X174521904Y-105006190D01*
X175569523Y-105482380D02*
X175760000Y-105482380D01*
X175855238Y-105434761D01*
X175902857Y-105387142D01*
X175998095Y-105244285D01*
X176045714Y-105053809D01*
X176045714Y-104672857D01*
X175998095Y-104577619D01*
X175950476Y-104530000D01*
X175855238Y-104482380D01*
X175664761Y-104482380D01*
X175569523Y-104530000D01*
X175521904Y-104577619D01*
X175474285Y-104672857D01*
X175474285Y-104910952D01*
X175521904Y-105006190D01*
X175569523Y-105053809D01*
X175664761Y-105101428D01*
X175855238Y-105101428D01*
X175950476Y-105053809D01*
X175998095Y-105006190D01*
X176045714Y-104910952D01*
X184777142Y-105482380D02*
X184443809Y-105006190D01*
X184205714Y-105482380D02*
X184205714Y-104482380D01*
X184586666Y-104482380D01*
X184681904Y-104530000D01*
X184729523Y-104577619D01*
X184777142Y-104672857D01*
X184777142Y-104815714D01*
X184729523Y-104910952D01*
X184681904Y-104958571D01*
X184586666Y-105006190D01*
X184205714Y-105006190D01*
X185729523Y-105482380D02*
X185158095Y-105482380D01*
X185443809Y-105482380D02*
X185443809Y-104482380D01*
X185348571Y-104625238D01*
X185253333Y-104720476D01*
X185158095Y-104768095D01*
X186348571Y-104482380D02*
X186443809Y-104482380D01*
X186539047Y-104530000D01*
X186586666Y-104577619D01*
X186634285Y-104672857D01*
X186681904Y-104863333D01*
X186681904Y-105101428D01*
X186634285Y-105291904D01*
X186586666Y-105387142D01*
X186539047Y-105434761D01*
X186443809Y-105482380D01*
X186348571Y-105482380D01*
X186253333Y-105434761D01*
X186205714Y-105387142D01*
X186158095Y-105291904D01*
X186110476Y-105101428D01*
X186110476Y-104863333D01*
X186158095Y-104672857D01*
X186205714Y-104577619D01*
X186253333Y-104530000D01*
X186348571Y-104482380D01*
X194937142Y-105482380D02*
X194603809Y-105006190D01*
X194365714Y-105482380D02*
X194365714Y-104482380D01*
X194746666Y-104482380D01*
X194841904Y-104530000D01*
X194889523Y-104577619D01*
X194937142Y-104672857D01*
X194937142Y-104815714D01*
X194889523Y-104910952D01*
X194841904Y-104958571D01*
X194746666Y-105006190D01*
X194365714Y-105006190D01*
X195889523Y-105482380D02*
X195318095Y-105482380D01*
X195603809Y-105482380D02*
X195603809Y-104482380D01*
X195508571Y-104625238D01*
X195413333Y-104720476D01*
X195318095Y-104768095D01*
X196841904Y-105482380D02*
X196270476Y-105482380D01*
X196556190Y-105482380D02*
X196556190Y-104482380D01*
X196460952Y-104625238D01*
X196365714Y-104720476D01*
X196270476Y-104768095D01*
X123777619Y-57602380D02*
X123444285Y-57126190D01*
X123206190Y-57602380D02*
X123206190Y-56602380D01*
X123587142Y-56602380D01*
X123682380Y-56650000D01*
X123730000Y-56697619D01*
X123777619Y-56792857D01*
X123777619Y-56935714D01*
X123730000Y-57030952D01*
X123682380Y-57078571D01*
X123587142Y-57126190D01*
X123206190Y-57126190D01*
X124587142Y-57554761D02*
X124491904Y-57602380D01*
X124301428Y-57602380D01*
X124206190Y-57554761D01*
X124158571Y-57459523D01*
X124158571Y-57078571D01*
X124206190Y-56983333D01*
X124301428Y-56935714D01*
X124491904Y-56935714D01*
X124587142Y-56983333D01*
X124634761Y-57078571D01*
X124634761Y-57173809D01*
X124158571Y-57269047D01*
X125206190Y-57602380D02*
X125110952Y-57554761D01*
X125063333Y-57459523D01*
X125063333Y-56602380D01*
X126015714Y-57602380D02*
X126015714Y-57078571D01*
X125968095Y-56983333D01*
X125872857Y-56935714D01*
X125682380Y-56935714D01*
X125587142Y-56983333D01*
X126015714Y-57554761D02*
X125920476Y-57602380D01*
X125682380Y-57602380D01*
X125587142Y-57554761D01*
X125539523Y-57459523D01*
X125539523Y-57364285D01*
X125587142Y-57269047D01*
X125682380Y-57221428D01*
X125920476Y-57221428D01*
X126015714Y-57173809D01*
X126491904Y-57602380D02*
X126491904Y-56935714D01*
X126491904Y-56602380D02*
X126444285Y-56650000D01*
X126491904Y-56697619D01*
X126539523Y-56650000D01*
X126491904Y-56602380D01*
X126491904Y-56697619D01*
X126920476Y-57554761D02*
X127015714Y-57602380D01*
X127206190Y-57602380D01*
X127301428Y-57554761D01*
X127349047Y-57459523D01*
X127349047Y-57411904D01*
X127301428Y-57316666D01*
X127206190Y-57269047D01*
X127063333Y-57269047D01*
X126968095Y-57221428D01*
X126920476Y-57126190D01*
X126920476Y-57078571D01*
X126968095Y-56983333D01*
X127063333Y-56935714D01*
X127206190Y-56935714D01*
X127301428Y-56983333D01*
X128301428Y-57602380D02*
X127730000Y-57602380D01*
X128015714Y-57602380D02*
X128015714Y-56602380D01*
X127920476Y-56745238D01*
X127825238Y-56840476D01*
X127730000Y-56888095D01*
X148348095Y-65222380D02*
X148014761Y-64746190D01*
X147776666Y-65222380D02*
X147776666Y-64222380D01*
X148157619Y-64222380D01*
X148252857Y-64270000D01*
X148300476Y-64317619D01*
X148348095Y-64412857D01*
X148348095Y-64555714D01*
X148300476Y-64650952D01*
X148252857Y-64698571D01*
X148157619Y-64746190D01*
X147776666Y-64746190D01*
X149157619Y-65174761D02*
X149062380Y-65222380D01*
X148871904Y-65222380D01*
X148776666Y-65174761D01*
X148729047Y-65079523D01*
X148729047Y-64698571D01*
X148776666Y-64603333D01*
X148871904Y-64555714D01*
X149062380Y-64555714D01*
X149157619Y-64603333D01*
X149205238Y-64698571D01*
X149205238Y-64793809D01*
X148729047Y-64889047D01*
X149586190Y-65174761D02*
X149681428Y-65222380D01*
X149871904Y-65222380D01*
X149967142Y-65174761D01*
X150014761Y-65079523D01*
X150014761Y-65031904D01*
X149967142Y-64936666D01*
X149871904Y-64889047D01*
X149729047Y-64889047D01*
X149633809Y-64841428D01*
X149586190Y-64746190D01*
X149586190Y-64698571D01*
X149633809Y-64603333D01*
X149729047Y-64555714D01*
X149871904Y-64555714D01*
X149967142Y-64603333D01*
X150824285Y-65174761D02*
X150729047Y-65222380D01*
X150538571Y-65222380D01*
X150443333Y-65174761D01*
X150395714Y-65079523D01*
X150395714Y-64698571D01*
X150443333Y-64603333D01*
X150538571Y-64555714D01*
X150729047Y-64555714D01*
X150824285Y-64603333D01*
X150871904Y-64698571D01*
X150871904Y-64793809D01*
X150395714Y-64889047D01*
X151157619Y-64555714D02*
X151538571Y-64555714D01*
X151300476Y-64222380D02*
X151300476Y-65079523D01*
X151348095Y-65174761D01*
X151443333Y-65222380D01*
X151538571Y-65222380D01*
X151871904Y-64841428D02*
X152633809Y-64841428D01*
X153443333Y-64698571D02*
X153586190Y-64746190D01*
X153633809Y-64793809D01*
X153681428Y-64889047D01*
X153681428Y-65031904D01*
X153633809Y-65127142D01*
X153586190Y-65174761D01*
X153490952Y-65222380D01*
X153110000Y-65222380D01*
X153110000Y-64222380D01*
X153443333Y-64222380D01*
X153538571Y-64270000D01*
X153586190Y-64317619D01*
X153633809Y-64412857D01*
X153633809Y-64508095D01*
X153586190Y-64603333D01*
X153538571Y-64650952D01*
X153443333Y-64698571D01*
X153110000Y-64698571D01*
X154538571Y-64555714D02*
X154538571Y-65222380D01*
X154110000Y-64555714D02*
X154110000Y-65079523D01*
X154157619Y-65174761D01*
X154252857Y-65222380D01*
X154395714Y-65222380D01*
X154490952Y-65174761D01*
X154538571Y-65127142D01*
X154871904Y-64555714D02*
X155252857Y-64555714D01*
X155014761Y-64222380D02*
X155014761Y-65079523D01*
X155062380Y-65174761D01*
X155157619Y-65222380D01*
X155252857Y-65222380D01*
X155443333Y-64555714D02*
X155824285Y-64555714D01*
X155586190Y-64222380D02*
X155586190Y-65079523D01*
X155633809Y-65174761D01*
X155729047Y-65222380D01*
X155824285Y-65222380D01*
X156300476Y-65222380D02*
X156205238Y-65174761D01*
X156157619Y-65127142D01*
X156110000Y-65031904D01*
X156110000Y-64746190D01*
X156157619Y-64650952D01*
X156205238Y-64603333D01*
X156300476Y-64555714D01*
X156443333Y-64555714D01*
X156538571Y-64603333D01*
X156586190Y-64650952D01*
X156633809Y-64746190D01*
X156633809Y-65031904D01*
X156586190Y-65127142D01*
X156538571Y-65174761D01*
X156443333Y-65222380D01*
X156300476Y-65222380D01*
X157062380Y-64555714D02*
X157062380Y-65222380D01*
X157062380Y-64650952D02*
X157110000Y-64603333D01*
X157205238Y-64555714D01*
X157348095Y-64555714D01*
X157443333Y-64603333D01*
X157490952Y-64698571D01*
X157490952Y-65222380D01*
X158490952Y-65222380D02*
X157919523Y-65222380D01*
X158205238Y-65222380D02*
X158205238Y-64222380D01*
X158110000Y-64365238D01*
X158014761Y-64460476D01*
X157919523Y-64508095D01*
X161936666Y-97464761D02*
X162079523Y-97512380D01*
X162317619Y-97512380D01*
X162412857Y-97464761D01*
X162460476Y-97417142D01*
X162508095Y-97321904D01*
X162508095Y-97226666D01*
X162460476Y-97131428D01*
X162412857Y-97083809D01*
X162317619Y-97036190D01*
X162127142Y-96988571D01*
X162031904Y-96940952D01*
X161984285Y-96893333D01*
X161936666Y-96798095D01*
X161936666Y-96702857D01*
X161984285Y-96607619D01*
X162031904Y-96560000D01*
X162127142Y-96512380D01*
X162365238Y-96512380D01*
X162508095Y-96560000D01*
X162841428Y-96512380D02*
X163079523Y-97512380D01*
X163270000Y-96798095D01*
X163460476Y-97512380D01*
X163698571Y-96512380D01*
X164603333Y-97512380D02*
X164031904Y-97512380D01*
X164317619Y-97512380D02*
X164317619Y-96512380D01*
X164222380Y-96655238D01*
X164127142Y-96750476D01*
X164031904Y-96798095D01*
X172096666Y-97464761D02*
X172239523Y-97512380D01*
X172477619Y-97512380D01*
X172572857Y-97464761D01*
X172620476Y-97417142D01*
X172668095Y-97321904D01*
X172668095Y-97226666D01*
X172620476Y-97131428D01*
X172572857Y-97083809D01*
X172477619Y-97036190D01*
X172287142Y-96988571D01*
X172191904Y-96940952D01*
X172144285Y-96893333D01*
X172096666Y-96798095D01*
X172096666Y-96702857D01*
X172144285Y-96607619D01*
X172191904Y-96560000D01*
X172287142Y-96512380D01*
X172525238Y-96512380D01*
X172668095Y-96560000D01*
X173001428Y-96512380D02*
X173239523Y-97512380D01*
X173430000Y-96798095D01*
X173620476Y-97512380D01*
X173858571Y-96512380D01*
X174191904Y-96607619D02*
X174239523Y-96560000D01*
X174334761Y-96512380D01*
X174572857Y-96512380D01*
X174668095Y-96560000D01*
X174715714Y-96607619D01*
X174763333Y-96702857D01*
X174763333Y-96798095D01*
X174715714Y-96940952D01*
X174144285Y-97512380D01*
X174763333Y-97512380D01*
X182256666Y-97464761D02*
X182399523Y-97512380D01*
X182637619Y-97512380D01*
X182732857Y-97464761D01*
X182780476Y-97417142D01*
X182828095Y-97321904D01*
X182828095Y-97226666D01*
X182780476Y-97131428D01*
X182732857Y-97083809D01*
X182637619Y-97036190D01*
X182447142Y-96988571D01*
X182351904Y-96940952D01*
X182304285Y-96893333D01*
X182256666Y-96798095D01*
X182256666Y-96702857D01*
X182304285Y-96607619D01*
X182351904Y-96560000D01*
X182447142Y-96512380D01*
X182685238Y-96512380D01*
X182828095Y-96560000D01*
X183161428Y-96512380D02*
X183399523Y-97512380D01*
X183590000Y-96798095D01*
X183780476Y-97512380D01*
X184018571Y-96512380D01*
X184304285Y-96512380D02*
X184923333Y-96512380D01*
X184590000Y-96893333D01*
X184732857Y-96893333D01*
X184828095Y-96940952D01*
X184875714Y-96988571D01*
X184923333Y-97083809D01*
X184923333Y-97321904D01*
X184875714Y-97417142D01*
X184828095Y-97464761D01*
X184732857Y-97512380D01*
X184447142Y-97512380D01*
X184351904Y-97464761D01*
X184304285Y-97417142D01*
X192416666Y-97464761D02*
X192559523Y-97512380D01*
X192797619Y-97512380D01*
X192892857Y-97464761D01*
X192940476Y-97417142D01*
X192988095Y-97321904D01*
X192988095Y-97226666D01*
X192940476Y-97131428D01*
X192892857Y-97083809D01*
X192797619Y-97036190D01*
X192607142Y-96988571D01*
X192511904Y-96940952D01*
X192464285Y-96893333D01*
X192416666Y-96798095D01*
X192416666Y-96702857D01*
X192464285Y-96607619D01*
X192511904Y-96560000D01*
X192607142Y-96512380D01*
X192845238Y-96512380D01*
X192988095Y-96560000D01*
X193321428Y-96512380D02*
X193559523Y-97512380D01*
X193750000Y-96798095D01*
X193940476Y-97512380D01*
X194178571Y-96512380D01*
X194988095Y-96845714D02*
X194988095Y-97512380D01*
X194750000Y-96464761D02*
X194511904Y-97179047D01*
X195130952Y-97179047D01*
X113862380Y-122658095D02*
X112862380Y-122658095D01*
X112862380Y-122420000D01*
X112910000Y-122277142D01*
X113005238Y-122181904D01*
X113100476Y-122134285D01*
X113290952Y-122086666D01*
X113433809Y-122086666D01*
X113624285Y-122134285D01*
X113719523Y-122181904D01*
X113814761Y-122277142D01*
X113862380Y-122420000D01*
X113862380Y-122658095D01*
X113862380Y-121134285D02*
X113862380Y-121705714D01*
X113862380Y-121420000D02*
X112862380Y-121420000D01*
X113005238Y-121515238D01*
X113100476Y-121610476D01*
X113148095Y-121705714D01*
X122752380Y-122658095D02*
X121752380Y-122658095D01*
X121752380Y-122420000D01*
X121800000Y-122277142D01*
X121895238Y-122181904D01*
X121990476Y-122134285D01*
X122180952Y-122086666D01*
X122323809Y-122086666D01*
X122514285Y-122134285D01*
X122609523Y-122181904D01*
X122704761Y-122277142D01*
X122752380Y-122420000D01*
X122752380Y-122658095D01*
X121847619Y-121705714D02*
X121800000Y-121658095D01*
X121752380Y-121562857D01*
X121752380Y-121324761D01*
X121800000Y-121229523D01*
X121847619Y-121181904D01*
X121942857Y-121134285D01*
X122038095Y-121134285D01*
X122180952Y-121181904D01*
X122752380Y-121753333D01*
X122752380Y-121134285D01*
X184982380Y-123134285D02*
X183982380Y-123134285D01*
X183982380Y-122896190D01*
X184030000Y-122753333D01*
X184125238Y-122658095D01*
X184220476Y-122610476D01*
X184410952Y-122562857D01*
X184553809Y-122562857D01*
X184744285Y-122610476D01*
X184839523Y-122658095D01*
X184934761Y-122753333D01*
X184982380Y-122896190D01*
X184982380Y-123134285D01*
X184982380Y-121610476D02*
X184982380Y-122181904D01*
X184982380Y-121896190D02*
X183982380Y-121896190D01*
X184125238Y-121991428D01*
X184220476Y-122086666D01*
X184268095Y-122181904D01*
X183982380Y-120705714D02*
X183982380Y-121181904D01*
X184458571Y-121229523D01*
X184410952Y-121181904D01*
X184363333Y-121086666D01*
X184363333Y-120848571D01*
X184410952Y-120753333D01*
X184458571Y-120705714D01*
X184553809Y-120658095D01*
X184791904Y-120658095D01*
X184887142Y-120705714D01*
X184934761Y-120753333D01*
X184982380Y-120848571D01*
X184982380Y-121086666D01*
X184934761Y-121181904D01*
X184887142Y-121229523D01*
X193872380Y-123134285D02*
X192872380Y-123134285D01*
X192872380Y-122896190D01*
X192920000Y-122753333D01*
X193015238Y-122658095D01*
X193110476Y-122610476D01*
X193300952Y-122562857D01*
X193443809Y-122562857D01*
X193634285Y-122610476D01*
X193729523Y-122658095D01*
X193824761Y-122753333D01*
X193872380Y-122896190D01*
X193872380Y-123134285D01*
X193872380Y-121610476D02*
X193872380Y-122181904D01*
X193872380Y-121896190D02*
X192872380Y-121896190D01*
X193015238Y-121991428D01*
X193110476Y-122086666D01*
X193158095Y-122181904D01*
X192872380Y-120753333D02*
X192872380Y-120943809D01*
X192920000Y-121039047D01*
X192967619Y-121086666D01*
X193110476Y-121181904D01*
X193300952Y-121229523D01*
X193681904Y-121229523D01*
X193777142Y-121181904D01*
X193824761Y-121134285D01*
X193872380Y-121039047D01*
X193872380Y-120848571D01*
X193824761Y-120753333D01*
X193777142Y-120705714D01*
X193681904Y-120658095D01*
X193443809Y-120658095D01*
X193348571Y-120705714D01*
X193300952Y-120753333D01*
X193253333Y-120848571D01*
X193253333Y-121039047D01*
X193300952Y-121134285D01*
X193348571Y-121181904D01*
X193443809Y-121229523D01*
X103417619Y-115665238D02*
X103370000Y-115760476D01*
X103274761Y-115855714D01*
X103131904Y-115998571D01*
X103084285Y-116093809D01*
X103084285Y-116189047D01*
X103322380Y-116141428D02*
X103274761Y-116236666D01*
X103179523Y-116331904D01*
X102989047Y-116379523D01*
X102655714Y-116379523D01*
X102465238Y-116331904D01*
X102370000Y-116236666D01*
X102322380Y-116141428D01*
X102322380Y-115950952D01*
X102370000Y-115855714D01*
X102465238Y-115760476D01*
X102655714Y-115712857D01*
X102989047Y-115712857D01*
X103179523Y-115760476D01*
X103274761Y-115855714D01*
X103322380Y-115950952D01*
X103322380Y-116141428D01*
X103322380Y-114760476D02*
X103322380Y-115331904D01*
X103322380Y-115046190D02*
X102322380Y-115046190D01*
X102465238Y-115141428D01*
X102560476Y-115236666D01*
X102608095Y-115331904D01*
X107512380Y-122086666D02*
X107036190Y-122420000D01*
X107512380Y-122658095D02*
X106512380Y-122658095D01*
X106512380Y-122277142D01*
X106560000Y-122181904D01*
X106607619Y-122134285D01*
X106702857Y-122086666D01*
X106845714Y-122086666D01*
X106940952Y-122134285D01*
X106988571Y-122181904D01*
X107036190Y-122277142D01*
X107036190Y-122658095D01*
X106512380Y-121753333D02*
X106512380Y-121086666D01*
X107512380Y-121515238D01*
X169347142Y-62158571D02*
X169490000Y-62206190D01*
X169537619Y-62253809D01*
X169585238Y-62349047D01*
X169585238Y-62491904D01*
X169537619Y-62587142D01*
X169490000Y-62634761D01*
X169394761Y-62682380D01*
X169013809Y-62682380D01*
X169013809Y-61682380D01*
X169347142Y-61682380D01*
X169442380Y-61730000D01*
X169490000Y-61777619D01*
X169537619Y-61872857D01*
X169537619Y-61968095D01*
X169490000Y-62063333D01*
X169442380Y-62110952D01*
X169347142Y-62158571D01*
X169013809Y-62158571D01*
X170156666Y-62682380D02*
X170061428Y-62634761D01*
X170013809Y-62587142D01*
X169966190Y-62491904D01*
X169966190Y-62206190D01*
X170013809Y-62110952D01*
X170061428Y-62063333D01*
X170156666Y-62015714D01*
X170299523Y-62015714D01*
X170394761Y-62063333D01*
X170442380Y-62110952D01*
X170490000Y-62206190D01*
X170490000Y-62491904D01*
X170442380Y-62587142D01*
X170394761Y-62634761D01*
X170299523Y-62682380D01*
X170156666Y-62682380D01*
X171347142Y-62682380D02*
X171347142Y-61682380D01*
X171347142Y-62634761D02*
X171251904Y-62682380D01*
X171061428Y-62682380D01*
X170966190Y-62634761D01*
X170918571Y-62587142D01*
X170870952Y-62491904D01*
X170870952Y-62206190D01*
X170918571Y-62110952D01*
X170966190Y-62063333D01*
X171061428Y-62015714D01*
X171251904Y-62015714D01*
X171347142Y-62063333D01*
X172204285Y-62634761D02*
X172109047Y-62682380D01*
X171918571Y-62682380D01*
X171823333Y-62634761D01*
X171775714Y-62539523D01*
X171775714Y-62158571D01*
X171823333Y-62063333D01*
X171918571Y-62015714D01*
X172109047Y-62015714D01*
X172204285Y-62063333D01*
X172251904Y-62158571D01*
X172251904Y-62253809D01*
X171775714Y-62349047D01*
X172680476Y-62015714D02*
X172680476Y-62682380D01*
X172680476Y-62110952D02*
X172728095Y-62063333D01*
X172823333Y-62015714D01*
X172966190Y-62015714D01*
X173061428Y-62063333D01*
X173109047Y-62158571D01*
X173109047Y-62682380D01*
X173537619Y-62634761D02*
X173632857Y-62682380D01*
X173823333Y-62682380D01*
X173918571Y-62634761D01*
X173966190Y-62539523D01*
X173966190Y-62491904D01*
X173918571Y-62396666D01*
X173823333Y-62349047D01*
X173680476Y-62349047D01*
X173585238Y-62301428D01*
X173537619Y-62206190D01*
X173537619Y-62158571D01*
X173585238Y-62063333D01*
X173680476Y-62015714D01*
X173823333Y-62015714D01*
X173918571Y-62063333D01*
X174775714Y-62634761D02*
X174680476Y-62682380D01*
X174490000Y-62682380D01*
X174394761Y-62634761D01*
X174347142Y-62539523D01*
X174347142Y-62158571D01*
X174394761Y-62063333D01*
X174490000Y-62015714D01*
X174680476Y-62015714D01*
X174775714Y-62063333D01*
X174823333Y-62158571D01*
X174823333Y-62253809D01*
X174347142Y-62349047D01*
X175251904Y-62015714D02*
X175251904Y-62682380D01*
X175251904Y-62110952D02*
X175299523Y-62063333D01*
X175394761Y-62015714D01*
X175537619Y-62015714D01*
X175632857Y-62063333D01*
X175680476Y-62158571D01*
X175680476Y-62682380D01*
X176109047Y-62634761D02*
X176204285Y-62682380D01*
X176394761Y-62682380D01*
X176490000Y-62634761D01*
X176537619Y-62539523D01*
X176537619Y-62491904D01*
X176490000Y-62396666D01*
X176394761Y-62349047D01*
X176251904Y-62349047D01*
X176156666Y-62301428D01*
X176109047Y-62206190D01*
X176109047Y-62158571D01*
X176156666Y-62063333D01*
X176251904Y-62015714D01*
X176394761Y-62015714D01*
X176490000Y-62063333D01*
X177109047Y-62682380D02*
X177013809Y-62634761D01*
X176966190Y-62587142D01*
X176918571Y-62491904D01*
X176918571Y-62206190D01*
X176966190Y-62110952D01*
X177013809Y-62063333D01*
X177109047Y-62015714D01*
X177251904Y-62015714D01*
X177347142Y-62063333D01*
X177394761Y-62110952D01*
X177442380Y-62206190D01*
X177442380Y-62491904D01*
X177394761Y-62587142D01*
X177347142Y-62634761D01*
X177251904Y-62682380D01*
X177109047Y-62682380D01*
X177870952Y-62682380D02*
X177870952Y-62015714D01*
X177870952Y-62206190D02*
X177918571Y-62110952D01*
X177966190Y-62063333D01*
X178061428Y-62015714D01*
X178156666Y-62015714D01*
X179013809Y-62682380D02*
X178442380Y-62682380D01*
X178728095Y-62682380D02*
X178728095Y-61682380D01*
X178632857Y-61825238D01*
X178537619Y-61920476D01*
X178442380Y-61968095D01*
X151602380Y-116251904D02*
X152411904Y-116251904D01*
X152507142Y-116204285D01*
X152554761Y-116156666D01*
X152602380Y-116061428D01*
X152602380Y-115870952D01*
X152554761Y-115775714D01*
X152507142Y-115728095D01*
X152411904Y-115680476D01*
X151602380Y-115680476D01*
X152602380Y-114680476D02*
X152602380Y-115251904D01*
X152602380Y-114966190D02*
X151602380Y-114966190D01*
X151745238Y-115061428D01*
X151840476Y-115156666D01*
X151888095Y-115251904D01*
X154606666Y-94912380D02*
X154606666Y-95626666D01*
X154559047Y-95769523D01*
X154463809Y-95864761D01*
X154320952Y-95912380D01*
X154225714Y-95912380D01*
X155511428Y-95245714D02*
X155511428Y-95912380D01*
X155273333Y-94864761D02*
X155035238Y-95579047D01*
X155654285Y-95579047D01*
X115236666Y-56602380D02*
X115236666Y-57316666D01*
X115189047Y-57459523D01*
X115093809Y-57554761D01*
X114950952Y-57602380D01*
X114855714Y-57602380D01*
X116141428Y-56602380D02*
X115950952Y-56602380D01*
X115855714Y-56650000D01*
X115808095Y-56697619D01*
X115712857Y-56840476D01*
X115665238Y-57030952D01*
X115665238Y-57411904D01*
X115712857Y-57507142D01*
X115760476Y-57554761D01*
X115855714Y-57602380D01*
X116046190Y-57602380D01*
X116141428Y-57554761D01*
X116189047Y-57507142D01*
X116236666Y-57411904D01*
X116236666Y-57173809D01*
X116189047Y-57078571D01*
X116141428Y-57030952D01*
X116046190Y-56983333D01*
X115855714Y-56983333D01*
X115760476Y-57030952D01*
X115712857Y-57078571D01*
X115665238Y-57173809D01*
X163496666Y-56602380D02*
X163496666Y-57316666D01*
X163449047Y-57459523D01*
X163353809Y-57554761D01*
X163210952Y-57602380D01*
X163115714Y-57602380D01*
X163877619Y-56602380D02*
X164544285Y-56602380D01*
X164115714Y-57602380D01*
M02*
