G04 #@! TF.GenerationSoftware,KiCad,Pcbnew,(5.1.5)-3*
G04 #@! TF.CreationDate,2020-01-31T15:08:37+01:00*
G04 #@! TF.ProjectId,Greenkeeper,47726565-6e6b-4656-9570-65722e6b6963,1.0*
G04 #@! TF.SameCoordinates,Original*
G04 #@! TF.FileFunction,Soldermask,Top*
G04 #@! TF.FilePolarity,Negative*
%FSLAX46Y46*%
G04 Gerber Fmt 4.6, Leading zero omitted, Abs format (unit mm)*
G04 Created by KiCad (PCBNEW (5.1.5)-3) date 2020-01-31 15:08:37*
%MOMM*%
%LPD*%
G04 APERTURE LIST*
%ADD10C,0.100000*%
G04 APERTURE END LIST*
D10*
G36*
X174578674Y-122323465D02*
G01*
X174616367Y-122334899D01*
X174651103Y-122353466D01*
X174681548Y-122378452D01*
X174706534Y-122408897D01*
X174725101Y-122443633D01*
X174736535Y-122481326D01*
X174741000Y-122526661D01*
X174741000Y-123363339D01*
X174736535Y-123408674D01*
X174725101Y-123446367D01*
X174706534Y-123481103D01*
X174681548Y-123511548D01*
X174651103Y-123536534D01*
X174616367Y-123555101D01*
X174578674Y-123566535D01*
X174533339Y-123571000D01*
X173446661Y-123571000D01*
X173401326Y-123566535D01*
X173363633Y-123555101D01*
X173328897Y-123536534D01*
X173298452Y-123511548D01*
X173273466Y-123481103D01*
X173254899Y-123446367D01*
X173243465Y-123408674D01*
X173239000Y-123363339D01*
X173239000Y-122526661D01*
X173243465Y-122481326D01*
X173254899Y-122443633D01*
X173273466Y-122408897D01*
X173298452Y-122378452D01*
X173328897Y-122353466D01*
X173363633Y-122334899D01*
X173401326Y-122323465D01*
X173446661Y-122319000D01*
X174533339Y-122319000D01*
X174578674Y-122323465D01*
G37*
G36*
X183468674Y-122323465D02*
G01*
X183506367Y-122334899D01*
X183541103Y-122353466D01*
X183571548Y-122378452D01*
X183596534Y-122408897D01*
X183615101Y-122443633D01*
X183626535Y-122481326D01*
X183631000Y-122526661D01*
X183631000Y-123363339D01*
X183626535Y-123408674D01*
X183615101Y-123446367D01*
X183596534Y-123481103D01*
X183571548Y-123511548D01*
X183541103Y-123536534D01*
X183506367Y-123555101D01*
X183468674Y-123566535D01*
X183423339Y-123571000D01*
X182336661Y-123571000D01*
X182291326Y-123566535D01*
X182253633Y-123555101D01*
X182218897Y-123536534D01*
X182188452Y-123511548D01*
X182163466Y-123481103D01*
X182144899Y-123446367D01*
X182133465Y-123408674D01*
X182129000Y-123363339D01*
X182129000Y-122526661D01*
X182133465Y-122481326D01*
X182144899Y-122443633D01*
X182163466Y-122408897D01*
X182188452Y-122378452D01*
X182218897Y-122353466D01*
X182253633Y-122334899D01*
X182291326Y-122323465D01*
X182336661Y-122319000D01*
X183423339Y-122319000D01*
X183468674Y-122323465D01*
G37*
G36*
X105998674Y-122323465D02*
G01*
X106036367Y-122334899D01*
X106071103Y-122353466D01*
X106101548Y-122378452D01*
X106126534Y-122408897D01*
X106145101Y-122443633D01*
X106156535Y-122481326D01*
X106161000Y-122526661D01*
X106161000Y-123363339D01*
X106156535Y-123408674D01*
X106145101Y-123446367D01*
X106126534Y-123481103D01*
X106101548Y-123511548D01*
X106071103Y-123536534D01*
X106036367Y-123555101D01*
X105998674Y-123566535D01*
X105953339Y-123571000D01*
X104866661Y-123571000D01*
X104821326Y-123566535D01*
X104783633Y-123555101D01*
X104748897Y-123536534D01*
X104718452Y-123511548D01*
X104693466Y-123481103D01*
X104674899Y-123446367D01*
X104663465Y-123408674D01*
X104659000Y-123363339D01*
X104659000Y-122526661D01*
X104663465Y-122481326D01*
X104674899Y-122443633D01*
X104693466Y-122408897D01*
X104718452Y-122378452D01*
X104748897Y-122353466D01*
X104783633Y-122334899D01*
X104821326Y-122323465D01*
X104866661Y-122319000D01*
X105953339Y-122319000D01*
X105998674Y-122323465D01*
G37*
G36*
X121238674Y-122323465D02*
G01*
X121276367Y-122334899D01*
X121311103Y-122353466D01*
X121341548Y-122378452D01*
X121366534Y-122408897D01*
X121385101Y-122443633D01*
X121396535Y-122481326D01*
X121401000Y-122526661D01*
X121401000Y-123363339D01*
X121396535Y-123408674D01*
X121385101Y-123446367D01*
X121366534Y-123481103D01*
X121341548Y-123511548D01*
X121311103Y-123536534D01*
X121276367Y-123555101D01*
X121238674Y-123566535D01*
X121193339Y-123571000D01*
X120106661Y-123571000D01*
X120061326Y-123566535D01*
X120023633Y-123555101D01*
X119988897Y-123536534D01*
X119958452Y-123511548D01*
X119933466Y-123481103D01*
X119914899Y-123446367D01*
X119903465Y-123408674D01*
X119899000Y-123363339D01*
X119899000Y-122526661D01*
X119903465Y-122481326D01*
X119914899Y-122443633D01*
X119933466Y-122408897D01*
X119958452Y-122378452D01*
X119988897Y-122353466D01*
X120023633Y-122334899D01*
X120061326Y-122323465D01*
X120106661Y-122319000D01*
X121193339Y-122319000D01*
X121238674Y-122323465D01*
G37*
G36*
X112348674Y-122323465D02*
G01*
X112386367Y-122334899D01*
X112421103Y-122353466D01*
X112451548Y-122378452D01*
X112476534Y-122408897D01*
X112495101Y-122443633D01*
X112506535Y-122481326D01*
X112511000Y-122526661D01*
X112511000Y-123363339D01*
X112506535Y-123408674D01*
X112495101Y-123446367D01*
X112476534Y-123481103D01*
X112451548Y-123511548D01*
X112421103Y-123536534D01*
X112386367Y-123555101D01*
X112348674Y-123566535D01*
X112303339Y-123571000D01*
X111216661Y-123571000D01*
X111171326Y-123566535D01*
X111133633Y-123555101D01*
X111098897Y-123536534D01*
X111068452Y-123511548D01*
X111043466Y-123481103D01*
X111024899Y-123446367D01*
X111013465Y-123408674D01*
X111009000Y-123363339D01*
X111009000Y-122526661D01*
X111013465Y-122481326D01*
X111024899Y-122443633D01*
X111043466Y-122408897D01*
X111068452Y-122378452D01*
X111098897Y-122353466D01*
X111133633Y-122334899D01*
X111171326Y-122323465D01*
X111216661Y-122319000D01*
X112303339Y-122319000D01*
X112348674Y-122323465D01*
G37*
G36*
X192358674Y-122323465D02*
G01*
X192396367Y-122334899D01*
X192431103Y-122353466D01*
X192461548Y-122378452D01*
X192486534Y-122408897D01*
X192505101Y-122443633D01*
X192516535Y-122481326D01*
X192521000Y-122526661D01*
X192521000Y-123363339D01*
X192516535Y-123408674D01*
X192505101Y-123446367D01*
X192486534Y-123481103D01*
X192461548Y-123511548D01*
X192431103Y-123536534D01*
X192396367Y-123555101D01*
X192358674Y-123566535D01*
X192313339Y-123571000D01*
X191226661Y-123571000D01*
X191181326Y-123566535D01*
X191143633Y-123555101D01*
X191108897Y-123536534D01*
X191078452Y-123511548D01*
X191053466Y-123481103D01*
X191034899Y-123446367D01*
X191023465Y-123408674D01*
X191019000Y-123363339D01*
X191019000Y-122526661D01*
X191023465Y-122481326D01*
X191034899Y-122443633D01*
X191053466Y-122408897D01*
X191078452Y-122378452D01*
X191108897Y-122353466D01*
X191143633Y-122334899D01*
X191181326Y-122323465D01*
X191226661Y-122319000D01*
X192313339Y-122319000D01*
X192358674Y-122323465D01*
G37*
G36*
X139018674Y-122323465D02*
G01*
X139056367Y-122334899D01*
X139091103Y-122353466D01*
X139121548Y-122378452D01*
X139146534Y-122408897D01*
X139165101Y-122443633D01*
X139176535Y-122481326D01*
X139181000Y-122526661D01*
X139181000Y-123363339D01*
X139176535Y-123408674D01*
X139165101Y-123446367D01*
X139146534Y-123481103D01*
X139121548Y-123511548D01*
X139091103Y-123536534D01*
X139056367Y-123555101D01*
X139018674Y-123566535D01*
X138973339Y-123571000D01*
X137886661Y-123571000D01*
X137841326Y-123566535D01*
X137803633Y-123555101D01*
X137768897Y-123536534D01*
X137738452Y-123511548D01*
X137713466Y-123481103D01*
X137694899Y-123446367D01*
X137683465Y-123408674D01*
X137679000Y-123363339D01*
X137679000Y-122526661D01*
X137683465Y-122481326D01*
X137694899Y-122443633D01*
X137713466Y-122408897D01*
X137738452Y-122378452D01*
X137768897Y-122353466D01*
X137803633Y-122334899D01*
X137841326Y-122323465D01*
X137886661Y-122319000D01*
X138973339Y-122319000D01*
X139018674Y-122323465D01*
G37*
G36*
X130128674Y-122323465D02*
G01*
X130166367Y-122334899D01*
X130201103Y-122353466D01*
X130231548Y-122378452D01*
X130256534Y-122408897D01*
X130275101Y-122443633D01*
X130286535Y-122481326D01*
X130291000Y-122526661D01*
X130291000Y-123363339D01*
X130286535Y-123408674D01*
X130275101Y-123446367D01*
X130256534Y-123481103D01*
X130231548Y-123511548D01*
X130201103Y-123536534D01*
X130166367Y-123555101D01*
X130128674Y-123566535D01*
X130083339Y-123571000D01*
X128996661Y-123571000D01*
X128951326Y-123566535D01*
X128913633Y-123555101D01*
X128878897Y-123536534D01*
X128848452Y-123511548D01*
X128823466Y-123481103D01*
X128804899Y-123446367D01*
X128793465Y-123408674D01*
X128789000Y-123363339D01*
X128789000Y-122526661D01*
X128793465Y-122481326D01*
X128804899Y-122443633D01*
X128823466Y-122408897D01*
X128848452Y-122378452D01*
X128878897Y-122353466D01*
X128913633Y-122334899D01*
X128951326Y-122323465D01*
X128996661Y-122319000D01*
X130083339Y-122319000D01*
X130128674Y-122323465D01*
G37*
G36*
X165688674Y-122323465D02*
G01*
X165726367Y-122334899D01*
X165761103Y-122353466D01*
X165791548Y-122378452D01*
X165816534Y-122408897D01*
X165835101Y-122443633D01*
X165846535Y-122481326D01*
X165851000Y-122526661D01*
X165851000Y-123363339D01*
X165846535Y-123408674D01*
X165835101Y-123446367D01*
X165816534Y-123481103D01*
X165791548Y-123511548D01*
X165761103Y-123536534D01*
X165726367Y-123555101D01*
X165688674Y-123566535D01*
X165643339Y-123571000D01*
X164556661Y-123571000D01*
X164511326Y-123566535D01*
X164473633Y-123555101D01*
X164438897Y-123536534D01*
X164408452Y-123511548D01*
X164383466Y-123481103D01*
X164364899Y-123446367D01*
X164353465Y-123408674D01*
X164349000Y-123363339D01*
X164349000Y-122526661D01*
X164353465Y-122481326D01*
X164364899Y-122443633D01*
X164383466Y-122408897D01*
X164408452Y-122378452D01*
X164438897Y-122353466D01*
X164473633Y-122334899D01*
X164511326Y-122323465D01*
X164556661Y-122319000D01*
X165643339Y-122319000D01*
X165688674Y-122323465D01*
G37*
G36*
X147908674Y-122323465D02*
G01*
X147946367Y-122334899D01*
X147981103Y-122353466D01*
X148011548Y-122378452D01*
X148036534Y-122408897D01*
X148055101Y-122443633D01*
X148066535Y-122481326D01*
X148071000Y-122526661D01*
X148071000Y-123363339D01*
X148066535Y-123408674D01*
X148055101Y-123446367D01*
X148036534Y-123481103D01*
X148011548Y-123511548D01*
X147981103Y-123536534D01*
X147946367Y-123555101D01*
X147908674Y-123566535D01*
X147863339Y-123571000D01*
X146776661Y-123571000D01*
X146731326Y-123566535D01*
X146693633Y-123555101D01*
X146658897Y-123536534D01*
X146628452Y-123511548D01*
X146603466Y-123481103D01*
X146584899Y-123446367D01*
X146573465Y-123408674D01*
X146569000Y-123363339D01*
X146569000Y-122526661D01*
X146573465Y-122481326D01*
X146584899Y-122443633D01*
X146603466Y-122408897D01*
X146628452Y-122378452D01*
X146658897Y-122353466D01*
X146693633Y-122334899D01*
X146731326Y-122323465D01*
X146776661Y-122319000D01*
X147863339Y-122319000D01*
X147908674Y-122323465D01*
G37*
G36*
X156798674Y-122323465D02*
G01*
X156836367Y-122334899D01*
X156871103Y-122353466D01*
X156901548Y-122378452D01*
X156926534Y-122408897D01*
X156945101Y-122443633D01*
X156956535Y-122481326D01*
X156961000Y-122526661D01*
X156961000Y-123363339D01*
X156956535Y-123408674D01*
X156945101Y-123446367D01*
X156926534Y-123481103D01*
X156901548Y-123511548D01*
X156871103Y-123536534D01*
X156836367Y-123555101D01*
X156798674Y-123566535D01*
X156753339Y-123571000D01*
X155666661Y-123571000D01*
X155621326Y-123566535D01*
X155583633Y-123555101D01*
X155548897Y-123536534D01*
X155518452Y-123511548D01*
X155493466Y-123481103D01*
X155474899Y-123446367D01*
X155463465Y-123408674D01*
X155459000Y-123363339D01*
X155459000Y-122526661D01*
X155463465Y-122481326D01*
X155474899Y-122443633D01*
X155493466Y-122408897D01*
X155518452Y-122378452D01*
X155548897Y-122353466D01*
X155583633Y-122334899D01*
X155621326Y-122323465D01*
X155666661Y-122319000D01*
X156753339Y-122319000D01*
X156798674Y-122323465D01*
G37*
G36*
X192358674Y-120273465D02*
G01*
X192396367Y-120284899D01*
X192431103Y-120303466D01*
X192461548Y-120328452D01*
X192486534Y-120358897D01*
X192505101Y-120393633D01*
X192516535Y-120431326D01*
X192521000Y-120476661D01*
X192521000Y-121313339D01*
X192516535Y-121358674D01*
X192505101Y-121396367D01*
X192486534Y-121431103D01*
X192461548Y-121461548D01*
X192431103Y-121486534D01*
X192396367Y-121505101D01*
X192358674Y-121516535D01*
X192313339Y-121521000D01*
X191226661Y-121521000D01*
X191181326Y-121516535D01*
X191143633Y-121505101D01*
X191108897Y-121486534D01*
X191078452Y-121461548D01*
X191053466Y-121431103D01*
X191034899Y-121396367D01*
X191023465Y-121358674D01*
X191019000Y-121313339D01*
X191019000Y-120476661D01*
X191023465Y-120431326D01*
X191034899Y-120393633D01*
X191053466Y-120358897D01*
X191078452Y-120328452D01*
X191108897Y-120303466D01*
X191143633Y-120284899D01*
X191181326Y-120273465D01*
X191226661Y-120269000D01*
X192313339Y-120269000D01*
X192358674Y-120273465D01*
G37*
G36*
X165688674Y-120273465D02*
G01*
X165726367Y-120284899D01*
X165761103Y-120303466D01*
X165791548Y-120328452D01*
X165816534Y-120358897D01*
X165835101Y-120393633D01*
X165846535Y-120431326D01*
X165851000Y-120476661D01*
X165851000Y-121313339D01*
X165846535Y-121358674D01*
X165835101Y-121396367D01*
X165816534Y-121431103D01*
X165791548Y-121461548D01*
X165761103Y-121486534D01*
X165726367Y-121505101D01*
X165688674Y-121516535D01*
X165643339Y-121521000D01*
X164556661Y-121521000D01*
X164511326Y-121516535D01*
X164473633Y-121505101D01*
X164438897Y-121486534D01*
X164408452Y-121461548D01*
X164383466Y-121431103D01*
X164364899Y-121396367D01*
X164353465Y-121358674D01*
X164349000Y-121313339D01*
X164349000Y-120476661D01*
X164353465Y-120431326D01*
X164364899Y-120393633D01*
X164383466Y-120358897D01*
X164408452Y-120328452D01*
X164438897Y-120303466D01*
X164473633Y-120284899D01*
X164511326Y-120273465D01*
X164556661Y-120269000D01*
X165643339Y-120269000D01*
X165688674Y-120273465D01*
G37*
G36*
X183468674Y-120273465D02*
G01*
X183506367Y-120284899D01*
X183541103Y-120303466D01*
X183571548Y-120328452D01*
X183596534Y-120358897D01*
X183615101Y-120393633D01*
X183626535Y-120431326D01*
X183631000Y-120476661D01*
X183631000Y-121313339D01*
X183626535Y-121358674D01*
X183615101Y-121396367D01*
X183596534Y-121431103D01*
X183571548Y-121461548D01*
X183541103Y-121486534D01*
X183506367Y-121505101D01*
X183468674Y-121516535D01*
X183423339Y-121521000D01*
X182336661Y-121521000D01*
X182291326Y-121516535D01*
X182253633Y-121505101D01*
X182218897Y-121486534D01*
X182188452Y-121461548D01*
X182163466Y-121431103D01*
X182144899Y-121396367D01*
X182133465Y-121358674D01*
X182129000Y-121313339D01*
X182129000Y-120476661D01*
X182133465Y-120431326D01*
X182144899Y-120393633D01*
X182163466Y-120358897D01*
X182188452Y-120328452D01*
X182218897Y-120303466D01*
X182253633Y-120284899D01*
X182291326Y-120273465D01*
X182336661Y-120269000D01*
X183423339Y-120269000D01*
X183468674Y-120273465D01*
G37*
G36*
X121238674Y-120273465D02*
G01*
X121276367Y-120284899D01*
X121311103Y-120303466D01*
X121341548Y-120328452D01*
X121366534Y-120358897D01*
X121385101Y-120393633D01*
X121396535Y-120431326D01*
X121401000Y-120476661D01*
X121401000Y-121313339D01*
X121396535Y-121358674D01*
X121385101Y-121396367D01*
X121366534Y-121431103D01*
X121341548Y-121461548D01*
X121311103Y-121486534D01*
X121276367Y-121505101D01*
X121238674Y-121516535D01*
X121193339Y-121521000D01*
X120106661Y-121521000D01*
X120061326Y-121516535D01*
X120023633Y-121505101D01*
X119988897Y-121486534D01*
X119958452Y-121461548D01*
X119933466Y-121431103D01*
X119914899Y-121396367D01*
X119903465Y-121358674D01*
X119899000Y-121313339D01*
X119899000Y-120476661D01*
X119903465Y-120431326D01*
X119914899Y-120393633D01*
X119933466Y-120358897D01*
X119958452Y-120328452D01*
X119988897Y-120303466D01*
X120023633Y-120284899D01*
X120061326Y-120273465D01*
X120106661Y-120269000D01*
X121193339Y-120269000D01*
X121238674Y-120273465D01*
G37*
G36*
X112348674Y-120273465D02*
G01*
X112386367Y-120284899D01*
X112421103Y-120303466D01*
X112451548Y-120328452D01*
X112476534Y-120358897D01*
X112495101Y-120393633D01*
X112506535Y-120431326D01*
X112511000Y-120476661D01*
X112511000Y-121313339D01*
X112506535Y-121358674D01*
X112495101Y-121396367D01*
X112476534Y-121431103D01*
X112451548Y-121461548D01*
X112421103Y-121486534D01*
X112386367Y-121505101D01*
X112348674Y-121516535D01*
X112303339Y-121521000D01*
X111216661Y-121521000D01*
X111171326Y-121516535D01*
X111133633Y-121505101D01*
X111098897Y-121486534D01*
X111068452Y-121461548D01*
X111043466Y-121431103D01*
X111024899Y-121396367D01*
X111013465Y-121358674D01*
X111009000Y-121313339D01*
X111009000Y-120476661D01*
X111013465Y-120431326D01*
X111024899Y-120393633D01*
X111043466Y-120358897D01*
X111068452Y-120328452D01*
X111098897Y-120303466D01*
X111133633Y-120284899D01*
X111171326Y-120273465D01*
X111216661Y-120269000D01*
X112303339Y-120269000D01*
X112348674Y-120273465D01*
G37*
G36*
X130128674Y-120273465D02*
G01*
X130166367Y-120284899D01*
X130201103Y-120303466D01*
X130231548Y-120328452D01*
X130256534Y-120358897D01*
X130275101Y-120393633D01*
X130286535Y-120431326D01*
X130291000Y-120476661D01*
X130291000Y-121313339D01*
X130286535Y-121358674D01*
X130275101Y-121396367D01*
X130256534Y-121431103D01*
X130231548Y-121461548D01*
X130201103Y-121486534D01*
X130166367Y-121505101D01*
X130128674Y-121516535D01*
X130083339Y-121521000D01*
X128996661Y-121521000D01*
X128951326Y-121516535D01*
X128913633Y-121505101D01*
X128878897Y-121486534D01*
X128848452Y-121461548D01*
X128823466Y-121431103D01*
X128804899Y-121396367D01*
X128793465Y-121358674D01*
X128789000Y-121313339D01*
X128789000Y-120476661D01*
X128793465Y-120431326D01*
X128804899Y-120393633D01*
X128823466Y-120358897D01*
X128848452Y-120328452D01*
X128878897Y-120303466D01*
X128913633Y-120284899D01*
X128951326Y-120273465D01*
X128996661Y-120269000D01*
X130083339Y-120269000D01*
X130128674Y-120273465D01*
G37*
G36*
X139018674Y-120273465D02*
G01*
X139056367Y-120284899D01*
X139091103Y-120303466D01*
X139121548Y-120328452D01*
X139146534Y-120358897D01*
X139165101Y-120393633D01*
X139176535Y-120431326D01*
X139181000Y-120476661D01*
X139181000Y-121313339D01*
X139176535Y-121358674D01*
X139165101Y-121396367D01*
X139146534Y-121431103D01*
X139121548Y-121461548D01*
X139091103Y-121486534D01*
X139056367Y-121505101D01*
X139018674Y-121516535D01*
X138973339Y-121521000D01*
X137886661Y-121521000D01*
X137841326Y-121516535D01*
X137803633Y-121505101D01*
X137768897Y-121486534D01*
X137738452Y-121461548D01*
X137713466Y-121431103D01*
X137694899Y-121396367D01*
X137683465Y-121358674D01*
X137679000Y-121313339D01*
X137679000Y-120476661D01*
X137683465Y-120431326D01*
X137694899Y-120393633D01*
X137713466Y-120358897D01*
X137738452Y-120328452D01*
X137768897Y-120303466D01*
X137803633Y-120284899D01*
X137841326Y-120273465D01*
X137886661Y-120269000D01*
X138973339Y-120269000D01*
X139018674Y-120273465D01*
G37*
G36*
X147908674Y-120273465D02*
G01*
X147946367Y-120284899D01*
X147981103Y-120303466D01*
X148011548Y-120328452D01*
X148036534Y-120358897D01*
X148055101Y-120393633D01*
X148066535Y-120431326D01*
X148071000Y-120476661D01*
X148071000Y-121313339D01*
X148066535Y-121358674D01*
X148055101Y-121396367D01*
X148036534Y-121431103D01*
X148011548Y-121461548D01*
X147981103Y-121486534D01*
X147946367Y-121505101D01*
X147908674Y-121516535D01*
X147863339Y-121521000D01*
X146776661Y-121521000D01*
X146731326Y-121516535D01*
X146693633Y-121505101D01*
X146658897Y-121486534D01*
X146628452Y-121461548D01*
X146603466Y-121431103D01*
X146584899Y-121396367D01*
X146573465Y-121358674D01*
X146569000Y-121313339D01*
X146569000Y-120476661D01*
X146573465Y-120431326D01*
X146584899Y-120393633D01*
X146603466Y-120358897D01*
X146628452Y-120328452D01*
X146658897Y-120303466D01*
X146693633Y-120284899D01*
X146731326Y-120273465D01*
X146776661Y-120269000D01*
X147863339Y-120269000D01*
X147908674Y-120273465D01*
G37*
G36*
X156798674Y-120273465D02*
G01*
X156836367Y-120284899D01*
X156871103Y-120303466D01*
X156901548Y-120328452D01*
X156926534Y-120358897D01*
X156945101Y-120393633D01*
X156956535Y-120431326D01*
X156961000Y-120476661D01*
X156961000Y-121313339D01*
X156956535Y-121358674D01*
X156945101Y-121396367D01*
X156926534Y-121431103D01*
X156901548Y-121461548D01*
X156871103Y-121486534D01*
X156836367Y-121505101D01*
X156798674Y-121516535D01*
X156753339Y-121521000D01*
X155666661Y-121521000D01*
X155621326Y-121516535D01*
X155583633Y-121505101D01*
X155548897Y-121486534D01*
X155518452Y-121461548D01*
X155493466Y-121431103D01*
X155474899Y-121396367D01*
X155463465Y-121358674D01*
X155459000Y-121313339D01*
X155459000Y-120476661D01*
X155463465Y-120431326D01*
X155474899Y-120393633D01*
X155493466Y-120358897D01*
X155518452Y-120328452D01*
X155548897Y-120303466D01*
X155583633Y-120284899D01*
X155621326Y-120273465D01*
X155666661Y-120269000D01*
X156753339Y-120269000D01*
X156798674Y-120273465D01*
G37*
G36*
X174578674Y-120273465D02*
G01*
X174616367Y-120284899D01*
X174651103Y-120303466D01*
X174681548Y-120328452D01*
X174706534Y-120358897D01*
X174725101Y-120393633D01*
X174736535Y-120431326D01*
X174741000Y-120476661D01*
X174741000Y-121313339D01*
X174736535Y-121358674D01*
X174725101Y-121396367D01*
X174706534Y-121431103D01*
X174681548Y-121461548D01*
X174651103Y-121486534D01*
X174616367Y-121505101D01*
X174578674Y-121516535D01*
X174533339Y-121521000D01*
X173446661Y-121521000D01*
X173401326Y-121516535D01*
X173363633Y-121505101D01*
X173328897Y-121486534D01*
X173298452Y-121461548D01*
X173273466Y-121431103D01*
X173254899Y-121396367D01*
X173243465Y-121358674D01*
X173239000Y-121313339D01*
X173239000Y-120476661D01*
X173243465Y-120431326D01*
X173254899Y-120393633D01*
X173273466Y-120358897D01*
X173298452Y-120328452D01*
X173328897Y-120303466D01*
X173363633Y-120284899D01*
X173401326Y-120273465D01*
X173446661Y-120269000D01*
X174533339Y-120269000D01*
X174578674Y-120273465D01*
G37*
G36*
X105998674Y-120273465D02*
G01*
X106036367Y-120284899D01*
X106071103Y-120303466D01*
X106101548Y-120328452D01*
X106126534Y-120358897D01*
X106145101Y-120393633D01*
X106156535Y-120431326D01*
X106161000Y-120476661D01*
X106161000Y-121313339D01*
X106156535Y-121358674D01*
X106145101Y-121396367D01*
X106126534Y-121431103D01*
X106101548Y-121461548D01*
X106071103Y-121486534D01*
X106036367Y-121505101D01*
X105998674Y-121516535D01*
X105953339Y-121521000D01*
X104866661Y-121521000D01*
X104821326Y-121516535D01*
X104783633Y-121505101D01*
X104748897Y-121486534D01*
X104718452Y-121461548D01*
X104693466Y-121431103D01*
X104674899Y-121396367D01*
X104663465Y-121358674D01*
X104659000Y-121313339D01*
X104659000Y-120476661D01*
X104663465Y-120431326D01*
X104674899Y-120393633D01*
X104693466Y-120358897D01*
X104718452Y-120328452D01*
X104748897Y-120303466D01*
X104783633Y-120284899D01*
X104821326Y-120273465D01*
X104866661Y-120269000D01*
X105953339Y-120269000D01*
X105998674Y-120273465D01*
G37*
G36*
X106211000Y-114876000D02*
G01*
X106046660Y-114876000D01*
X106022274Y-114878402D01*
X105998825Y-114885515D01*
X105977214Y-114897066D01*
X105958272Y-114912611D01*
X105942727Y-114931553D01*
X105931176Y-114953164D01*
X105924063Y-114976613D01*
X105921661Y-115000999D01*
X105924063Y-115025385D01*
X105931176Y-115048834D01*
X105942727Y-115070445D01*
X105958272Y-115089387D01*
X105967345Y-115097609D01*
X106044264Y-115160736D01*
X106116244Y-115248443D01*
X106134180Y-115282000D01*
X106169728Y-115348505D01*
X106169729Y-115348508D01*
X106202666Y-115457084D01*
X106213787Y-115570000D01*
X106202666Y-115682916D01*
X106178342Y-115763098D01*
X106169728Y-115791495D01*
X106150429Y-115827601D01*
X106116244Y-115891557D01*
X106044264Y-115979264D01*
X105956557Y-116051244D01*
X105875141Y-116094761D01*
X105854766Y-116108375D01*
X105837439Y-116125702D01*
X105823826Y-116146076D01*
X105814448Y-116168715D01*
X105809668Y-116192748D01*
X105809668Y-116217252D01*
X105814448Y-116241285D01*
X105823826Y-116263924D01*
X105837440Y-116284299D01*
X105854767Y-116301626D01*
X105875141Y-116315239D01*
X105956557Y-116358756D01*
X106044264Y-116430736D01*
X106116244Y-116518443D01*
X106134180Y-116552000D01*
X106169728Y-116618505D01*
X106169729Y-116618508D01*
X106202666Y-116727084D01*
X106213787Y-116840000D01*
X106202666Y-116952916D01*
X106169729Y-117061492D01*
X106169728Y-117061495D01*
X106150429Y-117097601D01*
X106116244Y-117161557D01*
X106044264Y-117249264D01*
X105956557Y-117321244D01*
X105903646Y-117349525D01*
X105856495Y-117374728D01*
X105856492Y-117374729D01*
X105747916Y-117407666D01*
X105663298Y-117416000D01*
X105156702Y-117416000D01*
X105072084Y-117407666D01*
X104963508Y-117374729D01*
X104963505Y-117374728D01*
X104916354Y-117349525D01*
X104863443Y-117321244D01*
X104775736Y-117249264D01*
X104703756Y-117161557D01*
X104669571Y-117097601D01*
X104650272Y-117061495D01*
X104650271Y-117061492D01*
X104617334Y-116952916D01*
X104606213Y-116840000D01*
X104617334Y-116727084D01*
X104650271Y-116618508D01*
X104650272Y-116618505D01*
X104685820Y-116552000D01*
X104703756Y-116518443D01*
X104775736Y-116430736D01*
X104863443Y-116358756D01*
X104944859Y-116315239D01*
X104965234Y-116301625D01*
X104982561Y-116284298D01*
X104996174Y-116263924D01*
X105005552Y-116241285D01*
X105010332Y-116217252D01*
X105010332Y-116192748D01*
X105005552Y-116168715D01*
X104996174Y-116146076D01*
X104982560Y-116125701D01*
X104965233Y-116108374D01*
X104944859Y-116094761D01*
X104863443Y-116051244D01*
X104775736Y-115979264D01*
X104703756Y-115891557D01*
X104669571Y-115827601D01*
X104650272Y-115791495D01*
X104641658Y-115763098D01*
X104617334Y-115682916D01*
X104606213Y-115570000D01*
X104617334Y-115457084D01*
X104650271Y-115348508D01*
X104650272Y-115348505D01*
X104685820Y-115282000D01*
X104703756Y-115248443D01*
X104775736Y-115160736D01*
X104852646Y-115097617D01*
X104869965Y-115080298D01*
X104883579Y-115059923D01*
X104892957Y-115037284D01*
X104897737Y-115013251D01*
X104897737Y-114988747D01*
X104892957Y-114964714D01*
X104883579Y-114942075D01*
X104869966Y-114921701D01*
X104852639Y-114904374D01*
X104832264Y-114890760D01*
X104809625Y-114881382D01*
X104785592Y-114876602D01*
X104773340Y-114876000D01*
X104609000Y-114876000D01*
X104609000Y-113724000D01*
X106211000Y-113724000D01*
X106211000Y-114876000D01*
G37*
G36*
X149391000Y-114885085D02*
G01*
X149389583Y-114885515D01*
X149367972Y-114897066D01*
X149349030Y-114912611D01*
X149333485Y-114931553D01*
X149321934Y-114953164D01*
X149314821Y-114976613D01*
X149312419Y-115000999D01*
X149314821Y-115025385D01*
X149321934Y-115048834D01*
X149333485Y-115070445D01*
X149340793Y-115080298D01*
X149352494Y-115094556D01*
X149373275Y-115133434D01*
X149386074Y-115175627D01*
X149391000Y-115225641D01*
X149391000Y-115914359D01*
X149386074Y-115964373D01*
X149373275Y-116006566D01*
X149352494Y-116045444D01*
X149324525Y-116079525D01*
X149289371Y-116108375D01*
X149272044Y-116125702D01*
X149258431Y-116146076D01*
X149249053Y-116168715D01*
X149244273Y-116192748D01*
X149244273Y-116217253D01*
X149249054Y-116241286D01*
X149258431Y-116263925D01*
X149272045Y-116284299D01*
X149289371Y-116301625D01*
X149324525Y-116330475D01*
X149352494Y-116364556D01*
X149373275Y-116403434D01*
X149386074Y-116445627D01*
X149391000Y-116495641D01*
X149391000Y-117184359D01*
X149386074Y-117234373D01*
X149373275Y-117276566D01*
X149352494Y-117315444D01*
X149324525Y-117349525D01*
X149290444Y-117377494D01*
X149251566Y-117398275D01*
X149209373Y-117411074D01*
X149159359Y-117416000D01*
X148020641Y-117416000D01*
X147970627Y-117411074D01*
X147928434Y-117398275D01*
X147889556Y-117377494D01*
X147855475Y-117349525D01*
X147827506Y-117315444D01*
X147806725Y-117276566D01*
X147793926Y-117234373D01*
X147789000Y-117184359D01*
X147789000Y-116495641D01*
X147793926Y-116445627D01*
X147806725Y-116403434D01*
X147827506Y-116364556D01*
X147855475Y-116330475D01*
X147890629Y-116301625D01*
X147907956Y-116284298D01*
X147921569Y-116263924D01*
X147930947Y-116241285D01*
X147935727Y-116217252D01*
X147935727Y-116192747D01*
X147930946Y-116168714D01*
X147921569Y-116146075D01*
X147907955Y-116125701D01*
X147890629Y-116108375D01*
X147855475Y-116079525D01*
X147827506Y-116045444D01*
X147806725Y-116006566D01*
X147793926Y-115964373D01*
X147789000Y-115914359D01*
X147789000Y-115225641D01*
X147793926Y-115175627D01*
X147806725Y-115133434D01*
X147827506Y-115094556D01*
X147839207Y-115080298D01*
X147852821Y-115059924D01*
X147862198Y-115037285D01*
X147866979Y-115013252D01*
X147866979Y-114988748D01*
X147862199Y-114964714D01*
X147852822Y-114942075D01*
X147839208Y-114921701D01*
X147821881Y-114904374D01*
X147801507Y-114890760D01*
X147789000Y-114885580D01*
X147789000Y-113724000D01*
X149391000Y-113724000D01*
X149391000Y-114885085D01*
G37*
G36*
X118818674Y-114823465D02*
G01*
X118856367Y-114834899D01*
X118891103Y-114853466D01*
X118921548Y-114878452D01*
X118946534Y-114908897D01*
X118965101Y-114943633D01*
X118976535Y-114981326D01*
X118981000Y-115026661D01*
X118981000Y-116113339D01*
X118976535Y-116158674D01*
X118965101Y-116196367D01*
X118946534Y-116231103D01*
X118921548Y-116261548D01*
X118891103Y-116286534D01*
X118856367Y-116305101D01*
X118818674Y-116316535D01*
X118773339Y-116321000D01*
X117936661Y-116321000D01*
X117891326Y-116316535D01*
X117853633Y-116305101D01*
X117818897Y-116286534D01*
X117788452Y-116261548D01*
X117763466Y-116231103D01*
X117744899Y-116196367D01*
X117733465Y-116158674D01*
X117729000Y-116113339D01*
X117729000Y-115026661D01*
X117733465Y-114981326D01*
X117744899Y-114943633D01*
X117763466Y-114908897D01*
X117788452Y-114878452D01*
X117818897Y-114853466D01*
X117853633Y-114834899D01*
X117891326Y-114823465D01*
X117936661Y-114819000D01*
X118773339Y-114819000D01*
X118818674Y-114823465D01*
G37*
G36*
X120868674Y-114823465D02*
G01*
X120906367Y-114834899D01*
X120941103Y-114853466D01*
X120971548Y-114878452D01*
X120996534Y-114908897D01*
X121015101Y-114943633D01*
X121026535Y-114981326D01*
X121031000Y-115026661D01*
X121031000Y-116113339D01*
X121026535Y-116158674D01*
X121015101Y-116196367D01*
X120996534Y-116231103D01*
X120971548Y-116261548D01*
X120941103Y-116286534D01*
X120906367Y-116305101D01*
X120868674Y-116316535D01*
X120823339Y-116321000D01*
X119986661Y-116321000D01*
X119941326Y-116316535D01*
X119903633Y-116305101D01*
X119868897Y-116286534D01*
X119838452Y-116261548D01*
X119813466Y-116231103D01*
X119794899Y-116196367D01*
X119783465Y-116158674D01*
X119779000Y-116113339D01*
X119779000Y-115026661D01*
X119783465Y-114981326D01*
X119794899Y-114943633D01*
X119813466Y-114908897D01*
X119838452Y-114878452D01*
X119868897Y-114853466D01*
X119903633Y-114834899D01*
X119941326Y-114823465D01*
X119986661Y-114819000D01*
X120823339Y-114819000D01*
X120868674Y-114823465D01*
G37*
G36*
X195955256Y-112691298D02*
G01*
X196061579Y-112712447D01*
X196362042Y-112836903D01*
X196632451Y-113017585D01*
X196862415Y-113247549D01*
X197043097Y-113517958D01*
X197167553Y-113818421D01*
X197231000Y-114137391D01*
X197231000Y-114462609D01*
X197167553Y-114781579D01*
X197101073Y-114942075D01*
X197043820Y-115080298D01*
X197043097Y-115082042D01*
X196862415Y-115352451D01*
X196632451Y-115582415D01*
X196362042Y-115763097D01*
X196362041Y-115763098D01*
X196362040Y-115763098D01*
X196293483Y-115791495D01*
X196061579Y-115887553D01*
X195955256Y-115908702D01*
X195742611Y-115951000D01*
X195417389Y-115951000D01*
X195204744Y-115908702D01*
X195098421Y-115887553D01*
X194866517Y-115791495D01*
X194797960Y-115763098D01*
X194797959Y-115763098D01*
X194797958Y-115763097D01*
X194527549Y-115582415D01*
X194297585Y-115352451D01*
X194116903Y-115082042D01*
X194116181Y-115080298D01*
X194058927Y-114942075D01*
X193992447Y-114781579D01*
X193929000Y-114462609D01*
X193929000Y-114137391D01*
X193992447Y-113818421D01*
X194116903Y-113517958D01*
X194297585Y-113247549D01*
X194527549Y-113017585D01*
X194797958Y-112836903D01*
X195098421Y-112712447D01*
X195204744Y-112691298D01*
X195417389Y-112649000D01*
X195742611Y-112649000D01*
X195955256Y-112691298D01*
G37*
G36*
X123898674Y-107203465D02*
G01*
X123936367Y-107214899D01*
X123971103Y-107233466D01*
X124001548Y-107258452D01*
X124026534Y-107288897D01*
X124045101Y-107323633D01*
X124056535Y-107361326D01*
X124061000Y-107406661D01*
X124061000Y-108493339D01*
X124056535Y-108538674D01*
X124045101Y-108576367D01*
X124026534Y-108611103D01*
X124001548Y-108641548D01*
X123971103Y-108666534D01*
X123936367Y-108685101D01*
X123898674Y-108696535D01*
X123853339Y-108701000D01*
X123016661Y-108701000D01*
X122971326Y-108696535D01*
X122933633Y-108685101D01*
X122898897Y-108666534D01*
X122868452Y-108641548D01*
X122843466Y-108611103D01*
X122824899Y-108576367D01*
X122813465Y-108538674D01*
X122809000Y-108493339D01*
X122809000Y-107406661D01*
X122813465Y-107361326D01*
X122824899Y-107323633D01*
X122843466Y-107288897D01*
X122868452Y-107258452D01*
X122898897Y-107233466D01*
X122933633Y-107214899D01*
X122971326Y-107203465D01*
X123016661Y-107199000D01*
X123853339Y-107199000D01*
X123898674Y-107203465D01*
G37*
G36*
X105873674Y-107203465D02*
G01*
X105911367Y-107214899D01*
X105946103Y-107233466D01*
X105976548Y-107258452D01*
X106001534Y-107288897D01*
X106020101Y-107323633D01*
X106031535Y-107361326D01*
X106036000Y-107406661D01*
X106036000Y-108493339D01*
X106031535Y-108538674D01*
X106020101Y-108576367D01*
X106001534Y-108611103D01*
X105976548Y-108641548D01*
X105946103Y-108666534D01*
X105911367Y-108685101D01*
X105873674Y-108696535D01*
X105828339Y-108701000D01*
X104991661Y-108701000D01*
X104946326Y-108696535D01*
X104908633Y-108685101D01*
X104873897Y-108666534D01*
X104843452Y-108641548D01*
X104818466Y-108611103D01*
X104799899Y-108576367D01*
X104788465Y-108538674D01*
X104784000Y-108493339D01*
X104784000Y-107406661D01*
X104788465Y-107361326D01*
X104799899Y-107323633D01*
X104818466Y-107288897D01*
X104843452Y-107258452D01*
X104873897Y-107233466D01*
X104908633Y-107214899D01*
X104946326Y-107203465D01*
X104991661Y-107199000D01*
X105828339Y-107199000D01*
X105873674Y-107203465D01*
G37*
G36*
X107923674Y-107203465D02*
G01*
X107961367Y-107214899D01*
X107996103Y-107233466D01*
X108026548Y-107258452D01*
X108051534Y-107288897D01*
X108070101Y-107323633D01*
X108081535Y-107361326D01*
X108086000Y-107406661D01*
X108086000Y-108493339D01*
X108081535Y-108538674D01*
X108070101Y-108576367D01*
X108051534Y-108611103D01*
X108026548Y-108641548D01*
X107996103Y-108666534D01*
X107961367Y-108685101D01*
X107923674Y-108696535D01*
X107878339Y-108701000D01*
X107041661Y-108701000D01*
X106996326Y-108696535D01*
X106958633Y-108685101D01*
X106923897Y-108666534D01*
X106893452Y-108641548D01*
X106868466Y-108611103D01*
X106849899Y-108576367D01*
X106838465Y-108538674D01*
X106834000Y-108493339D01*
X106834000Y-107406661D01*
X106838465Y-107361326D01*
X106849899Y-107323633D01*
X106868466Y-107288897D01*
X106893452Y-107258452D01*
X106923897Y-107233466D01*
X106958633Y-107214899D01*
X106996326Y-107203465D01*
X107041661Y-107199000D01*
X107878339Y-107199000D01*
X107923674Y-107203465D01*
G37*
G36*
X125948674Y-107203465D02*
G01*
X125986367Y-107214899D01*
X126021103Y-107233466D01*
X126051548Y-107258452D01*
X126076534Y-107288897D01*
X126095101Y-107323633D01*
X126106535Y-107361326D01*
X126111000Y-107406661D01*
X126111000Y-108493339D01*
X126106535Y-108538674D01*
X126095101Y-108576367D01*
X126076534Y-108611103D01*
X126051548Y-108641548D01*
X126021103Y-108666534D01*
X125986367Y-108685101D01*
X125948674Y-108696535D01*
X125903339Y-108701000D01*
X125066661Y-108701000D01*
X125021326Y-108696535D01*
X124983633Y-108685101D01*
X124948897Y-108666534D01*
X124918452Y-108641548D01*
X124893466Y-108611103D01*
X124874899Y-108576367D01*
X124863465Y-108538674D01*
X124859000Y-108493339D01*
X124859000Y-107406661D01*
X124863465Y-107361326D01*
X124874899Y-107323633D01*
X124893466Y-107288897D01*
X124918452Y-107258452D01*
X124948897Y-107233466D01*
X124983633Y-107214899D01*
X125021326Y-107203465D01*
X125066661Y-107199000D01*
X125903339Y-107199000D01*
X125948674Y-107203465D01*
G37*
G36*
X195018674Y-105933465D02*
G01*
X195056367Y-105944899D01*
X195091103Y-105963466D01*
X195121548Y-105988452D01*
X195146534Y-106018897D01*
X195165101Y-106053633D01*
X195176535Y-106091326D01*
X195181000Y-106136661D01*
X195181000Y-107223339D01*
X195176535Y-107268674D01*
X195165101Y-107306367D01*
X195146534Y-107341103D01*
X195121548Y-107371548D01*
X195091103Y-107396534D01*
X195056367Y-107415101D01*
X195018674Y-107426535D01*
X194973339Y-107431000D01*
X194136661Y-107431000D01*
X194091326Y-107426535D01*
X194053633Y-107415101D01*
X194018897Y-107396534D01*
X193988452Y-107371548D01*
X193963466Y-107341103D01*
X193944899Y-107306367D01*
X193933465Y-107268674D01*
X193929000Y-107223339D01*
X193929000Y-106136661D01*
X193933465Y-106091326D01*
X193944899Y-106053633D01*
X193963466Y-106018897D01*
X193988452Y-105988452D01*
X194018897Y-105963466D01*
X194053633Y-105944899D01*
X194091326Y-105933465D01*
X194136661Y-105929000D01*
X194973339Y-105929000D01*
X195018674Y-105933465D01*
G37*
G36*
X197068674Y-105933465D02*
G01*
X197106367Y-105944899D01*
X197141103Y-105963466D01*
X197171548Y-105988452D01*
X197196534Y-106018897D01*
X197215101Y-106053633D01*
X197226535Y-106091326D01*
X197231000Y-106136661D01*
X197231000Y-107223339D01*
X197226535Y-107268674D01*
X197215101Y-107306367D01*
X197196534Y-107341103D01*
X197171548Y-107371548D01*
X197141103Y-107396534D01*
X197106367Y-107415101D01*
X197068674Y-107426535D01*
X197023339Y-107431000D01*
X196186661Y-107431000D01*
X196141326Y-107426535D01*
X196103633Y-107415101D01*
X196068897Y-107396534D01*
X196038452Y-107371548D01*
X196013466Y-107341103D01*
X195994899Y-107306367D01*
X195983465Y-107268674D01*
X195979000Y-107223339D01*
X195979000Y-106136661D01*
X195983465Y-106091326D01*
X195994899Y-106053633D01*
X196013466Y-106018897D01*
X196038452Y-105988452D01*
X196068897Y-105963466D01*
X196103633Y-105944899D01*
X196141326Y-105933465D01*
X196186661Y-105929000D01*
X197023339Y-105929000D01*
X197068674Y-105933465D01*
G37*
G36*
X186908674Y-105933465D02*
G01*
X186946367Y-105944899D01*
X186981103Y-105963466D01*
X187011548Y-105988452D01*
X187036534Y-106018897D01*
X187055101Y-106053633D01*
X187066535Y-106091326D01*
X187071000Y-106136661D01*
X187071000Y-107223339D01*
X187066535Y-107268674D01*
X187055101Y-107306367D01*
X187036534Y-107341103D01*
X187011548Y-107371548D01*
X186981103Y-107396534D01*
X186946367Y-107415101D01*
X186908674Y-107426535D01*
X186863339Y-107431000D01*
X186026661Y-107431000D01*
X185981326Y-107426535D01*
X185943633Y-107415101D01*
X185908897Y-107396534D01*
X185878452Y-107371548D01*
X185853466Y-107341103D01*
X185834899Y-107306367D01*
X185823465Y-107268674D01*
X185819000Y-107223339D01*
X185819000Y-106136661D01*
X185823465Y-106091326D01*
X185834899Y-106053633D01*
X185853466Y-106018897D01*
X185878452Y-105988452D01*
X185908897Y-105963466D01*
X185943633Y-105944899D01*
X185981326Y-105933465D01*
X186026661Y-105929000D01*
X186863339Y-105929000D01*
X186908674Y-105933465D01*
G37*
G36*
X184858674Y-105933465D02*
G01*
X184896367Y-105944899D01*
X184931103Y-105963466D01*
X184961548Y-105988452D01*
X184986534Y-106018897D01*
X185005101Y-106053633D01*
X185016535Y-106091326D01*
X185021000Y-106136661D01*
X185021000Y-107223339D01*
X185016535Y-107268674D01*
X185005101Y-107306367D01*
X184986534Y-107341103D01*
X184961548Y-107371548D01*
X184931103Y-107396534D01*
X184896367Y-107415101D01*
X184858674Y-107426535D01*
X184813339Y-107431000D01*
X183976661Y-107431000D01*
X183931326Y-107426535D01*
X183893633Y-107415101D01*
X183858897Y-107396534D01*
X183828452Y-107371548D01*
X183803466Y-107341103D01*
X183784899Y-107306367D01*
X183773465Y-107268674D01*
X183769000Y-107223339D01*
X183769000Y-106136661D01*
X183773465Y-106091326D01*
X183784899Y-106053633D01*
X183803466Y-106018897D01*
X183828452Y-105988452D01*
X183858897Y-105963466D01*
X183893633Y-105944899D01*
X183931326Y-105933465D01*
X183976661Y-105929000D01*
X184813339Y-105929000D01*
X184858674Y-105933465D01*
G37*
G36*
X176748674Y-105933465D02*
G01*
X176786367Y-105944899D01*
X176821103Y-105963466D01*
X176851548Y-105988452D01*
X176876534Y-106018897D01*
X176895101Y-106053633D01*
X176906535Y-106091326D01*
X176911000Y-106136661D01*
X176911000Y-107223339D01*
X176906535Y-107268674D01*
X176895101Y-107306367D01*
X176876534Y-107341103D01*
X176851548Y-107371548D01*
X176821103Y-107396534D01*
X176786367Y-107415101D01*
X176748674Y-107426535D01*
X176703339Y-107431000D01*
X175866661Y-107431000D01*
X175821326Y-107426535D01*
X175783633Y-107415101D01*
X175748897Y-107396534D01*
X175718452Y-107371548D01*
X175693466Y-107341103D01*
X175674899Y-107306367D01*
X175663465Y-107268674D01*
X175659000Y-107223339D01*
X175659000Y-106136661D01*
X175663465Y-106091326D01*
X175674899Y-106053633D01*
X175693466Y-106018897D01*
X175718452Y-105988452D01*
X175748897Y-105963466D01*
X175783633Y-105944899D01*
X175821326Y-105933465D01*
X175866661Y-105929000D01*
X176703339Y-105929000D01*
X176748674Y-105933465D01*
G37*
G36*
X174698674Y-105933465D02*
G01*
X174736367Y-105944899D01*
X174771103Y-105963466D01*
X174801548Y-105988452D01*
X174826534Y-106018897D01*
X174845101Y-106053633D01*
X174856535Y-106091326D01*
X174861000Y-106136661D01*
X174861000Y-107223339D01*
X174856535Y-107268674D01*
X174845101Y-107306367D01*
X174826534Y-107341103D01*
X174801548Y-107371548D01*
X174771103Y-107396534D01*
X174736367Y-107415101D01*
X174698674Y-107426535D01*
X174653339Y-107431000D01*
X173816661Y-107431000D01*
X173771326Y-107426535D01*
X173733633Y-107415101D01*
X173698897Y-107396534D01*
X173668452Y-107371548D01*
X173643466Y-107341103D01*
X173624899Y-107306367D01*
X173613465Y-107268674D01*
X173609000Y-107223339D01*
X173609000Y-106136661D01*
X173613465Y-106091326D01*
X173624899Y-106053633D01*
X173643466Y-106018897D01*
X173668452Y-105988452D01*
X173698897Y-105963466D01*
X173733633Y-105944899D01*
X173771326Y-105933465D01*
X173816661Y-105929000D01*
X174653339Y-105929000D01*
X174698674Y-105933465D01*
G37*
G36*
X166588674Y-105933465D02*
G01*
X166626367Y-105944899D01*
X166661103Y-105963466D01*
X166691548Y-105988452D01*
X166716534Y-106018897D01*
X166735101Y-106053633D01*
X166746535Y-106091326D01*
X166751000Y-106136661D01*
X166751000Y-107223339D01*
X166746535Y-107268674D01*
X166735101Y-107306367D01*
X166716534Y-107341103D01*
X166691548Y-107371548D01*
X166661103Y-107396534D01*
X166626367Y-107415101D01*
X166588674Y-107426535D01*
X166543339Y-107431000D01*
X165706661Y-107431000D01*
X165661326Y-107426535D01*
X165623633Y-107415101D01*
X165588897Y-107396534D01*
X165558452Y-107371548D01*
X165533466Y-107341103D01*
X165514899Y-107306367D01*
X165503465Y-107268674D01*
X165499000Y-107223339D01*
X165499000Y-106136661D01*
X165503465Y-106091326D01*
X165514899Y-106053633D01*
X165533466Y-106018897D01*
X165558452Y-105988452D01*
X165588897Y-105963466D01*
X165623633Y-105944899D01*
X165661326Y-105933465D01*
X165706661Y-105929000D01*
X166543339Y-105929000D01*
X166588674Y-105933465D01*
G37*
G36*
X164538674Y-105933465D02*
G01*
X164576367Y-105944899D01*
X164611103Y-105963466D01*
X164641548Y-105988452D01*
X164666534Y-106018897D01*
X164685101Y-106053633D01*
X164696535Y-106091326D01*
X164701000Y-106136661D01*
X164701000Y-107223339D01*
X164696535Y-107268674D01*
X164685101Y-107306367D01*
X164666534Y-107341103D01*
X164641548Y-107371548D01*
X164611103Y-107396534D01*
X164576367Y-107415101D01*
X164538674Y-107426535D01*
X164493339Y-107431000D01*
X163656661Y-107431000D01*
X163611326Y-107426535D01*
X163573633Y-107415101D01*
X163538897Y-107396534D01*
X163508452Y-107371548D01*
X163483466Y-107341103D01*
X163464899Y-107306367D01*
X163453465Y-107268674D01*
X163449000Y-107223339D01*
X163449000Y-106136661D01*
X163453465Y-106091326D01*
X163464899Y-106053633D01*
X163483466Y-106018897D01*
X163508452Y-105988452D01*
X163538897Y-105963466D01*
X163573633Y-105944899D01*
X163611326Y-105933465D01*
X163656661Y-105929000D01*
X164493339Y-105929000D01*
X164538674Y-105933465D01*
G37*
G36*
X133883229Y-104866704D02*
G01*
X134038101Y-104930854D01*
X134177482Y-105023986D01*
X134296016Y-105142520D01*
X134389148Y-105281901D01*
X134453298Y-105436773D01*
X134486001Y-105601185D01*
X134486001Y-105768817D01*
X134453298Y-105933229D01*
X134389148Y-106088101D01*
X134296016Y-106227482D01*
X134177482Y-106346016D01*
X134038101Y-106439148D01*
X133883229Y-106503298D01*
X133718817Y-106536001D01*
X133551185Y-106536001D01*
X133386773Y-106503298D01*
X133231901Y-106439148D01*
X133092520Y-106346016D01*
X132973986Y-106227482D01*
X132880854Y-106088101D01*
X132816704Y-105933229D01*
X132784001Y-105768817D01*
X132784001Y-105601185D01*
X132816704Y-105436773D01*
X132880854Y-105281901D01*
X132973986Y-105142520D01*
X133092520Y-105023986D01*
X133231901Y-104930854D01*
X133386773Y-104866704D01*
X133551185Y-104834001D01*
X133718817Y-104834001D01*
X133883229Y-104866704D01*
G37*
G36*
X149123229Y-104866704D02*
G01*
X149278101Y-104930854D01*
X149417482Y-105023986D01*
X149536016Y-105142520D01*
X149629148Y-105281901D01*
X149693298Y-105436773D01*
X149726001Y-105601185D01*
X149726001Y-105768817D01*
X149693298Y-105933229D01*
X149629148Y-106088101D01*
X149536016Y-106227482D01*
X149417482Y-106346016D01*
X149278101Y-106439148D01*
X149123229Y-106503298D01*
X148958817Y-106536001D01*
X148791185Y-106536001D01*
X148626773Y-106503298D01*
X148471901Y-106439148D01*
X148332520Y-106346016D01*
X148213986Y-106227482D01*
X148120854Y-106088101D01*
X148056704Y-105933229D01*
X148024001Y-105768817D01*
X148024001Y-105601185D01*
X148056704Y-105436773D01*
X148120854Y-105281901D01*
X148213986Y-105142520D01*
X148332520Y-105023986D01*
X148471901Y-104930854D01*
X148626773Y-104866704D01*
X148791185Y-104834001D01*
X148958817Y-104834001D01*
X149123229Y-104866704D01*
G37*
G36*
X176986564Y-102549389D02*
G01*
X177114836Y-102602521D01*
X177177835Y-102628616D01*
X177347378Y-102741901D01*
X177349973Y-102743635D01*
X177496365Y-102890027D01*
X177611385Y-103062167D01*
X177690611Y-103253436D01*
X177731000Y-103456484D01*
X177731000Y-103663516D01*
X177690611Y-103866564D01*
X177611385Y-104057833D01*
X177611384Y-104057835D01*
X177496365Y-104229973D01*
X177349973Y-104376365D01*
X177177835Y-104491384D01*
X177177834Y-104491385D01*
X177177833Y-104491385D01*
X176986564Y-104570611D01*
X176783516Y-104611000D01*
X176576484Y-104611000D01*
X176373436Y-104570611D01*
X176182167Y-104491385D01*
X176182166Y-104491385D01*
X176182165Y-104491384D01*
X176010027Y-104376365D01*
X175863635Y-104229973D01*
X175748616Y-104057835D01*
X175748615Y-104057833D01*
X175669389Y-103866564D01*
X175629000Y-103663516D01*
X175629000Y-103456484D01*
X175669389Y-103253436D01*
X175748615Y-103062167D01*
X175863635Y-102890027D01*
X176010027Y-102743635D01*
X176012622Y-102741901D01*
X176182165Y-102628616D01*
X176245164Y-102602521D01*
X176373436Y-102549389D01*
X176576484Y-102509000D01*
X176783516Y-102509000D01*
X176986564Y-102549389D01*
G37*
G36*
X197306564Y-102549389D02*
G01*
X197434836Y-102602521D01*
X197497835Y-102628616D01*
X197667378Y-102741901D01*
X197669973Y-102743635D01*
X197816365Y-102890027D01*
X197931385Y-103062167D01*
X198010611Y-103253436D01*
X198051000Y-103456484D01*
X198051000Y-103663516D01*
X198010611Y-103866564D01*
X197931385Y-104057833D01*
X197931384Y-104057835D01*
X197816365Y-104229973D01*
X197669973Y-104376365D01*
X197497835Y-104491384D01*
X197497834Y-104491385D01*
X197497833Y-104491385D01*
X197306564Y-104570611D01*
X197103516Y-104611000D01*
X196896484Y-104611000D01*
X196693436Y-104570611D01*
X196502167Y-104491385D01*
X196502166Y-104491385D01*
X196502165Y-104491384D01*
X196330027Y-104376365D01*
X196183635Y-104229973D01*
X196068616Y-104057835D01*
X196068615Y-104057833D01*
X195989389Y-103866564D01*
X195949000Y-103663516D01*
X195949000Y-103456484D01*
X195989389Y-103253436D01*
X196068615Y-103062167D01*
X196183635Y-102890027D01*
X196330027Y-102743635D01*
X196332622Y-102741901D01*
X196502165Y-102628616D01*
X196565164Y-102602521D01*
X196693436Y-102549389D01*
X196896484Y-102509000D01*
X197103516Y-102509000D01*
X197306564Y-102549389D01*
G37*
G36*
X166826564Y-102549389D02*
G01*
X166954836Y-102602521D01*
X167017835Y-102628616D01*
X167187378Y-102741901D01*
X167189973Y-102743635D01*
X167336365Y-102890027D01*
X167451385Y-103062167D01*
X167530611Y-103253436D01*
X167571000Y-103456484D01*
X167571000Y-103663516D01*
X167530611Y-103866564D01*
X167451385Y-104057833D01*
X167451384Y-104057835D01*
X167336365Y-104229973D01*
X167189973Y-104376365D01*
X167017835Y-104491384D01*
X167017834Y-104491385D01*
X167017833Y-104491385D01*
X166826564Y-104570611D01*
X166623516Y-104611000D01*
X166416484Y-104611000D01*
X166213436Y-104570611D01*
X166022167Y-104491385D01*
X166022166Y-104491385D01*
X166022165Y-104491384D01*
X165850027Y-104376365D01*
X165703635Y-104229973D01*
X165588616Y-104057835D01*
X165588615Y-104057833D01*
X165509389Y-103866564D01*
X165469000Y-103663516D01*
X165469000Y-103456484D01*
X165509389Y-103253436D01*
X165588615Y-103062167D01*
X165703635Y-102890027D01*
X165850027Y-102743635D01*
X165852622Y-102741901D01*
X166022165Y-102628616D01*
X166085164Y-102602521D01*
X166213436Y-102549389D01*
X166416484Y-102509000D01*
X166623516Y-102509000D01*
X166826564Y-102549389D01*
G37*
G36*
X160326564Y-102549389D02*
G01*
X160454836Y-102602521D01*
X160517835Y-102628616D01*
X160687378Y-102741901D01*
X160689973Y-102743635D01*
X160836365Y-102890027D01*
X160951385Y-103062167D01*
X161030611Y-103253436D01*
X161071000Y-103456484D01*
X161071000Y-103663516D01*
X161030611Y-103866564D01*
X160951385Y-104057833D01*
X160951384Y-104057835D01*
X160836365Y-104229973D01*
X160689973Y-104376365D01*
X160517835Y-104491384D01*
X160517834Y-104491385D01*
X160517833Y-104491385D01*
X160326564Y-104570611D01*
X160123516Y-104611000D01*
X159916484Y-104611000D01*
X159713436Y-104570611D01*
X159522167Y-104491385D01*
X159522166Y-104491385D01*
X159522165Y-104491384D01*
X159350027Y-104376365D01*
X159203635Y-104229973D01*
X159088616Y-104057835D01*
X159088615Y-104057833D01*
X159009389Y-103866564D01*
X158969000Y-103663516D01*
X158969000Y-103456484D01*
X159009389Y-103253436D01*
X159088615Y-103062167D01*
X159203635Y-102890027D01*
X159350027Y-102743635D01*
X159352622Y-102741901D01*
X159522165Y-102628616D01*
X159585164Y-102602521D01*
X159713436Y-102549389D01*
X159916484Y-102509000D01*
X160123516Y-102509000D01*
X160326564Y-102549389D01*
G37*
G36*
X170486564Y-102549389D02*
G01*
X170614836Y-102602521D01*
X170677835Y-102628616D01*
X170847378Y-102741901D01*
X170849973Y-102743635D01*
X170996365Y-102890027D01*
X171111385Y-103062167D01*
X171190611Y-103253436D01*
X171231000Y-103456484D01*
X171231000Y-103663516D01*
X171190611Y-103866564D01*
X171111385Y-104057833D01*
X171111384Y-104057835D01*
X170996365Y-104229973D01*
X170849973Y-104376365D01*
X170677835Y-104491384D01*
X170677834Y-104491385D01*
X170677833Y-104491385D01*
X170486564Y-104570611D01*
X170283516Y-104611000D01*
X170076484Y-104611000D01*
X169873436Y-104570611D01*
X169682167Y-104491385D01*
X169682166Y-104491385D01*
X169682165Y-104491384D01*
X169510027Y-104376365D01*
X169363635Y-104229973D01*
X169248616Y-104057835D01*
X169248615Y-104057833D01*
X169169389Y-103866564D01*
X169129000Y-103663516D01*
X169129000Y-103456484D01*
X169169389Y-103253436D01*
X169248615Y-103062167D01*
X169363635Y-102890027D01*
X169510027Y-102743635D01*
X169512622Y-102741901D01*
X169682165Y-102628616D01*
X169745164Y-102602521D01*
X169873436Y-102549389D01*
X170076484Y-102509000D01*
X170283516Y-102509000D01*
X170486564Y-102549389D01*
G37*
G36*
X187146564Y-102549389D02*
G01*
X187274836Y-102602521D01*
X187337835Y-102628616D01*
X187507378Y-102741901D01*
X187509973Y-102743635D01*
X187656365Y-102890027D01*
X187771385Y-103062167D01*
X187850611Y-103253436D01*
X187891000Y-103456484D01*
X187891000Y-103663516D01*
X187850611Y-103866564D01*
X187771385Y-104057833D01*
X187771384Y-104057835D01*
X187656365Y-104229973D01*
X187509973Y-104376365D01*
X187337835Y-104491384D01*
X187337834Y-104491385D01*
X187337833Y-104491385D01*
X187146564Y-104570611D01*
X186943516Y-104611000D01*
X186736484Y-104611000D01*
X186533436Y-104570611D01*
X186342167Y-104491385D01*
X186342166Y-104491385D01*
X186342165Y-104491384D01*
X186170027Y-104376365D01*
X186023635Y-104229973D01*
X185908616Y-104057835D01*
X185908615Y-104057833D01*
X185829389Y-103866564D01*
X185789000Y-103663516D01*
X185789000Y-103456484D01*
X185829389Y-103253436D01*
X185908615Y-103062167D01*
X186023635Y-102890027D01*
X186170027Y-102743635D01*
X186172622Y-102741901D01*
X186342165Y-102628616D01*
X186405164Y-102602521D01*
X186533436Y-102549389D01*
X186736484Y-102509000D01*
X186943516Y-102509000D01*
X187146564Y-102549389D01*
G37*
G36*
X180646564Y-102549389D02*
G01*
X180774836Y-102602521D01*
X180837835Y-102628616D01*
X181007378Y-102741901D01*
X181009973Y-102743635D01*
X181156365Y-102890027D01*
X181271385Y-103062167D01*
X181350611Y-103253436D01*
X181391000Y-103456484D01*
X181391000Y-103663516D01*
X181350611Y-103866564D01*
X181271385Y-104057833D01*
X181271384Y-104057835D01*
X181156365Y-104229973D01*
X181009973Y-104376365D01*
X180837835Y-104491384D01*
X180837834Y-104491385D01*
X180837833Y-104491385D01*
X180646564Y-104570611D01*
X180443516Y-104611000D01*
X180236484Y-104611000D01*
X180033436Y-104570611D01*
X179842167Y-104491385D01*
X179842166Y-104491385D01*
X179842165Y-104491384D01*
X179670027Y-104376365D01*
X179523635Y-104229973D01*
X179408616Y-104057835D01*
X179408615Y-104057833D01*
X179329389Y-103866564D01*
X179289000Y-103663516D01*
X179289000Y-103456484D01*
X179329389Y-103253436D01*
X179408615Y-103062167D01*
X179523635Y-102890027D01*
X179670027Y-102743635D01*
X179672622Y-102741901D01*
X179842165Y-102628616D01*
X179905164Y-102602521D01*
X180033436Y-102549389D01*
X180236484Y-102509000D01*
X180443516Y-102509000D01*
X180646564Y-102549389D01*
G37*
G36*
X190806564Y-102549389D02*
G01*
X190934836Y-102602521D01*
X190997835Y-102628616D01*
X191167378Y-102741901D01*
X191169973Y-102743635D01*
X191316365Y-102890027D01*
X191431385Y-103062167D01*
X191510611Y-103253436D01*
X191551000Y-103456484D01*
X191551000Y-103663516D01*
X191510611Y-103866564D01*
X191431385Y-104057833D01*
X191431384Y-104057835D01*
X191316365Y-104229973D01*
X191169973Y-104376365D01*
X190997835Y-104491384D01*
X190997834Y-104491385D01*
X190997833Y-104491385D01*
X190806564Y-104570611D01*
X190603516Y-104611000D01*
X190396484Y-104611000D01*
X190193436Y-104570611D01*
X190002167Y-104491385D01*
X190002166Y-104491385D01*
X190002165Y-104491384D01*
X189830027Y-104376365D01*
X189683635Y-104229973D01*
X189568616Y-104057835D01*
X189568615Y-104057833D01*
X189489389Y-103866564D01*
X189449000Y-103663516D01*
X189449000Y-103456484D01*
X189489389Y-103253436D01*
X189568615Y-103062167D01*
X189683635Y-102890027D01*
X189830027Y-102743635D01*
X189832622Y-102741901D01*
X190002165Y-102628616D01*
X190065164Y-102602521D01*
X190193436Y-102549389D01*
X190396484Y-102509000D01*
X190603516Y-102509000D01*
X190806564Y-102549389D01*
G37*
G36*
X149123229Y-102326704D02*
G01*
X149278101Y-102390854D01*
X149417482Y-102483986D01*
X149536016Y-102602520D01*
X149629148Y-102741901D01*
X149693298Y-102896773D01*
X149726001Y-103061185D01*
X149726001Y-103228817D01*
X149693298Y-103393229D01*
X149629148Y-103548101D01*
X149536016Y-103687482D01*
X149417482Y-103806016D01*
X149278101Y-103899148D01*
X149123229Y-103963298D01*
X148958817Y-103996001D01*
X148791185Y-103996001D01*
X148626773Y-103963298D01*
X148471901Y-103899148D01*
X148332520Y-103806016D01*
X148213986Y-103687482D01*
X148120854Y-103548101D01*
X148056704Y-103393229D01*
X148024001Y-103228817D01*
X148024001Y-103061185D01*
X148056704Y-102896773D01*
X148120854Y-102741901D01*
X148213986Y-102602520D01*
X148332520Y-102483986D01*
X148471901Y-102390854D01*
X148626773Y-102326704D01*
X148791185Y-102294001D01*
X148958817Y-102294001D01*
X149123229Y-102326704D01*
G37*
G36*
X133883229Y-102326704D02*
G01*
X134038101Y-102390854D01*
X134177482Y-102483986D01*
X134296016Y-102602520D01*
X134389148Y-102741901D01*
X134453298Y-102896773D01*
X134486001Y-103061185D01*
X134486001Y-103228817D01*
X134453298Y-103393229D01*
X134389148Y-103548101D01*
X134296016Y-103687482D01*
X134177482Y-103806016D01*
X134038101Y-103899148D01*
X133883229Y-103963298D01*
X133718817Y-103996001D01*
X133551185Y-103996001D01*
X133386773Y-103963298D01*
X133231901Y-103899148D01*
X133092520Y-103806016D01*
X132973986Y-103687482D01*
X132880854Y-103548101D01*
X132816704Y-103393229D01*
X132784001Y-103228817D01*
X132784001Y-103061185D01*
X132816704Y-102896773D01*
X132880854Y-102741901D01*
X132973986Y-102602520D01*
X133092520Y-102483986D01*
X133231901Y-102390854D01*
X133386773Y-102326704D01*
X133551185Y-102294001D01*
X133718817Y-102294001D01*
X133883229Y-102326704D01*
G37*
G36*
X125948674Y-102123465D02*
G01*
X125986367Y-102134899D01*
X126021103Y-102153466D01*
X126051548Y-102178452D01*
X126076534Y-102208897D01*
X126095101Y-102243633D01*
X126106535Y-102281326D01*
X126111000Y-102326661D01*
X126111000Y-103413339D01*
X126106535Y-103458674D01*
X126095101Y-103496367D01*
X126076534Y-103531103D01*
X126051548Y-103561548D01*
X126021103Y-103586534D01*
X125986367Y-103605101D01*
X125948674Y-103616535D01*
X125903339Y-103621000D01*
X125066661Y-103621000D01*
X125021326Y-103616535D01*
X124983633Y-103605101D01*
X124948897Y-103586534D01*
X124918452Y-103561548D01*
X124893466Y-103531103D01*
X124874899Y-103496367D01*
X124863465Y-103458674D01*
X124859000Y-103413339D01*
X124859000Y-102326661D01*
X124863465Y-102281326D01*
X124874899Y-102243633D01*
X124893466Y-102208897D01*
X124918452Y-102178452D01*
X124948897Y-102153466D01*
X124983633Y-102134899D01*
X125021326Y-102123465D01*
X125066661Y-102119000D01*
X125903339Y-102119000D01*
X125948674Y-102123465D01*
G37*
G36*
X123898674Y-102123465D02*
G01*
X123936367Y-102134899D01*
X123971103Y-102153466D01*
X124001548Y-102178452D01*
X124026534Y-102208897D01*
X124045101Y-102243633D01*
X124056535Y-102281326D01*
X124061000Y-102326661D01*
X124061000Y-103413339D01*
X124056535Y-103458674D01*
X124045101Y-103496367D01*
X124026534Y-103531103D01*
X124001548Y-103561548D01*
X123971103Y-103586534D01*
X123936367Y-103605101D01*
X123898674Y-103616535D01*
X123853339Y-103621000D01*
X123016661Y-103621000D01*
X122971326Y-103616535D01*
X122933633Y-103605101D01*
X122898897Y-103586534D01*
X122868452Y-103561548D01*
X122843466Y-103531103D01*
X122824899Y-103496367D01*
X122813465Y-103458674D01*
X122809000Y-103413339D01*
X122809000Y-102326661D01*
X122813465Y-102281326D01*
X122824899Y-102243633D01*
X122843466Y-102208897D01*
X122868452Y-102178452D01*
X122898897Y-102153466D01*
X122933633Y-102134899D01*
X122971326Y-102123465D01*
X123016661Y-102119000D01*
X123853339Y-102119000D01*
X123898674Y-102123465D01*
G37*
G36*
X107923674Y-102123465D02*
G01*
X107961367Y-102134899D01*
X107996103Y-102153466D01*
X108026548Y-102178452D01*
X108051534Y-102208897D01*
X108070101Y-102243633D01*
X108081535Y-102281326D01*
X108086000Y-102326661D01*
X108086000Y-103413339D01*
X108081535Y-103458674D01*
X108070101Y-103496367D01*
X108051534Y-103531103D01*
X108026548Y-103561548D01*
X107996103Y-103586534D01*
X107961367Y-103605101D01*
X107923674Y-103616535D01*
X107878339Y-103621000D01*
X107041661Y-103621000D01*
X106996326Y-103616535D01*
X106958633Y-103605101D01*
X106923897Y-103586534D01*
X106893452Y-103561548D01*
X106868466Y-103531103D01*
X106849899Y-103496367D01*
X106838465Y-103458674D01*
X106834000Y-103413339D01*
X106834000Y-102326661D01*
X106838465Y-102281326D01*
X106849899Y-102243633D01*
X106868466Y-102208897D01*
X106893452Y-102178452D01*
X106923897Y-102153466D01*
X106958633Y-102134899D01*
X106996326Y-102123465D01*
X107041661Y-102119000D01*
X107878339Y-102119000D01*
X107923674Y-102123465D01*
G37*
G36*
X105873674Y-102123465D02*
G01*
X105911367Y-102134899D01*
X105946103Y-102153466D01*
X105976548Y-102178452D01*
X106001534Y-102208897D01*
X106020101Y-102243633D01*
X106031535Y-102281326D01*
X106036000Y-102326661D01*
X106036000Y-103413339D01*
X106031535Y-103458674D01*
X106020101Y-103496367D01*
X106001534Y-103531103D01*
X105976548Y-103561548D01*
X105946103Y-103586534D01*
X105911367Y-103605101D01*
X105873674Y-103616535D01*
X105828339Y-103621000D01*
X104991661Y-103621000D01*
X104946326Y-103616535D01*
X104908633Y-103605101D01*
X104873897Y-103586534D01*
X104843452Y-103561548D01*
X104818466Y-103531103D01*
X104799899Y-103496367D01*
X104788465Y-103458674D01*
X104784000Y-103413339D01*
X104784000Y-102326661D01*
X104788465Y-102281326D01*
X104799899Y-102243633D01*
X104818466Y-102208897D01*
X104843452Y-102178452D01*
X104873897Y-102153466D01*
X104908633Y-102134899D01*
X104946326Y-102123465D01*
X104991661Y-102119000D01*
X105828339Y-102119000D01*
X105873674Y-102123465D01*
G37*
G36*
X149123229Y-99786704D02*
G01*
X149278101Y-99850854D01*
X149417482Y-99943986D01*
X149536016Y-100062520D01*
X149629148Y-100201901D01*
X149693298Y-100356773D01*
X149726001Y-100521185D01*
X149726001Y-100688817D01*
X149693298Y-100853229D01*
X149629148Y-101008101D01*
X149536016Y-101147482D01*
X149417482Y-101266016D01*
X149278101Y-101359148D01*
X149123229Y-101423298D01*
X148958817Y-101456001D01*
X148791185Y-101456001D01*
X148626773Y-101423298D01*
X148471901Y-101359148D01*
X148332520Y-101266016D01*
X148213986Y-101147482D01*
X148120854Y-101008101D01*
X148056704Y-100853229D01*
X148024001Y-100688817D01*
X148024001Y-100521185D01*
X148056704Y-100356773D01*
X148120854Y-100201901D01*
X148213986Y-100062520D01*
X148332520Y-99943986D01*
X148471901Y-99850854D01*
X148626773Y-99786704D01*
X148791185Y-99754001D01*
X148958817Y-99754001D01*
X149123229Y-99786704D01*
G37*
G36*
X133883229Y-99786704D02*
G01*
X134038101Y-99850854D01*
X134177482Y-99943986D01*
X134296016Y-100062520D01*
X134389148Y-100201901D01*
X134453298Y-100356773D01*
X134486001Y-100521185D01*
X134486001Y-100688817D01*
X134453298Y-100853229D01*
X134389148Y-101008101D01*
X134296016Y-101147482D01*
X134177482Y-101266016D01*
X134038101Y-101359148D01*
X133883229Y-101423298D01*
X133718817Y-101456001D01*
X133551185Y-101456001D01*
X133386773Y-101423298D01*
X133231901Y-101359148D01*
X133092520Y-101266016D01*
X132973986Y-101147482D01*
X132880854Y-101008101D01*
X132816704Y-100853229D01*
X132784001Y-100688817D01*
X132784001Y-100521185D01*
X132816704Y-100356773D01*
X132880854Y-100201901D01*
X132973986Y-100062520D01*
X133092520Y-99943986D01*
X133231901Y-99850854D01*
X133386773Y-99786704D01*
X133551185Y-99754001D01*
X133718817Y-99754001D01*
X133883229Y-99786704D01*
G37*
G36*
X187146564Y-98049389D02*
G01*
X187337833Y-98128615D01*
X187337835Y-98128616D01*
X187509973Y-98243635D01*
X187656365Y-98390027D01*
X187754259Y-98536535D01*
X187771385Y-98562167D01*
X187850611Y-98753436D01*
X187891000Y-98956484D01*
X187891000Y-99163516D01*
X187850611Y-99366564D01*
X187771385Y-99557833D01*
X187771384Y-99557835D01*
X187656365Y-99729973D01*
X187509973Y-99876365D01*
X187337835Y-99991384D01*
X187337834Y-99991385D01*
X187337833Y-99991385D01*
X187146564Y-100070611D01*
X186943516Y-100111000D01*
X186736484Y-100111000D01*
X186533436Y-100070611D01*
X186342167Y-99991385D01*
X186342166Y-99991385D01*
X186342165Y-99991384D01*
X186170027Y-99876365D01*
X186023635Y-99729973D01*
X185908616Y-99557835D01*
X185908615Y-99557833D01*
X185829389Y-99366564D01*
X185789000Y-99163516D01*
X185789000Y-98956484D01*
X185829389Y-98753436D01*
X185908615Y-98562167D01*
X185925742Y-98536535D01*
X186023635Y-98390027D01*
X186170027Y-98243635D01*
X186342165Y-98128616D01*
X186342167Y-98128615D01*
X186533436Y-98049389D01*
X186736484Y-98009000D01*
X186943516Y-98009000D01*
X187146564Y-98049389D01*
G37*
G36*
X176986564Y-98049389D02*
G01*
X177177833Y-98128615D01*
X177177835Y-98128616D01*
X177349973Y-98243635D01*
X177496365Y-98390027D01*
X177594259Y-98536535D01*
X177611385Y-98562167D01*
X177690611Y-98753436D01*
X177731000Y-98956484D01*
X177731000Y-99163516D01*
X177690611Y-99366564D01*
X177611385Y-99557833D01*
X177611384Y-99557835D01*
X177496365Y-99729973D01*
X177349973Y-99876365D01*
X177177835Y-99991384D01*
X177177834Y-99991385D01*
X177177833Y-99991385D01*
X176986564Y-100070611D01*
X176783516Y-100111000D01*
X176576484Y-100111000D01*
X176373436Y-100070611D01*
X176182167Y-99991385D01*
X176182166Y-99991385D01*
X176182165Y-99991384D01*
X176010027Y-99876365D01*
X175863635Y-99729973D01*
X175748616Y-99557835D01*
X175748615Y-99557833D01*
X175669389Y-99366564D01*
X175629000Y-99163516D01*
X175629000Y-98956484D01*
X175669389Y-98753436D01*
X175748615Y-98562167D01*
X175765742Y-98536535D01*
X175863635Y-98390027D01*
X176010027Y-98243635D01*
X176182165Y-98128616D01*
X176182167Y-98128615D01*
X176373436Y-98049389D01*
X176576484Y-98009000D01*
X176783516Y-98009000D01*
X176986564Y-98049389D01*
G37*
G36*
X166826564Y-98049389D02*
G01*
X167017833Y-98128615D01*
X167017835Y-98128616D01*
X167189973Y-98243635D01*
X167336365Y-98390027D01*
X167434259Y-98536535D01*
X167451385Y-98562167D01*
X167530611Y-98753436D01*
X167571000Y-98956484D01*
X167571000Y-99163516D01*
X167530611Y-99366564D01*
X167451385Y-99557833D01*
X167451384Y-99557835D01*
X167336365Y-99729973D01*
X167189973Y-99876365D01*
X167017835Y-99991384D01*
X167017834Y-99991385D01*
X167017833Y-99991385D01*
X166826564Y-100070611D01*
X166623516Y-100111000D01*
X166416484Y-100111000D01*
X166213436Y-100070611D01*
X166022167Y-99991385D01*
X166022166Y-99991385D01*
X166022165Y-99991384D01*
X165850027Y-99876365D01*
X165703635Y-99729973D01*
X165588616Y-99557835D01*
X165588615Y-99557833D01*
X165509389Y-99366564D01*
X165469000Y-99163516D01*
X165469000Y-98956484D01*
X165509389Y-98753436D01*
X165588615Y-98562167D01*
X165605742Y-98536535D01*
X165703635Y-98390027D01*
X165850027Y-98243635D01*
X166022165Y-98128616D01*
X166022167Y-98128615D01*
X166213436Y-98049389D01*
X166416484Y-98009000D01*
X166623516Y-98009000D01*
X166826564Y-98049389D01*
G37*
G36*
X170486564Y-98049389D02*
G01*
X170677833Y-98128615D01*
X170677835Y-98128616D01*
X170849973Y-98243635D01*
X170996365Y-98390027D01*
X171094259Y-98536535D01*
X171111385Y-98562167D01*
X171190611Y-98753436D01*
X171231000Y-98956484D01*
X171231000Y-99163516D01*
X171190611Y-99366564D01*
X171111385Y-99557833D01*
X171111384Y-99557835D01*
X170996365Y-99729973D01*
X170849973Y-99876365D01*
X170677835Y-99991384D01*
X170677834Y-99991385D01*
X170677833Y-99991385D01*
X170486564Y-100070611D01*
X170283516Y-100111000D01*
X170076484Y-100111000D01*
X169873436Y-100070611D01*
X169682167Y-99991385D01*
X169682166Y-99991385D01*
X169682165Y-99991384D01*
X169510027Y-99876365D01*
X169363635Y-99729973D01*
X169248616Y-99557835D01*
X169248615Y-99557833D01*
X169169389Y-99366564D01*
X169129000Y-99163516D01*
X169129000Y-98956484D01*
X169169389Y-98753436D01*
X169248615Y-98562167D01*
X169265742Y-98536535D01*
X169363635Y-98390027D01*
X169510027Y-98243635D01*
X169682165Y-98128616D01*
X169682167Y-98128615D01*
X169873436Y-98049389D01*
X170076484Y-98009000D01*
X170283516Y-98009000D01*
X170486564Y-98049389D01*
G37*
G36*
X190806564Y-98049389D02*
G01*
X190997833Y-98128615D01*
X190997835Y-98128616D01*
X191169973Y-98243635D01*
X191316365Y-98390027D01*
X191414259Y-98536535D01*
X191431385Y-98562167D01*
X191510611Y-98753436D01*
X191551000Y-98956484D01*
X191551000Y-99163516D01*
X191510611Y-99366564D01*
X191431385Y-99557833D01*
X191431384Y-99557835D01*
X191316365Y-99729973D01*
X191169973Y-99876365D01*
X190997835Y-99991384D01*
X190997834Y-99991385D01*
X190997833Y-99991385D01*
X190806564Y-100070611D01*
X190603516Y-100111000D01*
X190396484Y-100111000D01*
X190193436Y-100070611D01*
X190002167Y-99991385D01*
X190002166Y-99991385D01*
X190002165Y-99991384D01*
X189830027Y-99876365D01*
X189683635Y-99729973D01*
X189568616Y-99557835D01*
X189568615Y-99557833D01*
X189489389Y-99366564D01*
X189449000Y-99163516D01*
X189449000Y-98956484D01*
X189489389Y-98753436D01*
X189568615Y-98562167D01*
X189585742Y-98536535D01*
X189683635Y-98390027D01*
X189830027Y-98243635D01*
X190002165Y-98128616D01*
X190002167Y-98128615D01*
X190193436Y-98049389D01*
X190396484Y-98009000D01*
X190603516Y-98009000D01*
X190806564Y-98049389D01*
G37*
G36*
X197306564Y-98049389D02*
G01*
X197497833Y-98128615D01*
X197497835Y-98128616D01*
X197669973Y-98243635D01*
X197816365Y-98390027D01*
X197914259Y-98536535D01*
X197931385Y-98562167D01*
X198010611Y-98753436D01*
X198051000Y-98956484D01*
X198051000Y-99163516D01*
X198010611Y-99366564D01*
X197931385Y-99557833D01*
X197931384Y-99557835D01*
X197816365Y-99729973D01*
X197669973Y-99876365D01*
X197497835Y-99991384D01*
X197497834Y-99991385D01*
X197497833Y-99991385D01*
X197306564Y-100070611D01*
X197103516Y-100111000D01*
X196896484Y-100111000D01*
X196693436Y-100070611D01*
X196502167Y-99991385D01*
X196502166Y-99991385D01*
X196502165Y-99991384D01*
X196330027Y-99876365D01*
X196183635Y-99729973D01*
X196068616Y-99557835D01*
X196068615Y-99557833D01*
X195989389Y-99366564D01*
X195949000Y-99163516D01*
X195949000Y-98956484D01*
X195989389Y-98753436D01*
X196068615Y-98562167D01*
X196085742Y-98536535D01*
X196183635Y-98390027D01*
X196330027Y-98243635D01*
X196502165Y-98128616D01*
X196502167Y-98128615D01*
X196693436Y-98049389D01*
X196896484Y-98009000D01*
X197103516Y-98009000D01*
X197306564Y-98049389D01*
G37*
G36*
X160326564Y-98049389D02*
G01*
X160517833Y-98128615D01*
X160517835Y-98128616D01*
X160689973Y-98243635D01*
X160836365Y-98390027D01*
X160934259Y-98536535D01*
X160951385Y-98562167D01*
X161030611Y-98753436D01*
X161071000Y-98956484D01*
X161071000Y-99163516D01*
X161030611Y-99366564D01*
X160951385Y-99557833D01*
X160951384Y-99557835D01*
X160836365Y-99729973D01*
X160689973Y-99876365D01*
X160517835Y-99991384D01*
X160517834Y-99991385D01*
X160517833Y-99991385D01*
X160326564Y-100070611D01*
X160123516Y-100111000D01*
X159916484Y-100111000D01*
X159713436Y-100070611D01*
X159522167Y-99991385D01*
X159522166Y-99991385D01*
X159522165Y-99991384D01*
X159350027Y-99876365D01*
X159203635Y-99729973D01*
X159088616Y-99557835D01*
X159088615Y-99557833D01*
X159009389Y-99366564D01*
X158969000Y-99163516D01*
X158969000Y-98956484D01*
X159009389Y-98753436D01*
X159088615Y-98562167D01*
X159105742Y-98536535D01*
X159203635Y-98390027D01*
X159350027Y-98243635D01*
X159522165Y-98128616D01*
X159522167Y-98128615D01*
X159713436Y-98049389D01*
X159916484Y-98009000D01*
X160123516Y-98009000D01*
X160326564Y-98049389D01*
G37*
G36*
X180646564Y-98049389D02*
G01*
X180837833Y-98128615D01*
X180837835Y-98128616D01*
X181009973Y-98243635D01*
X181156365Y-98390027D01*
X181254259Y-98536535D01*
X181271385Y-98562167D01*
X181350611Y-98753436D01*
X181391000Y-98956484D01*
X181391000Y-99163516D01*
X181350611Y-99366564D01*
X181271385Y-99557833D01*
X181271384Y-99557835D01*
X181156365Y-99729973D01*
X181009973Y-99876365D01*
X180837835Y-99991384D01*
X180837834Y-99991385D01*
X180837833Y-99991385D01*
X180646564Y-100070611D01*
X180443516Y-100111000D01*
X180236484Y-100111000D01*
X180033436Y-100070611D01*
X179842167Y-99991385D01*
X179842166Y-99991385D01*
X179842165Y-99991384D01*
X179670027Y-99876365D01*
X179523635Y-99729973D01*
X179408616Y-99557835D01*
X179408615Y-99557833D01*
X179329389Y-99366564D01*
X179289000Y-99163516D01*
X179289000Y-98956484D01*
X179329389Y-98753436D01*
X179408615Y-98562167D01*
X179425742Y-98536535D01*
X179523635Y-98390027D01*
X179670027Y-98243635D01*
X179842165Y-98128616D01*
X179842167Y-98128615D01*
X180033436Y-98049389D01*
X180236484Y-98009000D01*
X180443516Y-98009000D01*
X180646564Y-98049389D01*
G37*
G36*
X149123229Y-97246704D02*
G01*
X149278101Y-97310854D01*
X149417482Y-97403986D01*
X149536016Y-97522520D01*
X149629148Y-97661901D01*
X149693298Y-97816773D01*
X149726001Y-97981185D01*
X149726001Y-98148817D01*
X149693298Y-98313229D01*
X149629148Y-98468101D01*
X149536016Y-98607482D01*
X149417482Y-98726016D01*
X149278101Y-98819148D01*
X149123229Y-98883298D01*
X148958817Y-98916001D01*
X148791185Y-98916001D01*
X148626773Y-98883298D01*
X148471901Y-98819148D01*
X148332520Y-98726016D01*
X148213986Y-98607482D01*
X148120854Y-98468101D01*
X148056704Y-98313229D01*
X148024001Y-98148817D01*
X148024001Y-97981185D01*
X148056704Y-97816773D01*
X148120854Y-97661901D01*
X148213986Y-97522520D01*
X148332520Y-97403986D01*
X148471901Y-97310854D01*
X148626773Y-97246704D01*
X148791185Y-97214001D01*
X148958817Y-97214001D01*
X149123229Y-97246704D01*
G37*
G36*
X133883229Y-97246704D02*
G01*
X134038101Y-97310854D01*
X134177482Y-97403986D01*
X134296016Y-97522520D01*
X134389148Y-97661901D01*
X134453298Y-97816773D01*
X134486001Y-97981185D01*
X134486001Y-98148817D01*
X134453298Y-98313229D01*
X134389148Y-98468101D01*
X134296016Y-98607482D01*
X134177482Y-98726016D01*
X134038101Y-98819148D01*
X133883229Y-98883298D01*
X133718817Y-98916001D01*
X133551185Y-98916001D01*
X133386773Y-98883298D01*
X133231901Y-98819148D01*
X133092520Y-98726016D01*
X132973986Y-98607482D01*
X132880854Y-98468101D01*
X132816704Y-98313229D01*
X132784001Y-98148817D01*
X132784001Y-97981185D01*
X132816704Y-97816773D01*
X132880854Y-97661901D01*
X132973986Y-97522520D01*
X133092520Y-97403986D01*
X133231901Y-97310854D01*
X133386773Y-97246704D01*
X133551185Y-97214001D01*
X133718817Y-97214001D01*
X133883229Y-97246704D01*
G37*
G36*
X155841000Y-98691000D02*
G01*
X154039000Y-98691000D01*
X154039000Y-96889000D01*
X155841000Y-96889000D01*
X155841000Y-98691000D01*
G37*
G36*
X125948674Y-97043465D02*
G01*
X125986367Y-97054899D01*
X126021103Y-97073466D01*
X126051548Y-97098452D01*
X126076534Y-97128897D01*
X126095101Y-97163633D01*
X126106535Y-97201326D01*
X126111000Y-97246661D01*
X126111000Y-98333339D01*
X126106535Y-98378674D01*
X126095101Y-98416367D01*
X126076534Y-98451103D01*
X126051548Y-98481548D01*
X126021103Y-98506534D01*
X125986367Y-98525101D01*
X125948674Y-98536535D01*
X125903339Y-98541000D01*
X125066661Y-98541000D01*
X125021326Y-98536535D01*
X124983633Y-98525101D01*
X124948897Y-98506534D01*
X124918452Y-98481548D01*
X124893466Y-98451103D01*
X124874899Y-98416367D01*
X124863465Y-98378674D01*
X124859000Y-98333339D01*
X124859000Y-97246661D01*
X124863465Y-97201326D01*
X124874899Y-97163633D01*
X124893466Y-97128897D01*
X124918452Y-97098452D01*
X124948897Y-97073466D01*
X124983633Y-97054899D01*
X125021326Y-97043465D01*
X125066661Y-97039000D01*
X125903339Y-97039000D01*
X125948674Y-97043465D01*
G37*
G36*
X123898674Y-97043465D02*
G01*
X123936367Y-97054899D01*
X123971103Y-97073466D01*
X124001548Y-97098452D01*
X124026534Y-97128897D01*
X124045101Y-97163633D01*
X124056535Y-97201326D01*
X124061000Y-97246661D01*
X124061000Y-98333339D01*
X124056535Y-98378674D01*
X124045101Y-98416367D01*
X124026534Y-98451103D01*
X124001548Y-98481548D01*
X123971103Y-98506534D01*
X123936367Y-98525101D01*
X123898674Y-98536535D01*
X123853339Y-98541000D01*
X123016661Y-98541000D01*
X122971326Y-98536535D01*
X122933633Y-98525101D01*
X122898897Y-98506534D01*
X122868452Y-98481548D01*
X122843466Y-98451103D01*
X122824899Y-98416367D01*
X122813465Y-98378674D01*
X122809000Y-98333339D01*
X122809000Y-97246661D01*
X122813465Y-97201326D01*
X122824899Y-97163633D01*
X122843466Y-97128897D01*
X122868452Y-97098452D01*
X122898897Y-97073466D01*
X122933633Y-97054899D01*
X122971326Y-97043465D01*
X123016661Y-97039000D01*
X123853339Y-97039000D01*
X123898674Y-97043465D01*
G37*
G36*
X105873674Y-97043465D02*
G01*
X105911367Y-97054899D01*
X105946103Y-97073466D01*
X105976548Y-97098452D01*
X106001534Y-97128897D01*
X106020101Y-97163633D01*
X106031535Y-97201326D01*
X106036000Y-97246661D01*
X106036000Y-98333339D01*
X106031535Y-98378674D01*
X106020101Y-98416367D01*
X106001534Y-98451103D01*
X105976548Y-98481548D01*
X105946103Y-98506534D01*
X105911367Y-98525101D01*
X105873674Y-98536535D01*
X105828339Y-98541000D01*
X104991661Y-98541000D01*
X104946326Y-98536535D01*
X104908633Y-98525101D01*
X104873897Y-98506534D01*
X104843452Y-98481548D01*
X104818466Y-98451103D01*
X104799899Y-98416367D01*
X104788465Y-98378674D01*
X104784000Y-98333339D01*
X104784000Y-97246661D01*
X104788465Y-97201326D01*
X104799899Y-97163633D01*
X104818466Y-97128897D01*
X104843452Y-97098452D01*
X104873897Y-97073466D01*
X104908633Y-97054899D01*
X104946326Y-97043465D01*
X104991661Y-97039000D01*
X105828339Y-97039000D01*
X105873674Y-97043465D01*
G37*
G36*
X107923674Y-97043465D02*
G01*
X107961367Y-97054899D01*
X107996103Y-97073466D01*
X108026548Y-97098452D01*
X108051534Y-97128897D01*
X108070101Y-97163633D01*
X108081535Y-97201326D01*
X108086000Y-97246661D01*
X108086000Y-98333339D01*
X108081535Y-98378674D01*
X108070101Y-98416367D01*
X108051534Y-98451103D01*
X108026548Y-98481548D01*
X107996103Y-98506534D01*
X107961367Y-98525101D01*
X107923674Y-98536535D01*
X107878339Y-98541000D01*
X107041661Y-98541000D01*
X106996326Y-98536535D01*
X106958633Y-98525101D01*
X106923897Y-98506534D01*
X106893452Y-98481548D01*
X106868466Y-98451103D01*
X106849899Y-98416367D01*
X106838465Y-98378674D01*
X106834000Y-98333339D01*
X106834000Y-97246661D01*
X106838465Y-97201326D01*
X106849899Y-97163633D01*
X106868466Y-97128897D01*
X106893452Y-97098452D01*
X106923897Y-97073466D01*
X106958633Y-97054899D01*
X106996326Y-97043465D01*
X107041661Y-97039000D01*
X107878339Y-97039000D01*
X107923674Y-97043465D01*
G37*
G36*
X149123229Y-94706704D02*
G01*
X149278101Y-94770854D01*
X149417482Y-94863986D01*
X149536016Y-94982520D01*
X149629148Y-95121901D01*
X149693298Y-95276773D01*
X149726001Y-95441185D01*
X149726001Y-95608817D01*
X149693298Y-95773229D01*
X149629148Y-95928101D01*
X149536016Y-96067482D01*
X149417482Y-96186016D01*
X149278101Y-96279148D01*
X149123229Y-96343298D01*
X148958817Y-96376001D01*
X148791185Y-96376001D01*
X148626773Y-96343298D01*
X148471901Y-96279148D01*
X148332520Y-96186016D01*
X148213986Y-96067482D01*
X148120854Y-95928101D01*
X148056704Y-95773229D01*
X148024001Y-95608817D01*
X148024001Y-95441185D01*
X148056704Y-95276773D01*
X148120854Y-95121901D01*
X148213986Y-94982520D01*
X148332520Y-94863986D01*
X148471901Y-94770854D01*
X148626773Y-94706704D01*
X148791185Y-94674001D01*
X148958817Y-94674001D01*
X149123229Y-94706704D01*
G37*
G36*
X133883229Y-94706704D02*
G01*
X134038101Y-94770854D01*
X134177482Y-94863986D01*
X134296016Y-94982520D01*
X134389148Y-95121901D01*
X134453298Y-95276773D01*
X134486001Y-95441185D01*
X134486001Y-95608817D01*
X134453298Y-95773229D01*
X134389148Y-95928101D01*
X134296016Y-96067482D01*
X134177482Y-96186016D01*
X134038101Y-96279148D01*
X133883229Y-96343298D01*
X133718817Y-96376001D01*
X133551185Y-96376001D01*
X133386773Y-96343298D01*
X133231901Y-96279148D01*
X133092520Y-96186016D01*
X132973986Y-96067482D01*
X132880854Y-95928101D01*
X132816704Y-95773229D01*
X132784001Y-95608817D01*
X132784001Y-95441185D01*
X132816704Y-95276773D01*
X132880854Y-95121901D01*
X132973986Y-94982520D01*
X133092520Y-94863986D01*
X133231901Y-94770854D01*
X133386773Y-94706704D01*
X133551185Y-94674001D01*
X133718817Y-94674001D01*
X133883229Y-94706704D01*
G37*
G36*
X189385331Y-91938211D02*
G01*
X189713092Y-92073974D01*
X190008070Y-92271072D01*
X190258928Y-92521930D01*
X190456026Y-92816908D01*
X190591789Y-93144669D01*
X190661000Y-93492616D01*
X190661000Y-93847384D01*
X190591789Y-94195331D01*
X190456026Y-94523092D01*
X190258928Y-94818070D01*
X190008070Y-95068928D01*
X189713092Y-95266026D01*
X189385331Y-95401789D01*
X189037384Y-95471000D01*
X188682616Y-95471000D01*
X188334669Y-95401789D01*
X188006908Y-95266026D01*
X187711930Y-95068928D01*
X187461072Y-94818070D01*
X187263974Y-94523092D01*
X187128211Y-94195331D01*
X187059000Y-93847384D01*
X187059000Y-93492616D01*
X187128211Y-93144669D01*
X187263974Y-92816908D01*
X187461072Y-92521930D01*
X187711930Y-92271072D01*
X188006908Y-92073974D01*
X188334669Y-91938211D01*
X188682616Y-91869000D01*
X189037384Y-91869000D01*
X189385331Y-91938211D01*
G37*
G36*
X149123229Y-92166704D02*
G01*
X149278101Y-92230854D01*
X149417482Y-92323986D01*
X149536016Y-92442520D01*
X149629148Y-92581901D01*
X149693298Y-92736773D01*
X149726001Y-92901185D01*
X149726001Y-93068817D01*
X149693298Y-93233229D01*
X149629148Y-93388101D01*
X149536016Y-93527482D01*
X149417482Y-93646016D01*
X149278101Y-93739148D01*
X149123229Y-93803298D01*
X148958817Y-93836001D01*
X148791185Y-93836001D01*
X148626773Y-93803298D01*
X148471901Y-93739148D01*
X148332520Y-93646016D01*
X148213986Y-93527482D01*
X148120854Y-93388101D01*
X148056704Y-93233229D01*
X148024001Y-93068817D01*
X148024001Y-92901185D01*
X148056704Y-92736773D01*
X148120854Y-92581901D01*
X148213986Y-92442520D01*
X148332520Y-92323986D01*
X148471901Y-92230854D01*
X148626773Y-92166704D01*
X148791185Y-92134001D01*
X148958817Y-92134001D01*
X149123229Y-92166704D01*
G37*
G36*
X133883229Y-92166704D02*
G01*
X134038101Y-92230854D01*
X134177482Y-92323986D01*
X134296016Y-92442520D01*
X134389148Y-92581901D01*
X134453298Y-92736773D01*
X134486001Y-92901185D01*
X134486001Y-93068817D01*
X134453298Y-93233229D01*
X134389148Y-93388101D01*
X134296016Y-93527482D01*
X134177482Y-93646016D01*
X134038101Y-93739148D01*
X133883229Y-93803298D01*
X133718817Y-93836001D01*
X133551185Y-93836001D01*
X133386773Y-93803298D01*
X133231901Y-93739148D01*
X133092520Y-93646016D01*
X132973986Y-93527482D01*
X132880854Y-93388101D01*
X132816704Y-93233229D01*
X132784001Y-93068817D01*
X132784001Y-92901185D01*
X132816704Y-92736773D01*
X132880854Y-92581901D01*
X132973986Y-92442520D01*
X133092520Y-92323986D01*
X133231901Y-92230854D01*
X133386773Y-92166704D01*
X133551185Y-92134001D01*
X133718817Y-92134001D01*
X133883229Y-92166704D01*
G37*
G36*
X108168674Y-91963465D02*
G01*
X108206367Y-91974899D01*
X108241103Y-91993466D01*
X108271548Y-92018452D01*
X108296534Y-92048897D01*
X108315101Y-92083633D01*
X108326535Y-92121326D01*
X108331000Y-92166661D01*
X108331000Y-93253339D01*
X108326535Y-93298674D01*
X108315101Y-93336367D01*
X108296534Y-93371103D01*
X108271548Y-93401548D01*
X108241103Y-93426534D01*
X108206367Y-93445101D01*
X108168674Y-93456535D01*
X108123339Y-93461000D01*
X107286661Y-93461000D01*
X107241326Y-93456535D01*
X107203633Y-93445101D01*
X107168897Y-93426534D01*
X107138452Y-93401548D01*
X107113466Y-93371103D01*
X107094899Y-93336367D01*
X107083465Y-93298674D01*
X107079000Y-93253339D01*
X107079000Y-92166661D01*
X107083465Y-92121326D01*
X107094899Y-92083633D01*
X107113466Y-92048897D01*
X107138452Y-92018452D01*
X107168897Y-91993466D01*
X107203633Y-91974899D01*
X107241326Y-91963465D01*
X107286661Y-91959000D01*
X108123339Y-91959000D01*
X108168674Y-91963465D01*
G37*
G36*
X106118674Y-91963465D02*
G01*
X106156367Y-91974899D01*
X106191103Y-91993466D01*
X106221548Y-92018452D01*
X106246534Y-92048897D01*
X106265101Y-92083633D01*
X106276535Y-92121326D01*
X106281000Y-92166661D01*
X106281000Y-93253339D01*
X106276535Y-93298674D01*
X106265101Y-93336367D01*
X106246534Y-93371103D01*
X106221548Y-93401548D01*
X106191103Y-93426534D01*
X106156367Y-93445101D01*
X106118674Y-93456535D01*
X106073339Y-93461000D01*
X105236661Y-93461000D01*
X105191326Y-93456535D01*
X105153633Y-93445101D01*
X105118897Y-93426534D01*
X105088452Y-93401548D01*
X105063466Y-93371103D01*
X105044899Y-93336367D01*
X105033465Y-93298674D01*
X105029000Y-93253339D01*
X105029000Y-92166661D01*
X105033465Y-92121326D01*
X105044899Y-92083633D01*
X105063466Y-92048897D01*
X105088452Y-92018452D01*
X105118897Y-91993466D01*
X105153633Y-91974899D01*
X105191326Y-91963465D01*
X105236661Y-91959000D01*
X106073339Y-91959000D01*
X106118674Y-91963465D01*
G37*
G36*
X123898674Y-91963465D02*
G01*
X123936367Y-91974899D01*
X123971103Y-91993466D01*
X124001548Y-92018452D01*
X124026534Y-92048897D01*
X124045101Y-92083633D01*
X124056535Y-92121326D01*
X124061000Y-92166661D01*
X124061000Y-93253339D01*
X124056535Y-93298674D01*
X124045101Y-93336367D01*
X124026534Y-93371103D01*
X124001548Y-93401548D01*
X123971103Y-93426534D01*
X123936367Y-93445101D01*
X123898674Y-93456535D01*
X123853339Y-93461000D01*
X123016661Y-93461000D01*
X122971326Y-93456535D01*
X122933633Y-93445101D01*
X122898897Y-93426534D01*
X122868452Y-93401548D01*
X122843466Y-93371103D01*
X122824899Y-93336367D01*
X122813465Y-93298674D01*
X122809000Y-93253339D01*
X122809000Y-92166661D01*
X122813465Y-92121326D01*
X122824899Y-92083633D01*
X122843466Y-92048897D01*
X122868452Y-92018452D01*
X122898897Y-91993466D01*
X122933633Y-91974899D01*
X122971326Y-91963465D01*
X123016661Y-91959000D01*
X123853339Y-91959000D01*
X123898674Y-91963465D01*
G37*
G36*
X125948674Y-91963465D02*
G01*
X125986367Y-91974899D01*
X126021103Y-91993466D01*
X126051548Y-92018452D01*
X126076534Y-92048897D01*
X126095101Y-92083633D01*
X126106535Y-92121326D01*
X126111000Y-92166661D01*
X126111000Y-93253339D01*
X126106535Y-93298674D01*
X126095101Y-93336367D01*
X126076534Y-93371103D01*
X126051548Y-93401548D01*
X126021103Y-93426534D01*
X125986367Y-93445101D01*
X125948674Y-93456535D01*
X125903339Y-93461000D01*
X125066661Y-93461000D01*
X125021326Y-93456535D01*
X124983633Y-93445101D01*
X124948897Y-93426534D01*
X124918452Y-93401548D01*
X124893466Y-93371103D01*
X124874899Y-93336367D01*
X124863465Y-93298674D01*
X124859000Y-93253339D01*
X124859000Y-92166661D01*
X124863465Y-92121326D01*
X124874899Y-92083633D01*
X124893466Y-92048897D01*
X124918452Y-92018452D01*
X124948897Y-91993466D01*
X124983633Y-91974899D01*
X125021326Y-91963465D01*
X125066661Y-91959000D01*
X125903339Y-91959000D01*
X125948674Y-91963465D01*
G37*
G36*
X133883229Y-89626704D02*
G01*
X134038101Y-89690854D01*
X134177482Y-89783986D01*
X134296016Y-89902520D01*
X134389148Y-90041901D01*
X134453298Y-90196773D01*
X134486001Y-90361185D01*
X134486001Y-90528817D01*
X134453298Y-90693229D01*
X134389148Y-90848101D01*
X134296016Y-90987482D01*
X134177482Y-91106016D01*
X134038101Y-91199148D01*
X133883229Y-91263298D01*
X133718817Y-91296001D01*
X133551185Y-91296001D01*
X133386773Y-91263298D01*
X133231901Y-91199148D01*
X133092520Y-91106016D01*
X132973986Y-90987482D01*
X132880854Y-90848101D01*
X132816704Y-90693229D01*
X132784001Y-90528817D01*
X132784001Y-90361185D01*
X132816704Y-90196773D01*
X132880854Y-90041901D01*
X132973986Y-89902520D01*
X133092520Y-89783986D01*
X133231901Y-89690854D01*
X133386773Y-89626704D01*
X133551185Y-89594001D01*
X133718817Y-89594001D01*
X133883229Y-89626704D01*
G37*
G36*
X149123229Y-89626704D02*
G01*
X149278101Y-89690854D01*
X149417482Y-89783986D01*
X149536016Y-89902520D01*
X149629148Y-90041901D01*
X149693298Y-90196773D01*
X149726001Y-90361185D01*
X149726001Y-90528817D01*
X149693298Y-90693229D01*
X149629148Y-90848101D01*
X149536016Y-90987482D01*
X149417482Y-91106016D01*
X149278101Y-91199148D01*
X149123229Y-91263298D01*
X148958817Y-91296001D01*
X148791185Y-91296001D01*
X148626773Y-91263298D01*
X148471901Y-91199148D01*
X148332520Y-91106016D01*
X148213986Y-90987482D01*
X148120854Y-90848101D01*
X148056704Y-90693229D01*
X148024001Y-90528817D01*
X148024001Y-90361185D01*
X148056704Y-90196773D01*
X148120854Y-90041901D01*
X148213986Y-89902520D01*
X148332520Y-89783986D01*
X148471901Y-89690854D01*
X148626773Y-89626704D01*
X148791185Y-89594001D01*
X148958817Y-89594001D01*
X149123229Y-89626704D01*
G37*
G36*
X162673512Y-89273927D02*
G01*
X162822812Y-89303624D01*
X162986784Y-89371544D01*
X163134354Y-89470147D01*
X163259853Y-89595646D01*
X163358456Y-89743216D01*
X163426376Y-89907188D01*
X163461000Y-90081259D01*
X163461000Y-90258741D01*
X163426376Y-90432812D01*
X163358456Y-90596784D01*
X163259853Y-90744354D01*
X163134354Y-90869853D01*
X162986784Y-90968456D01*
X162822812Y-91036376D01*
X162673512Y-91066073D01*
X162648742Y-91071000D01*
X162471258Y-91071000D01*
X162446488Y-91066073D01*
X162297188Y-91036376D01*
X162133216Y-90968456D01*
X161985646Y-90869853D01*
X161860147Y-90744354D01*
X161761544Y-90596784D01*
X161693624Y-90432812D01*
X161659000Y-90258741D01*
X161659000Y-90081259D01*
X161693624Y-89907188D01*
X161761544Y-89743216D01*
X161860147Y-89595646D01*
X161985646Y-89470147D01*
X162133216Y-89371544D01*
X162297188Y-89303624D01*
X162446488Y-89273927D01*
X162471258Y-89269000D01*
X162648742Y-89269000D01*
X162673512Y-89273927D01*
G37*
G36*
X185051000Y-88570383D02*
G01*
X185053402Y-88594769D01*
X185060515Y-88618218D01*
X185072066Y-88639829D01*
X185087611Y-88658771D01*
X185106553Y-88674316D01*
X185128164Y-88685867D01*
X185151613Y-88692980D01*
X185175999Y-88695382D01*
X185200385Y-88692980D01*
X185223834Y-88685867D01*
X185245445Y-88674316D01*
X185264387Y-88658771D01*
X185279932Y-88639829D01*
X185291477Y-88618229D01*
X185351544Y-88473216D01*
X185450147Y-88325646D01*
X185575646Y-88200147D01*
X185723216Y-88101544D01*
X185887188Y-88033624D01*
X186036488Y-88003927D01*
X186061258Y-87999000D01*
X186238742Y-87999000D01*
X186263512Y-88003927D01*
X186412812Y-88033624D01*
X186576784Y-88101544D01*
X186724354Y-88200147D01*
X186849853Y-88325646D01*
X186948456Y-88473216D01*
X187016376Y-88637188D01*
X187051000Y-88811259D01*
X187051000Y-88988741D01*
X187016376Y-89162812D01*
X186948456Y-89326784D01*
X186849853Y-89474354D01*
X186724354Y-89599853D01*
X186576784Y-89698456D01*
X186412812Y-89766376D01*
X186263512Y-89796073D01*
X186238742Y-89801000D01*
X186061258Y-89801000D01*
X186036488Y-89796073D01*
X185887188Y-89766376D01*
X185723216Y-89698456D01*
X185575646Y-89599853D01*
X185450147Y-89474354D01*
X185351544Y-89326784D01*
X185291477Y-89181771D01*
X185279932Y-89160171D01*
X185264387Y-89141229D01*
X185245445Y-89125684D01*
X185223834Y-89114133D01*
X185200385Y-89107020D01*
X185175999Y-89104618D01*
X185151613Y-89107020D01*
X185128164Y-89114133D01*
X185106553Y-89125684D01*
X185087611Y-89141229D01*
X185072066Y-89160171D01*
X185060515Y-89181782D01*
X185053402Y-89205231D01*
X185051000Y-89229617D01*
X185051000Y-89801000D01*
X183249000Y-89801000D01*
X183249000Y-87999000D01*
X185051000Y-87999000D01*
X185051000Y-88570383D01*
G37*
G36*
X133883229Y-87086704D02*
G01*
X134038101Y-87150854D01*
X134177482Y-87243986D01*
X134296016Y-87362520D01*
X134389148Y-87501901D01*
X134453298Y-87656773D01*
X134486001Y-87821185D01*
X134486001Y-87988817D01*
X134453298Y-88153229D01*
X134389148Y-88308101D01*
X134296016Y-88447482D01*
X134177482Y-88566016D01*
X134038101Y-88659148D01*
X133883229Y-88723298D01*
X133718817Y-88756001D01*
X133551185Y-88756001D01*
X133386773Y-88723298D01*
X133231901Y-88659148D01*
X133092520Y-88566016D01*
X132973986Y-88447482D01*
X132880854Y-88308101D01*
X132816704Y-88153229D01*
X132784001Y-87988817D01*
X132784001Y-87821185D01*
X132816704Y-87656773D01*
X132880854Y-87501901D01*
X132973986Y-87362520D01*
X133092520Y-87243986D01*
X133231901Y-87150854D01*
X133386773Y-87086704D01*
X133551185Y-87054001D01*
X133718817Y-87054001D01*
X133883229Y-87086704D01*
G37*
G36*
X149123229Y-87086704D02*
G01*
X149278101Y-87150854D01*
X149417482Y-87243986D01*
X149536016Y-87362520D01*
X149629148Y-87501901D01*
X149693298Y-87656773D01*
X149726001Y-87821185D01*
X149726001Y-87988817D01*
X149693298Y-88153229D01*
X149629148Y-88308101D01*
X149536016Y-88447482D01*
X149417482Y-88566016D01*
X149278101Y-88659148D01*
X149123229Y-88723298D01*
X148958817Y-88756001D01*
X148791185Y-88756001D01*
X148626773Y-88723298D01*
X148471901Y-88659148D01*
X148332520Y-88566016D01*
X148213986Y-88447482D01*
X148120854Y-88308101D01*
X148056704Y-88153229D01*
X148024001Y-87988817D01*
X148024001Y-87821185D01*
X148056704Y-87656773D01*
X148120854Y-87501901D01*
X148213986Y-87362520D01*
X148332520Y-87243986D01*
X148471901Y-87150854D01*
X148626773Y-87086704D01*
X148791185Y-87054001D01*
X148958817Y-87054001D01*
X149123229Y-87086704D01*
G37*
G36*
X162673512Y-86733927D02*
G01*
X162822812Y-86763624D01*
X162986784Y-86831544D01*
X163134354Y-86930147D01*
X163259853Y-87055646D01*
X163358456Y-87203216D01*
X163426376Y-87367188D01*
X163461000Y-87541259D01*
X163461000Y-87718741D01*
X163426376Y-87892812D01*
X163358456Y-88056784D01*
X163259853Y-88204354D01*
X163134354Y-88329853D01*
X162986784Y-88428456D01*
X162822812Y-88496376D01*
X162673512Y-88526073D01*
X162648742Y-88531000D01*
X162471258Y-88531000D01*
X162446488Y-88526073D01*
X162297188Y-88496376D01*
X162133216Y-88428456D01*
X161985646Y-88329853D01*
X161860147Y-88204354D01*
X161761544Y-88056784D01*
X161693624Y-87892812D01*
X161659000Y-87718741D01*
X161659000Y-87541259D01*
X161693624Y-87367188D01*
X161761544Y-87203216D01*
X161860147Y-87055646D01*
X161985646Y-86930147D01*
X162133216Y-86831544D01*
X162297188Y-86763624D01*
X162446488Y-86733927D01*
X162471258Y-86729000D01*
X162648742Y-86729000D01*
X162673512Y-86733927D01*
G37*
G36*
X106118674Y-86883465D02*
G01*
X106156367Y-86894899D01*
X106191103Y-86913466D01*
X106221548Y-86938452D01*
X106246534Y-86968897D01*
X106265101Y-87003633D01*
X106276535Y-87041326D01*
X106281000Y-87086661D01*
X106281000Y-88173339D01*
X106276535Y-88218674D01*
X106265101Y-88256367D01*
X106246534Y-88291103D01*
X106221548Y-88321548D01*
X106191103Y-88346534D01*
X106156367Y-88365101D01*
X106118674Y-88376535D01*
X106073339Y-88381000D01*
X105236661Y-88381000D01*
X105191326Y-88376535D01*
X105153633Y-88365101D01*
X105118897Y-88346534D01*
X105088452Y-88321548D01*
X105063466Y-88291103D01*
X105044899Y-88256367D01*
X105033465Y-88218674D01*
X105029000Y-88173339D01*
X105029000Y-87086661D01*
X105033465Y-87041326D01*
X105044899Y-87003633D01*
X105063466Y-86968897D01*
X105088452Y-86938452D01*
X105118897Y-86913466D01*
X105153633Y-86894899D01*
X105191326Y-86883465D01*
X105236661Y-86879000D01*
X106073339Y-86879000D01*
X106118674Y-86883465D01*
G37*
G36*
X108168674Y-86883465D02*
G01*
X108206367Y-86894899D01*
X108241103Y-86913466D01*
X108271548Y-86938452D01*
X108296534Y-86968897D01*
X108315101Y-87003633D01*
X108326535Y-87041326D01*
X108331000Y-87086661D01*
X108331000Y-88173339D01*
X108326535Y-88218674D01*
X108315101Y-88256367D01*
X108296534Y-88291103D01*
X108271548Y-88321548D01*
X108241103Y-88346534D01*
X108206367Y-88365101D01*
X108168674Y-88376535D01*
X108123339Y-88381000D01*
X107286661Y-88381000D01*
X107241326Y-88376535D01*
X107203633Y-88365101D01*
X107168897Y-88346534D01*
X107138452Y-88321548D01*
X107113466Y-88291103D01*
X107094899Y-88256367D01*
X107083465Y-88218674D01*
X107079000Y-88173339D01*
X107079000Y-87086661D01*
X107083465Y-87041326D01*
X107094899Y-87003633D01*
X107113466Y-86968897D01*
X107138452Y-86938452D01*
X107168897Y-86913466D01*
X107203633Y-86894899D01*
X107241326Y-86883465D01*
X107286661Y-86879000D01*
X108123339Y-86879000D01*
X108168674Y-86883465D01*
G37*
G36*
X125948674Y-86883465D02*
G01*
X125986367Y-86894899D01*
X126021103Y-86913466D01*
X126051548Y-86938452D01*
X126076534Y-86968897D01*
X126095101Y-87003633D01*
X126106535Y-87041326D01*
X126111000Y-87086661D01*
X126111000Y-88173339D01*
X126106535Y-88218674D01*
X126095101Y-88256367D01*
X126076534Y-88291103D01*
X126051548Y-88321548D01*
X126021103Y-88346534D01*
X125986367Y-88365101D01*
X125948674Y-88376535D01*
X125903339Y-88381000D01*
X125066661Y-88381000D01*
X125021326Y-88376535D01*
X124983633Y-88365101D01*
X124948897Y-88346534D01*
X124918452Y-88321548D01*
X124893466Y-88291103D01*
X124874899Y-88256367D01*
X124863465Y-88218674D01*
X124859000Y-88173339D01*
X124859000Y-87086661D01*
X124863465Y-87041326D01*
X124874899Y-87003633D01*
X124893466Y-86968897D01*
X124918452Y-86938452D01*
X124948897Y-86913466D01*
X124983633Y-86894899D01*
X125021326Y-86883465D01*
X125066661Y-86879000D01*
X125903339Y-86879000D01*
X125948674Y-86883465D01*
G37*
G36*
X123898674Y-86883465D02*
G01*
X123936367Y-86894899D01*
X123971103Y-86913466D01*
X124001548Y-86938452D01*
X124026534Y-86968897D01*
X124045101Y-87003633D01*
X124056535Y-87041326D01*
X124061000Y-87086661D01*
X124061000Y-88173339D01*
X124056535Y-88218674D01*
X124045101Y-88256367D01*
X124026534Y-88291103D01*
X124001548Y-88321548D01*
X123971103Y-88346534D01*
X123936367Y-88365101D01*
X123898674Y-88376535D01*
X123853339Y-88381000D01*
X123016661Y-88381000D01*
X122971326Y-88376535D01*
X122933633Y-88365101D01*
X122898897Y-88346534D01*
X122868452Y-88321548D01*
X122843466Y-88291103D01*
X122824899Y-88256367D01*
X122813465Y-88218674D01*
X122809000Y-88173339D01*
X122809000Y-87086661D01*
X122813465Y-87041326D01*
X122824899Y-87003633D01*
X122843466Y-86968897D01*
X122868452Y-86938452D01*
X122898897Y-86913466D01*
X122933633Y-86894899D01*
X122971326Y-86883465D01*
X123016661Y-86879000D01*
X123853339Y-86879000D01*
X123898674Y-86883465D01*
G37*
G36*
X184263512Y-85503927D02*
G01*
X184412812Y-85533624D01*
X184576784Y-85601544D01*
X184724354Y-85700147D01*
X184849853Y-85825646D01*
X184948456Y-85973216D01*
X185016376Y-86137188D01*
X185027405Y-86192638D01*
X185034516Y-86216078D01*
X185046067Y-86237689D01*
X185061613Y-86256631D01*
X185080555Y-86272176D01*
X185102165Y-86283727D01*
X185125614Y-86290840D01*
X185150000Y-86293242D01*
X185174387Y-86290840D01*
X185197835Y-86283727D01*
X185219446Y-86272176D01*
X185238388Y-86256630D01*
X185253933Y-86237688D01*
X185265484Y-86216078D01*
X185272595Y-86192638D01*
X185283624Y-86137188D01*
X185351544Y-85973216D01*
X185450147Y-85825646D01*
X185575646Y-85700147D01*
X185723216Y-85601544D01*
X185887188Y-85533624D01*
X186036488Y-85503927D01*
X186061258Y-85499000D01*
X186238742Y-85499000D01*
X186263512Y-85503927D01*
X186412812Y-85533624D01*
X186576784Y-85601544D01*
X186724354Y-85700147D01*
X186849853Y-85825646D01*
X186948456Y-85973216D01*
X187016376Y-86137188D01*
X187051000Y-86311259D01*
X187051000Y-86488741D01*
X187016376Y-86662812D01*
X186948456Y-86826784D01*
X186849853Y-86974354D01*
X186724354Y-87099853D01*
X186576784Y-87198456D01*
X186412812Y-87266376D01*
X186263512Y-87296073D01*
X186238742Y-87301000D01*
X186061258Y-87301000D01*
X186036488Y-87296073D01*
X185887188Y-87266376D01*
X185723216Y-87198456D01*
X185575646Y-87099853D01*
X185450147Y-86974354D01*
X185351544Y-86826784D01*
X185283624Y-86662812D01*
X185272595Y-86607362D01*
X185265484Y-86583922D01*
X185253933Y-86562311D01*
X185238387Y-86543369D01*
X185219445Y-86527824D01*
X185197835Y-86516273D01*
X185174386Y-86509160D01*
X185150000Y-86506758D01*
X185125613Y-86509160D01*
X185102165Y-86516273D01*
X185080554Y-86527824D01*
X185061612Y-86543370D01*
X185046067Y-86562312D01*
X185034516Y-86583922D01*
X185027405Y-86607362D01*
X185016376Y-86662812D01*
X184948456Y-86826784D01*
X184849853Y-86974354D01*
X184724354Y-87099853D01*
X184576784Y-87198456D01*
X184412812Y-87266376D01*
X184263512Y-87296073D01*
X184238742Y-87301000D01*
X184061258Y-87301000D01*
X184036488Y-87296073D01*
X183887188Y-87266376D01*
X183723216Y-87198456D01*
X183575646Y-87099853D01*
X183450147Y-86974354D01*
X183351544Y-86826784D01*
X183283624Y-86662812D01*
X183249000Y-86488741D01*
X183249000Y-86311259D01*
X183283624Y-86137188D01*
X183351544Y-85973216D01*
X183450147Y-85825646D01*
X183575646Y-85700147D01*
X183723216Y-85601544D01*
X183887188Y-85533624D01*
X184036488Y-85503927D01*
X184061258Y-85499000D01*
X184238742Y-85499000D01*
X184263512Y-85503927D01*
G37*
G36*
X149123229Y-84546704D02*
G01*
X149278101Y-84610854D01*
X149417482Y-84703986D01*
X149536016Y-84822520D01*
X149629148Y-84961901D01*
X149693298Y-85116773D01*
X149726001Y-85281185D01*
X149726001Y-85448817D01*
X149693298Y-85613229D01*
X149629148Y-85768101D01*
X149536016Y-85907482D01*
X149417482Y-86026016D01*
X149278101Y-86119148D01*
X149123229Y-86183298D01*
X148958817Y-86216001D01*
X148791185Y-86216001D01*
X148626773Y-86183298D01*
X148471901Y-86119148D01*
X148332520Y-86026016D01*
X148213986Y-85907482D01*
X148120854Y-85768101D01*
X148056704Y-85613229D01*
X148024001Y-85448817D01*
X148024001Y-85281185D01*
X148056704Y-85116773D01*
X148120854Y-84961901D01*
X148213986Y-84822520D01*
X148332520Y-84703986D01*
X148471901Y-84610854D01*
X148626773Y-84546704D01*
X148791185Y-84514001D01*
X148958817Y-84514001D01*
X149123229Y-84546704D01*
G37*
G36*
X133883229Y-84546704D02*
G01*
X134038101Y-84610854D01*
X134177482Y-84703986D01*
X134296016Y-84822520D01*
X134389148Y-84961901D01*
X134453298Y-85116773D01*
X134486001Y-85281185D01*
X134486001Y-85448817D01*
X134453298Y-85613229D01*
X134389148Y-85768101D01*
X134296016Y-85907482D01*
X134177482Y-86026016D01*
X134038101Y-86119148D01*
X133883229Y-86183298D01*
X133718817Y-86216001D01*
X133551185Y-86216001D01*
X133386773Y-86183298D01*
X133231901Y-86119148D01*
X133092520Y-86026016D01*
X132973986Y-85907482D01*
X132880854Y-85768101D01*
X132816704Y-85613229D01*
X132784001Y-85448817D01*
X132784001Y-85281185D01*
X132816704Y-85116773D01*
X132880854Y-84961901D01*
X132973986Y-84822520D01*
X133092520Y-84703986D01*
X133231901Y-84610854D01*
X133386773Y-84546704D01*
X133551185Y-84514001D01*
X133718817Y-84514001D01*
X133883229Y-84546704D01*
G37*
G36*
X162673512Y-84193927D02*
G01*
X162822812Y-84223624D01*
X162986784Y-84291544D01*
X163134354Y-84390147D01*
X163259853Y-84515646D01*
X163358456Y-84663216D01*
X163426376Y-84827188D01*
X163461000Y-85001259D01*
X163461000Y-85178741D01*
X163426376Y-85352812D01*
X163358456Y-85516784D01*
X163259853Y-85664354D01*
X163134354Y-85789853D01*
X162986784Y-85888456D01*
X162822812Y-85956376D01*
X162673512Y-85986073D01*
X162648742Y-85991000D01*
X162471258Y-85991000D01*
X162446488Y-85986073D01*
X162297188Y-85956376D01*
X162133216Y-85888456D01*
X161985646Y-85789853D01*
X161860147Y-85664354D01*
X161761544Y-85516784D01*
X161693624Y-85352812D01*
X161659000Y-85178741D01*
X161659000Y-85001259D01*
X161693624Y-84827188D01*
X161761544Y-84663216D01*
X161860147Y-84515646D01*
X161985646Y-84390147D01*
X162133216Y-84291544D01*
X162297188Y-84223624D01*
X162446488Y-84193927D01*
X162471258Y-84189000D01*
X162648742Y-84189000D01*
X162673512Y-84193927D01*
G37*
G36*
X133883229Y-82006704D02*
G01*
X134038101Y-82070854D01*
X134177482Y-82163986D01*
X134296016Y-82282520D01*
X134389148Y-82421901D01*
X134453298Y-82576773D01*
X134486001Y-82741185D01*
X134486001Y-82908817D01*
X134453298Y-83073229D01*
X134389148Y-83228101D01*
X134296016Y-83367482D01*
X134177482Y-83486016D01*
X134038101Y-83579148D01*
X133883229Y-83643298D01*
X133718817Y-83676001D01*
X133551185Y-83676001D01*
X133386773Y-83643298D01*
X133231901Y-83579148D01*
X133092520Y-83486016D01*
X132973986Y-83367482D01*
X132880854Y-83228101D01*
X132816704Y-83073229D01*
X132784001Y-82908817D01*
X132784001Y-82741185D01*
X132816704Y-82576773D01*
X132880854Y-82421901D01*
X132973986Y-82282520D01*
X133092520Y-82163986D01*
X133231901Y-82070854D01*
X133386773Y-82006704D01*
X133551185Y-81974001D01*
X133718817Y-81974001D01*
X133883229Y-82006704D01*
G37*
G36*
X149123229Y-82006704D02*
G01*
X149278101Y-82070854D01*
X149417482Y-82163986D01*
X149536016Y-82282520D01*
X149629148Y-82421901D01*
X149693298Y-82576773D01*
X149726001Y-82741185D01*
X149726001Y-82908817D01*
X149693298Y-83073229D01*
X149629148Y-83228101D01*
X149536016Y-83367482D01*
X149417482Y-83486016D01*
X149278101Y-83579148D01*
X149123229Y-83643298D01*
X148958817Y-83676001D01*
X148791185Y-83676001D01*
X148626773Y-83643298D01*
X148471901Y-83579148D01*
X148332520Y-83486016D01*
X148213986Y-83367482D01*
X148120854Y-83228101D01*
X148056704Y-83073229D01*
X148024001Y-82908817D01*
X148024001Y-82741185D01*
X148056704Y-82576773D01*
X148120854Y-82421901D01*
X148213986Y-82282520D01*
X148332520Y-82163986D01*
X148471901Y-82070854D01*
X148626773Y-82006704D01*
X148791185Y-81974001D01*
X148958817Y-81974001D01*
X149123229Y-82006704D01*
G37*
G36*
X163461000Y-83451000D02*
G01*
X161659000Y-83451000D01*
X161659000Y-81649000D01*
X163461000Y-81649000D01*
X163461000Y-83451000D01*
G37*
G36*
X189385331Y-79898211D02*
G01*
X189713092Y-80033974D01*
X190008070Y-80231072D01*
X190258928Y-80481930D01*
X190456026Y-80776908D01*
X190591789Y-81104669D01*
X190661000Y-81452616D01*
X190661000Y-81807384D01*
X190591789Y-82155331D01*
X190456026Y-82483092D01*
X190258928Y-82778070D01*
X190008070Y-83028928D01*
X189713092Y-83226026D01*
X189385331Y-83361789D01*
X189037384Y-83431000D01*
X188682616Y-83431000D01*
X188334669Y-83361789D01*
X188006908Y-83226026D01*
X187711930Y-83028928D01*
X187461072Y-82778070D01*
X187263974Y-82483092D01*
X187128211Y-82155331D01*
X187059000Y-81807384D01*
X187059000Y-81452616D01*
X187128211Y-81104669D01*
X187263974Y-80776908D01*
X187461072Y-80481930D01*
X187711930Y-80231072D01*
X188006908Y-80033974D01*
X188334669Y-79898211D01*
X188682616Y-79829000D01*
X189037384Y-79829000D01*
X189385331Y-79898211D01*
G37*
G36*
X106118674Y-81803465D02*
G01*
X106156367Y-81814899D01*
X106191103Y-81833466D01*
X106221548Y-81858452D01*
X106246534Y-81888897D01*
X106265101Y-81923633D01*
X106276535Y-81961326D01*
X106281000Y-82006661D01*
X106281000Y-83093339D01*
X106276535Y-83138674D01*
X106265101Y-83176367D01*
X106246534Y-83211103D01*
X106221548Y-83241548D01*
X106191103Y-83266534D01*
X106156367Y-83285101D01*
X106118674Y-83296535D01*
X106073339Y-83301000D01*
X105236661Y-83301000D01*
X105191326Y-83296535D01*
X105153633Y-83285101D01*
X105118897Y-83266534D01*
X105088452Y-83241548D01*
X105063466Y-83211103D01*
X105044899Y-83176367D01*
X105033465Y-83138674D01*
X105029000Y-83093339D01*
X105029000Y-82006661D01*
X105033465Y-81961326D01*
X105044899Y-81923633D01*
X105063466Y-81888897D01*
X105088452Y-81858452D01*
X105118897Y-81833466D01*
X105153633Y-81814899D01*
X105191326Y-81803465D01*
X105236661Y-81799000D01*
X106073339Y-81799000D01*
X106118674Y-81803465D01*
G37*
G36*
X108168674Y-81803465D02*
G01*
X108206367Y-81814899D01*
X108241103Y-81833466D01*
X108271548Y-81858452D01*
X108296534Y-81888897D01*
X108315101Y-81923633D01*
X108326535Y-81961326D01*
X108331000Y-82006661D01*
X108331000Y-83093339D01*
X108326535Y-83138674D01*
X108315101Y-83176367D01*
X108296534Y-83211103D01*
X108271548Y-83241548D01*
X108241103Y-83266534D01*
X108206367Y-83285101D01*
X108168674Y-83296535D01*
X108123339Y-83301000D01*
X107286661Y-83301000D01*
X107241326Y-83296535D01*
X107203633Y-83285101D01*
X107168897Y-83266534D01*
X107138452Y-83241548D01*
X107113466Y-83211103D01*
X107094899Y-83176367D01*
X107083465Y-83138674D01*
X107079000Y-83093339D01*
X107079000Y-82006661D01*
X107083465Y-81961326D01*
X107094899Y-81923633D01*
X107113466Y-81888897D01*
X107138452Y-81858452D01*
X107168897Y-81833466D01*
X107203633Y-81814899D01*
X107241326Y-81803465D01*
X107286661Y-81799000D01*
X108123339Y-81799000D01*
X108168674Y-81803465D01*
G37*
G36*
X125948674Y-81803465D02*
G01*
X125986367Y-81814899D01*
X126021103Y-81833466D01*
X126051548Y-81858452D01*
X126076534Y-81888897D01*
X126095101Y-81923633D01*
X126106535Y-81961326D01*
X126111000Y-82006661D01*
X126111000Y-83093339D01*
X126106535Y-83138674D01*
X126095101Y-83176367D01*
X126076534Y-83211103D01*
X126051548Y-83241548D01*
X126021103Y-83266534D01*
X125986367Y-83285101D01*
X125948674Y-83296535D01*
X125903339Y-83301000D01*
X125066661Y-83301000D01*
X125021326Y-83296535D01*
X124983633Y-83285101D01*
X124948897Y-83266534D01*
X124918452Y-83241548D01*
X124893466Y-83211103D01*
X124874899Y-83176367D01*
X124863465Y-83138674D01*
X124859000Y-83093339D01*
X124859000Y-82006661D01*
X124863465Y-81961326D01*
X124874899Y-81923633D01*
X124893466Y-81888897D01*
X124918452Y-81858452D01*
X124948897Y-81833466D01*
X124983633Y-81814899D01*
X125021326Y-81803465D01*
X125066661Y-81799000D01*
X125903339Y-81799000D01*
X125948674Y-81803465D01*
G37*
G36*
X123898674Y-81803465D02*
G01*
X123936367Y-81814899D01*
X123971103Y-81833466D01*
X124001548Y-81858452D01*
X124026534Y-81888897D01*
X124045101Y-81923633D01*
X124056535Y-81961326D01*
X124061000Y-82006661D01*
X124061000Y-83093339D01*
X124056535Y-83138674D01*
X124045101Y-83176367D01*
X124026534Y-83211103D01*
X124001548Y-83241548D01*
X123971103Y-83266534D01*
X123936367Y-83285101D01*
X123898674Y-83296535D01*
X123853339Y-83301000D01*
X123016661Y-83301000D01*
X122971326Y-83296535D01*
X122933633Y-83285101D01*
X122898897Y-83266534D01*
X122868452Y-83241548D01*
X122843466Y-83211103D01*
X122824899Y-83176367D01*
X122813465Y-83138674D01*
X122809000Y-83093339D01*
X122809000Y-82006661D01*
X122813465Y-81961326D01*
X122824899Y-81923633D01*
X122843466Y-81888897D01*
X122868452Y-81858452D01*
X122898897Y-81833466D01*
X122933633Y-81814899D01*
X122971326Y-81803465D01*
X123016661Y-81799000D01*
X123853339Y-81799000D01*
X123898674Y-81803465D01*
G37*
G36*
X133883229Y-79466704D02*
G01*
X134038101Y-79530854D01*
X134177482Y-79623986D01*
X134296016Y-79742520D01*
X134389148Y-79881901D01*
X134453298Y-80036773D01*
X134486001Y-80201185D01*
X134486001Y-80368817D01*
X134453298Y-80533229D01*
X134389148Y-80688101D01*
X134296016Y-80827482D01*
X134177482Y-80946016D01*
X134038101Y-81039148D01*
X133883229Y-81103298D01*
X133718817Y-81136001D01*
X133551185Y-81136001D01*
X133386773Y-81103298D01*
X133231901Y-81039148D01*
X133092520Y-80946016D01*
X132973986Y-80827482D01*
X132880854Y-80688101D01*
X132816704Y-80533229D01*
X132784001Y-80368817D01*
X132784001Y-80201185D01*
X132816704Y-80036773D01*
X132880854Y-79881901D01*
X132973986Y-79742520D01*
X133092520Y-79623986D01*
X133231901Y-79530854D01*
X133386773Y-79466704D01*
X133551185Y-79434001D01*
X133718817Y-79434001D01*
X133883229Y-79466704D01*
G37*
G36*
X149123229Y-79466704D02*
G01*
X149278101Y-79530854D01*
X149417482Y-79623986D01*
X149536016Y-79742520D01*
X149629148Y-79881901D01*
X149693298Y-80036773D01*
X149726001Y-80201185D01*
X149726001Y-80368817D01*
X149693298Y-80533229D01*
X149629148Y-80688101D01*
X149536016Y-80827482D01*
X149417482Y-80946016D01*
X149278101Y-81039148D01*
X149123229Y-81103298D01*
X148958817Y-81136001D01*
X148791185Y-81136001D01*
X148626773Y-81103298D01*
X148471901Y-81039148D01*
X148332520Y-80946016D01*
X148213986Y-80827482D01*
X148120854Y-80688101D01*
X148056704Y-80533229D01*
X148024001Y-80368817D01*
X148024001Y-80201185D01*
X148056704Y-80036773D01*
X148120854Y-79881901D01*
X148213986Y-79742520D01*
X148332520Y-79623986D01*
X148471901Y-79530854D01*
X148626773Y-79466704D01*
X148791185Y-79434001D01*
X148958817Y-79434001D01*
X149123229Y-79466704D01*
G37*
G36*
X133883229Y-76926704D02*
G01*
X134038101Y-76990854D01*
X134177482Y-77083986D01*
X134296016Y-77202520D01*
X134389148Y-77341901D01*
X134453298Y-77496773D01*
X134486001Y-77661185D01*
X134486001Y-77828817D01*
X134453298Y-77993229D01*
X134389148Y-78148101D01*
X134296016Y-78287482D01*
X134177482Y-78406016D01*
X134038101Y-78499148D01*
X133883229Y-78563298D01*
X133718817Y-78596001D01*
X133551185Y-78596001D01*
X133386773Y-78563298D01*
X133231901Y-78499148D01*
X133092520Y-78406016D01*
X132973986Y-78287482D01*
X132880854Y-78148101D01*
X132816704Y-77993229D01*
X132784001Y-77828817D01*
X132784001Y-77661185D01*
X132816704Y-77496773D01*
X132880854Y-77341901D01*
X132973986Y-77202520D01*
X133092520Y-77083986D01*
X133231901Y-76990854D01*
X133386773Y-76926704D01*
X133551185Y-76894001D01*
X133718817Y-76894001D01*
X133883229Y-76926704D01*
G37*
G36*
X149123229Y-76926704D02*
G01*
X149278101Y-76990854D01*
X149417482Y-77083986D01*
X149536016Y-77202520D01*
X149629148Y-77341901D01*
X149693298Y-77496773D01*
X149726001Y-77661185D01*
X149726001Y-77828817D01*
X149693298Y-77993229D01*
X149629148Y-78148101D01*
X149536016Y-78287482D01*
X149417482Y-78406016D01*
X149278101Y-78499148D01*
X149123229Y-78563298D01*
X148958817Y-78596001D01*
X148791185Y-78596001D01*
X148626773Y-78563298D01*
X148471901Y-78499148D01*
X148332520Y-78406016D01*
X148213986Y-78287482D01*
X148120854Y-78148101D01*
X148056704Y-77993229D01*
X148024001Y-77828817D01*
X148024001Y-77661185D01*
X148056704Y-77496773D01*
X148120854Y-77341901D01*
X148213986Y-77202520D01*
X148332520Y-77083986D01*
X148471901Y-76990854D01*
X148626773Y-76926704D01*
X148791185Y-76894001D01*
X148958817Y-76894001D01*
X149123229Y-76926704D01*
G37*
G36*
X113696366Y-72765695D02*
G01*
X113853460Y-72813349D01*
X113998231Y-72890731D01*
X114125128Y-72994872D01*
X114229269Y-73121769D01*
X114306651Y-73266540D01*
X114354305Y-73423634D01*
X114371000Y-73593140D01*
X114371000Y-75506860D01*
X114354305Y-75676366D01*
X114306651Y-75833460D01*
X114229269Y-75978231D01*
X114125128Y-76105128D01*
X113998231Y-76209269D01*
X113853460Y-76286651D01*
X113696366Y-76334305D01*
X113526860Y-76351000D01*
X111613140Y-76351000D01*
X111443634Y-76334305D01*
X111286540Y-76286651D01*
X111141769Y-76209269D01*
X111014872Y-76105128D01*
X110910731Y-75978231D01*
X110833349Y-75833460D01*
X110785695Y-75676366D01*
X110769000Y-75506860D01*
X110769000Y-73593140D01*
X110785695Y-73423634D01*
X110833349Y-73266540D01*
X110910731Y-73121769D01*
X111014872Y-72994872D01*
X111141769Y-72890731D01*
X111286540Y-72813349D01*
X111443634Y-72765695D01*
X111613140Y-72749000D01*
X113526860Y-72749000D01*
X113696366Y-72765695D01*
G37*
G36*
X149123229Y-74386704D02*
G01*
X149278101Y-74450854D01*
X149417482Y-74543986D01*
X149536016Y-74662520D01*
X149629148Y-74801901D01*
X149693298Y-74956773D01*
X149726001Y-75121185D01*
X149726001Y-75288817D01*
X149693298Y-75453229D01*
X149629148Y-75608101D01*
X149536016Y-75747482D01*
X149417482Y-75866016D01*
X149278101Y-75959148D01*
X149123229Y-76023298D01*
X148958817Y-76056001D01*
X148791185Y-76056001D01*
X148626773Y-76023298D01*
X148471901Y-75959148D01*
X148332520Y-75866016D01*
X148213986Y-75747482D01*
X148120854Y-75608101D01*
X148056704Y-75453229D01*
X148024001Y-75288817D01*
X148024001Y-75121185D01*
X148056704Y-74956773D01*
X148120854Y-74801901D01*
X148213986Y-74662520D01*
X148332520Y-74543986D01*
X148471901Y-74450854D01*
X148626773Y-74386704D01*
X148791185Y-74354001D01*
X148958817Y-74354001D01*
X149123229Y-74386704D01*
G37*
G36*
X133883229Y-74386704D02*
G01*
X134038101Y-74450854D01*
X134177482Y-74543986D01*
X134296016Y-74662520D01*
X134389148Y-74801901D01*
X134453298Y-74956773D01*
X134486001Y-75121185D01*
X134486001Y-75288817D01*
X134453298Y-75453229D01*
X134389148Y-75608101D01*
X134296016Y-75747482D01*
X134177482Y-75866016D01*
X134038101Y-75959148D01*
X133883229Y-76023298D01*
X133718817Y-76056001D01*
X133551185Y-76056001D01*
X133386773Y-76023298D01*
X133231901Y-75959148D01*
X133092520Y-75866016D01*
X132973986Y-75747482D01*
X132880854Y-75608101D01*
X132816704Y-75453229D01*
X132784001Y-75288817D01*
X132784001Y-75121185D01*
X132816704Y-74956773D01*
X132880854Y-74801901D01*
X132973986Y-74662520D01*
X133092520Y-74543986D01*
X133231901Y-74450854D01*
X133386773Y-74386704D01*
X133551185Y-74354001D01*
X133718817Y-74354001D01*
X133883229Y-74386704D01*
G37*
G36*
X128383512Y-72763927D02*
G01*
X128532812Y-72793624D01*
X128696784Y-72861544D01*
X128844354Y-72960147D01*
X128969853Y-73085646D01*
X129068456Y-73233216D01*
X129136376Y-73397188D01*
X129171000Y-73571259D01*
X129171000Y-73748741D01*
X129136376Y-73922812D01*
X129068456Y-74086784D01*
X128969853Y-74234354D01*
X128844354Y-74359853D01*
X128696784Y-74458456D01*
X128532812Y-74526376D01*
X128383512Y-74556073D01*
X128358742Y-74561000D01*
X128181258Y-74561000D01*
X128156488Y-74556073D01*
X128007188Y-74526376D01*
X127843216Y-74458456D01*
X127695646Y-74359853D01*
X127570147Y-74234354D01*
X127471544Y-74086784D01*
X127403624Y-73922812D01*
X127369000Y-73748741D01*
X127369000Y-73571259D01*
X127403624Y-73397188D01*
X127471544Y-73233216D01*
X127570147Y-73085646D01*
X127695646Y-72960147D01*
X127843216Y-72861544D01*
X128007188Y-72793624D01*
X128156488Y-72763927D01*
X128181258Y-72759000D01*
X128358742Y-72759000D01*
X128383512Y-72763927D01*
G37*
G36*
X133883229Y-71846704D02*
G01*
X134038101Y-71910854D01*
X134177482Y-72003986D01*
X134296016Y-72122520D01*
X134389148Y-72261901D01*
X134453298Y-72416773D01*
X134486001Y-72581185D01*
X134486001Y-72748817D01*
X134453298Y-72913229D01*
X134389148Y-73068101D01*
X134296016Y-73207482D01*
X134177482Y-73326016D01*
X134038101Y-73419148D01*
X133883229Y-73483298D01*
X133718817Y-73516001D01*
X133551185Y-73516001D01*
X133386773Y-73483298D01*
X133231901Y-73419148D01*
X133092520Y-73326016D01*
X132973986Y-73207482D01*
X132880854Y-73068101D01*
X132816704Y-72913229D01*
X132784001Y-72748817D01*
X132784001Y-72581185D01*
X132816704Y-72416773D01*
X132880854Y-72261901D01*
X132973986Y-72122520D01*
X133092520Y-72003986D01*
X133231901Y-71910854D01*
X133386773Y-71846704D01*
X133551185Y-71814001D01*
X133718817Y-71814001D01*
X133883229Y-71846704D01*
G37*
G36*
X149123229Y-71846704D02*
G01*
X149278101Y-71910854D01*
X149417482Y-72003986D01*
X149536016Y-72122520D01*
X149629148Y-72261901D01*
X149693298Y-72416773D01*
X149726001Y-72581185D01*
X149726001Y-72748817D01*
X149693298Y-72913229D01*
X149629148Y-73068101D01*
X149536016Y-73207482D01*
X149417482Y-73326016D01*
X149278101Y-73419148D01*
X149123229Y-73483298D01*
X148958817Y-73516001D01*
X148791185Y-73516001D01*
X148626773Y-73483298D01*
X148471901Y-73419148D01*
X148332520Y-73326016D01*
X148213986Y-73207482D01*
X148120854Y-73068101D01*
X148056704Y-72913229D01*
X148024001Y-72748817D01*
X148024001Y-72581185D01*
X148056704Y-72416773D01*
X148120854Y-72261901D01*
X148213986Y-72122520D01*
X148332520Y-72003986D01*
X148471901Y-71910854D01*
X148626773Y-71846704D01*
X148791185Y-71814001D01*
X148958817Y-71814001D01*
X149123229Y-71846704D01*
G37*
G36*
X129171000Y-72021000D02*
G01*
X127369000Y-72021000D01*
X127369000Y-70219000D01*
X129171000Y-70219000D01*
X129171000Y-72021000D01*
G37*
G36*
X110546979Y-68063293D02*
G01*
X110680625Y-68103834D01*
X110803784Y-68169664D01*
X110911740Y-68258260D01*
X111000336Y-68366216D01*
X111066166Y-68489375D01*
X111106707Y-68623021D01*
X111121000Y-68768140D01*
X111121000Y-70931860D01*
X111106707Y-71076979D01*
X111066166Y-71210625D01*
X111000336Y-71333784D01*
X110911740Y-71441740D01*
X110803784Y-71530336D01*
X110680625Y-71596166D01*
X110546979Y-71636707D01*
X110401860Y-71651000D01*
X108738140Y-71651000D01*
X108593021Y-71636707D01*
X108459375Y-71596166D01*
X108336216Y-71530336D01*
X108228260Y-71441740D01*
X108139664Y-71333784D01*
X108073834Y-71210625D01*
X108033293Y-71076979D01*
X108019000Y-70931860D01*
X108019000Y-68768140D01*
X108033293Y-68623021D01*
X108073834Y-68489375D01*
X108139664Y-68366216D01*
X108228260Y-68258260D01*
X108336216Y-68169664D01*
X108459375Y-68103834D01*
X108593021Y-68063293D01*
X108738140Y-68049000D01*
X110401860Y-68049000D01*
X110546979Y-68063293D01*
G37*
G36*
X117371000Y-71651000D02*
G01*
X113769000Y-71651000D01*
X113769000Y-68049000D01*
X117371000Y-68049000D01*
X117371000Y-71651000D01*
G37*
G36*
X149123229Y-69306704D02*
G01*
X149278101Y-69370854D01*
X149417482Y-69463986D01*
X149536016Y-69582520D01*
X149629148Y-69721901D01*
X149693298Y-69876773D01*
X149726001Y-70041185D01*
X149726001Y-70208817D01*
X149693298Y-70373229D01*
X149629148Y-70528101D01*
X149536016Y-70667482D01*
X149417482Y-70786016D01*
X149278101Y-70879148D01*
X149123229Y-70943298D01*
X148958817Y-70976001D01*
X148791185Y-70976001D01*
X148626773Y-70943298D01*
X148471901Y-70879148D01*
X148332520Y-70786016D01*
X148213986Y-70667482D01*
X148120854Y-70528101D01*
X148056704Y-70373229D01*
X148024001Y-70208817D01*
X148024001Y-70041185D01*
X148056704Y-69876773D01*
X148120854Y-69721901D01*
X148213986Y-69582520D01*
X148332520Y-69463986D01*
X148471901Y-69370854D01*
X148626773Y-69306704D01*
X148791185Y-69274001D01*
X148958817Y-69274001D01*
X149123229Y-69306704D01*
G37*
G36*
X134486001Y-70976001D02*
G01*
X132784001Y-70976001D01*
X132784001Y-69274001D01*
X134486001Y-69274001D01*
X134486001Y-70976001D01*
G37*
G36*
X174208820Y-64318103D02*
G01*
X174242985Y-64328467D01*
X174274464Y-64345293D01*
X174302060Y-64367940D01*
X174324707Y-64395536D01*
X174341533Y-64427015D01*
X174351897Y-64461180D01*
X174356000Y-64502842D01*
X174356000Y-67577158D01*
X174351897Y-67618820D01*
X174341533Y-67652985D01*
X174324707Y-67684464D01*
X174302060Y-67712060D01*
X174274464Y-67734707D01*
X174242985Y-67751533D01*
X174208820Y-67761897D01*
X174167158Y-67766000D01*
X172917842Y-67766000D01*
X172876180Y-67761897D01*
X172842015Y-67751533D01*
X172810536Y-67734707D01*
X172782940Y-67712060D01*
X172760293Y-67684464D01*
X172743467Y-67652985D01*
X172733103Y-67618820D01*
X172729000Y-67577158D01*
X172729000Y-64502842D01*
X172733103Y-64461180D01*
X172743467Y-64427015D01*
X172760293Y-64395536D01*
X172782940Y-64367940D01*
X172810536Y-64345293D01*
X172842015Y-64328467D01*
X172876180Y-64318103D01*
X172917842Y-64314000D01*
X174167158Y-64314000D01*
X174208820Y-64318103D01*
G37*
G36*
X180183820Y-64318103D02*
G01*
X180217985Y-64328467D01*
X180249464Y-64345293D01*
X180277060Y-64367940D01*
X180299707Y-64395536D01*
X180316533Y-64427015D01*
X180326897Y-64461180D01*
X180331000Y-64502842D01*
X180331000Y-67577158D01*
X180326897Y-67618820D01*
X180316533Y-67652985D01*
X180299707Y-67684464D01*
X180277060Y-67712060D01*
X180249464Y-67734707D01*
X180217985Y-67751533D01*
X180183820Y-67761897D01*
X180142158Y-67766000D01*
X178892842Y-67766000D01*
X178851180Y-67761897D01*
X178817015Y-67751533D01*
X178785536Y-67734707D01*
X178757940Y-67712060D01*
X178735293Y-67684464D01*
X178718467Y-67652985D01*
X178708103Y-67618820D01*
X178704000Y-67577158D01*
X178704000Y-64502842D01*
X178708103Y-64461180D01*
X178718467Y-64427015D01*
X178735293Y-64395536D01*
X178757940Y-64367940D01*
X178785536Y-64345293D01*
X178817015Y-64328467D01*
X178851180Y-64318103D01*
X178892842Y-64314000D01*
X180142158Y-64314000D01*
X180183820Y-64318103D01*
G37*
G36*
X186528228Y-62681703D02*
G01*
X186683100Y-62745853D01*
X186822481Y-62838985D01*
X186941015Y-62957519D01*
X187034147Y-63096900D01*
X187098297Y-63251772D01*
X187131000Y-63416184D01*
X187131000Y-63583816D01*
X187098297Y-63748228D01*
X187034147Y-63903100D01*
X186941015Y-64042481D01*
X186822481Y-64161015D01*
X186683100Y-64254147D01*
X186528228Y-64318297D01*
X186363816Y-64351000D01*
X186196184Y-64351000D01*
X186031772Y-64318297D01*
X185876900Y-64254147D01*
X185737519Y-64161015D01*
X185618985Y-64042481D01*
X185525853Y-63903100D01*
X185461703Y-63748228D01*
X185429000Y-63583816D01*
X185429000Y-63416184D01*
X185461703Y-63251772D01*
X185525853Y-63096900D01*
X185618985Y-62957519D01*
X185737519Y-62838985D01*
X185876900Y-62745853D01*
X186031772Y-62681703D01*
X186196184Y-62649000D01*
X186363816Y-62649000D01*
X186528228Y-62681703D01*
G37*
G36*
X183128228Y-62681703D02*
G01*
X183283100Y-62745853D01*
X183422481Y-62838985D01*
X183541015Y-62957519D01*
X183634147Y-63096900D01*
X183698297Y-63251772D01*
X183731000Y-63416184D01*
X183731000Y-63583816D01*
X183698297Y-63748228D01*
X183634147Y-63903100D01*
X183541015Y-64042481D01*
X183422481Y-64161015D01*
X183283100Y-64254147D01*
X183128228Y-64318297D01*
X182963816Y-64351000D01*
X182796184Y-64351000D01*
X182631772Y-64318297D01*
X182476900Y-64254147D01*
X182337519Y-64161015D01*
X182218985Y-64042481D01*
X182125853Y-63903100D01*
X182061703Y-63748228D01*
X182029000Y-63583816D01*
X182029000Y-63416184D01*
X182061703Y-63251772D01*
X182125853Y-63096900D01*
X182218985Y-62957519D01*
X182337519Y-62838985D01*
X182476900Y-62745853D01*
X182631772Y-62681703D01*
X182796184Y-62649000D01*
X182963816Y-62649000D01*
X183128228Y-62681703D01*
G37*
G36*
X156666564Y-61909389D02*
G01*
X156857833Y-61988615D01*
X156857835Y-61988616D01*
X157029973Y-62103635D01*
X157176365Y-62250027D01*
X157291385Y-62422167D01*
X157370611Y-62613436D01*
X157411000Y-62816484D01*
X157411000Y-63023516D01*
X157370611Y-63226564D01*
X157291385Y-63417833D01*
X157291384Y-63417835D01*
X157176365Y-63589973D01*
X157029973Y-63736365D01*
X156857835Y-63851384D01*
X156857834Y-63851385D01*
X156857833Y-63851385D01*
X156666564Y-63930611D01*
X156463516Y-63971000D01*
X156256484Y-63971000D01*
X156053436Y-63930611D01*
X155862167Y-63851385D01*
X155862166Y-63851385D01*
X155862165Y-63851384D01*
X155690027Y-63736365D01*
X155543635Y-63589973D01*
X155428616Y-63417835D01*
X155428615Y-63417833D01*
X155349389Y-63226564D01*
X155309000Y-63023516D01*
X155309000Y-62816484D01*
X155349389Y-62613436D01*
X155428615Y-62422167D01*
X155543635Y-62250027D01*
X155690027Y-62103635D01*
X155862165Y-61988616D01*
X155862167Y-61988615D01*
X156053436Y-61909389D01*
X156256484Y-61869000D01*
X156463516Y-61869000D01*
X156666564Y-61909389D01*
G37*
G36*
X150166564Y-61909389D02*
G01*
X150357833Y-61988615D01*
X150357835Y-61988616D01*
X150529973Y-62103635D01*
X150676365Y-62250027D01*
X150791385Y-62422167D01*
X150870611Y-62613436D01*
X150911000Y-62816484D01*
X150911000Y-63023516D01*
X150870611Y-63226564D01*
X150791385Y-63417833D01*
X150791384Y-63417835D01*
X150676365Y-63589973D01*
X150529973Y-63736365D01*
X150357835Y-63851384D01*
X150357834Y-63851385D01*
X150357833Y-63851385D01*
X150166564Y-63930611D01*
X149963516Y-63971000D01*
X149756484Y-63971000D01*
X149553436Y-63930611D01*
X149362167Y-63851385D01*
X149362166Y-63851385D01*
X149362165Y-63851384D01*
X149190027Y-63736365D01*
X149043635Y-63589973D01*
X148928616Y-63417835D01*
X148928615Y-63417833D01*
X148849389Y-63226564D01*
X148809000Y-63023516D01*
X148809000Y-62816484D01*
X148849389Y-62613436D01*
X148928615Y-62422167D01*
X149043635Y-62250027D01*
X149190027Y-62103635D01*
X149362165Y-61988616D01*
X149362167Y-61988615D01*
X149553436Y-61909389D01*
X149756484Y-61869000D01*
X149963516Y-61869000D01*
X150166564Y-61909389D01*
G37*
G36*
X195955256Y-59351298D02*
G01*
X196061579Y-59372447D01*
X196362042Y-59496903D01*
X196632451Y-59677585D01*
X196862415Y-59907549D01*
X197043097Y-60177958D01*
X197167553Y-60478421D01*
X197231000Y-60797391D01*
X197231000Y-61122609D01*
X197167553Y-61441579D01*
X197043097Y-61742042D01*
X196862415Y-62012451D01*
X196632451Y-62242415D01*
X196362042Y-62423097D01*
X196061579Y-62547553D01*
X195955256Y-62568702D01*
X195742611Y-62611000D01*
X195417389Y-62611000D01*
X195204744Y-62568702D01*
X195098421Y-62547553D01*
X194797958Y-62423097D01*
X194527549Y-62242415D01*
X194297585Y-62012451D01*
X194116903Y-61742042D01*
X193992447Y-61441579D01*
X193929000Y-61122609D01*
X193929000Y-60797391D01*
X193992447Y-60478421D01*
X194116903Y-60177958D01*
X194297585Y-59907549D01*
X194527549Y-59677585D01*
X194797958Y-59496903D01*
X195098421Y-59372447D01*
X195204744Y-59351298D01*
X195417389Y-59309000D01*
X195742611Y-59309000D01*
X195955256Y-59351298D01*
G37*
G36*
X107055256Y-59351298D02*
G01*
X107161579Y-59372447D01*
X107462042Y-59496903D01*
X107732451Y-59677585D01*
X107962415Y-59907549D01*
X108143097Y-60177958D01*
X108267553Y-60478421D01*
X108331000Y-60797391D01*
X108331000Y-61122609D01*
X108267553Y-61441579D01*
X108143097Y-61742042D01*
X107962415Y-62012451D01*
X107732451Y-62242415D01*
X107462042Y-62423097D01*
X107161579Y-62547553D01*
X107055256Y-62568702D01*
X106842611Y-62611000D01*
X106517389Y-62611000D01*
X106304744Y-62568702D01*
X106198421Y-62547553D01*
X105897958Y-62423097D01*
X105627549Y-62242415D01*
X105397585Y-62012451D01*
X105216903Y-61742042D01*
X105092447Y-61441579D01*
X105029000Y-61122609D01*
X105029000Y-60797391D01*
X105092447Y-60478421D01*
X105216903Y-60177958D01*
X105397585Y-59907549D01*
X105627549Y-59677585D01*
X105897958Y-59496903D01*
X106198421Y-59372447D01*
X106304744Y-59351298D01*
X106517389Y-59309000D01*
X106842611Y-59309000D01*
X107055256Y-59351298D01*
G37*
G36*
X125843512Y-58793927D02*
G01*
X125992812Y-58823624D01*
X126156784Y-58891544D01*
X126304354Y-58990147D01*
X126429853Y-59115646D01*
X126528456Y-59263216D01*
X126596376Y-59427188D01*
X126631000Y-59601259D01*
X126631000Y-59778741D01*
X126596376Y-59952812D01*
X126528456Y-60116784D01*
X126429853Y-60264354D01*
X126304354Y-60389853D01*
X126156784Y-60488456D01*
X125992812Y-60556376D01*
X125843512Y-60586073D01*
X125818742Y-60591000D01*
X125641258Y-60591000D01*
X125616488Y-60586073D01*
X125467188Y-60556376D01*
X125303216Y-60488456D01*
X125155646Y-60389853D01*
X125030147Y-60264354D01*
X124931544Y-60116784D01*
X124863624Y-59952812D01*
X124829000Y-59778741D01*
X124829000Y-59601259D01*
X124863624Y-59427188D01*
X124931544Y-59263216D01*
X125030147Y-59115646D01*
X125155646Y-58990147D01*
X125303216Y-58891544D01*
X125467188Y-58823624D01*
X125616488Y-58793927D01*
X125641258Y-58789000D01*
X125818742Y-58789000D01*
X125843512Y-58793927D01*
G37*
G36*
X172351000Y-60591000D02*
G01*
X170549000Y-60591000D01*
X170549000Y-58789000D01*
X172351000Y-58789000D01*
X172351000Y-60591000D01*
G37*
G36*
X174103512Y-58793927D02*
G01*
X174252812Y-58823624D01*
X174416784Y-58891544D01*
X174564354Y-58990147D01*
X174689853Y-59115646D01*
X174788456Y-59263216D01*
X174856376Y-59427188D01*
X174891000Y-59601259D01*
X174891000Y-59778741D01*
X174856376Y-59952812D01*
X174788456Y-60116784D01*
X174689853Y-60264354D01*
X174564354Y-60389853D01*
X174416784Y-60488456D01*
X174252812Y-60556376D01*
X174103512Y-60586073D01*
X174078742Y-60591000D01*
X173901258Y-60591000D01*
X173876488Y-60586073D01*
X173727188Y-60556376D01*
X173563216Y-60488456D01*
X173415646Y-60389853D01*
X173290147Y-60264354D01*
X173191544Y-60116784D01*
X173123624Y-59952812D01*
X173089000Y-59778741D01*
X173089000Y-59601259D01*
X173123624Y-59427188D01*
X173191544Y-59263216D01*
X173290147Y-59115646D01*
X173415646Y-58990147D01*
X173563216Y-58891544D01*
X173727188Y-58823624D01*
X173876488Y-58793927D01*
X173901258Y-58789000D01*
X174078742Y-58789000D01*
X174103512Y-58793927D01*
G37*
G36*
X176643512Y-58793927D02*
G01*
X176792812Y-58823624D01*
X176956784Y-58891544D01*
X177104354Y-58990147D01*
X177229853Y-59115646D01*
X177328456Y-59263216D01*
X177396376Y-59427188D01*
X177431000Y-59601259D01*
X177431000Y-59778741D01*
X177396376Y-59952812D01*
X177328456Y-60116784D01*
X177229853Y-60264354D01*
X177104354Y-60389853D01*
X176956784Y-60488456D01*
X176792812Y-60556376D01*
X176643512Y-60586073D01*
X176618742Y-60591000D01*
X176441258Y-60591000D01*
X176416488Y-60586073D01*
X176267188Y-60556376D01*
X176103216Y-60488456D01*
X175955646Y-60389853D01*
X175830147Y-60264354D01*
X175731544Y-60116784D01*
X175663624Y-59952812D01*
X175629000Y-59778741D01*
X175629000Y-59601259D01*
X175663624Y-59427188D01*
X175731544Y-59263216D01*
X175830147Y-59115646D01*
X175955646Y-58990147D01*
X176103216Y-58891544D01*
X176267188Y-58823624D01*
X176416488Y-58793927D01*
X176441258Y-58789000D01*
X176618742Y-58789000D01*
X176643512Y-58793927D01*
G37*
G36*
X138061000Y-60591000D02*
G01*
X136259000Y-60591000D01*
X136259000Y-58789000D01*
X138061000Y-58789000D01*
X138061000Y-60591000D01*
G37*
G36*
X139813512Y-58793927D02*
G01*
X139962812Y-58823624D01*
X140126784Y-58891544D01*
X140274354Y-58990147D01*
X140399853Y-59115646D01*
X140498456Y-59263216D01*
X140566376Y-59427188D01*
X140601000Y-59601259D01*
X140601000Y-59778741D01*
X140566376Y-59952812D01*
X140498456Y-60116784D01*
X140399853Y-60264354D01*
X140274354Y-60389853D01*
X140126784Y-60488456D01*
X139962812Y-60556376D01*
X139813512Y-60586073D01*
X139788742Y-60591000D01*
X139611258Y-60591000D01*
X139586488Y-60586073D01*
X139437188Y-60556376D01*
X139273216Y-60488456D01*
X139125646Y-60389853D01*
X139000147Y-60264354D01*
X138901544Y-60116784D01*
X138833624Y-59952812D01*
X138799000Y-59778741D01*
X138799000Y-59601259D01*
X138833624Y-59427188D01*
X138901544Y-59263216D01*
X139000147Y-59115646D01*
X139125646Y-58990147D01*
X139273216Y-58891544D01*
X139437188Y-58823624D01*
X139586488Y-58793927D01*
X139611258Y-58789000D01*
X139788742Y-58789000D01*
X139813512Y-58793927D01*
G37*
G36*
X129171000Y-60591000D02*
G01*
X127369000Y-60591000D01*
X127369000Y-58789000D01*
X129171000Y-58789000D01*
X129171000Y-60591000D01*
G37*
G36*
X113931000Y-60591000D02*
G01*
X112129000Y-60591000D01*
X112129000Y-58789000D01*
X113931000Y-58789000D01*
X113931000Y-60591000D01*
G37*
G36*
X115683512Y-58793927D02*
G01*
X115832812Y-58823624D01*
X115996784Y-58891544D01*
X116144354Y-58990147D01*
X116269853Y-59115646D01*
X116368456Y-59263216D01*
X116436376Y-59427188D01*
X116471000Y-59601259D01*
X116471000Y-59778741D01*
X116436376Y-59952812D01*
X116368456Y-60116784D01*
X116269853Y-60264354D01*
X116144354Y-60389853D01*
X115996784Y-60488456D01*
X115832812Y-60556376D01*
X115683512Y-60586073D01*
X115658742Y-60591000D01*
X115481258Y-60591000D01*
X115456488Y-60586073D01*
X115307188Y-60556376D01*
X115143216Y-60488456D01*
X114995646Y-60389853D01*
X114870147Y-60264354D01*
X114771544Y-60116784D01*
X114703624Y-59952812D01*
X114669000Y-59778741D01*
X114669000Y-59601259D01*
X114703624Y-59427188D01*
X114771544Y-59263216D01*
X114870147Y-59115646D01*
X114995646Y-58990147D01*
X115143216Y-58891544D01*
X115307188Y-58823624D01*
X115456488Y-58793927D01*
X115481258Y-58789000D01*
X115658742Y-58789000D01*
X115683512Y-58793927D01*
G37*
G36*
X118223512Y-58793927D02*
G01*
X118372812Y-58823624D01*
X118536784Y-58891544D01*
X118684354Y-58990147D01*
X118809853Y-59115646D01*
X118908456Y-59263216D01*
X118976376Y-59427188D01*
X119011000Y-59601259D01*
X119011000Y-59778741D01*
X118976376Y-59952812D01*
X118908456Y-60116784D01*
X118809853Y-60264354D01*
X118684354Y-60389853D01*
X118536784Y-60488456D01*
X118372812Y-60556376D01*
X118223512Y-60586073D01*
X118198742Y-60591000D01*
X118021258Y-60591000D01*
X117996488Y-60586073D01*
X117847188Y-60556376D01*
X117683216Y-60488456D01*
X117535646Y-60389853D01*
X117410147Y-60264354D01*
X117311544Y-60116784D01*
X117243624Y-59952812D01*
X117209000Y-59778741D01*
X117209000Y-59601259D01*
X117243624Y-59427188D01*
X117311544Y-59263216D01*
X117410147Y-59115646D01*
X117535646Y-58990147D01*
X117683216Y-58891544D01*
X117847188Y-58823624D01*
X117996488Y-58793927D01*
X118021258Y-58789000D01*
X118198742Y-58789000D01*
X118223512Y-58793927D01*
G37*
G36*
X161403512Y-58793927D02*
G01*
X161552812Y-58823624D01*
X161716784Y-58891544D01*
X161864354Y-58990147D01*
X161989853Y-59115646D01*
X162088456Y-59263216D01*
X162156376Y-59427188D01*
X162191000Y-59601259D01*
X162191000Y-59778741D01*
X162156376Y-59952812D01*
X162088456Y-60116784D01*
X161989853Y-60264354D01*
X161864354Y-60389853D01*
X161716784Y-60488456D01*
X161552812Y-60556376D01*
X161403512Y-60586073D01*
X161378742Y-60591000D01*
X161201258Y-60591000D01*
X161176488Y-60586073D01*
X161027188Y-60556376D01*
X160863216Y-60488456D01*
X160715646Y-60389853D01*
X160590147Y-60264354D01*
X160491544Y-60116784D01*
X160423624Y-59952812D01*
X160389000Y-59778741D01*
X160389000Y-59601259D01*
X160423624Y-59427188D01*
X160491544Y-59263216D01*
X160590147Y-59115646D01*
X160715646Y-58990147D01*
X160863216Y-58891544D01*
X161027188Y-58823624D01*
X161176488Y-58793927D01*
X161201258Y-58789000D01*
X161378742Y-58789000D01*
X161403512Y-58793927D01*
G37*
G36*
X163943512Y-58793927D02*
G01*
X164092812Y-58823624D01*
X164256784Y-58891544D01*
X164404354Y-58990147D01*
X164529853Y-59115646D01*
X164628456Y-59263216D01*
X164696376Y-59427188D01*
X164731000Y-59601259D01*
X164731000Y-59778741D01*
X164696376Y-59952812D01*
X164628456Y-60116784D01*
X164529853Y-60264354D01*
X164404354Y-60389853D01*
X164256784Y-60488456D01*
X164092812Y-60556376D01*
X163943512Y-60586073D01*
X163918742Y-60591000D01*
X163741258Y-60591000D01*
X163716488Y-60586073D01*
X163567188Y-60556376D01*
X163403216Y-60488456D01*
X163255646Y-60389853D01*
X163130147Y-60264354D01*
X163031544Y-60116784D01*
X162963624Y-59952812D01*
X162929000Y-59778741D01*
X162929000Y-59601259D01*
X162963624Y-59427188D01*
X163031544Y-59263216D01*
X163130147Y-59115646D01*
X163255646Y-58990147D01*
X163403216Y-58891544D01*
X163567188Y-58823624D01*
X163716488Y-58793927D01*
X163741258Y-58789000D01*
X163918742Y-58789000D01*
X163943512Y-58793927D01*
G37*
G36*
X167271000Y-60591000D02*
G01*
X165469000Y-60591000D01*
X165469000Y-58789000D01*
X167271000Y-58789000D01*
X167271000Y-60591000D01*
G37*
G36*
X123303512Y-58793927D02*
G01*
X123452812Y-58823624D01*
X123616784Y-58891544D01*
X123764354Y-58990147D01*
X123889853Y-59115646D01*
X123988456Y-59263216D01*
X124056376Y-59427188D01*
X124091000Y-59601259D01*
X124091000Y-59778741D01*
X124056376Y-59952812D01*
X123988456Y-60116784D01*
X123889853Y-60264354D01*
X123764354Y-60389853D01*
X123616784Y-60488456D01*
X123452812Y-60556376D01*
X123303512Y-60586073D01*
X123278742Y-60591000D01*
X123101258Y-60591000D01*
X123076488Y-60586073D01*
X122927188Y-60556376D01*
X122763216Y-60488456D01*
X122615646Y-60389853D01*
X122490147Y-60264354D01*
X122391544Y-60116784D01*
X122323624Y-59952812D01*
X122289000Y-59778741D01*
X122289000Y-59601259D01*
X122323624Y-59427188D01*
X122391544Y-59263216D01*
X122490147Y-59115646D01*
X122615646Y-58990147D01*
X122763216Y-58891544D01*
X122927188Y-58823624D01*
X123076488Y-58793927D01*
X123101258Y-58789000D01*
X123278742Y-58789000D01*
X123303512Y-58793927D01*
G37*
G36*
X150166564Y-57409389D02*
G01*
X150357833Y-57488615D01*
X150357835Y-57488616D01*
X150529973Y-57603635D01*
X150676365Y-57750027D01*
X150791385Y-57922167D01*
X150870611Y-58113436D01*
X150911000Y-58316484D01*
X150911000Y-58523516D01*
X150870611Y-58726564D01*
X150830407Y-58823625D01*
X150791384Y-58917835D01*
X150676365Y-59089973D01*
X150529973Y-59236365D01*
X150357835Y-59351384D01*
X150357834Y-59351385D01*
X150357833Y-59351385D01*
X150166564Y-59430611D01*
X149963516Y-59471000D01*
X149756484Y-59471000D01*
X149553436Y-59430611D01*
X149362167Y-59351385D01*
X149362166Y-59351385D01*
X149362165Y-59351384D01*
X149190027Y-59236365D01*
X149043635Y-59089973D01*
X148928616Y-58917835D01*
X148889593Y-58823625D01*
X148849389Y-58726564D01*
X148809000Y-58523516D01*
X148809000Y-58316484D01*
X148849389Y-58113436D01*
X148928615Y-57922167D01*
X149043635Y-57750027D01*
X149190027Y-57603635D01*
X149362165Y-57488616D01*
X149362167Y-57488615D01*
X149553436Y-57409389D01*
X149756484Y-57369000D01*
X149963516Y-57369000D01*
X150166564Y-57409389D01*
G37*
G36*
X156666564Y-57409389D02*
G01*
X156857833Y-57488615D01*
X156857835Y-57488616D01*
X157029973Y-57603635D01*
X157176365Y-57750027D01*
X157291385Y-57922167D01*
X157370611Y-58113436D01*
X157411000Y-58316484D01*
X157411000Y-58523516D01*
X157370611Y-58726564D01*
X157330407Y-58823625D01*
X157291384Y-58917835D01*
X157176365Y-59089973D01*
X157029973Y-59236365D01*
X156857835Y-59351384D01*
X156857834Y-59351385D01*
X156857833Y-59351385D01*
X156666564Y-59430611D01*
X156463516Y-59471000D01*
X156256484Y-59471000D01*
X156053436Y-59430611D01*
X155862167Y-59351385D01*
X155862166Y-59351385D01*
X155862165Y-59351384D01*
X155690027Y-59236365D01*
X155543635Y-59089973D01*
X155428616Y-58917835D01*
X155389593Y-58823625D01*
X155349389Y-58726564D01*
X155309000Y-58523516D01*
X155309000Y-58316484D01*
X155349389Y-58113436D01*
X155428615Y-57922167D01*
X155543635Y-57750027D01*
X155690027Y-57603635D01*
X155862165Y-57488616D01*
X155862167Y-57488615D01*
X156053436Y-57409389D01*
X156256484Y-57369000D01*
X156463516Y-57369000D01*
X156666564Y-57409389D01*
G37*
M02*
