G04 #@! TF.GenerationSoftware,KiCad,Pcbnew,(5.1.5)-3*
G04 #@! TF.CreationDate,2020-01-31T15:08:37+01:00*
G04 #@! TF.ProjectId,Greenkeeper,47726565-6e6b-4656-9570-65722e6b6963,1.0*
G04 #@! TF.SameCoordinates,Original*
G04 #@! TF.FileFunction,Copper,L2,Bot*
G04 #@! TF.FilePolarity,Positive*
%FSLAX46Y46*%
G04 Gerber Fmt 4.6, Leading zero omitted, Abs format (unit mm)*
G04 Created by KiCad (PCBNEW (5.1.5)-3) date 2020-01-31 15:08:37*
%MOMM*%
%LPD*%
G04 APERTURE LIST*
%ADD10C,0.300000*%
%ADD11C,0.600000*%
%ADD12C,1.600000*%
%ADD13R,3.500000X3.500000*%
%ADD14C,0.100000*%
%ADD15R,1.600000X1.600000*%
%ADD16O,1.600000X1.600000*%
%ADD17R,1.700000X1.700000*%
%ADD18O,1.700000X1.700000*%
%ADD19C,2.000000*%
%ADD20O,1.500000X1.050000*%
%ADD21R,1.500000X1.050000*%
%ADD22C,1.700000*%
%ADD23C,3.500000*%
%ADD24C,0.800000*%
%ADD25C,0.250000*%
%ADD26C,0.254000*%
G04 APERTURE END LIST*
D10*
X123900000Y-75603571D02*
X123900000Y-74103571D01*
X123400000Y-75175000D01*
X122900000Y-74103571D01*
X122900000Y-75603571D01*
X121542857Y-75603571D02*
X121542857Y-74817857D01*
X121614285Y-74675000D01*
X121757142Y-74603571D01*
X122042857Y-74603571D01*
X122185714Y-74675000D01*
X121542857Y-75532142D02*
X121685714Y-75603571D01*
X122042857Y-75603571D01*
X122185714Y-75532142D01*
X122257142Y-75389285D01*
X122257142Y-75246428D01*
X122185714Y-75103571D01*
X122042857Y-75032142D01*
X121685714Y-75032142D01*
X121542857Y-74960714D01*
X120828571Y-75603571D02*
X120828571Y-74603571D01*
X120828571Y-74889285D02*
X120757142Y-74746428D01*
X120685714Y-74675000D01*
X120542857Y-74603571D01*
X120400000Y-74603571D01*
X120042857Y-74603571D02*
X119685714Y-75603571D01*
X119328571Y-74603571D01*
X118757142Y-75603571D02*
X118757142Y-74603571D01*
X118757142Y-74103571D02*
X118828571Y-74175000D01*
X118757142Y-74246428D01*
X118685714Y-74175000D01*
X118757142Y-74103571D01*
X118757142Y-74246428D01*
X118042857Y-74603571D02*
X118042857Y-75603571D01*
X118042857Y-74746428D02*
X117971428Y-74675000D01*
X117828571Y-74603571D01*
X117614285Y-74603571D01*
X117471428Y-74675000D01*
X117400000Y-74817857D01*
X117400000Y-75603571D01*
X124435714Y-78082142D02*
X124221428Y-78153571D01*
X123864285Y-78153571D01*
X123721428Y-78082142D01*
X123650000Y-78010714D01*
X123578571Y-77867857D01*
X123578571Y-77725000D01*
X123650000Y-77582142D01*
X123721428Y-77510714D01*
X123864285Y-77439285D01*
X124150000Y-77367857D01*
X124292857Y-77296428D01*
X124364285Y-77225000D01*
X124435714Y-77082142D01*
X124435714Y-76939285D01*
X124364285Y-76796428D01*
X124292857Y-76725000D01*
X124150000Y-76653571D01*
X123792857Y-76653571D01*
X123578571Y-76725000D01*
X122292857Y-78082142D02*
X122435714Y-78153571D01*
X122721428Y-78153571D01*
X122864285Y-78082142D01*
X122935714Y-78010714D01*
X123007142Y-77867857D01*
X123007142Y-77439285D01*
X122935714Y-77296428D01*
X122864285Y-77225000D01*
X122721428Y-77153571D01*
X122435714Y-77153571D01*
X122292857Y-77225000D01*
X121650000Y-78153571D02*
X121650000Y-76653571D01*
X121007142Y-78153571D02*
X121007142Y-77367857D01*
X121078571Y-77225000D01*
X121221428Y-77153571D01*
X121435714Y-77153571D01*
X121578571Y-77225000D01*
X121650000Y-77296428D01*
X120292857Y-78153571D02*
X120292857Y-77153571D01*
X120292857Y-77296428D02*
X120221428Y-77225000D01*
X120078571Y-77153571D01*
X119864285Y-77153571D01*
X119721428Y-77225000D01*
X119650000Y-77367857D01*
X119650000Y-78153571D01*
X119650000Y-77367857D02*
X119578571Y-77225000D01*
X119435714Y-77153571D01*
X119221428Y-77153571D01*
X119078571Y-77225000D01*
X119007142Y-77367857D01*
X119007142Y-78153571D01*
X118292857Y-78153571D02*
X118292857Y-77153571D01*
X118292857Y-76653571D02*
X118364285Y-76725000D01*
X118292857Y-76796428D01*
X118221428Y-76725000D01*
X118292857Y-76653571D01*
X118292857Y-76796428D01*
X116935714Y-78153571D02*
X116935714Y-76653571D01*
X116935714Y-78082142D02*
X117078571Y-78153571D01*
X117364285Y-78153571D01*
X117507142Y-78082142D01*
X117578571Y-78010714D01*
X117650000Y-77867857D01*
X117650000Y-77439285D01*
X117578571Y-77296428D01*
X117507142Y-77225000D01*
X117364285Y-77153571D01*
X117078571Y-77153571D01*
X116935714Y-77225000D01*
D11*
X187669523Y-123539047D02*
X188050476Y-123729523D01*
X188812380Y-123729523D01*
X189193333Y-123539047D01*
X189383809Y-123348571D01*
X189574285Y-122967619D01*
X189574285Y-121824761D01*
X189383809Y-121443809D01*
X189193333Y-121253333D01*
X188812380Y-121062857D01*
X188050476Y-121062857D01*
X187669523Y-121253333D01*
X185955238Y-123729523D02*
X185955238Y-121062857D01*
X185955238Y-121824761D02*
X185764761Y-121443809D01*
X185574285Y-121253333D01*
X185193333Y-121062857D01*
X184812380Y-121062857D01*
X181955238Y-123539047D02*
X182336190Y-123729523D01*
X183098095Y-123729523D01*
X183479047Y-123539047D01*
X183669523Y-123158095D01*
X183669523Y-121634285D01*
X183479047Y-121253333D01*
X183098095Y-121062857D01*
X182336190Y-121062857D01*
X181955238Y-121253333D01*
X181764761Y-121634285D01*
X181764761Y-122015238D01*
X183669523Y-122396190D01*
X178336190Y-123729523D02*
X178336190Y-121634285D01*
X178526666Y-121253333D01*
X178907619Y-121062857D01*
X179669523Y-121062857D01*
X180050476Y-121253333D01*
X178336190Y-123539047D02*
X178717142Y-123729523D01*
X179669523Y-123729523D01*
X180050476Y-123539047D01*
X180240952Y-123158095D01*
X180240952Y-122777142D01*
X180050476Y-122396190D01*
X179669523Y-122205714D01*
X178717142Y-122205714D01*
X178336190Y-122015238D01*
X177002857Y-121062857D02*
X175479047Y-121062857D01*
X176431428Y-119729523D02*
X176431428Y-123158095D01*
X176240952Y-123539047D01*
X175860000Y-123729523D01*
X175479047Y-123729523D01*
X172621904Y-123539047D02*
X173002857Y-123729523D01*
X173764761Y-123729523D01*
X174145714Y-123539047D01*
X174336190Y-123158095D01*
X174336190Y-121634285D01*
X174145714Y-121253333D01*
X173764761Y-121062857D01*
X173002857Y-121062857D01*
X172621904Y-121253333D01*
X172431428Y-121634285D01*
X172431428Y-122015238D01*
X174336190Y-122396190D01*
X169002857Y-123729523D02*
X169002857Y-119729523D01*
X169002857Y-123539047D02*
X169383809Y-123729523D01*
X170145714Y-123729523D01*
X170526666Y-123539047D01*
X170717142Y-123348571D01*
X170907619Y-122967619D01*
X170907619Y-121824761D01*
X170717142Y-121443809D01*
X170526666Y-121253333D01*
X170145714Y-121062857D01*
X169383809Y-121062857D01*
X169002857Y-121253333D01*
X164050476Y-123729523D02*
X164050476Y-119729523D01*
X164050476Y-121253333D02*
X163669523Y-121062857D01*
X162907619Y-121062857D01*
X162526666Y-121253333D01*
X162336190Y-121443809D01*
X162145714Y-121824761D01*
X162145714Y-122967619D01*
X162336190Y-123348571D01*
X162526666Y-123539047D01*
X162907619Y-123729523D01*
X163669523Y-123729523D01*
X164050476Y-123539047D01*
X160812380Y-121062857D02*
X159860000Y-123729523D01*
X158907619Y-121062857D02*
X159860000Y-123729523D01*
X160240952Y-124681904D01*
X160431428Y-124872380D01*
X160812380Y-125062857D01*
X157383809Y-123348571D02*
X157193333Y-123539047D01*
X157383809Y-123729523D01*
X157574285Y-123539047D01*
X157383809Y-123348571D01*
X157383809Y-123729523D01*
X157383809Y-121253333D02*
X157193333Y-121443809D01*
X157383809Y-121634285D01*
X157574285Y-121443809D01*
X157383809Y-121253333D01*
X157383809Y-121634285D01*
X152431428Y-123729523D02*
X152431428Y-119729523D01*
X151098095Y-122586666D01*
X149764761Y-119729523D01*
X149764761Y-123729523D01*
X146145714Y-123729523D02*
X146145714Y-121634285D01*
X146336190Y-121253333D01*
X146717142Y-121062857D01*
X147479047Y-121062857D01*
X147860000Y-121253333D01*
X146145714Y-123539047D02*
X146526666Y-123729523D01*
X147479047Y-123729523D01*
X147860000Y-123539047D01*
X148050476Y-123158095D01*
X148050476Y-122777142D01*
X147860000Y-122396190D01*
X147479047Y-122205714D01*
X146526666Y-122205714D01*
X146145714Y-122015238D01*
X144240952Y-123729523D02*
X144240952Y-121062857D01*
X144240952Y-121824761D02*
X144050476Y-121443809D01*
X143860000Y-121253333D01*
X143479047Y-121062857D01*
X143098095Y-121062857D01*
X142145714Y-121062857D02*
X141193333Y-123729523D01*
X140240952Y-121062857D01*
X138717142Y-123729523D02*
X138717142Y-121062857D01*
X138717142Y-119729523D02*
X138907619Y-119920000D01*
X138717142Y-120110476D01*
X138526666Y-119920000D01*
X138717142Y-119729523D01*
X138717142Y-120110476D01*
X136812380Y-121062857D02*
X136812380Y-123729523D01*
X136812380Y-121443809D02*
X136621904Y-121253333D01*
X136240952Y-121062857D01*
X135669523Y-121062857D01*
X135288571Y-121253333D01*
X135098095Y-121634285D01*
X135098095Y-123729523D01*
X130336190Y-123539047D02*
X129764761Y-123729523D01*
X128812380Y-123729523D01*
X128431428Y-123539047D01*
X128240952Y-123348571D01*
X128050476Y-122967619D01*
X128050476Y-122586666D01*
X128240952Y-122205714D01*
X128431428Y-122015238D01*
X128812380Y-121824761D01*
X129574285Y-121634285D01*
X129955238Y-121443809D01*
X130145714Y-121253333D01*
X130336190Y-120872380D01*
X130336190Y-120491428D01*
X130145714Y-120110476D01*
X129955238Y-119920000D01*
X129574285Y-119729523D01*
X128621904Y-119729523D01*
X128050476Y-119920000D01*
X124621904Y-123539047D02*
X125002857Y-123729523D01*
X125764761Y-123729523D01*
X126145714Y-123539047D01*
X126336190Y-123348571D01*
X126526666Y-122967619D01*
X126526666Y-121824761D01*
X126336190Y-121443809D01*
X126145714Y-121253333D01*
X125764761Y-121062857D01*
X125002857Y-121062857D01*
X124621904Y-121253333D01*
X122907619Y-123729523D02*
X122907619Y-119729523D01*
X121193333Y-123729523D02*
X121193333Y-121634285D01*
X121383809Y-121253333D01*
X121764761Y-121062857D01*
X122336190Y-121062857D01*
X122717142Y-121253333D01*
X122907619Y-121443809D01*
X119288571Y-123729523D02*
X119288571Y-121062857D01*
X119288571Y-121443809D02*
X119098095Y-121253333D01*
X118717142Y-121062857D01*
X118145714Y-121062857D01*
X117764761Y-121253333D01*
X117574285Y-121634285D01*
X117574285Y-123729523D01*
X117574285Y-121634285D02*
X117383809Y-121253333D01*
X117002857Y-121062857D01*
X116431428Y-121062857D01*
X116050476Y-121253333D01*
X115860000Y-121634285D01*
X115860000Y-123729523D01*
X113955238Y-123729523D02*
X113955238Y-121062857D01*
X113955238Y-119729523D02*
X114145714Y-119920000D01*
X113955238Y-120110476D01*
X113764761Y-119920000D01*
X113955238Y-119729523D01*
X113955238Y-120110476D01*
X110336190Y-123729523D02*
X110336190Y-119729523D01*
X110336190Y-123539047D02*
X110717142Y-123729523D01*
X111479047Y-123729523D01*
X111860000Y-123539047D01*
X112050476Y-123348571D01*
X112240952Y-122967619D01*
X112240952Y-121824761D01*
X112050476Y-121443809D01*
X111860000Y-121253333D01*
X111479047Y-121062857D01*
X110717142Y-121062857D01*
X110336190Y-121253333D01*
D12*
X182880000Y-63500000D03*
X186280000Y-63500000D03*
D13*
X115570000Y-69850000D03*
G04 #@! TA.AperFunction,ComponentPad*
D14*
G36*
X110393513Y-68103611D02*
G01*
X110466318Y-68114411D01*
X110537714Y-68132295D01*
X110607013Y-68157090D01*
X110673548Y-68188559D01*
X110736678Y-68226398D01*
X110795795Y-68270242D01*
X110850330Y-68319670D01*
X110899758Y-68374205D01*
X110943602Y-68433322D01*
X110981441Y-68496452D01*
X111012910Y-68562987D01*
X111037705Y-68632286D01*
X111055589Y-68703682D01*
X111066389Y-68776487D01*
X111070000Y-68850000D01*
X111070000Y-70850000D01*
X111066389Y-70923513D01*
X111055589Y-70996318D01*
X111037705Y-71067714D01*
X111012910Y-71137013D01*
X110981441Y-71203548D01*
X110943602Y-71266678D01*
X110899758Y-71325795D01*
X110850330Y-71380330D01*
X110795795Y-71429758D01*
X110736678Y-71473602D01*
X110673548Y-71511441D01*
X110607013Y-71542910D01*
X110537714Y-71567705D01*
X110466318Y-71585589D01*
X110393513Y-71596389D01*
X110320000Y-71600000D01*
X108820000Y-71600000D01*
X108746487Y-71596389D01*
X108673682Y-71585589D01*
X108602286Y-71567705D01*
X108532987Y-71542910D01*
X108466452Y-71511441D01*
X108403322Y-71473602D01*
X108344205Y-71429758D01*
X108289670Y-71380330D01*
X108240242Y-71325795D01*
X108196398Y-71266678D01*
X108158559Y-71203548D01*
X108127090Y-71137013D01*
X108102295Y-71067714D01*
X108084411Y-70996318D01*
X108073611Y-70923513D01*
X108070000Y-70850000D01*
X108070000Y-68850000D01*
X108073611Y-68776487D01*
X108084411Y-68703682D01*
X108102295Y-68632286D01*
X108127090Y-68562987D01*
X108158559Y-68496452D01*
X108196398Y-68433322D01*
X108240242Y-68374205D01*
X108289670Y-68319670D01*
X108344205Y-68270242D01*
X108403322Y-68226398D01*
X108466452Y-68188559D01*
X108532987Y-68157090D01*
X108602286Y-68132295D01*
X108673682Y-68114411D01*
X108746487Y-68103611D01*
X108820000Y-68100000D01*
X110320000Y-68100000D01*
X110393513Y-68103611D01*
G37*
G04 #@! TD.AperFunction*
G04 #@! TA.AperFunction,ComponentPad*
G36*
X113530765Y-72804213D02*
G01*
X113615704Y-72816813D01*
X113698999Y-72837677D01*
X113779848Y-72866605D01*
X113857472Y-72903319D01*
X113931124Y-72947464D01*
X114000094Y-72998616D01*
X114063718Y-73056282D01*
X114121384Y-73119906D01*
X114172536Y-73188876D01*
X114216681Y-73262528D01*
X114253395Y-73340152D01*
X114282323Y-73421001D01*
X114303187Y-73504296D01*
X114315787Y-73589235D01*
X114320000Y-73675000D01*
X114320000Y-75425000D01*
X114315787Y-75510765D01*
X114303187Y-75595704D01*
X114282323Y-75678999D01*
X114253395Y-75759848D01*
X114216681Y-75837472D01*
X114172536Y-75911124D01*
X114121384Y-75980094D01*
X114063718Y-76043718D01*
X114000094Y-76101384D01*
X113931124Y-76152536D01*
X113857472Y-76196681D01*
X113779848Y-76233395D01*
X113698999Y-76262323D01*
X113615704Y-76283187D01*
X113530765Y-76295787D01*
X113445000Y-76300000D01*
X111695000Y-76300000D01*
X111609235Y-76295787D01*
X111524296Y-76283187D01*
X111441001Y-76262323D01*
X111360152Y-76233395D01*
X111282528Y-76196681D01*
X111208876Y-76152536D01*
X111139906Y-76101384D01*
X111076282Y-76043718D01*
X111018616Y-75980094D01*
X110967464Y-75911124D01*
X110923319Y-75837472D01*
X110886605Y-75759848D01*
X110857677Y-75678999D01*
X110836813Y-75595704D01*
X110824213Y-75510765D01*
X110820000Y-75425000D01*
X110820000Y-73675000D01*
X110824213Y-73589235D01*
X110836813Y-73504296D01*
X110857677Y-73421001D01*
X110886605Y-73340152D01*
X110923319Y-73262528D01*
X110967464Y-73188876D01*
X111018616Y-73119906D01*
X111076282Y-73056282D01*
X111139906Y-72998616D01*
X111208876Y-72947464D01*
X111282528Y-72903319D01*
X111360152Y-72866605D01*
X111441001Y-72837677D01*
X111524296Y-72816813D01*
X111609235Y-72804213D01*
X111695000Y-72800000D01*
X113445000Y-72800000D01*
X113530765Y-72804213D01*
G37*
G04 #@! TD.AperFunction*
D15*
X133635001Y-70125001D03*
D16*
X148875001Y-103145001D03*
X133635001Y-72665001D03*
X148875001Y-100605001D03*
X133635001Y-75205001D03*
X148875001Y-98065001D03*
X133635001Y-77745001D03*
X148875001Y-95525001D03*
X133635001Y-80285001D03*
X148875001Y-92985001D03*
X133635001Y-82825001D03*
X148875001Y-90445001D03*
X133635001Y-85365001D03*
X148875001Y-87905001D03*
X133635001Y-87905001D03*
X148875001Y-85365001D03*
X133635001Y-90445001D03*
X148875001Y-82825001D03*
X133635001Y-92985001D03*
X148875001Y-80285001D03*
X133635001Y-95525001D03*
X148875001Y-77745001D03*
X133635001Y-98065001D03*
X148875001Y-75205001D03*
X133635001Y-100605001D03*
X148875001Y-72665001D03*
X133635001Y-103145001D03*
X148875001Y-70125001D03*
X133635001Y-105685001D03*
X148875001Y-105685001D03*
D17*
X162560000Y-82550000D03*
D18*
X162560000Y-85090000D03*
X162560000Y-87630000D03*
X162560000Y-90170000D03*
D17*
X128270000Y-71120000D03*
D18*
X128270000Y-73660000D03*
D17*
X128270000Y-59690000D03*
D18*
X125730000Y-59690000D03*
X123190000Y-59690000D03*
D19*
X149860000Y-62920000D03*
X149860000Y-58420000D03*
X156360000Y-62920000D03*
X156360000Y-58420000D03*
X160020000Y-103560000D03*
X160020000Y-99060000D03*
X166520000Y-103560000D03*
X166520000Y-99060000D03*
X176680000Y-99060000D03*
X176680000Y-103560000D03*
X170180000Y-99060000D03*
X170180000Y-103560000D03*
X186840000Y-99060000D03*
X186840000Y-103560000D03*
X180340000Y-99060000D03*
X180340000Y-103560000D03*
X190500000Y-103560000D03*
X190500000Y-99060000D03*
X197000000Y-103560000D03*
X197000000Y-99060000D03*
D20*
X105410000Y-115570000D03*
X105410000Y-116840000D03*
D21*
X105410000Y-114300000D03*
D17*
X184150000Y-88900000D03*
D22*
X184150000Y-86400000D03*
X186150000Y-86400000D03*
X186150000Y-88900000D03*
D23*
X188860000Y-93670000D03*
X188860000Y-81630000D03*
D17*
X171450000Y-59690000D03*
D18*
X173990000Y-59690000D03*
X176530000Y-59690000D03*
D17*
X137160000Y-59690000D03*
D18*
X139700000Y-59690000D03*
G04 #@! TA.AperFunction,ComponentPad*
D14*
G36*
X149103229Y-115046264D02*
G01*
X149128711Y-115050044D01*
X149153700Y-115056303D01*
X149177954Y-115064982D01*
X149201242Y-115075996D01*
X149223337Y-115089239D01*
X149244028Y-115104585D01*
X149263116Y-115121884D01*
X149280415Y-115140972D01*
X149295761Y-115161663D01*
X149309004Y-115183758D01*
X149320018Y-115207046D01*
X149328697Y-115231300D01*
X149334956Y-115256289D01*
X149338736Y-115281771D01*
X149340000Y-115307500D01*
X149340000Y-115832500D01*
X149338736Y-115858229D01*
X149334956Y-115883711D01*
X149328697Y-115908700D01*
X149320018Y-115932954D01*
X149309004Y-115956242D01*
X149295761Y-115978337D01*
X149280415Y-115999028D01*
X149263116Y-116018116D01*
X149244028Y-116035415D01*
X149223337Y-116050761D01*
X149201242Y-116064004D01*
X149177954Y-116075018D01*
X149153700Y-116083697D01*
X149128711Y-116089956D01*
X149103229Y-116093736D01*
X149077500Y-116095000D01*
X148102500Y-116095000D01*
X148076771Y-116093736D01*
X148051289Y-116089956D01*
X148026300Y-116083697D01*
X148002046Y-116075018D01*
X147978758Y-116064004D01*
X147956663Y-116050761D01*
X147935972Y-116035415D01*
X147916884Y-116018116D01*
X147899585Y-115999028D01*
X147884239Y-115978337D01*
X147870996Y-115956242D01*
X147859982Y-115932954D01*
X147851303Y-115908700D01*
X147845044Y-115883711D01*
X147841264Y-115858229D01*
X147840000Y-115832500D01*
X147840000Y-115307500D01*
X147841264Y-115281771D01*
X147845044Y-115256289D01*
X147851303Y-115231300D01*
X147859982Y-115207046D01*
X147870996Y-115183758D01*
X147884239Y-115161663D01*
X147899585Y-115140972D01*
X147916884Y-115121884D01*
X147935972Y-115104585D01*
X147956663Y-115089239D01*
X147978758Y-115075996D01*
X148002046Y-115064982D01*
X148026300Y-115056303D01*
X148051289Y-115050044D01*
X148076771Y-115046264D01*
X148102500Y-115045000D01*
X149077500Y-115045000D01*
X149103229Y-115046264D01*
G37*
G04 #@! TD.AperFunction*
G04 #@! TA.AperFunction,ComponentPad*
G36*
X149103229Y-116316264D02*
G01*
X149128711Y-116320044D01*
X149153700Y-116326303D01*
X149177954Y-116334982D01*
X149201242Y-116345996D01*
X149223337Y-116359239D01*
X149244028Y-116374585D01*
X149263116Y-116391884D01*
X149280415Y-116410972D01*
X149295761Y-116431663D01*
X149309004Y-116453758D01*
X149320018Y-116477046D01*
X149328697Y-116501300D01*
X149334956Y-116526289D01*
X149338736Y-116551771D01*
X149340000Y-116577500D01*
X149340000Y-117102500D01*
X149338736Y-117128229D01*
X149334956Y-117153711D01*
X149328697Y-117178700D01*
X149320018Y-117202954D01*
X149309004Y-117226242D01*
X149295761Y-117248337D01*
X149280415Y-117269028D01*
X149263116Y-117288116D01*
X149244028Y-117305415D01*
X149223337Y-117320761D01*
X149201242Y-117334004D01*
X149177954Y-117345018D01*
X149153700Y-117353697D01*
X149128711Y-117359956D01*
X149103229Y-117363736D01*
X149077500Y-117365000D01*
X148102500Y-117365000D01*
X148076771Y-117363736D01*
X148051289Y-117359956D01*
X148026300Y-117353697D01*
X148002046Y-117345018D01*
X147978758Y-117334004D01*
X147956663Y-117320761D01*
X147935972Y-117305415D01*
X147916884Y-117288116D01*
X147899585Y-117269028D01*
X147884239Y-117248337D01*
X147870996Y-117226242D01*
X147859982Y-117202954D01*
X147851303Y-117178700D01*
X147845044Y-117153711D01*
X147841264Y-117128229D01*
X147840000Y-117102500D01*
X147840000Y-116577500D01*
X147841264Y-116551771D01*
X147845044Y-116526289D01*
X147851303Y-116501300D01*
X147859982Y-116477046D01*
X147870996Y-116453758D01*
X147884239Y-116431663D01*
X147899585Y-116410972D01*
X147916884Y-116391884D01*
X147935972Y-116374585D01*
X147956663Y-116359239D01*
X147978758Y-116345996D01*
X148002046Y-116334982D01*
X148026300Y-116326303D01*
X148051289Y-116320044D01*
X148076771Y-116316264D01*
X148102500Y-116315000D01*
X149077500Y-116315000D01*
X149103229Y-116316264D01*
G37*
G04 #@! TD.AperFunction*
D21*
X148590000Y-114300000D03*
D17*
X154940000Y-97790000D03*
X113030000Y-59690000D03*
D18*
X115570000Y-59690000D03*
X118110000Y-59690000D03*
X161290000Y-59690000D03*
X163830000Y-59690000D03*
D17*
X166370000Y-59690000D03*
D24*
X158750000Y-106680000D03*
X170180000Y-106680000D03*
X172720000Y-107950000D03*
X180340000Y-107950000D03*
X153670000Y-86360000D03*
X167640000Y-64770000D03*
X167640000Y-64770000D03*
X127000000Y-63500000D03*
X129540000Y-109220000D03*
X130810000Y-86360000D03*
X143510000Y-67310000D03*
X143510000Y-73660000D03*
X166370000Y-78740000D03*
X154940000Y-76200000D03*
X140970000Y-113030000D03*
X144780000Y-100330000D03*
D25*
X133074999Y-70125001D02*
X133635001Y-70125001D01*
X129540000Y-73660000D02*
X133074999Y-70125001D01*
X128270000Y-73660000D02*
X129540000Y-73660000D01*
X172720000Y-107950000D02*
X180340000Y-107950000D01*
X180340000Y-107950000D02*
X180340000Y-107950000D01*
X180340000Y-107950000D02*
X180340000Y-107950000D01*
X149870000Y-86360000D02*
X148875001Y-85365001D01*
X153670000Y-86360000D02*
X149870000Y-86360000D01*
X144780000Y-114300000D02*
X160020000Y-99060000D01*
X105410000Y-114300000D02*
X144780000Y-114300000D01*
X160020000Y-99060000D02*
X197000000Y-99060000D01*
X160020000Y-99060000D02*
X160020000Y-90170000D01*
X158760000Y-87630000D02*
X148875001Y-77745001D01*
X162560000Y-87630000D02*
X158760000Y-87630000D01*
X158474999Y-77745001D02*
X148875001Y-77745001D01*
X173990000Y-59690000D02*
X173990000Y-62230000D01*
X173990000Y-62230000D02*
X170180000Y-66040000D01*
X175115001Y-61104999D02*
X166370000Y-69850000D01*
X170180000Y-66040000D02*
X166370000Y-69850000D01*
X166370000Y-69850000D02*
X158474999Y-77745001D01*
X160020000Y-90170000D02*
X160020000Y-88900000D01*
X160020000Y-88900000D02*
X158750000Y-87630000D01*
X144780000Y-114300000D02*
X148590000Y-114300000D01*
X168910000Y-64770000D02*
X170180000Y-66040000D01*
X167640000Y-64770000D02*
X168910000Y-64770000D01*
X186280000Y-63500000D02*
X183740000Y-60960000D01*
X175260000Y-60960000D02*
X175115001Y-61104999D01*
X183740000Y-60960000D02*
X175260000Y-60960000D01*
X127000000Y-63500000D02*
X125730000Y-63500000D01*
X123190000Y-60960000D02*
X123190000Y-59690000D01*
X125730000Y-63500000D02*
X123190000Y-60960000D01*
X170350000Y-59690000D02*
X162730000Y-67310000D01*
X146050000Y-87620000D02*
X148875001Y-90445001D01*
X146050000Y-69850000D02*
X146050000Y-87620000D01*
X171450000Y-59690000D02*
X170350000Y-59690000D01*
X148590000Y-67310000D02*
X146050000Y-69850000D01*
X162730000Y-67310000D02*
X148590000Y-67310000D01*
X130534999Y-85365001D02*
X133635001Y-85365001D01*
X129540000Y-109220000D02*
X129540000Y-86360000D01*
X129540000Y-86360000D02*
X130534999Y-85365001D01*
X130810000Y-95240000D02*
X133635001Y-98065001D01*
X130810000Y-86360000D02*
X130810000Y-95240000D01*
X143510000Y-67310000D02*
X143510000Y-72390000D01*
X143510000Y-72390000D02*
X143510000Y-72934999D01*
X143510000Y-72934999D02*
X143510000Y-73660000D01*
X143510000Y-73660000D02*
X143510000Y-73660000D01*
X183050000Y-88900000D02*
X172890000Y-78740000D01*
X184150000Y-88900000D02*
X183050000Y-88900000D01*
X172890000Y-78740000D02*
X166370000Y-78740000D01*
X166370000Y-78740000D02*
X166370000Y-78740000D01*
X148875001Y-70135001D02*
X148875001Y-70125001D01*
X154940000Y-76200000D02*
X148875001Y-70135001D01*
X140970000Y-113030000D02*
X144780000Y-109220000D01*
X144780000Y-109220000D02*
X144780000Y-100330000D01*
X144780000Y-100330000D02*
X144780000Y-100330000D01*
X188860000Y-93670000D02*
X188860000Y-81630000D01*
X148875001Y-95525001D02*
X135890000Y-82540000D01*
X135890000Y-82540000D02*
X135890000Y-68580000D01*
X135890000Y-68580000D02*
X132080000Y-64770000D01*
X132080000Y-64770000D02*
X124460000Y-64770000D01*
X119380000Y-59690000D02*
X118110000Y-59690000D01*
X124460000Y-64770000D02*
X119380000Y-59690000D01*
X161290000Y-59690000D02*
X161290000Y-64770000D01*
X161290000Y-64770000D02*
X160020000Y-66040000D01*
X160020000Y-66040000D02*
X148590000Y-66040000D01*
X148590000Y-66040000D02*
X144780000Y-69850000D01*
X144780000Y-88890000D02*
X148875001Y-92985001D01*
X144780000Y-69850000D02*
X144780000Y-88890000D01*
D26*
G36*
X196362249Y-56612437D02*
G01*
X197119774Y-56819672D01*
X197828625Y-57157777D01*
X198466404Y-57616067D01*
X199012946Y-58180055D01*
X199450977Y-58831913D01*
X199766651Y-59551038D01*
X199951206Y-60319768D01*
X200000001Y-60984220D01*
X200000000Y-63532418D01*
X200000001Y-63532428D01*
X200000000Y-119347581D01*
X200000000Y-119347582D01*
X200000001Y-121890597D01*
X199927563Y-122702249D01*
X199720328Y-123459774D01*
X199382221Y-124168627D01*
X198923928Y-124806410D01*
X198359945Y-125352946D01*
X197708085Y-125790978D01*
X196988963Y-126106651D01*
X196220232Y-126291206D01*
X195555792Y-126340000D01*
X106709392Y-126340000D01*
X105897751Y-126267563D01*
X105140226Y-126060328D01*
X104431373Y-125722221D01*
X103793590Y-125263928D01*
X103247054Y-124699945D01*
X102809022Y-124048085D01*
X102493349Y-123328963D01*
X102308794Y-122560232D01*
X102260000Y-121895792D01*
X102260000Y-118255000D01*
X108448810Y-118255000D01*
X108448810Y-126125000D01*
X191271191Y-126125000D01*
X191271191Y-118255000D01*
X108448810Y-118255000D01*
X102260000Y-118255000D01*
X102260000Y-115570000D01*
X104019388Y-115570000D01*
X104041785Y-115797400D01*
X104108115Y-116016060D01*
X104209105Y-116205000D01*
X104108115Y-116393940D01*
X104041785Y-116612600D01*
X104019388Y-116840000D01*
X104041785Y-117067400D01*
X104108115Y-117286060D01*
X104215829Y-117487579D01*
X104360788Y-117664212D01*
X104537421Y-117809171D01*
X104738940Y-117916885D01*
X104957600Y-117983215D01*
X105128021Y-118000000D01*
X105691979Y-118000000D01*
X105862400Y-117983215D01*
X106081060Y-117916885D01*
X106282579Y-117809171D01*
X106459212Y-117664212D01*
X106604171Y-117487579D01*
X106669690Y-117365000D01*
X147201928Y-117365000D01*
X147214188Y-117489482D01*
X147250498Y-117609180D01*
X147309463Y-117719494D01*
X147388815Y-117816185D01*
X147485506Y-117895537D01*
X147595820Y-117954502D01*
X147715518Y-117990812D01*
X147840000Y-118003072D01*
X148304250Y-118000000D01*
X148463000Y-117841250D01*
X148463000Y-116967000D01*
X148717000Y-116967000D01*
X148717000Y-117841250D01*
X148875750Y-118000000D01*
X149340000Y-118003072D01*
X149464482Y-117990812D01*
X149584180Y-117954502D01*
X149694494Y-117895537D01*
X149791185Y-117816185D01*
X149870537Y-117719494D01*
X149929502Y-117609180D01*
X149965812Y-117489482D01*
X149978072Y-117365000D01*
X149975000Y-117125750D01*
X149816250Y-116967000D01*
X148717000Y-116967000D01*
X148463000Y-116967000D01*
X147363750Y-116967000D01*
X147205000Y-117125750D01*
X147201928Y-117365000D01*
X106669690Y-117365000D01*
X106711885Y-117286060D01*
X106778215Y-117067400D01*
X106800612Y-116840000D01*
X106778215Y-116612600D01*
X106711885Y-116393940D01*
X106610895Y-116205000D01*
X106711885Y-116016060D01*
X106778215Y-115797400D01*
X106800612Y-115570000D01*
X106778215Y-115342600D01*
X106714907Y-115133902D01*
X106749502Y-115069180D01*
X106752287Y-115060000D01*
X144742678Y-115060000D01*
X144780000Y-115063676D01*
X144817322Y-115060000D01*
X147241015Y-115060000D01*
X147219232Y-115131807D01*
X147201928Y-115307500D01*
X147201928Y-115832500D01*
X147219232Y-116008193D01*
X147244364Y-116091041D01*
X147214188Y-116190518D01*
X147201928Y-116315000D01*
X147205000Y-116554250D01*
X147363750Y-116713000D01*
X147917682Y-116713000D01*
X147926807Y-116715768D01*
X148102500Y-116733072D01*
X149077500Y-116733072D01*
X149253193Y-116715768D01*
X149262318Y-116713000D01*
X149816250Y-116713000D01*
X149975000Y-116554250D01*
X149978072Y-116315000D01*
X149965812Y-116190518D01*
X149935636Y-116091041D01*
X149960768Y-116008193D01*
X149978072Y-115832500D01*
X149978072Y-115307500D01*
X149960768Y-115131807D01*
X149935636Y-115048959D01*
X149965812Y-114949482D01*
X149978072Y-114825000D01*
X149978072Y-114079872D01*
X193345000Y-114079872D01*
X193345000Y-114520128D01*
X193430890Y-114951925D01*
X193599369Y-115358669D01*
X193843962Y-115724729D01*
X194155271Y-116036038D01*
X194521331Y-116280631D01*
X194928075Y-116449110D01*
X195359872Y-116535000D01*
X195800128Y-116535000D01*
X196231925Y-116449110D01*
X196638669Y-116280631D01*
X197004729Y-116036038D01*
X197316038Y-115724729D01*
X197560631Y-115358669D01*
X197729110Y-114951925D01*
X197815000Y-114520128D01*
X197815000Y-114079872D01*
X197729110Y-113648075D01*
X197560631Y-113241331D01*
X197316038Y-112875271D01*
X197004729Y-112563962D01*
X196638669Y-112319369D01*
X196231925Y-112150890D01*
X195800128Y-112065000D01*
X195359872Y-112065000D01*
X194928075Y-112150890D01*
X194521331Y-112319369D01*
X194155271Y-112563962D01*
X193843962Y-112875271D01*
X193599369Y-113241331D01*
X193430890Y-113648075D01*
X193345000Y-114079872D01*
X149978072Y-114079872D01*
X149978072Y-113775000D01*
X149965812Y-113650518D01*
X149929502Y-113530820D01*
X149870537Y-113420506D01*
X149791185Y-113323815D01*
X149694494Y-113244463D01*
X149584180Y-113185498D01*
X149464482Y-113149188D01*
X149340000Y-113136928D01*
X147840000Y-113136928D01*
X147715518Y-113149188D01*
X147595820Y-113185498D01*
X147485506Y-113244463D01*
X147388815Y-113323815D01*
X147309463Y-113420506D01*
X147250498Y-113530820D01*
X147247713Y-113540000D01*
X146614801Y-113540000D01*
X156755834Y-103398967D01*
X158385000Y-103398967D01*
X158385000Y-103721033D01*
X158447832Y-104036912D01*
X158571082Y-104334463D01*
X158750013Y-104602252D01*
X158977748Y-104829987D01*
X159245537Y-105008918D01*
X159543088Y-105132168D01*
X159858967Y-105195000D01*
X160181033Y-105195000D01*
X160496912Y-105132168D01*
X160794463Y-105008918D01*
X161062252Y-104829987D01*
X161289987Y-104602252D01*
X161468918Y-104334463D01*
X161592168Y-104036912D01*
X161655000Y-103721033D01*
X161655000Y-103398967D01*
X164885000Y-103398967D01*
X164885000Y-103721033D01*
X164947832Y-104036912D01*
X165071082Y-104334463D01*
X165250013Y-104602252D01*
X165477748Y-104829987D01*
X165745537Y-105008918D01*
X166043088Y-105132168D01*
X166358967Y-105195000D01*
X166681033Y-105195000D01*
X166996912Y-105132168D01*
X167294463Y-105008918D01*
X167562252Y-104829987D01*
X167789987Y-104602252D01*
X167968918Y-104334463D01*
X168092168Y-104036912D01*
X168155000Y-103721033D01*
X168155000Y-103398967D01*
X168545000Y-103398967D01*
X168545000Y-103721033D01*
X168607832Y-104036912D01*
X168731082Y-104334463D01*
X168910013Y-104602252D01*
X169137748Y-104829987D01*
X169405537Y-105008918D01*
X169703088Y-105132168D01*
X170018967Y-105195000D01*
X170341033Y-105195000D01*
X170656912Y-105132168D01*
X170954463Y-105008918D01*
X171222252Y-104829987D01*
X171449987Y-104602252D01*
X171628918Y-104334463D01*
X171752168Y-104036912D01*
X171815000Y-103721033D01*
X171815000Y-103398967D01*
X175045000Y-103398967D01*
X175045000Y-103721033D01*
X175107832Y-104036912D01*
X175231082Y-104334463D01*
X175410013Y-104602252D01*
X175637748Y-104829987D01*
X175905537Y-105008918D01*
X176203088Y-105132168D01*
X176518967Y-105195000D01*
X176841033Y-105195000D01*
X177156912Y-105132168D01*
X177454463Y-105008918D01*
X177722252Y-104829987D01*
X177949987Y-104602252D01*
X178128918Y-104334463D01*
X178252168Y-104036912D01*
X178315000Y-103721033D01*
X178315000Y-103398967D01*
X178705000Y-103398967D01*
X178705000Y-103721033D01*
X178767832Y-104036912D01*
X178891082Y-104334463D01*
X179070013Y-104602252D01*
X179297748Y-104829987D01*
X179565537Y-105008918D01*
X179863088Y-105132168D01*
X180178967Y-105195000D01*
X180501033Y-105195000D01*
X180816912Y-105132168D01*
X181114463Y-105008918D01*
X181382252Y-104829987D01*
X181609987Y-104602252D01*
X181788918Y-104334463D01*
X181912168Y-104036912D01*
X181975000Y-103721033D01*
X181975000Y-103398967D01*
X185205000Y-103398967D01*
X185205000Y-103721033D01*
X185267832Y-104036912D01*
X185391082Y-104334463D01*
X185570013Y-104602252D01*
X185797748Y-104829987D01*
X186065537Y-105008918D01*
X186363088Y-105132168D01*
X186678967Y-105195000D01*
X187001033Y-105195000D01*
X187316912Y-105132168D01*
X187614463Y-105008918D01*
X187882252Y-104829987D01*
X188109987Y-104602252D01*
X188288918Y-104334463D01*
X188412168Y-104036912D01*
X188475000Y-103721033D01*
X188475000Y-103398967D01*
X188865000Y-103398967D01*
X188865000Y-103721033D01*
X188927832Y-104036912D01*
X189051082Y-104334463D01*
X189230013Y-104602252D01*
X189457748Y-104829987D01*
X189725537Y-105008918D01*
X190023088Y-105132168D01*
X190338967Y-105195000D01*
X190661033Y-105195000D01*
X190976912Y-105132168D01*
X191274463Y-105008918D01*
X191542252Y-104829987D01*
X191769987Y-104602252D01*
X191948918Y-104334463D01*
X192072168Y-104036912D01*
X192135000Y-103721033D01*
X192135000Y-103398967D01*
X195365000Y-103398967D01*
X195365000Y-103721033D01*
X195427832Y-104036912D01*
X195551082Y-104334463D01*
X195730013Y-104602252D01*
X195957748Y-104829987D01*
X196225537Y-105008918D01*
X196523088Y-105132168D01*
X196838967Y-105195000D01*
X197161033Y-105195000D01*
X197476912Y-105132168D01*
X197774463Y-105008918D01*
X198042252Y-104829987D01*
X198269987Y-104602252D01*
X198448918Y-104334463D01*
X198572168Y-104036912D01*
X198635000Y-103721033D01*
X198635000Y-103398967D01*
X198572168Y-103083088D01*
X198448918Y-102785537D01*
X198269987Y-102517748D01*
X198042252Y-102290013D01*
X197774463Y-102111082D01*
X197476912Y-101987832D01*
X197161033Y-101925000D01*
X196838967Y-101925000D01*
X196523088Y-101987832D01*
X196225537Y-102111082D01*
X195957748Y-102290013D01*
X195730013Y-102517748D01*
X195551082Y-102785537D01*
X195427832Y-103083088D01*
X195365000Y-103398967D01*
X192135000Y-103398967D01*
X192072168Y-103083088D01*
X191948918Y-102785537D01*
X191769987Y-102517748D01*
X191542252Y-102290013D01*
X191274463Y-102111082D01*
X190976912Y-101987832D01*
X190661033Y-101925000D01*
X190338967Y-101925000D01*
X190023088Y-101987832D01*
X189725537Y-102111082D01*
X189457748Y-102290013D01*
X189230013Y-102517748D01*
X189051082Y-102785537D01*
X188927832Y-103083088D01*
X188865000Y-103398967D01*
X188475000Y-103398967D01*
X188412168Y-103083088D01*
X188288918Y-102785537D01*
X188109987Y-102517748D01*
X187882252Y-102290013D01*
X187614463Y-102111082D01*
X187316912Y-101987832D01*
X187001033Y-101925000D01*
X186678967Y-101925000D01*
X186363088Y-101987832D01*
X186065537Y-102111082D01*
X185797748Y-102290013D01*
X185570013Y-102517748D01*
X185391082Y-102785537D01*
X185267832Y-103083088D01*
X185205000Y-103398967D01*
X181975000Y-103398967D01*
X181912168Y-103083088D01*
X181788918Y-102785537D01*
X181609987Y-102517748D01*
X181382252Y-102290013D01*
X181114463Y-102111082D01*
X180816912Y-101987832D01*
X180501033Y-101925000D01*
X180178967Y-101925000D01*
X179863088Y-101987832D01*
X179565537Y-102111082D01*
X179297748Y-102290013D01*
X179070013Y-102517748D01*
X178891082Y-102785537D01*
X178767832Y-103083088D01*
X178705000Y-103398967D01*
X178315000Y-103398967D01*
X178252168Y-103083088D01*
X178128918Y-102785537D01*
X177949987Y-102517748D01*
X177722252Y-102290013D01*
X177454463Y-102111082D01*
X177156912Y-101987832D01*
X176841033Y-101925000D01*
X176518967Y-101925000D01*
X176203088Y-101987832D01*
X175905537Y-102111082D01*
X175637748Y-102290013D01*
X175410013Y-102517748D01*
X175231082Y-102785537D01*
X175107832Y-103083088D01*
X175045000Y-103398967D01*
X171815000Y-103398967D01*
X171752168Y-103083088D01*
X171628918Y-102785537D01*
X171449987Y-102517748D01*
X171222252Y-102290013D01*
X170954463Y-102111082D01*
X170656912Y-101987832D01*
X170341033Y-101925000D01*
X170018967Y-101925000D01*
X169703088Y-101987832D01*
X169405537Y-102111082D01*
X169137748Y-102290013D01*
X168910013Y-102517748D01*
X168731082Y-102785537D01*
X168607832Y-103083088D01*
X168545000Y-103398967D01*
X168155000Y-103398967D01*
X168092168Y-103083088D01*
X167968918Y-102785537D01*
X167789987Y-102517748D01*
X167562252Y-102290013D01*
X167294463Y-102111082D01*
X166996912Y-101987832D01*
X166681033Y-101925000D01*
X166358967Y-101925000D01*
X166043088Y-101987832D01*
X165745537Y-102111082D01*
X165477748Y-102290013D01*
X165250013Y-102517748D01*
X165071082Y-102785537D01*
X164947832Y-103083088D01*
X164885000Y-103398967D01*
X161655000Y-103398967D01*
X161592168Y-103083088D01*
X161468918Y-102785537D01*
X161289987Y-102517748D01*
X161062252Y-102290013D01*
X160794463Y-102111082D01*
X160496912Y-101987832D01*
X160181033Y-101925000D01*
X159858967Y-101925000D01*
X159543088Y-101987832D01*
X159245537Y-102111082D01*
X158977748Y-102290013D01*
X158750013Y-102517748D01*
X158571082Y-102785537D01*
X158447832Y-103083088D01*
X158385000Y-103398967D01*
X156755834Y-103398967D01*
X159528625Y-100626177D01*
X159543088Y-100632168D01*
X159858967Y-100695000D01*
X160181033Y-100695000D01*
X160496912Y-100632168D01*
X160794463Y-100508918D01*
X161062252Y-100329987D01*
X161289987Y-100102252D01*
X161468918Y-99834463D01*
X161474909Y-99820000D01*
X165065091Y-99820000D01*
X165071082Y-99834463D01*
X165250013Y-100102252D01*
X165477748Y-100329987D01*
X165745537Y-100508918D01*
X166043088Y-100632168D01*
X166358967Y-100695000D01*
X166681033Y-100695000D01*
X166996912Y-100632168D01*
X167294463Y-100508918D01*
X167562252Y-100329987D01*
X167789987Y-100102252D01*
X167968918Y-99834463D01*
X167974909Y-99820000D01*
X168725091Y-99820000D01*
X168731082Y-99834463D01*
X168910013Y-100102252D01*
X169137748Y-100329987D01*
X169405537Y-100508918D01*
X169703088Y-100632168D01*
X170018967Y-100695000D01*
X170341033Y-100695000D01*
X170656912Y-100632168D01*
X170954463Y-100508918D01*
X171222252Y-100329987D01*
X171449987Y-100102252D01*
X171628918Y-99834463D01*
X171634909Y-99820000D01*
X175225091Y-99820000D01*
X175231082Y-99834463D01*
X175410013Y-100102252D01*
X175637748Y-100329987D01*
X175905537Y-100508918D01*
X176203088Y-100632168D01*
X176518967Y-100695000D01*
X176841033Y-100695000D01*
X177156912Y-100632168D01*
X177454463Y-100508918D01*
X177722252Y-100329987D01*
X177949987Y-100102252D01*
X178128918Y-99834463D01*
X178134909Y-99820000D01*
X178885091Y-99820000D01*
X178891082Y-99834463D01*
X179070013Y-100102252D01*
X179297748Y-100329987D01*
X179565537Y-100508918D01*
X179863088Y-100632168D01*
X180178967Y-100695000D01*
X180501033Y-100695000D01*
X180816912Y-100632168D01*
X181114463Y-100508918D01*
X181382252Y-100329987D01*
X181609987Y-100102252D01*
X181788918Y-99834463D01*
X181794909Y-99820000D01*
X185385091Y-99820000D01*
X185391082Y-99834463D01*
X185570013Y-100102252D01*
X185797748Y-100329987D01*
X186065537Y-100508918D01*
X186363088Y-100632168D01*
X186678967Y-100695000D01*
X187001033Y-100695000D01*
X187316912Y-100632168D01*
X187614463Y-100508918D01*
X187882252Y-100329987D01*
X188109987Y-100102252D01*
X188288918Y-99834463D01*
X188294909Y-99820000D01*
X189045091Y-99820000D01*
X189051082Y-99834463D01*
X189230013Y-100102252D01*
X189457748Y-100329987D01*
X189725537Y-100508918D01*
X190023088Y-100632168D01*
X190338967Y-100695000D01*
X190661033Y-100695000D01*
X190976912Y-100632168D01*
X191274463Y-100508918D01*
X191542252Y-100329987D01*
X191769987Y-100102252D01*
X191948918Y-99834463D01*
X191954909Y-99820000D01*
X195545091Y-99820000D01*
X195551082Y-99834463D01*
X195730013Y-100102252D01*
X195957748Y-100329987D01*
X196225537Y-100508918D01*
X196523088Y-100632168D01*
X196838967Y-100695000D01*
X197161033Y-100695000D01*
X197476912Y-100632168D01*
X197774463Y-100508918D01*
X198042252Y-100329987D01*
X198269987Y-100102252D01*
X198448918Y-99834463D01*
X198572168Y-99536912D01*
X198635000Y-99221033D01*
X198635000Y-98898967D01*
X198572168Y-98583088D01*
X198448918Y-98285537D01*
X198269987Y-98017748D01*
X198042252Y-97790013D01*
X197774463Y-97611082D01*
X197476912Y-97487832D01*
X197161033Y-97425000D01*
X196838967Y-97425000D01*
X196523088Y-97487832D01*
X196225537Y-97611082D01*
X195957748Y-97790013D01*
X195730013Y-98017748D01*
X195551082Y-98285537D01*
X195545091Y-98300000D01*
X191954909Y-98300000D01*
X191948918Y-98285537D01*
X191769987Y-98017748D01*
X191542252Y-97790013D01*
X191274463Y-97611082D01*
X190976912Y-97487832D01*
X190661033Y-97425000D01*
X190338967Y-97425000D01*
X190023088Y-97487832D01*
X189725537Y-97611082D01*
X189457748Y-97790013D01*
X189230013Y-98017748D01*
X189051082Y-98285537D01*
X189045091Y-98300000D01*
X188294909Y-98300000D01*
X188288918Y-98285537D01*
X188109987Y-98017748D01*
X187882252Y-97790013D01*
X187614463Y-97611082D01*
X187316912Y-97487832D01*
X187001033Y-97425000D01*
X186678967Y-97425000D01*
X186363088Y-97487832D01*
X186065537Y-97611082D01*
X185797748Y-97790013D01*
X185570013Y-98017748D01*
X185391082Y-98285537D01*
X185385091Y-98300000D01*
X181794909Y-98300000D01*
X181788918Y-98285537D01*
X181609987Y-98017748D01*
X181382252Y-97790013D01*
X181114463Y-97611082D01*
X180816912Y-97487832D01*
X180501033Y-97425000D01*
X180178967Y-97425000D01*
X179863088Y-97487832D01*
X179565537Y-97611082D01*
X179297748Y-97790013D01*
X179070013Y-98017748D01*
X178891082Y-98285537D01*
X178885091Y-98300000D01*
X178134909Y-98300000D01*
X178128918Y-98285537D01*
X177949987Y-98017748D01*
X177722252Y-97790013D01*
X177454463Y-97611082D01*
X177156912Y-97487832D01*
X176841033Y-97425000D01*
X176518967Y-97425000D01*
X176203088Y-97487832D01*
X175905537Y-97611082D01*
X175637748Y-97790013D01*
X175410013Y-98017748D01*
X175231082Y-98285537D01*
X175225091Y-98300000D01*
X171634909Y-98300000D01*
X171628918Y-98285537D01*
X171449987Y-98017748D01*
X171222252Y-97790013D01*
X170954463Y-97611082D01*
X170656912Y-97487832D01*
X170341033Y-97425000D01*
X170018967Y-97425000D01*
X169703088Y-97487832D01*
X169405537Y-97611082D01*
X169137748Y-97790013D01*
X168910013Y-98017748D01*
X168731082Y-98285537D01*
X168725091Y-98300000D01*
X167974909Y-98300000D01*
X167968918Y-98285537D01*
X167789987Y-98017748D01*
X167562252Y-97790013D01*
X167294463Y-97611082D01*
X166996912Y-97487832D01*
X166681033Y-97425000D01*
X166358967Y-97425000D01*
X166043088Y-97487832D01*
X165745537Y-97611082D01*
X165477748Y-97790013D01*
X165250013Y-98017748D01*
X165071082Y-98285537D01*
X165065091Y-98300000D01*
X161474909Y-98300000D01*
X161468918Y-98285537D01*
X161289987Y-98017748D01*
X161062252Y-97790013D01*
X160794463Y-97611082D01*
X160780000Y-97605091D01*
X160780000Y-90526890D01*
X161118524Y-90526890D01*
X161163175Y-90674099D01*
X161288359Y-90936920D01*
X161462412Y-91170269D01*
X161678645Y-91365178D01*
X161928748Y-91514157D01*
X162203109Y-91611481D01*
X162433000Y-91490814D01*
X162433000Y-90297000D01*
X162687000Y-90297000D01*
X162687000Y-91490814D01*
X162916891Y-91611481D01*
X163191252Y-91514157D01*
X163441355Y-91365178D01*
X163657588Y-91170269D01*
X163831641Y-90936920D01*
X163956825Y-90674099D01*
X164001476Y-90526890D01*
X163880155Y-90297000D01*
X162687000Y-90297000D01*
X162433000Y-90297000D01*
X161239845Y-90297000D01*
X161118524Y-90526890D01*
X160780000Y-90526890D01*
X160780000Y-88937322D01*
X160783676Y-88899999D01*
X160780000Y-88862676D01*
X160780000Y-88862667D01*
X160769003Y-88751014D01*
X160725546Y-88607753D01*
X160654974Y-88475724D01*
X160584622Y-88390000D01*
X161281822Y-88390000D01*
X161406525Y-88576632D01*
X161613368Y-88783475D01*
X161795534Y-88905195D01*
X161678645Y-88974822D01*
X161462412Y-89169731D01*
X161288359Y-89403080D01*
X161163175Y-89665901D01*
X161118524Y-89813110D01*
X161239845Y-90043000D01*
X162433000Y-90043000D01*
X162433000Y-90023000D01*
X162687000Y-90023000D01*
X162687000Y-90043000D01*
X163880155Y-90043000D01*
X164001476Y-89813110D01*
X163956825Y-89665901D01*
X163831641Y-89403080D01*
X163657588Y-89169731D01*
X163441355Y-88974822D01*
X163324466Y-88905195D01*
X163506632Y-88783475D01*
X163713475Y-88576632D01*
X163875990Y-88333411D01*
X163987932Y-88063158D01*
X164045000Y-87776260D01*
X164045000Y-87483740D01*
X163987932Y-87196842D01*
X163875990Y-86926589D01*
X163713475Y-86683368D01*
X163506632Y-86476525D01*
X163332240Y-86360000D01*
X163506632Y-86243475D01*
X163713475Y-86036632D01*
X163875990Y-85793411D01*
X163987932Y-85523158D01*
X164045000Y-85236260D01*
X164045000Y-84943740D01*
X163987932Y-84656842D01*
X163875990Y-84386589D01*
X163713475Y-84143368D01*
X163581620Y-84011513D01*
X163654180Y-83989502D01*
X163764494Y-83930537D01*
X163861185Y-83851185D01*
X163940537Y-83754494D01*
X163999502Y-83644180D01*
X164035812Y-83524482D01*
X164048072Y-83400000D01*
X164048072Y-81700000D01*
X164035812Y-81575518D01*
X163999502Y-81455820D01*
X163940537Y-81345506D01*
X163861185Y-81248815D01*
X163764494Y-81169463D01*
X163654180Y-81110498D01*
X163534482Y-81074188D01*
X163410000Y-81061928D01*
X161710000Y-81061928D01*
X161585518Y-81074188D01*
X161465820Y-81110498D01*
X161355506Y-81169463D01*
X161258815Y-81248815D01*
X161179463Y-81345506D01*
X161120498Y-81455820D01*
X161084188Y-81575518D01*
X161071928Y-81700000D01*
X161071928Y-83400000D01*
X161084188Y-83524482D01*
X161120498Y-83644180D01*
X161179463Y-83754494D01*
X161258815Y-83851185D01*
X161355506Y-83930537D01*
X161465820Y-83989502D01*
X161538380Y-84011513D01*
X161406525Y-84143368D01*
X161244010Y-84386589D01*
X161132068Y-84656842D01*
X161075000Y-84943740D01*
X161075000Y-85236260D01*
X161132068Y-85523158D01*
X161244010Y-85793411D01*
X161406525Y-86036632D01*
X161613368Y-86243475D01*
X161787760Y-86360000D01*
X161613368Y-86476525D01*
X161406525Y-86683368D01*
X161281822Y-86870000D01*
X159074802Y-86870000D01*
X150842863Y-78638061D01*
X165335000Y-78638061D01*
X165335000Y-78841939D01*
X165374774Y-79041898D01*
X165452795Y-79230256D01*
X165566063Y-79399774D01*
X165710226Y-79543937D01*
X165879744Y-79657205D01*
X166068102Y-79735226D01*
X166268061Y-79775000D01*
X166471939Y-79775000D01*
X166671898Y-79735226D01*
X166860256Y-79657205D01*
X167029774Y-79543937D01*
X167073711Y-79500000D01*
X172575199Y-79500000D01*
X182486201Y-89411003D01*
X182509999Y-89440001D01*
X182625724Y-89534974D01*
X182661928Y-89554326D01*
X182661928Y-89750000D01*
X182674188Y-89874482D01*
X182710498Y-89994180D01*
X182769463Y-90104494D01*
X182848815Y-90201185D01*
X182945506Y-90280537D01*
X183055820Y-90339502D01*
X183175518Y-90375812D01*
X183300000Y-90388072D01*
X185000000Y-90388072D01*
X185124482Y-90375812D01*
X185244180Y-90339502D01*
X185354494Y-90280537D01*
X185442876Y-90208004D01*
X185642883Y-90303371D01*
X185926411Y-90375339D01*
X186218531Y-90390611D01*
X186508019Y-90348599D01*
X186783747Y-90250919D01*
X186921157Y-90177472D01*
X186998792Y-89928397D01*
X186150000Y-89079605D01*
X186135858Y-89093748D01*
X185956253Y-88914143D01*
X185970395Y-88900000D01*
X186329605Y-88900000D01*
X187178397Y-89748792D01*
X187427472Y-89671157D01*
X187553371Y-89407117D01*
X187625339Y-89123589D01*
X187640611Y-88831469D01*
X187598599Y-88541981D01*
X187500919Y-88266253D01*
X187427472Y-88128843D01*
X187178397Y-88051208D01*
X186329605Y-88900000D01*
X185970395Y-88900000D01*
X185956253Y-88885858D01*
X186135858Y-88706253D01*
X186150000Y-88720395D01*
X186998792Y-87871603D01*
X186933590Y-87662416D01*
X187096632Y-87553475D01*
X187303475Y-87346632D01*
X187465990Y-87103411D01*
X187577932Y-86833158D01*
X187635000Y-86546260D01*
X187635000Y-86253740D01*
X187577932Y-85966842D01*
X187465990Y-85696589D01*
X187303475Y-85453368D01*
X187096632Y-85246525D01*
X186853411Y-85084010D01*
X186583158Y-84972068D01*
X186296260Y-84915000D01*
X186003740Y-84915000D01*
X185716842Y-84972068D01*
X185446589Y-85084010D01*
X185203368Y-85246525D01*
X185150000Y-85299893D01*
X185096632Y-85246525D01*
X184853411Y-85084010D01*
X184583158Y-84972068D01*
X184296260Y-84915000D01*
X184003740Y-84915000D01*
X183716842Y-84972068D01*
X183446589Y-85084010D01*
X183203368Y-85246525D01*
X182996525Y-85453368D01*
X182834010Y-85696589D01*
X182722068Y-85966842D01*
X182665000Y-86253740D01*
X182665000Y-86546260D01*
X182722068Y-86833158D01*
X182834010Y-87103411D01*
X182996525Y-87346632D01*
X183097690Y-87447797D01*
X183055820Y-87460498D01*
X182945506Y-87519463D01*
X182848815Y-87598815D01*
X182837457Y-87612655D01*
X176619900Y-81395098D01*
X186475000Y-81395098D01*
X186475000Y-81864902D01*
X186566654Y-82325679D01*
X186746440Y-82759721D01*
X187007450Y-83150349D01*
X187339651Y-83482550D01*
X187730279Y-83743560D01*
X188100001Y-83896704D01*
X188100000Y-91403297D01*
X187730279Y-91556440D01*
X187339651Y-91817450D01*
X187007450Y-92149651D01*
X186746440Y-92540279D01*
X186566654Y-92974321D01*
X186475000Y-93435098D01*
X186475000Y-93904902D01*
X186566654Y-94365679D01*
X186746440Y-94799721D01*
X187007450Y-95190349D01*
X187339651Y-95522550D01*
X187730279Y-95783560D01*
X188164321Y-95963346D01*
X188625098Y-96055000D01*
X189094902Y-96055000D01*
X189555679Y-95963346D01*
X189989721Y-95783560D01*
X190380349Y-95522550D01*
X190712550Y-95190349D01*
X190973560Y-94799721D01*
X191153346Y-94365679D01*
X191245000Y-93904902D01*
X191245000Y-93435098D01*
X191153346Y-92974321D01*
X190973560Y-92540279D01*
X190712550Y-92149651D01*
X190380349Y-91817450D01*
X189989721Y-91556440D01*
X189620000Y-91403297D01*
X189620000Y-83896703D01*
X189989721Y-83743560D01*
X190380349Y-83482550D01*
X190712550Y-83150349D01*
X190973560Y-82759721D01*
X191153346Y-82325679D01*
X191245000Y-81864902D01*
X191245000Y-81395098D01*
X191153346Y-80934321D01*
X190973560Y-80500279D01*
X190712550Y-80109651D01*
X190380349Y-79777450D01*
X189989721Y-79516440D01*
X189555679Y-79336654D01*
X189094902Y-79245000D01*
X188625098Y-79245000D01*
X188164321Y-79336654D01*
X187730279Y-79516440D01*
X187339651Y-79777450D01*
X187007450Y-80109651D01*
X186746440Y-80500279D01*
X186566654Y-80934321D01*
X186475000Y-81395098D01*
X176619900Y-81395098D01*
X173453804Y-78229003D01*
X173430001Y-78199999D01*
X173314276Y-78105026D01*
X173182247Y-78034454D01*
X173038986Y-77990997D01*
X172927333Y-77980000D01*
X172927322Y-77980000D01*
X172890000Y-77976324D01*
X172852678Y-77980000D01*
X167073711Y-77980000D01*
X167029774Y-77936063D01*
X166860256Y-77822795D01*
X166671898Y-77744774D01*
X166471939Y-77705000D01*
X166268061Y-77705000D01*
X166068102Y-77744774D01*
X165879744Y-77822795D01*
X165710226Y-77936063D01*
X165566063Y-78080226D01*
X165452795Y-78249744D01*
X165374774Y-78438102D01*
X165335000Y-78638061D01*
X150842863Y-78638061D01*
X150709802Y-78505001D01*
X158437677Y-78505001D01*
X158474999Y-78508677D01*
X158512321Y-78505001D01*
X158512332Y-78505001D01*
X158623985Y-78494004D01*
X158767246Y-78450547D01*
X158899275Y-78379975D01*
X159015000Y-78285002D01*
X159038803Y-78255998D01*
X166933799Y-70361004D01*
X166933808Y-70360993D01*
X168752134Y-68542667D01*
X170691005Y-66603797D01*
X170720001Y-66580001D01*
X170743799Y-66551002D01*
X173936136Y-63358665D01*
X181445000Y-63358665D01*
X181445000Y-63641335D01*
X181500147Y-63918574D01*
X181608320Y-64179727D01*
X181765363Y-64414759D01*
X181965241Y-64614637D01*
X182200273Y-64771680D01*
X182461426Y-64879853D01*
X182738665Y-64935000D01*
X183021335Y-64935000D01*
X183298574Y-64879853D01*
X183559727Y-64771680D01*
X183794759Y-64614637D01*
X183994637Y-64414759D01*
X184151680Y-64179727D01*
X184259853Y-63918574D01*
X184315000Y-63641335D01*
X184315000Y-63358665D01*
X184259853Y-63081426D01*
X184151680Y-62820273D01*
X183994637Y-62585241D01*
X183794759Y-62385363D01*
X183559727Y-62228320D01*
X183298574Y-62120147D01*
X183021335Y-62065000D01*
X182738665Y-62065000D01*
X182461426Y-62120147D01*
X182200273Y-62228320D01*
X181965241Y-62385363D01*
X181765363Y-62585241D01*
X181608320Y-62820273D01*
X181500147Y-63081426D01*
X181445000Y-63358665D01*
X173936136Y-63358665D01*
X174501002Y-62793800D01*
X174530001Y-62770001D01*
X174553800Y-62741002D01*
X175574802Y-61720000D01*
X183425199Y-61720000D01*
X184881312Y-63176114D01*
X184845000Y-63358665D01*
X184845000Y-63641335D01*
X184900147Y-63918574D01*
X185008320Y-64179727D01*
X185165363Y-64414759D01*
X185365241Y-64614637D01*
X185600273Y-64771680D01*
X185861426Y-64879853D01*
X186138665Y-64935000D01*
X186421335Y-64935000D01*
X186698574Y-64879853D01*
X186959727Y-64771680D01*
X187194759Y-64614637D01*
X187394637Y-64414759D01*
X187551680Y-64179727D01*
X187659853Y-63918574D01*
X187715000Y-63641335D01*
X187715000Y-63358665D01*
X187659853Y-63081426D01*
X187551680Y-62820273D01*
X187394637Y-62585241D01*
X187194759Y-62385363D01*
X186959727Y-62228320D01*
X186698574Y-62120147D01*
X186421335Y-62065000D01*
X186138665Y-62065000D01*
X185956114Y-62101312D01*
X184594674Y-60739872D01*
X193345000Y-60739872D01*
X193345000Y-61180128D01*
X193430890Y-61611925D01*
X193599369Y-62018669D01*
X193843962Y-62384729D01*
X194155271Y-62696038D01*
X194521331Y-62940631D01*
X194928075Y-63109110D01*
X195359872Y-63195000D01*
X195800128Y-63195000D01*
X196231925Y-63109110D01*
X196638669Y-62940631D01*
X197004729Y-62696038D01*
X197316038Y-62384729D01*
X197560631Y-62018669D01*
X197729110Y-61611925D01*
X197815000Y-61180128D01*
X197815000Y-60739872D01*
X197729110Y-60308075D01*
X197560631Y-59901331D01*
X197316038Y-59535271D01*
X197004729Y-59223962D01*
X196638669Y-58979369D01*
X196231925Y-58810890D01*
X195800128Y-58725000D01*
X195359872Y-58725000D01*
X194928075Y-58810890D01*
X194521331Y-58979369D01*
X194155271Y-59223962D01*
X193843962Y-59535271D01*
X193599369Y-59901331D01*
X193430890Y-60308075D01*
X193345000Y-60739872D01*
X184594674Y-60739872D01*
X184303804Y-60449003D01*
X184280001Y-60419999D01*
X184164276Y-60325026D01*
X184032247Y-60254454D01*
X183888986Y-60210997D01*
X183777333Y-60200000D01*
X183777322Y-60200000D01*
X183740000Y-60196324D01*
X183702678Y-60200000D01*
X177917169Y-60200000D01*
X177971481Y-60046891D01*
X177850814Y-59817000D01*
X176657000Y-59817000D01*
X176657000Y-59837000D01*
X176403000Y-59837000D01*
X176403000Y-59817000D01*
X176383000Y-59817000D01*
X176383000Y-59563000D01*
X176403000Y-59563000D01*
X176403000Y-58369845D01*
X176657000Y-58369845D01*
X176657000Y-59563000D01*
X177850814Y-59563000D01*
X177971481Y-59333109D01*
X177874157Y-59058748D01*
X177725178Y-58808645D01*
X177530269Y-58592412D01*
X177296920Y-58418359D01*
X177034099Y-58293175D01*
X176886890Y-58248524D01*
X176657000Y-58369845D01*
X176403000Y-58369845D01*
X176173110Y-58248524D01*
X176025901Y-58293175D01*
X175763080Y-58418359D01*
X175529731Y-58592412D01*
X175334822Y-58808645D01*
X175265195Y-58925534D01*
X175143475Y-58743368D01*
X174936632Y-58536525D01*
X174693411Y-58374010D01*
X174423158Y-58262068D01*
X174136260Y-58205000D01*
X173843740Y-58205000D01*
X173556842Y-58262068D01*
X173286589Y-58374010D01*
X173043368Y-58536525D01*
X172911513Y-58668380D01*
X172889502Y-58595820D01*
X172830537Y-58485506D01*
X172751185Y-58388815D01*
X172654494Y-58309463D01*
X172544180Y-58250498D01*
X172424482Y-58214188D01*
X172300000Y-58201928D01*
X170600000Y-58201928D01*
X170475518Y-58214188D01*
X170355820Y-58250498D01*
X170245506Y-58309463D01*
X170148815Y-58388815D01*
X170069463Y-58485506D01*
X170010498Y-58595820D01*
X169974188Y-58715518D01*
X169961928Y-58840000D01*
X169961928Y-59035674D01*
X169925724Y-59055026D01*
X169809999Y-59149999D01*
X169786201Y-59178997D01*
X162415199Y-66550000D01*
X160584801Y-66550000D01*
X161801003Y-65333799D01*
X161830001Y-65310001D01*
X161924974Y-65194276D01*
X161995546Y-65062247D01*
X162039003Y-64918986D01*
X162050000Y-64807333D01*
X162050000Y-64807324D01*
X162053676Y-64770001D01*
X162050000Y-64732678D01*
X162050000Y-60968178D01*
X162236632Y-60843475D01*
X162443475Y-60636632D01*
X162560000Y-60462240D01*
X162676525Y-60636632D01*
X162883368Y-60843475D01*
X163126589Y-61005990D01*
X163396842Y-61117932D01*
X163683740Y-61175000D01*
X163976260Y-61175000D01*
X164263158Y-61117932D01*
X164533411Y-61005990D01*
X164776632Y-60843475D01*
X164908487Y-60711620D01*
X164930498Y-60784180D01*
X164989463Y-60894494D01*
X165068815Y-60991185D01*
X165165506Y-61070537D01*
X165275820Y-61129502D01*
X165395518Y-61165812D01*
X165520000Y-61178072D01*
X166084250Y-61175000D01*
X166243000Y-61016250D01*
X166243000Y-59817000D01*
X166497000Y-59817000D01*
X166497000Y-61016250D01*
X166655750Y-61175000D01*
X167220000Y-61178072D01*
X167344482Y-61165812D01*
X167464180Y-61129502D01*
X167574494Y-61070537D01*
X167671185Y-60991185D01*
X167750537Y-60894494D01*
X167809502Y-60784180D01*
X167845812Y-60664482D01*
X167858072Y-60540000D01*
X167855000Y-59975750D01*
X167696250Y-59817000D01*
X166497000Y-59817000D01*
X166243000Y-59817000D01*
X166223000Y-59817000D01*
X166223000Y-59563000D01*
X166243000Y-59563000D01*
X166243000Y-58363750D01*
X166497000Y-58363750D01*
X166497000Y-59563000D01*
X167696250Y-59563000D01*
X167855000Y-59404250D01*
X167858072Y-58840000D01*
X167845812Y-58715518D01*
X167809502Y-58595820D01*
X167750537Y-58485506D01*
X167671185Y-58388815D01*
X167574494Y-58309463D01*
X167464180Y-58250498D01*
X167344482Y-58214188D01*
X167220000Y-58201928D01*
X166655750Y-58205000D01*
X166497000Y-58363750D01*
X166243000Y-58363750D01*
X166084250Y-58205000D01*
X165520000Y-58201928D01*
X165395518Y-58214188D01*
X165275820Y-58250498D01*
X165165506Y-58309463D01*
X165068815Y-58388815D01*
X164989463Y-58485506D01*
X164930498Y-58595820D01*
X164908487Y-58668380D01*
X164776632Y-58536525D01*
X164533411Y-58374010D01*
X164263158Y-58262068D01*
X163976260Y-58205000D01*
X163683740Y-58205000D01*
X163396842Y-58262068D01*
X163126589Y-58374010D01*
X162883368Y-58536525D01*
X162676525Y-58743368D01*
X162560000Y-58917760D01*
X162443475Y-58743368D01*
X162236632Y-58536525D01*
X161993411Y-58374010D01*
X161723158Y-58262068D01*
X161436260Y-58205000D01*
X161143740Y-58205000D01*
X160856842Y-58262068D01*
X160586589Y-58374010D01*
X160343368Y-58536525D01*
X160136525Y-58743368D01*
X159974010Y-58986589D01*
X159862068Y-59256842D01*
X159805000Y-59543740D01*
X159805000Y-59836260D01*
X159862068Y-60123158D01*
X159974010Y-60393411D01*
X160136525Y-60636632D01*
X160343368Y-60843475D01*
X160530000Y-60968179D01*
X160530001Y-64455197D01*
X159705199Y-65280000D01*
X148627325Y-65280000D01*
X148590000Y-65276324D01*
X148552675Y-65280000D01*
X148552667Y-65280000D01*
X148441014Y-65290997D01*
X148297753Y-65334454D01*
X148165724Y-65405026D01*
X148049999Y-65499999D01*
X148026201Y-65528997D01*
X144270000Y-69285199D01*
X144270000Y-68013711D01*
X144313937Y-67969774D01*
X144427205Y-67800256D01*
X144505226Y-67611898D01*
X144545000Y-67411939D01*
X144545000Y-67208061D01*
X144505226Y-67008102D01*
X144427205Y-66819744D01*
X144313937Y-66650226D01*
X144169774Y-66506063D01*
X144000256Y-66392795D01*
X143811898Y-66314774D01*
X143611939Y-66275000D01*
X143408061Y-66275000D01*
X143208102Y-66314774D01*
X143019744Y-66392795D01*
X142850226Y-66506063D01*
X142706063Y-66650226D01*
X142592795Y-66819744D01*
X142514774Y-67008102D01*
X142475000Y-67208061D01*
X142475000Y-67411939D01*
X142514774Y-67611898D01*
X142592795Y-67800256D01*
X142706063Y-67969774D01*
X142750000Y-68013711D01*
X142750001Y-72352658D01*
X142750000Y-72352668D01*
X142750000Y-72956289D01*
X142706063Y-73000226D01*
X142592795Y-73169744D01*
X142514774Y-73358102D01*
X142475000Y-73558061D01*
X142475000Y-73761939D01*
X142514774Y-73961898D01*
X142592795Y-74150256D01*
X142706063Y-74319774D01*
X142850226Y-74463937D01*
X143019744Y-74577205D01*
X143208102Y-74655226D01*
X143408061Y-74695000D01*
X143611939Y-74695000D01*
X143811898Y-74655226D01*
X144000256Y-74577205D01*
X144020000Y-74564012D01*
X144020001Y-88852667D01*
X144016324Y-88890000D01*
X144020001Y-88927333D01*
X144030998Y-89038986D01*
X144036745Y-89057932D01*
X144074454Y-89182246D01*
X144145026Y-89314276D01*
X144216201Y-89401002D01*
X144240000Y-89430001D01*
X144268998Y-89453799D01*
X147476313Y-92661115D01*
X147440001Y-92843666D01*
X147440001Y-93015199D01*
X136650000Y-82225199D01*
X136650000Y-68617325D01*
X136653676Y-68580000D01*
X136650000Y-68542675D01*
X136650000Y-68542667D01*
X136639003Y-68431014D01*
X136595546Y-68287753D01*
X136524974Y-68155724D01*
X136430001Y-68039999D01*
X136401003Y-68016201D01*
X132643804Y-64259003D01*
X132620001Y-64229999D01*
X132504276Y-64135026D01*
X132372247Y-64064454D01*
X132342443Y-64055413D01*
X148904192Y-64055413D01*
X148999956Y-64319814D01*
X149289571Y-64460704D01*
X149601108Y-64542384D01*
X149922595Y-64561718D01*
X150241675Y-64517961D01*
X150546088Y-64412795D01*
X150720044Y-64319814D01*
X150815808Y-64055413D01*
X155404192Y-64055413D01*
X155499956Y-64319814D01*
X155789571Y-64460704D01*
X156101108Y-64542384D01*
X156422595Y-64561718D01*
X156741675Y-64517961D01*
X157046088Y-64412795D01*
X157220044Y-64319814D01*
X157315808Y-64055413D01*
X156360000Y-63099605D01*
X155404192Y-64055413D01*
X150815808Y-64055413D01*
X149860000Y-63099605D01*
X148904192Y-64055413D01*
X132342443Y-64055413D01*
X132228986Y-64020997D01*
X132117333Y-64010000D01*
X132117322Y-64010000D01*
X132080000Y-64006324D01*
X132042678Y-64010000D01*
X127904013Y-64010000D01*
X127917205Y-63990256D01*
X127995226Y-63801898D01*
X128035000Y-63601939D01*
X128035000Y-63398061D01*
X127995226Y-63198102D01*
X127917205Y-63009744D01*
X127899065Y-62982595D01*
X148218282Y-62982595D01*
X148262039Y-63301675D01*
X148367205Y-63606088D01*
X148460186Y-63780044D01*
X148724587Y-63875808D01*
X149680395Y-62920000D01*
X150039605Y-62920000D01*
X150995413Y-63875808D01*
X151259814Y-63780044D01*
X151400704Y-63490429D01*
X151482384Y-63178892D01*
X151494189Y-62982595D01*
X154718282Y-62982595D01*
X154762039Y-63301675D01*
X154867205Y-63606088D01*
X154960186Y-63780044D01*
X155224587Y-63875808D01*
X156180395Y-62920000D01*
X156539605Y-62920000D01*
X157495413Y-63875808D01*
X157759814Y-63780044D01*
X157900704Y-63490429D01*
X157982384Y-63178892D01*
X158001718Y-62857405D01*
X157957961Y-62538325D01*
X157852795Y-62233912D01*
X157759814Y-62059956D01*
X157495413Y-61964192D01*
X156539605Y-62920000D01*
X156180395Y-62920000D01*
X155224587Y-61964192D01*
X154960186Y-62059956D01*
X154819296Y-62349571D01*
X154737616Y-62661108D01*
X154718282Y-62982595D01*
X151494189Y-62982595D01*
X151501718Y-62857405D01*
X151457961Y-62538325D01*
X151352795Y-62233912D01*
X151259814Y-62059956D01*
X150995413Y-61964192D01*
X150039605Y-62920000D01*
X149680395Y-62920000D01*
X148724587Y-61964192D01*
X148460186Y-62059956D01*
X148319296Y-62349571D01*
X148237616Y-62661108D01*
X148218282Y-62982595D01*
X127899065Y-62982595D01*
X127803937Y-62840226D01*
X127659774Y-62696063D01*
X127490256Y-62582795D01*
X127301898Y-62504774D01*
X127101939Y-62465000D01*
X126898061Y-62465000D01*
X126698102Y-62504774D01*
X126509744Y-62582795D01*
X126340226Y-62696063D01*
X126296289Y-62740000D01*
X126044803Y-62740000D01*
X125089389Y-61784587D01*
X148904192Y-61784587D01*
X149860000Y-62740395D01*
X150815808Y-61784587D01*
X155404192Y-61784587D01*
X156360000Y-62740395D01*
X157315808Y-61784587D01*
X157220044Y-61520186D01*
X156930429Y-61379296D01*
X156618892Y-61297616D01*
X156297405Y-61278282D01*
X155978325Y-61322039D01*
X155673912Y-61427205D01*
X155499956Y-61520186D01*
X155404192Y-61784587D01*
X150815808Y-61784587D01*
X150720044Y-61520186D01*
X150430429Y-61379296D01*
X150118892Y-61297616D01*
X149797405Y-61278282D01*
X149478325Y-61322039D01*
X149173912Y-61427205D01*
X148999956Y-61520186D01*
X148904192Y-61784587D01*
X125089389Y-61784587D01*
X124142454Y-60837653D01*
X124343475Y-60636632D01*
X124465195Y-60454466D01*
X124534822Y-60571355D01*
X124729731Y-60787588D01*
X124963080Y-60961641D01*
X125225901Y-61086825D01*
X125373110Y-61131476D01*
X125603000Y-61010155D01*
X125603000Y-59817000D01*
X125583000Y-59817000D01*
X125583000Y-59563000D01*
X125603000Y-59563000D01*
X125603000Y-58369845D01*
X125857000Y-58369845D01*
X125857000Y-59563000D01*
X125877000Y-59563000D01*
X125877000Y-59817000D01*
X125857000Y-59817000D01*
X125857000Y-61010155D01*
X126086890Y-61131476D01*
X126234099Y-61086825D01*
X126496920Y-60961641D01*
X126730269Y-60787588D01*
X126806034Y-60703534D01*
X126830498Y-60784180D01*
X126889463Y-60894494D01*
X126968815Y-60991185D01*
X127065506Y-61070537D01*
X127175820Y-61129502D01*
X127295518Y-61165812D01*
X127420000Y-61178072D01*
X129120000Y-61178072D01*
X129244482Y-61165812D01*
X129364180Y-61129502D01*
X129474494Y-61070537D01*
X129571185Y-60991185D01*
X129650537Y-60894494D01*
X129709502Y-60784180D01*
X129745812Y-60664482D01*
X129758072Y-60540000D01*
X129758072Y-58840000D01*
X135671928Y-58840000D01*
X135671928Y-60540000D01*
X135684188Y-60664482D01*
X135720498Y-60784180D01*
X135779463Y-60894494D01*
X135858815Y-60991185D01*
X135955506Y-61070537D01*
X136065820Y-61129502D01*
X136185518Y-61165812D01*
X136310000Y-61178072D01*
X138010000Y-61178072D01*
X138134482Y-61165812D01*
X138254180Y-61129502D01*
X138364494Y-61070537D01*
X138461185Y-60991185D01*
X138540537Y-60894494D01*
X138599502Y-60784180D01*
X138623966Y-60703534D01*
X138699731Y-60787588D01*
X138933080Y-60961641D01*
X139195901Y-61086825D01*
X139343110Y-61131476D01*
X139573000Y-61010155D01*
X139573000Y-59817000D01*
X139827000Y-59817000D01*
X139827000Y-61010155D01*
X140056890Y-61131476D01*
X140204099Y-61086825D01*
X140466920Y-60961641D01*
X140700269Y-60787588D01*
X140895178Y-60571355D01*
X141044157Y-60321252D01*
X141141481Y-60046891D01*
X141020814Y-59817000D01*
X139827000Y-59817000D01*
X139573000Y-59817000D01*
X139553000Y-59817000D01*
X139553000Y-59563000D01*
X139573000Y-59563000D01*
X139573000Y-58369845D01*
X139827000Y-58369845D01*
X139827000Y-59563000D01*
X141020814Y-59563000D01*
X141141481Y-59333109D01*
X141044157Y-59058748D01*
X140895178Y-58808645D01*
X140700269Y-58592412D01*
X140466920Y-58418359D01*
X140204099Y-58293175D01*
X140091320Y-58258967D01*
X148225000Y-58258967D01*
X148225000Y-58581033D01*
X148287832Y-58896912D01*
X148411082Y-59194463D01*
X148590013Y-59462252D01*
X148817748Y-59689987D01*
X149085537Y-59868918D01*
X149383088Y-59992168D01*
X149698967Y-60055000D01*
X150021033Y-60055000D01*
X150336912Y-59992168D01*
X150634463Y-59868918D01*
X150902252Y-59689987D01*
X151129987Y-59462252D01*
X151308918Y-59194463D01*
X151432168Y-58896912D01*
X151495000Y-58581033D01*
X151495000Y-58258967D01*
X154725000Y-58258967D01*
X154725000Y-58581033D01*
X154787832Y-58896912D01*
X154911082Y-59194463D01*
X155090013Y-59462252D01*
X155317748Y-59689987D01*
X155585537Y-59868918D01*
X155883088Y-59992168D01*
X156198967Y-60055000D01*
X156521033Y-60055000D01*
X156836912Y-59992168D01*
X157134463Y-59868918D01*
X157402252Y-59689987D01*
X157629987Y-59462252D01*
X157808918Y-59194463D01*
X157932168Y-58896912D01*
X157995000Y-58581033D01*
X157995000Y-58258967D01*
X157932168Y-57943088D01*
X157808918Y-57645537D01*
X157629987Y-57377748D01*
X157402252Y-57150013D01*
X157134463Y-56971082D01*
X156836912Y-56847832D01*
X156521033Y-56785000D01*
X156198967Y-56785000D01*
X155883088Y-56847832D01*
X155585537Y-56971082D01*
X155317748Y-57150013D01*
X155090013Y-57377748D01*
X154911082Y-57645537D01*
X154787832Y-57943088D01*
X154725000Y-58258967D01*
X151495000Y-58258967D01*
X151432168Y-57943088D01*
X151308918Y-57645537D01*
X151129987Y-57377748D01*
X150902252Y-57150013D01*
X150634463Y-56971082D01*
X150336912Y-56847832D01*
X150021033Y-56785000D01*
X149698967Y-56785000D01*
X149383088Y-56847832D01*
X149085537Y-56971082D01*
X148817748Y-57150013D01*
X148590013Y-57377748D01*
X148411082Y-57645537D01*
X148287832Y-57943088D01*
X148225000Y-58258967D01*
X140091320Y-58258967D01*
X140056890Y-58248524D01*
X139827000Y-58369845D01*
X139573000Y-58369845D01*
X139343110Y-58248524D01*
X139195901Y-58293175D01*
X138933080Y-58418359D01*
X138699731Y-58592412D01*
X138623966Y-58676466D01*
X138599502Y-58595820D01*
X138540537Y-58485506D01*
X138461185Y-58388815D01*
X138364494Y-58309463D01*
X138254180Y-58250498D01*
X138134482Y-58214188D01*
X138010000Y-58201928D01*
X136310000Y-58201928D01*
X136185518Y-58214188D01*
X136065820Y-58250498D01*
X135955506Y-58309463D01*
X135858815Y-58388815D01*
X135779463Y-58485506D01*
X135720498Y-58595820D01*
X135684188Y-58715518D01*
X135671928Y-58840000D01*
X129758072Y-58840000D01*
X129745812Y-58715518D01*
X129709502Y-58595820D01*
X129650537Y-58485506D01*
X129571185Y-58388815D01*
X129474494Y-58309463D01*
X129364180Y-58250498D01*
X129244482Y-58214188D01*
X129120000Y-58201928D01*
X127420000Y-58201928D01*
X127295518Y-58214188D01*
X127175820Y-58250498D01*
X127065506Y-58309463D01*
X126968815Y-58388815D01*
X126889463Y-58485506D01*
X126830498Y-58595820D01*
X126806034Y-58676466D01*
X126730269Y-58592412D01*
X126496920Y-58418359D01*
X126234099Y-58293175D01*
X126086890Y-58248524D01*
X125857000Y-58369845D01*
X125603000Y-58369845D01*
X125373110Y-58248524D01*
X125225901Y-58293175D01*
X124963080Y-58418359D01*
X124729731Y-58592412D01*
X124534822Y-58808645D01*
X124465195Y-58925534D01*
X124343475Y-58743368D01*
X124136632Y-58536525D01*
X123893411Y-58374010D01*
X123623158Y-58262068D01*
X123336260Y-58205000D01*
X123043740Y-58205000D01*
X122756842Y-58262068D01*
X122486589Y-58374010D01*
X122243368Y-58536525D01*
X122036525Y-58743368D01*
X121874010Y-58986589D01*
X121762068Y-59256842D01*
X121705000Y-59543740D01*
X121705000Y-59836260D01*
X121762068Y-60123158D01*
X121874010Y-60393411D01*
X122036525Y-60636632D01*
X122243368Y-60843475D01*
X122426927Y-60966125D01*
X122430000Y-60997322D01*
X122430000Y-60997332D01*
X122440997Y-61108985D01*
X122479146Y-61234746D01*
X122484454Y-61252246D01*
X122555026Y-61384276D01*
X122590257Y-61427205D01*
X122649999Y-61500001D01*
X122679003Y-61523804D01*
X125165197Y-64010000D01*
X124774802Y-64010000D01*
X119943804Y-59179003D01*
X119920001Y-59149999D01*
X119804276Y-59055026D01*
X119672247Y-58984454D01*
X119528986Y-58940997D01*
X119417333Y-58930000D01*
X119417322Y-58930000D01*
X119386125Y-58926927D01*
X119263475Y-58743368D01*
X119056632Y-58536525D01*
X118813411Y-58374010D01*
X118543158Y-58262068D01*
X118256260Y-58205000D01*
X117963740Y-58205000D01*
X117676842Y-58262068D01*
X117406589Y-58374010D01*
X117163368Y-58536525D01*
X116956525Y-58743368D01*
X116840000Y-58917760D01*
X116723475Y-58743368D01*
X116516632Y-58536525D01*
X116273411Y-58374010D01*
X116003158Y-58262068D01*
X115716260Y-58205000D01*
X115423740Y-58205000D01*
X115136842Y-58262068D01*
X114866589Y-58374010D01*
X114623368Y-58536525D01*
X114491513Y-58668380D01*
X114469502Y-58595820D01*
X114410537Y-58485506D01*
X114331185Y-58388815D01*
X114234494Y-58309463D01*
X114124180Y-58250498D01*
X114004482Y-58214188D01*
X113880000Y-58201928D01*
X113315750Y-58205000D01*
X113157000Y-58363750D01*
X113157000Y-59563000D01*
X113177000Y-59563000D01*
X113177000Y-59817000D01*
X113157000Y-59817000D01*
X113157000Y-61016250D01*
X113315750Y-61175000D01*
X113880000Y-61178072D01*
X114004482Y-61165812D01*
X114124180Y-61129502D01*
X114234494Y-61070537D01*
X114331185Y-60991185D01*
X114410537Y-60894494D01*
X114469502Y-60784180D01*
X114491513Y-60711620D01*
X114623368Y-60843475D01*
X114866589Y-61005990D01*
X115136842Y-61117932D01*
X115423740Y-61175000D01*
X115716260Y-61175000D01*
X116003158Y-61117932D01*
X116273411Y-61005990D01*
X116516632Y-60843475D01*
X116723475Y-60636632D01*
X116840000Y-60462240D01*
X116956525Y-60636632D01*
X117163368Y-60843475D01*
X117406589Y-61005990D01*
X117676842Y-61117932D01*
X117963740Y-61175000D01*
X118256260Y-61175000D01*
X118543158Y-61117932D01*
X118813411Y-61005990D01*
X119056632Y-60843475D01*
X119257653Y-60642454D01*
X123896200Y-65281002D01*
X123919999Y-65310001D01*
X123948997Y-65333799D01*
X124035723Y-65404974D01*
X124167753Y-65475546D01*
X124311014Y-65519003D01*
X124422667Y-65530000D01*
X124422677Y-65530000D01*
X124460000Y-65533676D01*
X124497323Y-65530000D01*
X131765199Y-65530000D01*
X135130001Y-68894803D01*
X135130000Y-82502678D01*
X135126324Y-82540000D01*
X135130000Y-82577322D01*
X135130000Y-82577332D01*
X135140997Y-82688985D01*
X135184454Y-82832246D01*
X135255026Y-82964276D01*
X135256717Y-82966336D01*
X135349999Y-83080001D01*
X135379003Y-83103804D01*
X147476313Y-95201115D01*
X147440001Y-95383666D01*
X147440001Y-95666336D01*
X147495148Y-95943575D01*
X147603321Y-96204728D01*
X147760364Y-96439760D01*
X147960242Y-96639638D01*
X148192760Y-96795001D01*
X147960242Y-96950364D01*
X147760364Y-97150242D01*
X147603321Y-97385274D01*
X147495148Y-97646427D01*
X147440001Y-97923666D01*
X147440001Y-98206336D01*
X147495148Y-98483575D01*
X147603321Y-98744728D01*
X147760364Y-98979760D01*
X147960242Y-99179638D01*
X148192760Y-99335001D01*
X147960242Y-99490364D01*
X147760364Y-99690242D01*
X147603321Y-99925274D01*
X147495148Y-100186427D01*
X147440001Y-100463666D01*
X147440001Y-100746336D01*
X147495148Y-101023575D01*
X147603321Y-101284728D01*
X147760364Y-101519760D01*
X147960242Y-101719638D01*
X148192760Y-101875001D01*
X147960242Y-102030364D01*
X147760364Y-102230242D01*
X147603321Y-102465274D01*
X147495148Y-102726427D01*
X147440001Y-103003666D01*
X147440001Y-103286336D01*
X147495148Y-103563575D01*
X147603321Y-103824728D01*
X147760364Y-104059760D01*
X147960242Y-104259638D01*
X148192760Y-104415001D01*
X147960242Y-104570364D01*
X147760364Y-104770242D01*
X147603321Y-105005274D01*
X147495148Y-105266427D01*
X147440001Y-105543666D01*
X147440001Y-105826336D01*
X147495148Y-106103575D01*
X147603321Y-106364728D01*
X147760364Y-106599760D01*
X147960242Y-106799638D01*
X148195274Y-106956681D01*
X148456427Y-107064854D01*
X148733666Y-107120001D01*
X149016336Y-107120001D01*
X149293575Y-107064854D01*
X149554728Y-106956681D01*
X149789760Y-106799638D01*
X149989638Y-106599760D01*
X150146681Y-106364728D01*
X150254854Y-106103575D01*
X150310001Y-105826336D01*
X150310001Y-105543666D01*
X150254854Y-105266427D01*
X150146681Y-105005274D01*
X149989638Y-104770242D01*
X149789760Y-104570364D01*
X149557242Y-104415001D01*
X149789760Y-104259638D01*
X149989638Y-104059760D01*
X150146681Y-103824728D01*
X150254854Y-103563575D01*
X150310001Y-103286336D01*
X150310001Y-103003666D01*
X150254854Y-102726427D01*
X150146681Y-102465274D01*
X149989638Y-102230242D01*
X149789760Y-102030364D01*
X149557242Y-101875001D01*
X149789760Y-101719638D01*
X149989638Y-101519760D01*
X150146681Y-101284728D01*
X150254854Y-101023575D01*
X150310001Y-100746336D01*
X150310001Y-100463666D01*
X150254854Y-100186427D01*
X150146681Y-99925274D01*
X149989638Y-99690242D01*
X149789760Y-99490364D01*
X149557242Y-99335001D01*
X149789760Y-99179638D01*
X149989638Y-98979760D01*
X150146681Y-98744728D01*
X150254854Y-98483575D01*
X150310001Y-98206336D01*
X150310001Y-97923666D01*
X150254854Y-97646427D01*
X150146681Y-97385274D01*
X149989638Y-97150242D01*
X149789760Y-96950364D01*
X149774250Y-96940000D01*
X153451928Y-96940000D01*
X153451928Y-98640000D01*
X153464188Y-98764482D01*
X153500498Y-98884180D01*
X153559463Y-98994494D01*
X153638815Y-99091185D01*
X153735506Y-99170537D01*
X153845820Y-99229502D01*
X153965518Y-99265812D01*
X154090000Y-99278072D01*
X155790000Y-99278072D01*
X155914482Y-99265812D01*
X156034180Y-99229502D01*
X156144494Y-99170537D01*
X156241185Y-99091185D01*
X156320537Y-98994494D01*
X156379502Y-98884180D01*
X156415812Y-98764482D01*
X156428072Y-98640000D01*
X156428072Y-96940000D01*
X156415812Y-96815518D01*
X156379502Y-96695820D01*
X156320537Y-96585506D01*
X156241185Y-96488815D01*
X156144494Y-96409463D01*
X156034180Y-96350498D01*
X155914482Y-96314188D01*
X155790000Y-96301928D01*
X154090000Y-96301928D01*
X153965518Y-96314188D01*
X153845820Y-96350498D01*
X153735506Y-96409463D01*
X153638815Y-96488815D01*
X153559463Y-96585506D01*
X153500498Y-96695820D01*
X153464188Y-96815518D01*
X153451928Y-96940000D01*
X149774250Y-96940000D01*
X149557242Y-96795001D01*
X149789760Y-96639638D01*
X149989638Y-96439760D01*
X150146681Y-96204728D01*
X150254854Y-95943575D01*
X150310001Y-95666336D01*
X150310001Y-95383666D01*
X150254854Y-95106427D01*
X150146681Y-94845274D01*
X149989638Y-94610242D01*
X149789760Y-94410364D01*
X149557242Y-94255001D01*
X149789760Y-94099638D01*
X149989638Y-93899760D01*
X150146681Y-93664728D01*
X150254854Y-93403575D01*
X150310001Y-93126336D01*
X150310001Y-92843666D01*
X150254854Y-92566427D01*
X150146681Y-92305274D01*
X149989638Y-92070242D01*
X149789760Y-91870364D01*
X149557242Y-91715001D01*
X149789760Y-91559638D01*
X149989638Y-91359760D01*
X150146681Y-91124728D01*
X150254854Y-90863575D01*
X150310001Y-90586336D01*
X150310001Y-90303666D01*
X150254854Y-90026427D01*
X150146681Y-89765274D01*
X149989638Y-89530242D01*
X149789760Y-89330364D01*
X149557242Y-89175001D01*
X149789760Y-89019638D01*
X149989638Y-88819760D01*
X150146681Y-88584728D01*
X150254854Y-88323575D01*
X150310001Y-88046336D01*
X150310001Y-87763666D01*
X150254854Y-87486427D01*
X150146681Y-87225274D01*
X150076339Y-87120000D01*
X152966289Y-87120000D01*
X153010226Y-87163937D01*
X153179744Y-87277205D01*
X153368102Y-87355226D01*
X153568061Y-87395000D01*
X153771939Y-87395000D01*
X153971898Y-87355226D01*
X154160256Y-87277205D01*
X154329774Y-87163937D01*
X154473937Y-87019774D01*
X154587205Y-86850256D01*
X154665226Y-86661898D01*
X154705000Y-86461939D01*
X154705000Y-86258061D01*
X154665226Y-86058102D01*
X154587205Y-85869744D01*
X154473937Y-85700226D01*
X154329774Y-85556063D01*
X154160256Y-85442795D01*
X153971898Y-85364774D01*
X153771939Y-85325000D01*
X153568061Y-85325000D01*
X153368102Y-85364774D01*
X153179744Y-85442795D01*
X153010226Y-85556063D01*
X152966289Y-85600000D01*
X150291370Y-85600000D01*
X150310001Y-85506336D01*
X150310001Y-85223666D01*
X150254854Y-84946427D01*
X150146681Y-84685274D01*
X149989638Y-84450242D01*
X149789760Y-84250364D01*
X149557242Y-84095001D01*
X149789760Y-83939638D01*
X149989638Y-83739760D01*
X150146681Y-83504728D01*
X150254854Y-83243575D01*
X150310001Y-82966336D01*
X150310001Y-82683666D01*
X150254854Y-82406427D01*
X150146681Y-82145274D01*
X149989638Y-81910242D01*
X149789760Y-81710364D01*
X149557242Y-81555001D01*
X149789760Y-81399638D01*
X149989638Y-81199760D01*
X150146681Y-80964728D01*
X150254854Y-80703575D01*
X150310001Y-80426336D01*
X150310001Y-80254802D01*
X158140437Y-88085239D01*
X158186201Y-88141002D01*
X159260001Y-89214803D01*
X159260000Y-90207332D01*
X159260001Y-90207342D01*
X159260000Y-97605091D01*
X159245537Y-97611082D01*
X158977748Y-97790013D01*
X158750013Y-98017748D01*
X158571082Y-98285537D01*
X158447832Y-98583088D01*
X158385000Y-98898967D01*
X158385000Y-99221033D01*
X158447832Y-99536912D01*
X158453823Y-99551375D01*
X144465199Y-113540000D01*
X141874013Y-113540000D01*
X141887205Y-113520256D01*
X141965226Y-113331898D01*
X142005000Y-113131939D01*
X142005000Y-113069801D01*
X145291004Y-109783798D01*
X145320001Y-109760001D01*
X145414974Y-109644276D01*
X145485546Y-109512247D01*
X145529003Y-109368986D01*
X145540000Y-109257333D01*
X145540000Y-109257325D01*
X145543676Y-109220000D01*
X145540000Y-109182675D01*
X145540000Y-101033711D01*
X145583937Y-100989774D01*
X145697205Y-100820256D01*
X145775226Y-100631898D01*
X145815000Y-100431939D01*
X145815000Y-100228061D01*
X145775226Y-100028102D01*
X145697205Y-99839744D01*
X145583937Y-99670226D01*
X145439774Y-99526063D01*
X145270256Y-99412795D01*
X145081898Y-99334774D01*
X144881939Y-99295000D01*
X144678061Y-99295000D01*
X144478102Y-99334774D01*
X144289744Y-99412795D01*
X144120226Y-99526063D01*
X143976063Y-99670226D01*
X143862795Y-99839744D01*
X143784774Y-100028102D01*
X143745000Y-100228061D01*
X143745000Y-100431939D01*
X143784774Y-100631898D01*
X143862795Y-100820256D01*
X143976063Y-100989774D01*
X144020001Y-101033712D01*
X144020000Y-108905198D01*
X140930199Y-111995000D01*
X140868061Y-111995000D01*
X140668102Y-112034774D01*
X140479744Y-112112795D01*
X140310226Y-112226063D01*
X140166063Y-112370226D01*
X140052795Y-112539744D01*
X139974774Y-112728102D01*
X139935000Y-112928061D01*
X139935000Y-113131939D01*
X139974774Y-113331898D01*
X140052795Y-113520256D01*
X140065987Y-113540000D01*
X106752287Y-113540000D01*
X106749502Y-113530820D01*
X106690537Y-113420506D01*
X106611185Y-113323815D01*
X106514494Y-113244463D01*
X106404180Y-113185498D01*
X106284482Y-113149188D01*
X106160000Y-113136928D01*
X104660000Y-113136928D01*
X104535518Y-113149188D01*
X104415820Y-113185498D01*
X104305506Y-113244463D01*
X104208815Y-113323815D01*
X104129463Y-113420506D01*
X104070498Y-113530820D01*
X104034188Y-113650518D01*
X104021928Y-113775000D01*
X104021928Y-114825000D01*
X104034188Y-114949482D01*
X104070498Y-115069180D01*
X104105093Y-115133902D01*
X104041785Y-115342600D01*
X104019388Y-115570000D01*
X102260000Y-115570000D01*
X102260000Y-109118061D01*
X128505000Y-109118061D01*
X128505000Y-109321939D01*
X128544774Y-109521898D01*
X128622795Y-109710256D01*
X128736063Y-109879774D01*
X128880226Y-110023937D01*
X129049744Y-110137205D01*
X129238102Y-110215226D01*
X129438061Y-110255000D01*
X129641939Y-110255000D01*
X129841898Y-110215226D01*
X130030256Y-110137205D01*
X130199774Y-110023937D01*
X130343937Y-109879774D01*
X130457205Y-109710256D01*
X130535226Y-109521898D01*
X130575000Y-109321939D01*
X130575000Y-109118061D01*
X130535226Y-108918102D01*
X130457205Y-108729744D01*
X130343937Y-108560226D01*
X130300000Y-108516289D01*
X130300000Y-95804801D01*
X132236313Y-97741115D01*
X132200001Y-97923666D01*
X132200001Y-98206336D01*
X132255148Y-98483575D01*
X132363321Y-98744728D01*
X132520364Y-98979760D01*
X132720242Y-99179638D01*
X132952760Y-99335001D01*
X132720242Y-99490364D01*
X132520364Y-99690242D01*
X132363321Y-99925274D01*
X132255148Y-100186427D01*
X132200001Y-100463666D01*
X132200001Y-100746336D01*
X132255148Y-101023575D01*
X132363321Y-101284728D01*
X132520364Y-101519760D01*
X132720242Y-101719638D01*
X132952760Y-101875001D01*
X132720242Y-102030364D01*
X132520364Y-102230242D01*
X132363321Y-102465274D01*
X132255148Y-102726427D01*
X132200001Y-103003666D01*
X132200001Y-103286336D01*
X132255148Y-103563575D01*
X132363321Y-103824728D01*
X132520364Y-104059760D01*
X132720242Y-104259638D01*
X132952760Y-104415001D01*
X132720242Y-104570364D01*
X132520364Y-104770242D01*
X132363321Y-105005274D01*
X132255148Y-105266427D01*
X132200001Y-105543666D01*
X132200001Y-105826336D01*
X132255148Y-106103575D01*
X132363321Y-106364728D01*
X132520364Y-106599760D01*
X132720242Y-106799638D01*
X132955274Y-106956681D01*
X133216427Y-107064854D01*
X133493666Y-107120001D01*
X133776336Y-107120001D01*
X134053575Y-107064854D01*
X134314728Y-106956681D01*
X134549760Y-106799638D01*
X134749638Y-106599760D01*
X134906681Y-106364728D01*
X135014854Y-106103575D01*
X135070001Y-105826336D01*
X135070001Y-105543666D01*
X135014854Y-105266427D01*
X134906681Y-105005274D01*
X134749638Y-104770242D01*
X134549760Y-104570364D01*
X134317242Y-104415001D01*
X134549760Y-104259638D01*
X134749638Y-104059760D01*
X134906681Y-103824728D01*
X135014854Y-103563575D01*
X135070001Y-103286336D01*
X135070001Y-103003666D01*
X135014854Y-102726427D01*
X134906681Y-102465274D01*
X134749638Y-102230242D01*
X134549760Y-102030364D01*
X134317242Y-101875001D01*
X134549760Y-101719638D01*
X134749638Y-101519760D01*
X134906681Y-101284728D01*
X135014854Y-101023575D01*
X135070001Y-100746336D01*
X135070001Y-100463666D01*
X135014854Y-100186427D01*
X134906681Y-99925274D01*
X134749638Y-99690242D01*
X134549760Y-99490364D01*
X134317242Y-99335001D01*
X134549760Y-99179638D01*
X134749638Y-98979760D01*
X134906681Y-98744728D01*
X135014854Y-98483575D01*
X135070001Y-98206336D01*
X135070001Y-97923666D01*
X135014854Y-97646427D01*
X134906681Y-97385274D01*
X134749638Y-97150242D01*
X134549760Y-96950364D01*
X134317242Y-96795001D01*
X134549760Y-96639638D01*
X134749638Y-96439760D01*
X134906681Y-96204728D01*
X135014854Y-95943575D01*
X135070001Y-95666336D01*
X135070001Y-95383666D01*
X135014854Y-95106427D01*
X134906681Y-94845274D01*
X134749638Y-94610242D01*
X134549760Y-94410364D01*
X134317242Y-94255001D01*
X134549760Y-94099638D01*
X134749638Y-93899760D01*
X134906681Y-93664728D01*
X135014854Y-93403575D01*
X135070001Y-93126336D01*
X135070001Y-92843666D01*
X135014854Y-92566427D01*
X134906681Y-92305274D01*
X134749638Y-92070242D01*
X134549760Y-91870364D01*
X134317242Y-91715001D01*
X134549760Y-91559638D01*
X134749638Y-91359760D01*
X134906681Y-91124728D01*
X135014854Y-90863575D01*
X135070001Y-90586336D01*
X135070001Y-90303666D01*
X135014854Y-90026427D01*
X134906681Y-89765274D01*
X134749638Y-89530242D01*
X134549760Y-89330364D01*
X134317242Y-89175001D01*
X134549760Y-89019638D01*
X134749638Y-88819760D01*
X134906681Y-88584728D01*
X135014854Y-88323575D01*
X135070001Y-88046336D01*
X135070001Y-87763666D01*
X135014854Y-87486427D01*
X134906681Y-87225274D01*
X134749638Y-86990242D01*
X134549760Y-86790364D01*
X134317242Y-86635001D01*
X134549760Y-86479638D01*
X134749638Y-86279760D01*
X134906681Y-86044728D01*
X135014854Y-85783575D01*
X135070001Y-85506336D01*
X135070001Y-85223666D01*
X135014854Y-84946427D01*
X134906681Y-84685274D01*
X134749638Y-84450242D01*
X134549760Y-84250364D01*
X134317242Y-84095001D01*
X134549760Y-83939638D01*
X134749638Y-83739760D01*
X134906681Y-83504728D01*
X135014854Y-83243575D01*
X135070001Y-82966336D01*
X135070001Y-82683666D01*
X135014854Y-82406427D01*
X134906681Y-82145274D01*
X134749638Y-81910242D01*
X134549760Y-81710364D01*
X134317242Y-81555001D01*
X134549760Y-81399638D01*
X134749638Y-81199760D01*
X134906681Y-80964728D01*
X135014854Y-80703575D01*
X135070001Y-80426336D01*
X135070001Y-80143666D01*
X135014854Y-79866427D01*
X134906681Y-79605274D01*
X134749638Y-79370242D01*
X134549760Y-79170364D01*
X134314728Y-79013321D01*
X134304136Y-79008934D01*
X134490132Y-78897386D01*
X134698520Y-78708415D01*
X134866038Y-78482421D01*
X134986247Y-78228088D01*
X135026905Y-78094040D01*
X134904916Y-77872001D01*
X133762001Y-77872001D01*
X133762001Y-77892001D01*
X133508001Y-77892001D01*
X133508001Y-77872001D01*
X132365086Y-77872001D01*
X132243097Y-78094040D01*
X132283755Y-78228088D01*
X132403964Y-78482421D01*
X132571482Y-78708415D01*
X132779870Y-78897386D01*
X132965866Y-79008934D01*
X132955274Y-79013321D01*
X132720242Y-79170364D01*
X132520364Y-79370242D01*
X132363321Y-79605274D01*
X132255148Y-79866427D01*
X132200001Y-80143666D01*
X132200001Y-80426336D01*
X132255148Y-80703575D01*
X132363321Y-80964728D01*
X132520364Y-81199760D01*
X132720242Y-81399638D01*
X132952760Y-81555001D01*
X132720242Y-81710364D01*
X132520364Y-81910242D01*
X132363321Y-82145274D01*
X132255148Y-82406427D01*
X132200001Y-82683666D01*
X132200001Y-82966336D01*
X132255148Y-83243575D01*
X132363321Y-83504728D01*
X132520364Y-83739760D01*
X132720242Y-83939638D01*
X132952760Y-84095001D01*
X132720242Y-84250364D01*
X132520364Y-84450242D01*
X132416958Y-84605001D01*
X130572321Y-84605001D01*
X130534998Y-84601325D01*
X130497675Y-84605001D01*
X130497666Y-84605001D01*
X130386013Y-84615998D01*
X130251366Y-84656842D01*
X130242752Y-84659455D01*
X130110722Y-84730027D01*
X130027082Y-84798669D01*
X129994998Y-84825000D01*
X129971200Y-84853998D01*
X129028998Y-85796201D01*
X129000000Y-85819999D01*
X128976202Y-85848997D01*
X128976201Y-85848998D01*
X128905026Y-85935724D01*
X128834454Y-86067754D01*
X128833607Y-86070547D01*
X128790999Y-86211013D01*
X128790998Y-86211015D01*
X128776324Y-86360000D01*
X128780001Y-86397333D01*
X128780000Y-108516289D01*
X128736063Y-108560226D01*
X128622795Y-108729744D01*
X128544774Y-108918102D01*
X128505000Y-109118061D01*
X102260000Y-109118061D01*
X102260000Y-73675000D01*
X110181928Y-73675000D01*
X110181928Y-75425000D01*
X110211001Y-75720186D01*
X110297104Y-76004028D01*
X110436927Y-76265618D01*
X110625097Y-76494903D01*
X110854382Y-76683073D01*
X111115972Y-76822896D01*
X111399814Y-76908999D01*
X111695000Y-76938072D01*
X113445000Y-76938072D01*
X113740186Y-76908999D01*
X114024028Y-76822896D01*
X114285618Y-76683073D01*
X114514903Y-76494903D01*
X114703073Y-76265618D01*
X114842896Y-76004028D01*
X114928999Y-75720186D01*
X114958072Y-75425000D01*
X114958072Y-73675000D01*
X114928999Y-73379814D01*
X114854736Y-73135000D01*
X115793572Y-73135000D01*
X115793572Y-79505000D01*
X125506429Y-79505000D01*
X125506429Y-73135000D01*
X115793572Y-73135000D01*
X114854736Y-73135000D01*
X114842896Y-73095972D01*
X114703073Y-72834382D01*
X114514903Y-72605097D01*
X114285618Y-72416927D01*
X114024028Y-72277104D01*
X113895357Y-72238072D01*
X117320000Y-72238072D01*
X117444482Y-72225812D01*
X117564180Y-72189502D01*
X117674494Y-72130537D01*
X117771185Y-72051185D01*
X117850537Y-71954494D01*
X117909502Y-71844180D01*
X117945812Y-71724482D01*
X117958072Y-71600000D01*
X117958072Y-70270000D01*
X126781928Y-70270000D01*
X126781928Y-71970000D01*
X126794188Y-72094482D01*
X126830498Y-72214180D01*
X126889463Y-72324494D01*
X126968815Y-72421185D01*
X127065506Y-72500537D01*
X127175820Y-72559502D01*
X127248380Y-72581513D01*
X127116525Y-72713368D01*
X126954010Y-72956589D01*
X126842068Y-73226842D01*
X126785000Y-73513740D01*
X126785000Y-73806260D01*
X126842068Y-74093158D01*
X126954010Y-74363411D01*
X127116525Y-74606632D01*
X127323368Y-74813475D01*
X127566589Y-74975990D01*
X127836842Y-75087932D01*
X128123740Y-75145000D01*
X128416260Y-75145000D01*
X128703158Y-75087932D01*
X128973411Y-74975990D01*
X129216632Y-74813475D01*
X129423475Y-74606632D01*
X129546125Y-74423073D01*
X129577322Y-74420000D01*
X129577333Y-74420000D01*
X129688986Y-74409003D01*
X129832247Y-74365546D01*
X129964276Y-74294974D01*
X130080001Y-74200001D01*
X130103804Y-74170997D01*
X132511915Y-71762886D01*
X132363321Y-71985274D01*
X132255148Y-72246427D01*
X132200001Y-72523666D01*
X132200001Y-72806336D01*
X132255148Y-73083575D01*
X132363321Y-73344728D01*
X132520364Y-73579760D01*
X132720242Y-73779638D01*
X132952760Y-73935001D01*
X132720242Y-74090364D01*
X132520364Y-74290242D01*
X132363321Y-74525274D01*
X132255148Y-74786427D01*
X132200001Y-75063666D01*
X132200001Y-75346336D01*
X132255148Y-75623575D01*
X132363321Y-75884728D01*
X132520364Y-76119760D01*
X132720242Y-76319638D01*
X132955274Y-76476681D01*
X132965866Y-76481068D01*
X132779870Y-76592616D01*
X132571482Y-76781587D01*
X132403964Y-77007581D01*
X132283755Y-77261914D01*
X132243097Y-77395962D01*
X132365086Y-77618001D01*
X133508001Y-77618001D01*
X133508001Y-77598001D01*
X133762001Y-77598001D01*
X133762001Y-77618001D01*
X134904916Y-77618001D01*
X135026905Y-77395962D01*
X134986247Y-77261914D01*
X134866038Y-77007581D01*
X134698520Y-76781587D01*
X134490132Y-76592616D01*
X134304136Y-76481068D01*
X134314728Y-76476681D01*
X134549760Y-76319638D01*
X134749638Y-76119760D01*
X134906681Y-75884728D01*
X135014854Y-75623575D01*
X135070001Y-75346336D01*
X135070001Y-75063666D01*
X135014854Y-74786427D01*
X134906681Y-74525274D01*
X134749638Y-74290242D01*
X134549760Y-74090364D01*
X134317242Y-73935001D01*
X134549760Y-73779638D01*
X134749638Y-73579760D01*
X134906681Y-73344728D01*
X135014854Y-73083575D01*
X135070001Y-72806336D01*
X135070001Y-72523666D01*
X135014854Y-72246427D01*
X134906681Y-71985274D01*
X134749638Y-71750242D01*
X134551040Y-71551644D01*
X134559483Y-71550813D01*
X134679181Y-71514503D01*
X134789495Y-71455538D01*
X134886186Y-71376186D01*
X134965538Y-71279495D01*
X135024503Y-71169181D01*
X135060813Y-71049483D01*
X135073073Y-70925001D01*
X135073073Y-69325001D01*
X135060813Y-69200519D01*
X135024503Y-69080821D01*
X134965538Y-68970507D01*
X134886186Y-68873816D01*
X134789495Y-68794464D01*
X134679181Y-68735499D01*
X134559483Y-68699189D01*
X134435001Y-68686929D01*
X132835001Y-68686929D01*
X132710519Y-68699189D01*
X132590821Y-68735499D01*
X132480507Y-68794464D01*
X132383816Y-68873816D01*
X132304464Y-68970507D01*
X132245499Y-69080821D01*
X132209189Y-69200519D01*
X132196929Y-69325001D01*
X132196929Y-69928269D01*
X129417653Y-72707546D01*
X129291620Y-72581513D01*
X129364180Y-72559502D01*
X129474494Y-72500537D01*
X129571185Y-72421185D01*
X129650537Y-72324494D01*
X129709502Y-72214180D01*
X129745812Y-72094482D01*
X129758072Y-71970000D01*
X129758072Y-70270000D01*
X129745812Y-70145518D01*
X129709502Y-70025820D01*
X129650537Y-69915506D01*
X129571185Y-69818815D01*
X129474494Y-69739463D01*
X129364180Y-69680498D01*
X129244482Y-69644188D01*
X129120000Y-69631928D01*
X127420000Y-69631928D01*
X127295518Y-69644188D01*
X127175820Y-69680498D01*
X127065506Y-69739463D01*
X126968815Y-69818815D01*
X126889463Y-69915506D01*
X126830498Y-70025820D01*
X126794188Y-70145518D01*
X126781928Y-70270000D01*
X117958072Y-70270000D01*
X117958072Y-68100000D01*
X117945812Y-67975518D01*
X117909502Y-67855820D01*
X117850537Y-67745506D01*
X117771185Y-67648815D01*
X117674494Y-67569463D01*
X117564180Y-67510498D01*
X117444482Y-67474188D01*
X117320000Y-67461928D01*
X113820000Y-67461928D01*
X113695518Y-67474188D01*
X113575820Y-67510498D01*
X113465506Y-67569463D01*
X113368815Y-67648815D01*
X113289463Y-67745506D01*
X113230498Y-67855820D01*
X113194188Y-67975518D01*
X113181928Y-68100000D01*
X113181928Y-71600000D01*
X113194188Y-71724482D01*
X113230498Y-71844180D01*
X113289463Y-71954494D01*
X113368815Y-72051185D01*
X113465506Y-72130537D01*
X113542131Y-72171494D01*
X113445000Y-72161928D01*
X111695000Y-72161928D01*
X111399814Y-72191001D01*
X111115972Y-72277104D01*
X110854382Y-72416927D01*
X110625097Y-72605097D01*
X110436927Y-72834382D01*
X110297104Y-73095972D01*
X110211001Y-73379814D01*
X110181928Y-73675000D01*
X102260000Y-73675000D01*
X102260000Y-71600000D01*
X107431928Y-71600000D01*
X107444188Y-71724482D01*
X107480498Y-71844180D01*
X107539463Y-71954494D01*
X107618815Y-72051185D01*
X107715506Y-72130537D01*
X107825820Y-72189502D01*
X107945518Y-72225812D01*
X108070000Y-72238072D01*
X109284250Y-72235000D01*
X109443000Y-72076250D01*
X109443000Y-69977000D01*
X109697000Y-69977000D01*
X109697000Y-72076250D01*
X109855750Y-72235000D01*
X111070000Y-72238072D01*
X111194482Y-72225812D01*
X111314180Y-72189502D01*
X111424494Y-72130537D01*
X111521185Y-72051185D01*
X111600537Y-71954494D01*
X111659502Y-71844180D01*
X111695812Y-71724482D01*
X111708072Y-71600000D01*
X111705000Y-70135750D01*
X111546250Y-69977000D01*
X109697000Y-69977000D01*
X109443000Y-69977000D01*
X107593750Y-69977000D01*
X107435000Y-70135750D01*
X107431928Y-71600000D01*
X102260000Y-71600000D01*
X102260000Y-68100000D01*
X107431928Y-68100000D01*
X107435000Y-69564250D01*
X107593750Y-69723000D01*
X109443000Y-69723000D01*
X109443000Y-67623750D01*
X109697000Y-67623750D01*
X109697000Y-69723000D01*
X111546250Y-69723000D01*
X111705000Y-69564250D01*
X111708072Y-68100000D01*
X111695812Y-67975518D01*
X111659502Y-67855820D01*
X111600537Y-67745506D01*
X111521185Y-67648815D01*
X111424494Y-67569463D01*
X111314180Y-67510498D01*
X111194482Y-67474188D01*
X111070000Y-67461928D01*
X109855750Y-67465000D01*
X109697000Y-67623750D01*
X109443000Y-67623750D01*
X109284250Y-67465000D01*
X108070000Y-67461928D01*
X107945518Y-67474188D01*
X107825820Y-67510498D01*
X107715506Y-67569463D01*
X107618815Y-67648815D01*
X107539463Y-67745506D01*
X107480498Y-67855820D01*
X107444188Y-67975518D01*
X107431928Y-68100000D01*
X102260000Y-68100000D01*
X102260000Y-60989392D01*
X102282269Y-60739872D01*
X104445000Y-60739872D01*
X104445000Y-61180128D01*
X104530890Y-61611925D01*
X104699369Y-62018669D01*
X104943962Y-62384729D01*
X105255271Y-62696038D01*
X105621331Y-62940631D01*
X106028075Y-63109110D01*
X106459872Y-63195000D01*
X106900128Y-63195000D01*
X107331925Y-63109110D01*
X107738669Y-62940631D01*
X108104729Y-62696038D01*
X108416038Y-62384729D01*
X108660631Y-62018669D01*
X108829110Y-61611925D01*
X108915000Y-61180128D01*
X108915000Y-60739872D01*
X108875243Y-60540000D01*
X111541928Y-60540000D01*
X111554188Y-60664482D01*
X111590498Y-60784180D01*
X111649463Y-60894494D01*
X111728815Y-60991185D01*
X111825506Y-61070537D01*
X111935820Y-61129502D01*
X112055518Y-61165812D01*
X112180000Y-61178072D01*
X112744250Y-61175000D01*
X112903000Y-61016250D01*
X112903000Y-59817000D01*
X111703750Y-59817000D01*
X111545000Y-59975750D01*
X111541928Y-60540000D01*
X108875243Y-60540000D01*
X108829110Y-60308075D01*
X108660631Y-59901331D01*
X108416038Y-59535271D01*
X108104729Y-59223962D01*
X107738669Y-58979369D01*
X107402203Y-58840000D01*
X111541928Y-58840000D01*
X111545000Y-59404250D01*
X111703750Y-59563000D01*
X112903000Y-59563000D01*
X112903000Y-58363750D01*
X112744250Y-58205000D01*
X112180000Y-58201928D01*
X112055518Y-58214188D01*
X111935820Y-58250498D01*
X111825506Y-58309463D01*
X111728815Y-58388815D01*
X111649463Y-58485506D01*
X111590498Y-58595820D01*
X111554188Y-58715518D01*
X111541928Y-58840000D01*
X107402203Y-58840000D01*
X107331925Y-58810890D01*
X106900128Y-58725000D01*
X106459872Y-58725000D01*
X106028075Y-58810890D01*
X105621331Y-58979369D01*
X105255271Y-59223962D01*
X104943962Y-59535271D01*
X104699369Y-59901331D01*
X104530890Y-60308075D01*
X104445000Y-60739872D01*
X102282269Y-60739872D01*
X102332437Y-60177751D01*
X102539672Y-59420226D01*
X102877777Y-58711375D01*
X103336067Y-58073596D01*
X103900055Y-57527054D01*
X104551913Y-57089023D01*
X105271038Y-56773349D01*
X106039768Y-56588794D01*
X106704207Y-56540000D01*
X195550608Y-56540000D01*
X196362249Y-56612437D01*
G37*
X196362249Y-56612437D02*
X197119774Y-56819672D01*
X197828625Y-57157777D01*
X198466404Y-57616067D01*
X199012946Y-58180055D01*
X199450977Y-58831913D01*
X199766651Y-59551038D01*
X199951206Y-60319768D01*
X200000001Y-60984220D01*
X200000000Y-63532418D01*
X200000001Y-63532428D01*
X200000000Y-119347581D01*
X200000000Y-119347582D01*
X200000001Y-121890597D01*
X199927563Y-122702249D01*
X199720328Y-123459774D01*
X199382221Y-124168627D01*
X198923928Y-124806410D01*
X198359945Y-125352946D01*
X197708085Y-125790978D01*
X196988963Y-126106651D01*
X196220232Y-126291206D01*
X195555792Y-126340000D01*
X106709392Y-126340000D01*
X105897751Y-126267563D01*
X105140226Y-126060328D01*
X104431373Y-125722221D01*
X103793590Y-125263928D01*
X103247054Y-124699945D01*
X102809022Y-124048085D01*
X102493349Y-123328963D01*
X102308794Y-122560232D01*
X102260000Y-121895792D01*
X102260000Y-118255000D01*
X108448810Y-118255000D01*
X108448810Y-126125000D01*
X191271191Y-126125000D01*
X191271191Y-118255000D01*
X108448810Y-118255000D01*
X102260000Y-118255000D01*
X102260000Y-115570000D01*
X104019388Y-115570000D01*
X104041785Y-115797400D01*
X104108115Y-116016060D01*
X104209105Y-116205000D01*
X104108115Y-116393940D01*
X104041785Y-116612600D01*
X104019388Y-116840000D01*
X104041785Y-117067400D01*
X104108115Y-117286060D01*
X104215829Y-117487579D01*
X104360788Y-117664212D01*
X104537421Y-117809171D01*
X104738940Y-117916885D01*
X104957600Y-117983215D01*
X105128021Y-118000000D01*
X105691979Y-118000000D01*
X105862400Y-117983215D01*
X106081060Y-117916885D01*
X106282579Y-117809171D01*
X106459212Y-117664212D01*
X106604171Y-117487579D01*
X106669690Y-117365000D01*
X147201928Y-117365000D01*
X147214188Y-117489482D01*
X147250498Y-117609180D01*
X147309463Y-117719494D01*
X147388815Y-117816185D01*
X147485506Y-117895537D01*
X147595820Y-117954502D01*
X147715518Y-117990812D01*
X147840000Y-118003072D01*
X148304250Y-118000000D01*
X148463000Y-117841250D01*
X148463000Y-116967000D01*
X148717000Y-116967000D01*
X148717000Y-117841250D01*
X148875750Y-118000000D01*
X149340000Y-118003072D01*
X149464482Y-117990812D01*
X149584180Y-117954502D01*
X149694494Y-117895537D01*
X149791185Y-117816185D01*
X149870537Y-117719494D01*
X149929502Y-117609180D01*
X149965812Y-117489482D01*
X149978072Y-117365000D01*
X149975000Y-117125750D01*
X149816250Y-116967000D01*
X148717000Y-116967000D01*
X148463000Y-116967000D01*
X147363750Y-116967000D01*
X147205000Y-117125750D01*
X147201928Y-117365000D01*
X106669690Y-117365000D01*
X106711885Y-117286060D01*
X106778215Y-117067400D01*
X106800612Y-116840000D01*
X106778215Y-116612600D01*
X106711885Y-116393940D01*
X106610895Y-116205000D01*
X106711885Y-116016060D01*
X106778215Y-115797400D01*
X106800612Y-115570000D01*
X106778215Y-115342600D01*
X106714907Y-115133902D01*
X106749502Y-115069180D01*
X106752287Y-115060000D01*
X144742678Y-115060000D01*
X144780000Y-115063676D01*
X144817322Y-115060000D01*
X147241015Y-115060000D01*
X147219232Y-115131807D01*
X147201928Y-115307500D01*
X147201928Y-115832500D01*
X147219232Y-116008193D01*
X147244364Y-116091041D01*
X147214188Y-116190518D01*
X147201928Y-116315000D01*
X147205000Y-116554250D01*
X147363750Y-116713000D01*
X147917682Y-116713000D01*
X147926807Y-116715768D01*
X148102500Y-116733072D01*
X149077500Y-116733072D01*
X149253193Y-116715768D01*
X149262318Y-116713000D01*
X149816250Y-116713000D01*
X149975000Y-116554250D01*
X149978072Y-116315000D01*
X149965812Y-116190518D01*
X149935636Y-116091041D01*
X149960768Y-116008193D01*
X149978072Y-115832500D01*
X149978072Y-115307500D01*
X149960768Y-115131807D01*
X149935636Y-115048959D01*
X149965812Y-114949482D01*
X149978072Y-114825000D01*
X149978072Y-114079872D01*
X193345000Y-114079872D01*
X193345000Y-114520128D01*
X193430890Y-114951925D01*
X193599369Y-115358669D01*
X193843962Y-115724729D01*
X194155271Y-116036038D01*
X194521331Y-116280631D01*
X194928075Y-116449110D01*
X195359872Y-116535000D01*
X195800128Y-116535000D01*
X196231925Y-116449110D01*
X196638669Y-116280631D01*
X197004729Y-116036038D01*
X197316038Y-115724729D01*
X197560631Y-115358669D01*
X197729110Y-114951925D01*
X197815000Y-114520128D01*
X197815000Y-114079872D01*
X197729110Y-113648075D01*
X197560631Y-113241331D01*
X197316038Y-112875271D01*
X197004729Y-112563962D01*
X196638669Y-112319369D01*
X196231925Y-112150890D01*
X195800128Y-112065000D01*
X195359872Y-112065000D01*
X194928075Y-112150890D01*
X194521331Y-112319369D01*
X194155271Y-112563962D01*
X193843962Y-112875271D01*
X193599369Y-113241331D01*
X193430890Y-113648075D01*
X193345000Y-114079872D01*
X149978072Y-114079872D01*
X149978072Y-113775000D01*
X149965812Y-113650518D01*
X149929502Y-113530820D01*
X149870537Y-113420506D01*
X149791185Y-113323815D01*
X149694494Y-113244463D01*
X149584180Y-113185498D01*
X149464482Y-113149188D01*
X149340000Y-113136928D01*
X147840000Y-113136928D01*
X147715518Y-113149188D01*
X147595820Y-113185498D01*
X147485506Y-113244463D01*
X147388815Y-113323815D01*
X147309463Y-113420506D01*
X147250498Y-113530820D01*
X147247713Y-113540000D01*
X146614801Y-113540000D01*
X156755834Y-103398967D01*
X158385000Y-103398967D01*
X158385000Y-103721033D01*
X158447832Y-104036912D01*
X158571082Y-104334463D01*
X158750013Y-104602252D01*
X158977748Y-104829987D01*
X159245537Y-105008918D01*
X159543088Y-105132168D01*
X159858967Y-105195000D01*
X160181033Y-105195000D01*
X160496912Y-105132168D01*
X160794463Y-105008918D01*
X161062252Y-104829987D01*
X161289987Y-104602252D01*
X161468918Y-104334463D01*
X161592168Y-104036912D01*
X161655000Y-103721033D01*
X161655000Y-103398967D01*
X164885000Y-103398967D01*
X164885000Y-103721033D01*
X164947832Y-104036912D01*
X165071082Y-104334463D01*
X165250013Y-104602252D01*
X165477748Y-104829987D01*
X165745537Y-105008918D01*
X166043088Y-105132168D01*
X166358967Y-105195000D01*
X166681033Y-105195000D01*
X166996912Y-105132168D01*
X167294463Y-105008918D01*
X167562252Y-104829987D01*
X167789987Y-104602252D01*
X167968918Y-104334463D01*
X168092168Y-104036912D01*
X168155000Y-103721033D01*
X168155000Y-103398967D01*
X168545000Y-103398967D01*
X168545000Y-103721033D01*
X168607832Y-104036912D01*
X168731082Y-104334463D01*
X168910013Y-104602252D01*
X169137748Y-104829987D01*
X169405537Y-105008918D01*
X169703088Y-105132168D01*
X170018967Y-105195000D01*
X170341033Y-105195000D01*
X170656912Y-105132168D01*
X170954463Y-105008918D01*
X171222252Y-104829987D01*
X171449987Y-104602252D01*
X171628918Y-104334463D01*
X171752168Y-104036912D01*
X171815000Y-103721033D01*
X171815000Y-103398967D01*
X175045000Y-103398967D01*
X175045000Y-103721033D01*
X175107832Y-104036912D01*
X175231082Y-104334463D01*
X175410013Y-104602252D01*
X175637748Y-104829987D01*
X175905537Y-105008918D01*
X176203088Y-105132168D01*
X176518967Y-105195000D01*
X176841033Y-105195000D01*
X177156912Y-105132168D01*
X177454463Y-105008918D01*
X177722252Y-104829987D01*
X177949987Y-104602252D01*
X178128918Y-104334463D01*
X178252168Y-104036912D01*
X178315000Y-103721033D01*
X178315000Y-103398967D01*
X178705000Y-103398967D01*
X178705000Y-103721033D01*
X178767832Y-104036912D01*
X178891082Y-104334463D01*
X179070013Y-104602252D01*
X179297748Y-104829987D01*
X179565537Y-105008918D01*
X179863088Y-105132168D01*
X180178967Y-105195000D01*
X180501033Y-105195000D01*
X180816912Y-105132168D01*
X181114463Y-105008918D01*
X181382252Y-104829987D01*
X181609987Y-104602252D01*
X181788918Y-104334463D01*
X181912168Y-104036912D01*
X181975000Y-103721033D01*
X181975000Y-103398967D01*
X185205000Y-103398967D01*
X185205000Y-103721033D01*
X185267832Y-104036912D01*
X185391082Y-104334463D01*
X185570013Y-104602252D01*
X185797748Y-104829987D01*
X186065537Y-105008918D01*
X186363088Y-105132168D01*
X186678967Y-105195000D01*
X187001033Y-105195000D01*
X187316912Y-105132168D01*
X187614463Y-105008918D01*
X187882252Y-104829987D01*
X188109987Y-104602252D01*
X188288918Y-104334463D01*
X188412168Y-104036912D01*
X188475000Y-103721033D01*
X188475000Y-103398967D01*
X188865000Y-103398967D01*
X188865000Y-103721033D01*
X188927832Y-104036912D01*
X189051082Y-104334463D01*
X189230013Y-104602252D01*
X189457748Y-104829987D01*
X189725537Y-105008918D01*
X190023088Y-105132168D01*
X190338967Y-105195000D01*
X190661033Y-105195000D01*
X190976912Y-105132168D01*
X191274463Y-105008918D01*
X191542252Y-104829987D01*
X191769987Y-104602252D01*
X191948918Y-104334463D01*
X192072168Y-104036912D01*
X192135000Y-103721033D01*
X192135000Y-103398967D01*
X195365000Y-103398967D01*
X195365000Y-103721033D01*
X195427832Y-104036912D01*
X195551082Y-104334463D01*
X195730013Y-104602252D01*
X195957748Y-104829987D01*
X196225537Y-105008918D01*
X196523088Y-105132168D01*
X196838967Y-105195000D01*
X197161033Y-105195000D01*
X197476912Y-105132168D01*
X197774463Y-105008918D01*
X198042252Y-104829987D01*
X198269987Y-104602252D01*
X198448918Y-104334463D01*
X198572168Y-104036912D01*
X198635000Y-103721033D01*
X198635000Y-103398967D01*
X198572168Y-103083088D01*
X198448918Y-102785537D01*
X198269987Y-102517748D01*
X198042252Y-102290013D01*
X197774463Y-102111082D01*
X197476912Y-101987832D01*
X197161033Y-101925000D01*
X196838967Y-101925000D01*
X196523088Y-101987832D01*
X196225537Y-102111082D01*
X195957748Y-102290013D01*
X195730013Y-102517748D01*
X195551082Y-102785537D01*
X195427832Y-103083088D01*
X195365000Y-103398967D01*
X192135000Y-103398967D01*
X192072168Y-103083088D01*
X191948918Y-102785537D01*
X191769987Y-102517748D01*
X191542252Y-102290013D01*
X191274463Y-102111082D01*
X190976912Y-101987832D01*
X190661033Y-101925000D01*
X190338967Y-101925000D01*
X190023088Y-101987832D01*
X189725537Y-102111082D01*
X189457748Y-102290013D01*
X189230013Y-102517748D01*
X189051082Y-102785537D01*
X188927832Y-103083088D01*
X188865000Y-103398967D01*
X188475000Y-103398967D01*
X188412168Y-103083088D01*
X188288918Y-102785537D01*
X188109987Y-102517748D01*
X187882252Y-102290013D01*
X187614463Y-102111082D01*
X187316912Y-101987832D01*
X187001033Y-101925000D01*
X186678967Y-101925000D01*
X186363088Y-101987832D01*
X186065537Y-102111082D01*
X185797748Y-102290013D01*
X185570013Y-102517748D01*
X185391082Y-102785537D01*
X185267832Y-103083088D01*
X185205000Y-103398967D01*
X181975000Y-103398967D01*
X181912168Y-103083088D01*
X181788918Y-102785537D01*
X181609987Y-102517748D01*
X181382252Y-102290013D01*
X181114463Y-102111082D01*
X180816912Y-101987832D01*
X180501033Y-101925000D01*
X180178967Y-101925000D01*
X179863088Y-101987832D01*
X179565537Y-102111082D01*
X179297748Y-102290013D01*
X179070013Y-102517748D01*
X178891082Y-102785537D01*
X178767832Y-103083088D01*
X178705000Y-103398967D01*
X178315000Y-103398967D01*
X178252168Y-103083088D01*
X178128918Y-102785537D01*
X177949987Y-102517748D01*
X177722252Y-102290013D01*
X177454463Y-102111082D01*
X177156912Y-101987832D01*
X176841033Y-101925000D01*
X176518967Y-101925000D01*
X176203088Y-101987832D01*
X175905537Y-102111082D01*
X175637748Y-102290013D01*
X175410013Y-102517748D01*
X175231082Y-102785537D01*
X175107832Y-103083088D01*
X175045000Y-103398967D01*
X171815000Y-103398967D01*
X171752168Y-103083088D01*
X171628918Y-102785537D01*
X171449987Y-102517748D01*
X171222252Y-102290013D01*
X170954463Y-102111082D01*
X170656912Y-101987832D01*
X170341033Y-101925000D01*
X170018967Y-101925000D01*
X169703088Y-101987832D01*
X169405537Y-102111082D01*
X169137748Y-102290013D01*
X168910013Y-102517748D01*
X168731082Y-102785537D01*
X168607832Y-103083088D01*
X168545000Y-103398967D01*
X168155000Y-103398967D01*
X168092168Y-103083088D01*
X167968918Y-102785537D01*
X167789987Y-102517748D01*
X167562252Y-102290013D01*
X167294463Y-102111082D01*
X166996912Y-101987832D01*
X166681033Y-101925000D01*
X166358967Y-101925000D01*
X166043088Y-101987832D01*
X165745537Y-102111082D01*
X165477748Y-102290013D01*
X165250013Y-102517748D01*
X165071082Y-102785537D01*
X164947832Y-103083088D01*
X164885000Y-103398967D01*
X161655000Y-103398967D01*
X161592168Y-103083088D01*
X161468918Y-102785537D01*
X161289987Y-102517748D01*
X161062252Y-102290013D01*
X160794463Y-102111082D01*
X160496912Y-101987832D01*
X160181033Y-101925000D01*
X159858967Y-101925000D01*
X159543088Y-101987832D01*
X159245537Y-102111082D01*
X158977748Y-102290013D01*
X158750013Y-102517748D01*
X158571082Y-102785537D01*
X158447832Y-103083088D01*
X158385000Y-103398967D01*
X156755834Y-103398967D01*
X159528625Y-100626177D01*
X159543088Y-100632168D01*
X159858967Y-100695000D01*
X160181033Y-100695000D01*
X160496912Y-100632168D01*
X160794463Y-100508918D01*
X161062252Y-100329987D01*
X161289987Y-100102252D01*
X161468918Y-99834463D01*
X161474909Y-99820000D01*
X165065091Y-99820000D01*
X165071082Y-99834463D01*
X165250013Y-100102252D01*
X165477748Y-100329987D01*
X165745537Y-100508918D01*
X166043088Y-100632168D01*
X166358967Y-100695000D01*
X166681033Y-100695000D01*
X166996912Y-100632168D01*
X167294463Y-100508918D01*
X167562252Y-100329987D01*
X167789987Y-100102252D01*
X167968918Y-99834463D01*
X167974909Y-99820000D01*
X168725091Y-99820000D01*
X168731082Y-99834463D01*
X168910013Y-100102252D01*
X169137748Y-100329987D01*
X169405537Y-100508918D01*
X169703088Y-100632168D01*
X170018967Y-100695000D01*
X170341033Y-100695000D01*
X170656912Y-100632168D01*
X170954463Y-100508918D01*
X171222252Y-100329987D01*
X171449987Y-100102252D01*
X171628918Y-99834463D01*
X171634909Y-99820000D01*
X175225091Y-99820000D01*
X175231082Y-99834463D01*
X175410013Y-100102252D01*
X175637748Y-100329987D01*
X175905537Y-100508918D01*
X176203088Y-100632168D01*
X176518967Y-100695000D01*
X176841033Y-100695000D01*
X177156912Y-100632168D01*
X177454463Y-100508918D01*
X177722252Y-100329987D01*
X177949987Y-100102252D01*
X178128918Y-99834463D01*
X178134909Y-99820000D01*
X178885091Y-99820000D01*
X178891082Y-99834463D01*
X179070013Y-100102252D01*
X179297748Y-100329987D01*
X179565537Y-100508918D01*
X179863088Y-100632168D01*
X180178967Y-100695000D01*
X180501033Y-100695000D01*
X180816912Y-100632168D01*
X181114463Y-100508918D01*
X181382252Y-100329987D01*
X181609987Y-100102252D01*
X181788918Y-99834463D01*
X181794909Y-99820000D01*
X185385091Y-99820000D01*
X185391082Y-99834463D01*
X185570013Y-100102252D01*
X185797748Y-100329987D01*
X186065537Y-100508918D01*
X186363088Y-100632168D01*
X186678967Y-100695000D01*
X187001033Y-100695000D01*
X187316912Y-100632168D01*
X187614463Y-100508918D01*
X187882252Y-100329987D01*
X188109987Y-100102252D01*
X188288918Y-99834463D01*
X188294909Y-99820000D01*
X189045091Y-99820000D01*
X189051082Y-99834463D01*
X189230013Y-100102252D01*
X189457748Y-100329987D01*
X189725537Y-100508918D01*
X190023088Y-100632168D01*
X190338967Y-100695000D01*
X190661033Y-100695000D01*
X190976912Y-100632168D01*
X191274463Y-100508918D01*
X191542252Y-100329987D01*
X191769987Y-100102252D01*
X191948918Y-99834463D01*
X191954909Y-99820000D01*
X195545091Y-99820000D01*
X195551082Y-99834463D01*
X195730013Y-100102252D01*
X195957748Y-100329987D01*
X196225537Y-100508918D01*
X196523088Y-100632168D01*
X196838967Y-100695000D01*
X197161033Y-100695000D01*
X197476912Y-100632168D01*
X197774463Y-100508918D01*
X198042252Y-100329987D01*
X198269987Y-100102252D01*
X198448918Y-99834463D01*
X198572168Y-99536912D01*
X198635000Y-99221033D01*
X198635000Y-98898967D01*
X198572168Y-98583088D01*
X198448918Y-98285537D01*
X198269987Y-98017748D01*
X198042252Y-97790013D01*
X197774463Y-97611082D01*
X197476912Y-97487832D01*
X197161033Y-97425000D01*
X196838967Y-97425000D01*
X196523088Y-97487832D01*
X196225537Y-97611082D01*
X195957748Y-97790013D01*
X195730013Y-98017748D01*
X195551082Y-98285537D01*
X195545091Y-98300000D01*
X191954909Y-98300000D01*
X191948918Y-98285537D01*
X191769987Y-98017748D01*
X191542252Y-97790013D01*
X191274463Y-97611082D01*
X190976912Y-97487832D01*
X190661033Y-97425000D01*
X190338967Y-97425000D01*
X190023088Y-97487832D01*
X189725537Y-97611082D01*
X189457748Y-97790013D01*
X189230013Y-98017748D01*
X189051082Y-98285537D01*
X189045091Y-98300000D01*
X188294909Y-98300000D01*
X188288918Y-98285537D01*
X188109987Y-98017748D01*
X187882252Y-97790013D01*
X187614463Y-97611082D01*
X187316912Y-97487832D01*
X187001033Y-97425000D01*
X186678967Y-97425000D01*
X186363088Y-97487832D01*
X186065537Y-97611082D01*
X185797748Y-97790013D01*
X185570013Y-98017748D01*
X185391082Y-98285537D01*
X185385091Y-98300000D01*
X181794909Y-98300000D01*
X181788918Y-98285537D01*
X181609987Y-98017748D01*
X181382252Y-97790013D01*
X181114463Y-97611082D01*
X180816912Y-97487832D01*
X180501033Y-97425000D01*
X180178967Y-97425000D01*
X179863088Y-97487832D01*
X179565537Y-97611082D01*
X179297748Y-97790013D01*
X179070013Y-98017748D01*
X178891082Y-98285537D01*
X178885091Y-98300000D01*
X178134909Y-98300000D01*
X178128918Y-98285537D01*
X177949987Y-98017748D01*
X177722252Y-97790013D01*
X177454463Y-97611082D01*
X177156912Y-97487832D01*
X176841033Y-97425000D01*
X176518967Y-97425000D01*
X176203088Y-97487832D01*
X175905537Y-97611082D01*
X175637748Y-97790013D01*
X175410013Y-98017748D01*
X175231082Y-98285537D01*
X175225091Y-98300000D01*
X171634909Y-98300000D01*
X171628918Y-98285537D01*
X171449987Y-98017748D01*
X171222252Y-97790013D01*
X170954463Y-97611082D01*
X170656912Y-97487832D01*
X170341033Y-97425000D01*
X170018967Y-97425000D01*
X169703088Y-97487832D01*
X169405537Y-97611082D01*
X169137748Y-97790013D01*
X168910013Y-98017748D01*
X168731082Y-98285537D01*
X168725091Y-98300000D01*
X167974909Y-98300000D01*
X167968918Y-98285537D01*
X167789987Y-98017748D01*
X167562252Y-97790013D01*
X167294463Y-97611082D01*
X166996912Y-97487832D01*
X166681033Y-97425000D01*
X166358967Y-97425000D01*
X166043088Y-97487832D01*
X165745537Y-97611082D01*
X165477748Y-97790013D01*
X165250013Y-98017748D01*
X165071082Y-98285537D01*
X165065091Y-98300000D01*
X161474909Y-98300000D01*
X161468918Y-98285537D01*
X161289987Y-98017748D01*
X161062252Y-97790013D01*
X160794463Y-97611082D01*
X160780000Y-97605091D01*
X160780000Y-90526890D01*
X161118524Y-90526890D01*
X161163175Y-90674099D01*
X161288359Y-90936920D01*
X161462412Y-91170269D01*
X161678645Y-91365178D01*
X161928748Y-91514157D01*
X162203109Y-91611481D01*
X162433000Y-91490814D01*
X162433000Y-90297000D01*
X162687000Y-90297000D01*
X162687000Y-91490814D01*
X162916891Y-91611481D01*
X163191252Y-91514157D01*
X163441355Y-91365178D01*
X163657588Y-91170269D01*
X163831641Y-90936920D01*
X163956825Y-90674099D01*
X164001476Y-90526890D01*
X163880155Y-90297000D01*
X162687000Y-90297000D01*
X162433000Y-90297000D01*
X161239845Y-90297000D01*
X161118524Y-90526890D01*
X160780000Y-90526890D01*
X160780000Y-88937322D01*
X160783676Y-88899999D01*
X160780000Y-88862676D01*
X160780000Y-88862667D01*
X160769003Y-88751014D01*
X160725546Y-88607753D01*
X160654974Y-88475724D01*
X160584622Y-88390000D01*
X161281822Y-88390000D01*
X161406525Y-88576632D01*
X161613368Y-88783475D01*
X161795534Y-88905195D01*
X161678645Y-88974822D01*
X161462412Y-89169731D01*
X161288359Y-89403080D01*
X161163175Y-89665901D01*
X161118524Y-89813110D01*
X161239845Y-90043000D01*
X162433000Y-90043000D01*
X162433000Y-90023000D01*
X162687000Y-90023000D01*
X162687000Y-90043000D01*
X163880155Y-90043000D01*
X164001476Y-89813110D01*
X163956825Y-89665901D01*
X163831641Y-89403080D01*
X163657588Y-89169731D01*
X163441355Y-88974822D01*
X163324466Y-88905195D01*
X163506632Y-88783475D01*
X163713475Y-88576632D01*
X163875990Y-88333411D01*
X163987932Y-88063158D01*
X164045000Y-87776260D01*
X164045000Y-87483740D01*
X163987932Y-87196842D01*
X163875990Y-86926589D01*
X163713475Y-86683368D01*
X163506632Y-86476525D01*
X163332240Y-86360000D01*
X163506632Y-86243475D01*
X163713475Y-86036632D01*
X163875990Y-85793411D01*
X163987932Y-85523158D01*
X164045000Y-85236260D01*
X164045000Y-84943740D01*
X163987932Y-84656842D01*
X163875990Y-84386589D01*
X163713475Y-84143368D01*
X163581620Y-84011513D01*
X163654180Y-83989502D01*
X163764494Y-83930537D01*
X163861185Y-83851185D01*
X163940537Y-83754494D01*
X163999502Y-83644180D01*
X164035812Y-83524482D01*
X164048072Y-83400000D01*
X164048072Y-81700000D01*
X164035812Y-81575518D01*
X163999502Y-81455820D01*
X163940537Y-81345506D01*
X163861185Y-81248815D01*
X163764494Y-81169463D01*
X163654180Y-81110498D01*
X163534482Y-81074188D01*
X163410000Y-81061928D01*
X161710000Y-81061928D01*
X161585518Y-81074188D01*
X161465820Y-81110498D01*
X161355506Y-81169463D01*
X161258815Y-81248815D01*
X161179463Y-81345506D01*
X161120498Y-81455820D01*
X161084188Y-81575518D01*
X161071928Y-81700000D01*
X161071928Y-83400000D01*
X161084188Y-83524482D01*
X161120498Y-83644180D01*
X161179463Y-83754494D01*
X161258815Y-83851185D01*
X161355506Y-83930537D01*
X161465820Y-83989502D01*
X161538380Y-84011513D01*
X161406525Y-84143368D01*
X161244010Y-84386589D01*
X161132068Y-84656842D01*
X161075000Y-84943740D01*
X161075000Y-85236260D01*
X161132068Y-85523158D01*
X161244010Y-85793411D01*
X161406525Y-86036632D01*
X161613368Y-86243475D01*
X161787760Y-86360000D01*
X161613368Y-86476525D01*
X161406525Y-86683368D01*
X161281822Y-86870000D01*
X159074802Y-86870000D01*
X150842863Y-78638061D01*
X165335000Y-78638061D01*
X165335000Y-78841939D01*
X165374774Y-79041898D01*
X165452795Y-79230256D01*
X165566063Y-79399774D01*
X165710226Y-79543937D01*
X165879744Y-79657205D01*
X166068102Y-79735226D01*
X166268061Y-79775000D01*
X166471939Y-79775000D01*
X166671898Y-79735226D01*
X166860256Y-79657205D01*
X167029774Y-79543937D01*
X167073711Y-79500000D01*
X172575199Y-79500000D01*
X182486201Y-89411003D01*
X182509999Y-89440001D01*
X182625724Y-89534974D01*
X182661928Y-89554326D01*
X182661928Y-89750000D01*
X182674188Y-89874482D01*
X182710498Y-89994180D01*
X182769463Y-90104494D01*
X182848815Y-90201185D01*
X182945506Y-90280537D01*
X183055820Y-90339502D01*
X183175518Y-90375812D01*
X183300000Y-90388072D01*
X185000000Y-90388072D01*
X185124482Y-90375812D01*
X185244180Y-90339502D01*
X185354494Y-90280537D01*
X185442876Y-90208004D01*
X185642883Y-90303371D01*
X185926411Y-90375339D01*
X186218531Y-90390611D01*
X186508019Y-90348599D01*
X186783747Y-90250919D01*
X186921157Y-90177472D01*
X186998792Y-89928397D01*
X186150000Y-89079605D01*
X186135858Y-89093748D01*
X185956253Y-88914143D01*
X185970395Y-88900000D01*
X186329605Y-88900000D01*
X187178397Y-89748792D01*
X187427472Y-89671157D01*
X187553371Y-89407117D01*
X187625339Y-89123589D01*
X187640611Y-88831469D01*
X187598599Y-88541981D01*
X187500919Y-88266253D01*
X187427472Y-88128843D01*
X187178397Y-88051208D01*
X186329605Y-88900000D01*
X185970395Y-88900000D01*
X185956253Y-88885858D01*
X186135858Y-88706253D01*
X186150000Y-88720395D01*
X186998792Y-87871603D01*
X186933590Y-87662416D01*
X187096632Y-87553475D01*
X187303475Y-87346632D01*
X187465990Y-87103411D01*
X187577932Y-86833158D01*
X187635000Y-86546260D01*
X187635000Y-86253740D01*
X187577932Y-85966842D01*
X187465990Y-85696589D01*
X187303475Y-85453368D01*
X187096632Y-85246525D01*
X186853411Y-85084010D01*
X186583158Y-84972068D01*
X186296260Y-84915000D01*
X186003740Y-84915000D01*
X185716842Y-84972068D01*
X185446589Y-85084010D01*
X185203368Y-85246525D01*
X185150000Y-85299893D01*
X185096632Y-85246525D01*
X184853411Y-85084010D01*
X184583158Y-84972068D01*
X184296260Y-84915000D01*
X184003740Y-84915000D01*
X183716842Y-84972068D01*
X183446589Y-85084010D01*
X183203368Y-85246525D01*
X182996525Y-85453368D01*
X182834010Y-85696589D01*
X182722068Y-85966842D01*
X182665000Y-86253740D01*
X182665000Y-86546260D01*
X182722068Y-86833158D01*
X182834010Y-87103411D01*
X182996525Y-87346632D01*
X183097690Y-87447797D01*
X183055820Y-87460498D01*
X182945506Y-87519463D01*
X182848815Y-87598815D01*
X182837457Y-87612655D01*
X176619900Y-81395098D01*
X186475000Y-81395098D01*
X186475000Y-81864902D01*
X186566654Y-82325679D01*
X186746440Y-82759721D01*
X187007450Y-83150349D01*
X187339651Y-83482550D01*
X187730279Y-83743560D01*
X188100001Y-83896704D01*
X188100000Y-91403297D01*
X187730279Y-91556440D01*
X187339651Y-91817450D01*
X187007450Y-92149651D01*
X186746440Y-92540279D01*
X186566654Y-92974321D01*
X186475000Y-93435098D01*
X186475000Y-93904902D01*
X186566654Y-94365679D01*
X186746440Y-94799721D01*
X187007450Y-95190349D01*
X187339651Y-95522550D01*
X187730279Y-95783560D01*
X188164321Y-95963346D01*
X188625098Y-96055000D01*
X189094902Y-96055000D01*
X189555679Y-95963346D01*
X189989721Y-95783560D01*
X190380349Y-95522550D01*
X190712550Y-95190349D01*
X190973560Y-94799721D01*
X191153346Y-94365679D01*
X191245000Y-93904902D01*
X191245000Y-93435098D01*
X191153346Y-92974321D01*
X190973560Y-92540279D01*
X190712550Y-92149651D01*
X190380349Y-91817450D01*
X189989721Y-91556440D01*
X189620000Y-91403297D01*
X189620000Y-83896703D01*
X189989721Y-83743560D01*
X190380349Y-83482550D01*
X190712550Y-83150349D01*
X190973560Y-82759721D01*
X191153346Y-82325679D01*
X191245000Y-81864902D01*
X191245000Y-81395098D01*
X191153346Y-80934321D01*
X190973560Y-80500279D01*
X190712550Y-80109651D01*
X190380349Y-79777450D01*
X189989721Y-79516440D01*
X189555679Y-79336654D01*
X189094902Y-79245000D01*
X188625098Y-79245000D01*
X188164321Y-79336654D01*
X187730279Y-79516440D01*
X187339651Y-79777450D01*
X187007450Y-80109651D01*
X186746440Y-80500279D01*
X186566654Y-80934321D01*
X186475000Y-81395098D01*
X176619900Y-81395098D01*
X173453804Y-78229003D01*
X173430001Y-78199999D01*
X173314276Y-78105026D01*
X173182247Y-78034454D01*
X173038986Y-77990997D01*
X172927333Y-77980000D01*
X172927322Y-77980000D01*
X172890000Y-77976324D01*
X172852678Y-77980000D01*
X167073711Y-77980000D01*
X167029774Y-77936063D01*
X166860256Y-77822795D01*
X166671898Y-77744774D01*
X166471939Y-77705000D01*
X166268061Y-77705000D01*
X166068102Y-77744774D01*
X165879744Y-77822795D01*
X165710226Y-77936063D01*
X165566063Y-78080226D01*
X165452795Y-78249744D01*
X165374774Y-78438102D01*
X165335000Y-78638061D01*
X150842863Y-78638061D01*
X150709802Y-78505001D01*
X158437677Y-78505001D01*
X158474999Y-78508677D01*
X158512321Y-78505001D01*
X158512332Y-78505001D01*
X158623985Y-78494004D01*
X158767246Y-78450547D01*
X158899275Y-78379975D01*
X159015000Y-78285002D01*
X159038803Y-78255998D01*
X166933799Y-70361004D01*
X166933808Y-70360993D01*
X168752134Y-68542667D01*
X170691005Y-66603797D01*
X170720001Y-66580001D01*
X170743799Y-66551002D01*
X173936136Y-63358665D01*
X181445000Y-63358665D01*
X181445000Y-63641335D01*
X181500147Y-63918574D01*
X181608320Y-64179727D01*
X181765363Y-64414759D01*
X181965241Y-64614637D01*
X182200273Y-64771680D01*
X182461426Y-64879853D01*
X182738665Y-64935000D01*
X183021335Y-64935000D01*
X183298574Y-64879853D01*
X183559727Y-64771680D01*
X183794759Y-64614637D01*
X183994637Y-64414759D01*
X184151680Y-64179727D01*
X184259853Y-63918574D01*
X184315000Y-63641335D01*
X184315000Y-63358665D01*
X184259853Y-63081426D01*
X184151680Y-62820273D01*
X183994637Y-62585241D01*
X183794759Y-62385363D01*
X183559727Y-62228320D01*
X183298574Y-62120147D01*
X183021335Y-62065000D01*
X182738665Y-62065000D01*
X182461426Y-62120147D01*
X182200273Y-62228320D01*
X181965241Y-62385363D01*
X181765363Y-62585241D01*
X181608320Y-62820273D01*
X181500147Y-63081426D01*
X181445000Y-63358665D01*
X173936136Y-63358665D01*
X174501002Y-62793800D01*
X174530001Y-62770001D01*
X174553800Y-62741002D01*
X175574802Y-61720000D01*
X183425199Y-61720000D01*
X184881312Y-63176114D01*
X184845000Y-63358665D01*
X184845000Y-63641335D01*
X184900147Y-63918574D01*
X185008320Y-64179727D01*
X185165363Y-64414759D01*
X185365241Y-64614637D01*
X185600273Y-64771680D01*
X185861426Y-64879853D01*
X186138665Y-64935000D01*
X186421335Y-64935000D01*
X186698574Y-64879853D01*
X186959727Y-64771680D01*
X187194759Y-64614637D01*
X187394637Y-64414759D01*
X187551680Y-64179727D01*
X187659853Y-63918574D01*
X187715000Y-63641335D01*
X187715000Y-63358665D01*
X187659853Y-63081426D01*
X187551680Y-62820273D01*
X187394637Y-62585241D01*
X187194759Y-62385363D01*
X186959727Y-62228320D01*
X186698574Y-62120147D01*
X186421335Y-62065000D01*
X186138665Y-62065000D01*
X185956114Y-62101312D01*
X184594674Y-60739872D01*
X193345000Y-60739872D01*
X193345000Y-61180128D01*
X193430890Y-61611925D01*
X193599369Y-62018669D01*
X193843962Y-62384729D01*
X194155271Y-62696038D01*
X194521331Y-62940631D01*
X194928075Y-63109110D01*
X195359872Y-63195000D01*
X195800128Y-63195000D01*
X196231925Y-63109110D01*
X196638669Y-62940631D01*
X197004729Y-62696038D01*
X197316038Y-62384729D01*
X197560631Y-62018669D01*
X197729110Y-61611925D01*
X197815000Y-61180128D01*
X197815000Y-60739872D01*
X197729110Y-60308075D01*
X197560631Y-59901331D01*
X197316038Y-59535271D01*
X197004729Y-59223962D01*
X196638669Y-58979369D01*
X196231925Y-58810890D01*
X195800128Y-58725000D01*
X195359872Y-58725000D01*
X194928075Y-58810890D01*
X194521331Y-58979369D01*
X194155271Y-59223962D01*
X193843962Y-59535271D01*
X193599369Y-59901331D01*
X193430890Y-60308075D01*
X193345000Y-60739872D01*
X184594674Y-60739872D01*
X184303804Y-60449003D01*
X184280001Y-60419999D01*
X184164276Y-60325026D01*
X184032247Y-60254454D01*
X183888986Y-60210997D01*
X183777333Y-60200000D01*
X183777322Y-60200000D01*
X183740000Y-60196324D01*
X183702678Y-60200000D01*
X177917169Y-60200000D01*
X177971481Y-60046891D01*
X177850814Y-59817000D01*
X176657000Y-59817000D01*
X176657000Y-59837000D01*
X176403000Y-59837000D01*
X176403000Y-59817000D01*
X176383000Y-59817000D01*
X176383000Y-59563000D01*
X176403000Y-59563000D01*
X176403000Y-58369845D01*
X176657000Y-58369845D01*
X176657000Y-59563000D01*
X177850814Y-59563000D01*
X177971481Y-59333109D01*
X177874157Y-59058748D01*
X177725178Y-58808645D01*
X177530269Y-58592412D01*
X177296920Y-58418359D01*
X177034099Y-58293175D01*
X176886890Y-58248524D01*
X176657000Y-58369845D01*
X176403000Y-58369845D01*
X176173110Y-58248524D01*
X176025901Y-58293175D01*
X175763080Y-58418359D01*
X175529731Y-58592412D01*
X175334822Y-58808645D01*
X175265195Y-58925534D01*
X175143475Y-58743368D01*
X174936632Y-58536525D01*
X174693411Y-58374010D01*
X174423158Y-58262068D01*
X174136260Y-58205000D01*
X173843740Y-58205000D01*
X173556842Y-58262068D01*
X173286589Y-58374010D01*
X173043368Y-58536525D01*
X172911513Y-58668380D01*
X172889502Y-58595820D01*
X172830537Y-58485506D01*
X172751185Y-58388815D01*
X172654494Y-58309463D01*
X172544180Y-58250498D01*
X172424482Y-58214188D01*
X172300000Y-58201928D01*
X170600000Y-58201928D01*
X170475518Y-58214188D01*
X170355820Y-58250498D01*
X170245506Y-58309463D01*
X170148815Y-58388815D01*
X170069463Y-58485506D01*
X170010498Y-58595820D01*
X169974188Y-58715518D01*
X169961928Y-58840000D01*
X169961928Y-59035674D01*
X169925724Y-59055026D01*
X169809999Y-59149999D01*
X169786201Y-59178997D01*
X162415199Y-66550000D01*
X160584801Y-66550000D01*
X161801003Y-65333799D01*
X161830001Y-65310001D01*
X161924974Y-65194276D01*
X161995546Y-65062247D01*
X162039003Y-64918986D01*
X162050000Y-64807333D01*
X162050000Y-64807324D01*
X162053676Y-64770001D01*
X162050000Y-64732678D01*
X162050000Y-60968178D01*
X162236632Y-60843475D01*
X162443475Y-60636632D01*
X162560000Y-60462240D01*
X162676525Y-60636632D01*
X162883368Y-60843475D01*
X163126589Y-61005990D01*
X163396842Y-61117932D01*
X163683740Y-61175000D01*
X163976260Y-61175000D01*
X164263158Y-61117932D01*
X164533411Y-61005990D01*
X164776632Y-60843475D01*
X164908487Y-60711620D01*
X164930498Y-60784180D01*
X164989463Y-60894494D01*
X165068815Y-60991185D01*
X165165506Y-61070537D01*
X165275820Y-61129502D01*
X165395518Y-61165812D01*
X165520000Y-61178072D01*
X166084250Y-61175000D01*
X166243000Y-61016250D01*
X166243000Y-59817000D01*
X166497000Y-59817000D01*
X166497000Y-61016250D01*
X166655750Y-61175000D01*
X167220000Y-61178072D01*
X167344482Y-61165812D01*
X167464180Y-61129502D01*
X167574494Y-61070537D01*
X167671185Y-60991185D01*
X167750537Y-60894494D01*
X167809502Y-60784180D01*
X167845812Y-60664482D01*
X167858072Y-60540000D01*
X167855000Y-59975750D01*
X167696250Y-59817000D01*
X166497000Y-59817000D01*
X166243000Y-59817000D01*
X166223000Y-59817000D01*
X166223000Y-59563000D01*
X166243000Y-59563000D01*
X166243000Y-58363750D01*
X166497000Y-58363750D01*
X166497000Y-59563000D01*
X167696250Y-59563000D01*
X167855000Y-59404250D01*
X167858072Y-58840000D01*
X167845812Y-58715518D01*
X167809502Y-58595820D01*
X167750537Y-58485506D01*
X167671185Y-58388815D01*
X167574494Y-58309463D01*
X167464180Y-58250498D01*
X167344482Y-58214188D01*
X167220000Y-58201928D01*
X166655750Y-58205000D01*
X166497000Y-58363750D01*
X166243000Y-58363750D01*
X166084250Y-58205000D01*
X165520000Y-58201928D01*
X165395518Y-58214188D01*
X165275820Y-58250498D01*
X165165506Y-58309463D01*
X165068815Y-58388815D01*
X164989463Y-58485506D01*
X164930498Y-58595820D01*
X164908487Y-58668380D01*
X164776632Y-58536525D01*
X164533411Y-58374010D01*
X164263158Y-58262068D01*
X163976260Y-58205000D01*
X163683740Y-58205000D01*
X163396842Y-58262068D01*
X163126589Y-58374010D01*
X162883368Y-58536525D01*
X162676525Y-58743368D01*
X162560000Y-58917760D01*
X162443475Y-58743368D01*
X162236632Y-58536525D01*
X161993411Y-58374010D01*
X161723158Y-58262068D01*
X161436260Y-58205000D01*
X161143740Y-58205000D01*
X160856842Y-58262068D01*
X160586589Y-58374010D01*
X160343368Y-58536525D01*
X160136525Y-58743368D01*
X159974010Y-58986589D01*
X159862068Y-59256842D01*
X159805000Y-59543740D01*
X159805000Y-59836260D01*
X159862068Y-60123158D01*
X159974010Y-60393411D01*
X160136525Y-60636632D01*
X160343368Y-60843475D01*
X160530000Y-60968179D01*
X160530001Y-64455197D01*
X159705199Y-65280000D01*
X148627325Y-65280000D01*
X148590000Y-65276324D01*
X148552675Y-65280000D01*
X148552667Y-65280000D01*
X148441014Y-65290997D01*
X148297753Y-65334454D01*
X148165724Y-65405026D01*
X148049999Y-65499999D01*
X148026201Y-65528997D01*
X144270000Y-69285199D01*
X144270000Y-68013711D01*
X144313937Y-67969774D01*
X144427205Y-67800256D01*
X144505226Y-67611898D01*
X144545000Y-67411939D01*
X144545000Y-67208061D01*
X144505226Y-67008102D01*
X144427205Y-66819744D01*
X144313937Y-66650226D01*
X144169774Y-66506063D01*
X144000256Y-66392795D01*
X143811898Y-66314774D01*
X143611939Y-66275000D01*
X143408061Y-66275000D01*
X143208102Y-66314774D01*
X143019744Y-66392795D01*
X142850226Y-66506063D01*
X142706063Y-66650226D01*
X142592795Y-66819744D01*
X142514774Y-67008102D01*
X142475000Y-67208061D01*
X142475000Y-67411939D01*
X142514774Y-67611898D01*
X142592795Y-67800256D01*
X142706063Y-67969774D01*
X142750000Y-68013711D01*
X142750001Y-72352658D01*
X142750000Y-72352668D01*
X142750000Y-72956289D01*
X142706063Y-73000226D01*
X142592795Y-73169744D01*
X142514774Y-73358102D01*
X142475000Y-73558061D01*
X142475000Y-73761939D01*
X142514774Y-73961898D01*
X142592795Y-74150256D01*
X142706063Y-74319774D01*
X142850226Y-74463937D01*
X143019744Y-74577205D01*
X143208102Y-74655226D01*
X143408061Y-74695000D01*
X143611939Y-74695000D01*
X143811898Y-74655226D01*
X144000256Y-74577205D01*
X144020000Y-74564012D01*
X144020001Y-88852667D01*
X144016324Y-88890000D01*
X144020001Y-88927333D01*
X144030998Y-89038986D01*
X144036745Y-89057932D01*
X144074454Y-89182246D01*
X144145026Y-89314276D01*
X144216201Y-89401002D01*
X144240000Y-89430001D01*
X144268998Y-89453799D01*
X147476313Y-92661115D01*
X147440001Y-92843666D01*
X147440001Y-93015199D01*
X136650000Y-82225199D01*
X136650000Y-68617325D01*
X136653676Y-68580000D01*
X136650000Y-68542675D01*
X136650000Y-68542667D01*
X136639003Y-68431014D01*
X136595546Y-68287753D01*
X136524974Y-68155724D01*
X136430001Y-68039999D01*
X136401003Y-68016201D01*
X132643804Y-64259003D01*
X132620001Y-64229999D01*
X132504276Y-64135026D01*
X132372247Y-64064454D01*
X132342443Y-64055413D01*
X148904192Y-64055413D01*
X148999956Y-64319814D01*
X149289571Y-64460704D01*
X149601108Y-64542384D01*
X149922595Y-64561718D01*
X150241675Y-64517961D01*
X150546088Y-64412795D01*
X150720044Y-64319814D01*
X150815808Y-64055413D01*
X155404192Y-64055413D01*
X155499956Y-64319814D01*
X155789571Y-64460704D01*
X156101108Y-64542384D01*
X156422595Y-64561718D01*
X156741675Y-64517961D01*
X157046088Y-64412795D01*
X157220044Y-64319814D01*
X157315808Y-64055413D01*
X156360000Y-63099605D01*
X155404192Y-64055413D01*
X150815808Y-64055413D01*
X149860000Y-63099605D01*
X148904192Y-64055413D01*
X132342443Y-64055413D01*
X132228986Y-64020997D01*
X132117333Y-64010000D01*
X132117322Y-64010000D01*
X132080000Y-64006324D01*
X132042678Y-64010000D01*
X127904013Y-64010000D01*
X127917205Y-63990256D01*
X127995226Y-63801898D01*
X128035000Y-63601939D01*
X128035000Y-63398061D01*
X127995226Y-63198102D01*
X127917205Y-63009744D01*
X127899065Y-62982595D01*
X148218282Y-62982595D01*
X148262039Y-63301675D01*
X148367205Y-63606088D01*
X148460186Y-63780044D01*
X148724587Y-63875808D01*
X149680395Y-62920000D01*
X150039605Y-62920000D01*
X150995413Y-63875808D01*
X151259814Y-63780044D01*
X151400704Y-63490429D01*
X151482384Y-63178892D01*
X151494189Y-62982595D01*
X154718282Y-62982595D01*
X154762039Y-63301675D01*
X154867205Y-63606088D01*
X154960186Y-63780044D01*
X155224587Y-63875808D01*
X156180395Y-62920000D01*
X156539605Y-62920000D01*
X157495413Y-63875808D01*
X157759814Y-63780044D01*
X157900704Y-63490429D01*
X157982384Y-63178892D01*
X158001718Y-62857405D01*
X157957961Y-62538325D01*
X157852795Y-62233912D01*
X157759814Y-62059956D01*
X157495413Y-61964192D01*
X156539605Y-62920000D01*
X156180395Y-62920000D01*
X155224587Y-61964192D01*
X154960186Y-62059956D01*
X154819296Y-62349571D01*
X154737616Y-62661108D01*
X154718282Y-62982595D01*
X151494189Y-62982595D01*
X151501718Y-62857405D01*
X151457961Y-62538325D01*
X151352795Y-62233912D01*
X151259814Y-62059956D01*
X150995413Y-61964192D01*
X150039605Y-62920000D01*
X149680395Y-62920000D01*
X148724587Y-61964192D01*
X148460186Y-62059956D01*
X148319296Y-62349571D01*
X148237616Y-62661108D01*
X148218282Y-62982595D01*
X127899065Y-62982595D01*
X127803937Y-62840226D01*
X127659774Y-62696063D01*
X127490256Y-62582795D01*
X127301898Y-62504774D01*
X127101939Y-62465000D01*
X126898061Y-62465000D01*
X126698102Y-62504774D01*
X126509744Y-62582795D01*
X126340226Y-62696063D01*
X126296289Y-62740000D01*
X126044803Y-62740000D01*
X125089389Y-61784587D01*
X148904192Y-61784587D01*
X149860000Y-62740395D01*
X150815808Y-61784587D01*
X155404192Y-61784587D01*
X156360000Y-62740395D01*
X157315808Y-61784587D01*
X157220044Y-61520186D01*
X156930429Y-61379296D01*
X156618892Y-61297616D01*
X156297405Y-61278282D01*
X155978325Y-61322039D01*
X155673912Y-61427205D01*
X155499956Y-61520186D01*
X155404192Y-61784587D01*
X150815808Y-61784587D01*
X150720044Y-61520186D01*
X150430429Y-61379296D01*
X150118892Y-61297616D01*
X149797405Y-61278282D01*
X149478325Y-61322039D01*
X149173912Y-61427205D01*
X148999956Y-61520186D01*
X148904192Y-61784587D01*
X125089389Y-61784587D01*
X124142454Y-60837653D01*
X124343475Y-60636632D01*
X124465195Y-60454466D01*
X124534822Y-60571355D01*
X124729731Y-60787588D01*
X124963080Y-60961641D01*
X125225901Y-61086825D01*
X125373110Y-61131476D01*
X125603000Y-61010155D01*
X125603000Y-59817000D01*
X125583000Y-59817000D01*
X125583000Y-59563000D01*
X125603000Y-59563000D01*
X125603000Y-58369845D01*
X125857000Y-58369845D01*
X125857000Y-59563000D01*
X125877000Y-59563000D01*
X125877000Y-59817000D01*
X125857000Y-59817000D01*
X125857000Y-61010155D01*
X126086890Y-61131476D01*
X126234099Y-61086825D01*
X126496920Y-60961641D01*
X126730269Y-60787588D01*
X126806034Y-60703534D01*
X126830498Y-60784180D01*
X126889463Y-60894494D01*
X126968815Y-60991185D01*
X127065506Y-61070537D01*
X127175820Y-61129502D01*
X127295518Y-61165812D01*
X127420000Y-61178072D01*
X129120000Y-61178072D01*
X129244482Y-61165812D01*
X129364180Y-61129502D01*
X129474494Y-61070537D01*
X129571185Y-60991185D01*
X129650537Y-60894494D01*
X129709502Y-60784180D01*
X129745812Y-60664482D01*
X129758072Y-60540000D01*
X129758072Y-58840000D01*
X135671928Y-58840000D01*
X135671928Y-60540000D01*
X135684188Y-60664482D01*
X135720498Y-60784180D01*
X135779463Y-60894494D01*
X135858815Y-60991185D01*
X135955506Y-61070537D01*
X136065820Y-61129502D01*
X136185518Y-61165812D01*
X136310000Y-61178072D01*
X138010000Y-61178072D01*
X138134482Y-61165812D01*
X138254180Y-61129502D01*
X138364494Y-61070537D01*
X138461185Y-60991185D01*
X138540537Y-60894494D01*
X138599502Y-60784180D01*
X138623966Y-60703534D01*
X138699731Y-60787588D01*
X138933080Y-60961641D01*
X139195901Y-61086825D01*
X139343110Y-61131476D01*
X139573000Y-61010155D01*
X139573000Y-59817000D01*
X139827000Y-59817000D01*
X139827000Y-61010155D01*
X140056890Y-61131476D01*
X140204099Y-61086825D01*
X140466920Y-60961641D01*
X140700269Y-60787588D01*
X140895178Y-60571355D01*
X141044157Y-60321252D01*
X141141481Y-60046891D01*
X141020814Y-59817000D01*
X139827000Y-59817000D01*
X139573000Y-59817000D01*
X139553000Y-59817000D01*
X139553000Y-59563000D01*
X139573000Y-59563000D01*
X139573000Y-58369845D01*
X139827000Y-58369845D01*
X139827000Y-59563000D01*
X141020814Y-59563000D01*
X141141481Y-59333109D01*
X141044157Y-59058748D01*
X140895178Y-58808645D01*
X140700269Y-58592412D01*
X140466920Y-58418359D01*
X140204099Y-58293175D01*
X140091320Y-58258967D01*
X148225000Y-58258967D01*
X148225000Y-58581033D01*
X148287832Y-58896912D01*
X148411082Y-59194463D01*
X148590013Y-59462252D01*
X148817748Y-59689987D01*
X149085537Y-59868918D01*
X149383088Y-59992168D01*
X149698967Y-60055000D01*
X150021033Y-60055000D01*
X150336912Y-59992168D01*
X150634463Y-59868918D01*
X150902252Y-59689987D01*
X151129987Y-59462252D01*
X151308918Y-59194463D01*
X151432168Y-58896912D01*
X151495000Y-58581033D01*
X151495000Y-58258967D01*
X154725000Y-58258967D01*
X154725000Y-58581033D01*
X154787832Y-58896912D01*
X154911082Y-59194463D01*
X155090013Y-59462252D01*
X155317748Y-59689987D01*
X155585537Y-59868918D01*
X155883088Y-59992168D01*
X156198967Y-60055000D01*
X156521033Y-60055000D01*
X156836912Y-59992168D01*
X157134463Y-59868918D01*
X157402252Y-59689987D01*
X157629987Y-59462252D01*
X157808918Y-59194463D01*
X157932168Y-58896912D01*
X157995000Y-58581033D01*
X157995000Y-58258967D01*
X157932168Y-57943088D01*
X157808918Y-57645537D01*
X157629987Y-57377748D01*
X157402252Y-57150013D01*
X157134463Y-56971082D01*
X156836912Y-56847832D01*
X156521033Y-56785000D01*
X156198967Y-56785000D01*
X155883088Y-56847832D01*
X155585537Y-56971082D01*
X155317748Y-57150013D01*
X155090013Y-57377748D01*
X154911082Y-57645537D01*
X154787832Y-57943088D01*
X154725000Y-58258967D01*
X151495000Y-58258967D01*
X151432168Y-57943088D01*
X151308918Y-57645537D01*
X151129987Y-57377748D01*
X150902252Y-57150013D01*
X150634463Y-56971082D01*
X150336912Y-56847832D01*
X150021033Y-56785000D01*
X149698967Y-56785000D01*
X149383088Y-56847832D01*
X149085537Y-56971082D01*
X148817748Y-57150013D01*
X148590013Y-57377748D01*
X148411082Y-57645537D01*
X148287832Y-57943088D01*
X148225000Y-58258967D01*
X140091320Y-58258967D01*
X140056890Y-58248524D01*
X139827000Y-58369845D01*
X139573000Y-58369845D01*
X139343110Y-58248524D01*
X139195901Y-58293175D01*
X138933080Y-58418359D01*
X138699731Y-58592412D01*
X138623966Y-58676466D01*
X138599502Y-58595820D01*
X138540537Y-58485506D01*
X138461185Y-58388815D01*
X138364494Y-58309463D01*
X138254180Y-58250498D01*
X138134482Y-58214188D01*
X138010000Y-58201928D01*
X136310000Y-58201928D01*
X136185518Y-58214188D01*
X136065820Y-58250498D01*
X135955506Y-58309463D01*
X135858815Y-58388815D01*
X135779463Y-58485506D01*
X135720498Y-58595820D01*
X135684188Y-58715518D01*
X135671928Y-58840000D01*
X129758072Y-58840000D01*
X129745812Y-58715518D01*
X129709502Y-58595820D01*
X129650537Y-58485506D01*
X129571185Y-58388815D01*
X129474494Y-58309463D01*
X129364180Y-58250498D01*
X129244482Y-58214188D01*
X129120000Y-58201928D01*
X127420000Y-58201928D01*
X127295518Y-58214188D01*
X127175820Y-58250498D01*
X127065506Y-58309463D01*
X126968815Y-58388815D01*
X126889463Y-58485506D01*
X126830498Y-58595820D01*
X126806034Y-58676466D01*
X126730269Y-58592412D01*
X126496920Y-58418359D01*
X126234099Y-58293175D01*
X126086890Y-58248524D01*
X125857000Y-58369845D01*
X125603000Y-58369845D01*
X125373110Y-58248524D01*
X125225901Y-58293175D01*
X124963080Y-58418359D01*
X124729731Y-58592412D01*
X124534822Y-58808645D01*
X124465195Y-58925534D01*
X124343475Y-58743368D01*
X124136632Y-58536525D01*
X123893411Y-58374010D01*
X123623158Y-58262068D01*
X123336260Y-58205000D01*
X123043740Y-58205000D01*
X122756842Y-58262068D01*
X122486589Y-58374010D01*
X122243368Y-58536525D01*
X122036525Y-58743368D01*
X121874010Y-58986589D01*
X121762068Y-59256842D01*
X121705000Y-59543740D01*
X121705000Y-59836260D01*
X121762068Y-60123158D01*
X121874010Y-60393411D01*
X122036525Y-60636632D01*
X122243368Y-60843475D01*
X122426927Y-60966125D01*
X122430000Y-60997322D01*
X122430000Y-60997332D01*
X122440997Y-61108985D01*
X122479146Y-61234746D01*
X122484454Y-61252246D01*
X122555026Y-61384276D01*
X122590257Y-61427205D01*
X122649999Y-61500001D01*
X122679003Y-61523804D01*
X125165197Y-64010000D01*
X124774802Y-64010000D01*
X119943804Y-59179003D01*
X119920001Y-59149999D01*
X119804276Y-59055026D01*
X119672247Y-58984454D01*
X119528986Y-58940997D01*
X119417333Y-58930000D01*
X119417322Y-58930000D01*
X119386125Y-58926927D01*
X119263475Y-58743368D01*
X119056632Y-58536525D01*
X118813411Y-58374010D01*
X118543158Y-58262068D01*
X118256260Y-58205000D01*
X117963740Y-58205000D01*
X117676842Y-58262068D01*
X117406589Y-58374010D01*
X117163368Y-58536525D01*
X116956525Y-58743368D01*
X116840000Y-58917760D01*
X116723475Y-58743368D01*
X116516632Y-58536525D01*
X116273411Y-58374010D01*
X116003158Y-58262068D01*
X115716260Y-58205000D01*
X115423740Y-58205000D01*
X115136842Y-58262068D01*
X114866589Y-58374010D01*
X114623368Y-58536525D01*
X114491513Y-58668380D01*
X114469502Y-58595820D01*
X114410537Y-58485506D01*
X114331185Y-58388815D01*
X114234494Y-58309463D01*
X114124180Y-58250498D01*
X114004482Y-58214188D01*
X113880000Y-58201928D01*
X113315750Y-58205000D01*
X113157000Y-58363750D01*
X113157000Y-59563000D01*
X113177000Y-59563000D01*
X113177000Y-59817000D01*
X113157000Y-59817000D01*
X113157000Y-61016250D01*
X113315750Y-61175000D01*
X113880000Y-61178072D01*
X114004482Y-61165812D01*
X114124180Y-61129502D01*
X114234494Y-61070537D01*
X114331185Y-60991185D01*
X114410537Y-60894494D01*
X114469502Y-60784180D01*
X114491513Y-60711620D01*
X114623368Y-60843475D01*
X114866589Y-61005990D01*
X115136842Y-61117932D01*
X115423740Y-61175000D01*
X115716260Y-61175000D01*
X116003158Y-61117932D01*
X116273411Y-61005990D01*
X116516632Y-60843475D01*
X116723475Y-60636632D01*
X116840000Y-60462240D01*
X116956525Y-60636632D01*
X117163368Y-60843475D01*
X117406589Y-61005990D01*
X117676842Y-61117932D01*
X117963740Y-61175000D01*
X118256260Y-61175000D01*
X118543158Y-61117932D01*
X118813411Y-61005990D01*
X119056632Y-60843475D01*
X119257653Y-60642454D01*
X123896200Y-65281002D01*
X123919999Y-65310001D01*
X123948997Y-65333799D01*
X124035723Y-65404974D01*
X124167753Y-65475546D01*
X124311014Y-65519003D01*
X124422667Y-65530000D01*
X124422677Y-65530000D01*
X124460000Y-65533676D01*
X124497323Y-65530000D01*
X131765199Y-65530000D01*
X135130001Y-68894803D01*
X135130000Y-82502678D01*
X135126324Y-82540000D01*
X135130000Y-82577322D01*
X135130000Y-82577332D01*
X135140997Y-82688985D01*
X135184454Y-82832246D01*
X135255026Y-82964276D01*
X135256717Y-82966336D01*
X135349999Y-83080001D01*
X135379003Y-83103804D01*
X147476313Y-95201115D01*
X147440001Y-95383666D01*
X147440001Y-95666336D01*
X147495148Y-95943575D01*
X147603321Y-96204728D01*
X147760364Y-96439760D01*
X147960242Y-96639638D01*
X148192760Y-96795001D01*
X147960242Y-96950364D01*
X147760364Y-97150242D01*
X147603321Y-97385274D01*
X147495148Y-97646427D01*
X147440001Y-97923666D01*
X147440001Y-98206336D01*
X147495148Y-98483575D01*
X147603321Y-98744728D01*
X147760364Y-98979760D01*
X147960242Y-99179638D01*
X148192760Y-99335001D01*
X147960242Y-99490364D01*
X147760364Y-99690242D01*
X147603321Y-99925274D01*
X147495148Y-100186427D01*
X147440001Y-100463666D01*
X147440001Y-100746336D01*
X147495148Y-101023575D01*
X147603321Y-101284728D01*
X147760364Y-101519760D01*
X147960242Y-101719638D01*
X148192760Y-101875001D01*
X147960242Y-102030364D01*
X147760364Y-102230242D01*
X147603321Y-102465274D01*
X147495148Y-102726427D01*
X147440001Y-103003666D01*
X147440001Y-103286336D01*
X147495148Y-103563575D01*
X147603321Y-103824728D01*
X147760364Y-104059760D01*
X147960242Y-104259638D01*
X148192760Y-104415001D01*
X147960242Y-104570364D01*
X147760364Y-104770242D01*
X147603321Y-105005274D01*
X147495148Y-105266427D01*
X147440001Y-105543666D01*
X147440001Y-105826336D01*
X147495148Y-106103575D01*
X147603321Y-106364728D01*
X147760364Y-106599760D01*
X147960242Y-106799638D01*
X148195274Y-106956681D01*
X148456427Y-107064854D01*
X148733666Y-107120001D01*
X149016336Y-107120001D01*
X149293575Y-107064854D01*
X149554728Y-106956681D01*
X149789760Y-106799638D01*
X149989638Y-106599760D01*
X150146681Y-106364728D01*
X150254854Y-106103575D01*
X150310001Y-105826336D01*
X150310001Y-105543666D01*
X150254854Y-105266427D01*
X150146681Y-105005274D01*
X149989638Y-104770242D01*
X149789760Y-104570364D01*
X149557242Y-104415001D01*
X149789760Y-104259638D01*
X149989638Y-104059760D01*
X150146681Y-103824728D01*
X150254854Y-103563575D01*
X150310001Y-103286336D01*
X150310001Y-103003666D01*
X150254854Y-102726427D01*
X150146681Y-102465274D01*
X149989638Y-102230242D01*
X149789760Y-102030364D01*
X149557242Y-101875001D01*
X149789760Y-101719638D01*
X149989638Y-101519760D01*
X150146681Y-101284728D01*
X150254854Y-101023575D01*
X150310001Y-100746336D01*
X150310001Y-100463666D01*
X150254854Y-100186427D01*
X150146681Y-99925274D01*
X149989638Y-99690242D01*
X149789760Y-99490364D01*
X149557242Y-99335001D01*
X149789760Y-99179638D01*
X149989638Y-98979760D01*
X150146681Y-98744728D01*
X150254854Y-98483575D01*
X150310001Y-98206336D01*
X150310001Y-97923666D01*
X150254854Y-97646427D01*
X150146681Y-97385274D01*
X149989638Y-97150242D01*
X149789760Y-96950364D01*
X149774250Y-96940000D01*
X153451928Y-96940000D01*
X153451928Y-98640000D01*
X153464188Y-98764482D01*
X153500498Y-98884180D01*
X153559463Y-98994494D01*
X153638815Y-99091185D01*
X153735506Y-99170537D01*
X153845820Y-99229502D01*
X153965518Y-99265812D01*
X154090000Y-99278072D01*
X155790000Y-99278072D01*
X155914482Y-99265812D01*
X156034180Y-99229502D01*
X156144494Y-99170537D01*
X156241185Y-99091185D01*
X156320537Y-98994494D01*
X156379502Y-98884180D01*
X156415812Y-98764482D01*
X156428072Y-98640000D01*
X156428072Y-96940000D01*
X156415812Y-96815518D01*
X156379502Y-96695820D01*
X156320537Y-96585506D01*
X156241185Y-96488815D01*
X156144494Y-96409463D01*
X156034180Y-96350498D01*
X155914482Y-96314188D01*
X155790000Y-96301928D01*
X154090000Y-96301928D01*
X153965518Y-96314188D01*
X153845820Y-96350498D01*
X153735506Y-96409463D01*
X153638815Y-96488815D01*
X153559463Y-96585506D01*
X153500498Y-96695820D01*
X153464188Y-96815518D01*
X153451928Y-96940000D01*
X149774250Y-96940000D01*
X149557242Y-96795001D01*
X149789760Y-96639638D01*
X149989638Y-96439760D01*
X150146681Y-96204728D01*
X150254854Y-95943575D01*
X150310001Y-95666336D01*
X150310001Y-95383666D01*
X150254854Y-95106427D01*
X150146681Y-94845274D01*
X149989638Y-94610242D01*
X149789760Y-94410364D01*
X149557242Y-94255001D01*
X149789760Y-94099638D01*
X149989638Y-93899760D01*
X150146681Y-93664728D01*
X150254854Y-93403575D01*
X150310001Y-93126336D01*
X150310001Y-92843666D01*
X150254854Y-92566427D01*
X150146681Y-92305274D01*
X149989638Y-92070242D01*
X149789760Y-91870364D01*
X149557242Y-91715001D01*
X149789760Y-91559638D01*
X149989638Y-91359760D01*
X150146681Y-91124728D01*
X150254854Y-90863575D01*
X150310001Y-90586336D01*
X150310001Y-90303666D01*
X150254854Y-90026427D01*
X150146681Y-89765274D01*
X149989638Y-89530242D01*
X149789760Y-89330364D01*
X149557242Y-89175001D01*
X149789760Y-89019638D01*
X149989638Y-88819760D01*
X150146681Y-88584728D01*
X150254854Y-88323575D01*
X150310001Y-88046336D01*
X150310001Y-87763666D01*
X150254854Y-87486427D01*
X150146681Y-87225274D01*
X150076339Y-87120000D01*
X152966289Y-87120000D01*
X153010226Y-87163937D01*
X153179744Y-87277205D01*
X153368102Y-87355226D01*
X153568061Y-87395000D01*
X153771939Y-87395000D01*
X153971898Y-87355226D01*
X154160256Y-87277205D01*
X154329774Y-87163937D01*
X154473937Y-87019774D01*
X154587205Y-86850256D01*
X154665226Y-86661898D01*
X154705000Y-86461939D01*
X154705000Y-86258061D01*
X154665226Y-86058102D01*
X154587205Y-85869744D01*
X154473937Y-85700226D01*
X154329774Y-85556063D01*
X154160256Y-85442795D01*
X153971898Y-85364774D01*
X153771939Y-85325000D01*
X153568061Y-85325000D01*
X153368102Y-85364774D01*
X153179744Y-85442795D01*
X153010226Y-85556063D01*
X152966289Y-85600000D01*
X150291370Y-85600000D01*
X150310001Y-85506336D01*
X150310001Y-85223666D01*
X150254854Y-84946427D01*
X150146681Y-84685274D01*
X149989638Y-84450242D01*
X149789760Y-84250364D01*
X149557242Y-84095001D01*
X149789760Y-83939638D01*
X149989638Y-83739760D01*
X150146681Y-83504728D01*
X150254854Y-83243575D01*
X150310001Y-82966336D01*
X150310001Y-82683666D01*
X150254854Y-82406427D01*
X150146681Y-82145274D01*
X149989638Y-81910242D01*
X149789760Y-81710364D01*
X149557242Y-81555001D01*
X149789760Y-81399638D01*
X149989638Y-81199760D01*
X150146681Y-80964728D01*
X150254854Y-80703575D01*
X150310001Y-80426336D01*
X150310001Y-80254802D01*
X158140437Y-88085239D01*
X158186201Y-88141002D01*
X159260001Y-89214803D01*
X159260000Y-90207332D01*
X159260001Y-90207342D01*
X159260000Y-97605091D01*
X159245537Y-97611082D01*
X158977748Y-97790013D01*
X158750013Y-98017748D01*
X158571082Y-98285537D01*
X158447832Y-98583088D01*
X158385000Y-98898967D01*
X158385000Y-99221033D01*
X158447832Y-99536912D01*
X158453823Y-99551375D01*
X144465199Y-113540000D01*
X141874013Y-113540000D01*
X141887205Y-113520256D01*
X141965226Y-113331898D01*
X142005000Y-113131939D01*
X142005000Y-113069801D01*
X145291004Y-109783798D01*
X145320001Y-109760001D01*
X145414974Y-109644276D01*
X145485546Y-109512247D01*
X145529003Y-109368986D01*
X145540000Y-109257333D01*
X145540000Y-109257325D01*
X145543676Y-109220000D01*
X145540000Y-109182675D01*
X145540000Y-101033711D01*
X145583937Y-100989774D01*
X145697205Y-100820256D01*
X145775226Y-100631898D01*
X145815000Y-100431939D01*
X145815000Y-100228061D01*
X145775226Y-100028102D01*
X145697205Y-99839744D01*
X145583937Y-99670226D01*
X145439774Y-99526063D01*
X145270256Y-99412795D01*
X145081898Y-99334774D01*
X144881939Y-99295000D01*
X144678061Y-99295000D01*
X144478102Y-99334774D01*
X144289744Y-99412795D01*
X144120226Y-99526063D01*
X143976063Y-99670226D01*
X143862795Y-99839744D01*
X143784774Y-100028102D01*
X143745000Y-100228061D01*
X143745000Y-100431939D01*
X143784774Y-100631898D01*
X143862795Y-100820256D01*
X143976063Y-100989774D01*
X144020001Y-101033712D01*
X144020000Y-108905198D01*
X140930199Y-111995000D01*
X140868061Y-111995000D01*
X140668102Y-112034774D01*
X140479744Y-112112795D01*
X140310226Y-112226063D01*
X140166063Y-112370226D01*
X140052795Y-112539744D01*
X139974774Y-112728102D01*
X139935000Y-112928061D01*
X139935000Y-113131939D01*
X139974774Y-113331898D01*
X140052795Y-113520256D01*
X140065987Y-113540000D01*
X106752287Y-113540000D01*
X106749502Y-113530820D01*
X106690537Y-113420506D01*
X106611185Y-113323815D01*
X106514494Y-113244463D01*
X106404180Y-113185498D01*
X106284482Y-113149188D01*
X106160000Y-113136928D01*
X104660000Y-113136928D01*
X104535518Y-113149188D01*
X104415820Y-113185498D01*
X104305506Y-113244463D01*
X104208815Y-113323815D01*
X104129463Y-113420506D01*
X104070498Y-113530820D01*
X104034188Y-113650518D01*
X104021928Y-113775000D01*
X104021928Y-114825000D01*
X104034188Y-114949482D01*
X104070498Y-115069180D01*
X104105093Y-115133902D01*
X104041785Y-115342600D01*
X104019388Y-115570000D01*
X102260000Y-115570000D01*
X102260000Y-109118061D01*
X128505000Y-109118061D01*
X128505000Y-109321939D01*
X128544774Y-109521898D01*
X128622795Y-109710256D01*
X128736063Y-109879774D01*
X128880226Y-110023937D01*
X129049744Y-110137205D01*
X129238102Y-110215226D01*
X129438061Y-110255000D01*
X129641939Y-110255000D01*
X129841898Y-110215226D01*
X130030256Y-110137205D01*
X130199774Y-110023937D01*
X130343937Y-109879774D01*
X130457205Y-109710256D01*
X130535226Y-109521898D01*
X130575000Y-109321939D01*
X130575000Y-109118061D01*
X130535226Y-108918102D01*
X130457205Y-108729744D01*
X130343937Y-108560226D01*
X130300000Y-108516289D01*
X130300000Y-95804801D01*
X132236313Y-97741115D01*
X132200001Y-97923666D01*
X132200001Y-98206336D01*
X132255148Y-98483575D01*
X132363321Y-98744728D01*
X132520364Y-98979760D01*
X132720242Y-99179638D01*
X132952760Y-99335001D01*
X132720242Y-99490364D01*
X132520364Y-99690242D01*
X132363321Y-99925274D01*
X132255148Y-100186427D01*
X132200001Y-100463666D01*
X132200001Y-100746336D01*
X132255148Y-101023575D01*
X132363321Y-101284728D01*
X132520364Y-101519760D01*
X132720242Y-101719638D01*
X132952760Y-101875001D01*
X132720242Y-102030364D01*
X132520364Y-102230242D01*
X132363321Y-102465274D01*
X132255148Y-102726427D01*
X132200001Y-103003666D01*
X132200001Y-103286336D01*
X132255148Y-103563575D01*
X132363321Y-103824728D01*
X132520364Y-104059760D01*
X132720242Y-104259638D01*
X132952760Y-104415001D01*
X132720242Y-104570364D01*
X132520364Y-104770242D01*
X132363321Y-105005274D01*
X132255148Y-105266427D01*
X132200001Y-105543666D01*
X132200001Y-105826336D01*
X132255148Y-106103575D01*
X132363321Y-106364728D01*
X132520364Y-106599760D01*
X132720242Y-106799638D01*
X132955274Y-106956681D01*
X133216427Y-107064854D01*
X133493666Y-107120001D01*
X133776336Y-107120001D01*
X134053575Y-107064854D01*
X134314728Y-106956681D01*
X134549760Y-106799638D01*
X134749638Y-106599760D01*
X134906681Y-106364728D01*
X135014854Y-106103575D01*
X135070001Y-105826336D01*
X135070001Y-105543666D01*
X135014854Y-105266427D01*
X134906681Y-105005274D01*
X134749638Y-104770242D01*
X134549760Y-104570364D01*
X134317242Y-104415001D01*
X134549760Y-104259638D01*
X134749638Y-104059760D01*
X134906681Y-103824728D01*
X135014854Y-103563575D01*
X135070001Y-103286336D01*
X135070001Y-103003666D01*
X135014854Y-102726427D01*
X134906681Y-102465274D01*
X134749638Y-102230242D01*
X134549760Y-102030364D01*
X134317242Y-101875001D01*
X134549760Y-101719638D01*
X134749638Y-101519760D01*
X134906681Y-101284728D01*
X135014854Y-101023575D01*
X135070001Y-100746336D01*
X135070001Y-100463666D01*
X135014854Y-100186427D01*
X134906681Y-99925274D01*
X134749638Y-99690242D01*
X134549760Y-99490364D01*
X134317242Y-99335001D01*
X134549760Y-99179638D01*
X134749638Y-98979760D01*
X134906681Y-98744728D01*
X135014854Y-98483575D01*
X135070001Y-98206336D01*
X135070001Y-97923666D01*
X135014854Y-97646427D01*
X134906681Y-97385274D01*
X134749638Y-97150242D01*
X134549760Y-96950364D01*
X134317242Y-96795001D01*
X134549760Y-96639638D01*
X134749638Y-96439760D01*
X134906681Y-96204728D01*
X135014854Y-95943575D01*
X135070001Y-95666336D01*
X135070001Y-95383666D01*
X135014854Y-95106427D01*
X134906681Y-94845274D01*
X134749638Y-94610242D01*
X134549760Y-94410364D01*
X134317242Y-94255001D01*
X134549760Y-94099638D01*
X134749638Y-93899760D01*
X134906681Y-93664728D01*
X135014854Y-93403575D01*
X135070001Y-93126336D01*
X135070001Y-92843666D01*
X135014854Y-92566427D01*
X134906681Y-92305274D01*
X134749638Y-92070242D01*
X134549760Y-91870364D01*
X134317242Y-91715001D01*
X134549760Y-91559638D01*
X134749638Y-91359760D01*
X134906681Y-91124728D01*
X135014854Y-90863575D01*
X135070001Y-90586336D01*
X135070001Y-90303666D01*
X135014854Y-90026427D01*
X134906681Y-89765274D01*
X134749638Y-89530242D01*
X134549760Y-89330364D01*
X134317242Y-89175001D01*
X134549760Y-89019638D01*
X134749638Y-88819760D01*
X134906681Y-88584728D01*
X135014854Y-88323575D01*
X135070001Y-88046336D01*
X135070001Y-87763666D01*
X135014854Y-87486427D01*
X134906681Y-87225274D01*
X134749638Y-86990242D01*
X134549760Y-86790364D01*
X134317242Y-86635001D01*
X134549760Y-86479638D01*
X134749638Y-86279760D01*
X134906681Y-86044728D01*
X135014854Y-85783575D01*
X135070001Y-85506336D01*
X135070001Y-85223666D01*
X135014854Y-84946427D01*
X134906681Y-84685274D01*
X134749638Y-84450242D01*
X134549760Y-84250364D01*
X134317242Y-84095001D01*
X134549760Y-83939638D01*
X134749638Y-83739760D01*
X134906681Y-83504728D01*
X135014854Y-83243575D01*
X135070001Y-82966336D01*
X135070001Y-82683666D01*
X135014854Y-82406427D01*
X134906681Y-82145274D01*
X134749638Y-81910242D01*
X134549760Y-81710364D01*
X134317242Y-81555001D01*
X134549760Y-81399638D01*
X134749638Y-81199760D01*
X134906681Y-80964728D01*
X135014854Y-80703575D01*
X135070001Y-80426336D01*
X135070001Y-80143666D01*
X135014854Y-79866427D01*
X134906681Y-79605274D01*
X134749638Y-79370242D01*
X134549760Y-79170364D01*
X134314728Y-79013321D01*
X134304136Y-79008934D01*
X134490132Y-78897386D01*
X134698520Y-78708415D01*
X134866038Y-78482421D01*
X134986247Y-78228088D01*
X135026905Y-78094040D01*
X134904916Y-77872001D01*
X133762001Y-77872001D01*
X133762001Y-77892001D01*
X133508001Y-77892001D01*
X133508001Y-77872001D01*
X132365086Y-77872001D01*
X132243097Y-78094040D01*
X132283755Y-78228088D01*
X132403964Y-78482421D01*
X132571482Y-78708415D01*
X132779870Y-78897386D01*
X132965866Y-79008934D01*
X132955274Y-79013321D01*
X132720242Y-79170364D01*
X132520364Y-79370242D01*
X132363321Y-79605274D01*
X132255148Y-79866427D01*
X132200001Y-80143666D01*
X132200001Y-80426336D01*
X132255148Y-80703575D01*
X132363321Y-80964728D01*
X132520364Y-81199760D01*
X132720242Y-81399638D01*
X132952760Y-81555001D01*
X132720242Y-81710364D01*
X132520364Y-81910242D01*
X132363321Y-82145274D01*
X132255148Y-82406427D01*
X132200001Y-82683666D01*
X132200001Y-82966336D01*
X132255148Y-83243575D01*
X132363321Y-83504728D01*
X132520364Y-83739760D01*
X132720242Y-83939638D01*
X132952760Y-84095001D01*
X132720242Y-84250364D01*
X132520364Y-84450242D01*
X132416958Y-84605001D01*
X130572321Y-84605001D01*
X130534998Y-84601325D01*
X130497675Y-84605001D01*
X130497666Y-84605001D01*
X130386013Y-84615998D01*
X130251366Y-84656842D01*
X130242752Y-84659455D01*
X130110722Y-84730027D01*
X130027082Y-84798669D01*
X129994998Y-84825000D01*
X129971200Y-84853998D01*
X129028998Y-85796201D01*
X129000000Y-85819999D01*
X128976202Y-85848997D01*
X128976201Y-85848998D01*
X128905026Y-85935724D01*
X128834454Y-86067754D01*
X128833607Y-86070547D01*
X128790999Y-86211013D01*
X128790998Y-86211015D01*
X128776324Y-86360000D01*
X128780001Y-86397333D01*
X128780000Y-108516289D01*
X128736063Y-108560226D01*
X128622795Y-108729744D01*
X128544774Y-108918102D01*
X128505000Y-109118061D01*
X102260000Y-109118061D01*
X102260000Y-73675000D01*
X110181928Y-73675000D01*
X110181928Y-75425000D01*
X110211001Y-75720186D01*
X110297104Y-76004028D01*
X110436927Y-76265618D01*
X110625097Y-76494903D01*
X110854382Y-76683073D01*
X111115972Y-76822896D01*
X111399814Y-76908999D01*
X111695000Y-76938072D01*
X113445000Y-76938072D01*
X113740186Y-76908999D01*
X114024028Y-76822896D01*
X114285618Y-76683073D01*
X114514903Y-76494903D01*
X114703073Y-76265618D01*
X114842896Y-76004028D01*
X114928999Y-75720186D01*
X114958072Y-75425000D01*
X114958072Y-73675000D01*
X114928999Y-73379814D01*
X114854736Y-73135000D01*
X115793572Y-73135000D01*
X115793572Y-79505000D01*
X125506429Y-79505000D01*
X125506429Y-73135000D01*
X115793572Y-73135000D01*
X114854736Y-73135000D01*
X114842896Y-73095972D01*
X114703073Y-72834382D01*
X114514903Y-72605097D01*
X114285618Y-72416927D01*
X114024028Y-72277104D01*
X113895357Y-72238072D01*
X117320000Y-72238072D01*
X117444482Y-72225812D01*
X117564180Y-72189502D01*
X117674494Y-72130537D01*
X117771185Y-72051185D01*
X117850537Y-71954494D01*
X117909502Y-71844180D01*
X117945812Y-71724482D01*
X117958072Y-71600000D01*
X117958072Y-70270000D01*
X126781928Y-70270000D01*
X126781928Y-71970000D01*
X126794188Y-72094482D01*
X126830498Y-72214180D01*
X126889463Y-72324494D01*
X126968815Y-72421185D01*
X127065506Y-72500537D01*
X127175820Y-72559502D01*
X127248380Y-72581513D01*
X127116525Y-72713368D01*
X126954010Y-72956589D01*
X126842068Y-73226842D01*
X126785000Y-73513740D01*
X126785000Y-73806260D01*
X126842068Y-74093158D01*
X126954010Y-74363411D01*
X127116525Y-74606632D01*
X127323368Y-74813475D01*
X127566589Y-74975990D01*
X127836842Y-75087932D01*
X128123740Y-75145000D01*
X128416260Y-75145000D01*
X128703158Y-75087932D01*
X128973411Y-74975990D01*
X129216632Y-74813475D01*
X129423475Y-74606632D01*
X129546125Y-74423073D01*
X129577322Y-74420000D01*
X129577333Y-74420000D01*
X129688986Y-74409003D01*
X129832247Y-74365546D01*
X129964276Y-74294974D01*
X130080001Y-74200001D01*
X130103804Y-74170997D01*
X132511915Y-71762886D01*
X132363321Y-71985274D01*
X132255148Y-72246427D01*
X132200001Y-72523666D01*
X132200001Y-72806336D01*
X132255148Y-73083575D01*
X132363321Y-73344728D01*
X132520364Y-73579760D01*
X132720242Y-73779638D01*
X132952760Y-73935001D01*
X132720242Y-74090364D01*
X132520364Y-74290242D01*
X132363321Y-74525274D01*
X132255148Y-74786427D01*
X132200001Y-75063666D01*
X132200001Y-75346336D01*
X132255148Y-75623575D01*
X132363321Y-75884728D01*
X132520364Y-76119760D01*
X132720242Y-76319638D01*
X132955274Y-76476681D01*
X132965866Y-76481068D01*
X132779870Y-76592616D01*
X132571482Y-76781587D01*
X132403964Y-77007581D01*
X132283755Y-77261914D01*
X132243097Y-77395962D01*
X132365086Y-77618001D01*
X133508001Y-77618001D01*
X133508001Y-77598001D01*
X133762001Y-77598001D01*
X133762001Y-77618001D01*
X134904916Y-77618001D01*
X135026905Y-77395962D01*
X134986247Y-77261914D01*
X134866038Y-77007581D01*
X134698520Y-76781587D01*
X134490132Y-76592616D01*
X134304136Y-76481068D01*
X134314728Y-76476681D01*
X134549760Y-76319638D01*
X134749638Y-76119760D01*
X134906681Y-75884728D01*
X135014854Y-75623575D01*
X135070001Y-75346336D01*
X135070001Y-75063666D01*
X135014854Y-74786427D01*
X134906681Y-74525274D01*
X134749638Y-74290242D01*
X134549760Y-74090364D01*
X134317242Y-73935001D01*
X134549760Y-73779638D01*
X134749638Y-73579760D01*
X134906681Y-73344728D01*
X135014854Y-73083575D01*
X135070001Y-72806336D01*
X135070001Y-72523666D01*
X135014854Y-72246427D01*
X134906681Y-71985274D01*
X134749638Y-71750242D01*
X134551040Y-71551644D01*
X134559483Y-71550813D01*
X134679181Y-71514503D01*
X134789495Y-71455538D01*
X134886186Y-71376186D01*
X134965538Y-71279495D01*
X135024503Y-71169181D01*
X135060813Y-71049483D01*
X135073073Y-70925001D01*
X135073073Y-69325001D01*
X135060813Y-69200519D01*
X135024503Y-69080821D01*
X134965538Y-68970507D01*
X134886186Y-68873816D01*
X134789495Y-68794464D01*
X134679181Y-68735499D01*
X134559483Y-68699189D01*
X134435001Y-68686929D01*
X132835001Y-68686929D01*
X132710519Y-68699189D01*
X132590821Y-68735499D01*
X132480507Y-68794464D01*
X132383816Y-68873816D01*
X132304464Y-68970507D01*
X132245499Y-69080821D01*
X132209189Y-69200519D01*
X132196929Y-69325001D01*
X132196929Y-69928269D01*
X129417653Y-72707546D01*
X129291620Y-72581513D01*
X129364180Y-72559502D01*
X129474494Y-72500537D01*
X129571185Y-72421185D01*
X129650537Y-72324494D01*
X129709502Y-72214180D01*
X129745812Y-72094482D01*
X129758072Y-71970000D01*
X129758072Y-70270000D01*
X129745812Y-70145518D01*
X129709502Y-70025820D01*
X129650537Y-69915506D01*
X129571185Y-69818815D01*
X129474494Y-69739463D01*
X129364180Y-69680498D01*
X129244482Y-69644188D01*
X129120000Y-69631928D01*
X127420000Y-69631928D01*
X127295518Y-69644188D01*
X127175820Y-69680498D01*
X127065506Y-69739463D01*
X126968815Y-69818815D01*
X126889463Y-69915506D01*
X126830498Y-70025820D01*
X126794188Y-70145518D01*
X126781928Y-70270000D01*
X117958072Y-70270000D01*
X117958072Y-68100000D01*
X117945812Y-67975518D01*
X117909502Y-67855820D01*
X117850537Y-67745506D01*
X117771185Y-67648815D01*
X117674494Y-67569463D01*
X117564180Y-67510498D01*
X117444482Y-67474188D01*
X117320000Y-67461928D01*
X113820000Y-67461928D01*
X113695518Y-67474188D01*
X113575820Y-67510498D01*
X113465506Y-67569463D01*
X113368815Y-67648815D01*
X113289463Y-67745506D01*
X113230498Y-67855820D01*
X113194188Y-67975518D01*
X113181928Y-68100000D01*
X113181928Y-71600000D01*
X113194188Y-71724482D01*
X113230498Y-71844180D01*
X113289463Y-71954494D01*
X113368815Y-72051185D01*
X113465506Y-72130537D01*
X113542131Y-72171494D01*
X113445000Y-72161928D01*
X111695000Y-72161928D01*
X111399814Y-72191001D01*
X111115972Y-72277104D01*
X110854382Y-72416927D01*
X110625097Y-72605097D01*
X110436927Y-72834382D01*
X110297104Y-73095972D01*
X110211001Y-73379814D01*
X110181928Y-73675000D01*
X102260000Y-73675000D01*
X102260000Y-71600000D01*
X107431928Y-71600000D01*
X107444188Y-71724482D01*
X107480498Y-71844180D01*
X107539463Y-71954494D01*
X107618815Y-72051185D01*
X107715506Y-72130537D01*
X107825820Y-72189502D01*
X107945518Y-72225812D01*
X108070000Y-72238072D01*
X109284250Y-72235000D01*
X109443000Y-72076250D01*
X109443000Y-69977000D01*
X109697000Y-69977000D01*
X109697000Y-72076250D01*
X109855750Y-72235000D01*
X111070000Y-72238072D01*
X111194482Y-72225812D01*
X111314180Y-72189502D01*
X111424494Y-72130537D01*
X111521185Y-72051185D01*
X111600537Y-71954494D01*
X111659502Y-71844180D01*
X111695812Y-71724482D01*
X111708072Y-71600000D01*
X111705000Y-70135750D01*
X111546250Y-69977000D01*
X109697000Y-69977000D01*
X109443000Y-69977000D01*
X107593750Y-69977000D01*
X107435000Y-70135750D01*
X107431928Y-71600000D01*
X102260000Y-71600000D01*
X102260000Y-68100000D01*
X107431928Y-68100000D01*
X107435000Y-69564250D01*
X107593750Y-69723000D01*
X109443000Y-69723000D01*
X109443000Y-67623750D01*
X109697000Y-67623750D01*
X109697000Y-69723000D01*
X111546250Y-69723000D01*
X111705000Y-69564250D01*
X111708072Y-68100000D01*
X111695812Y-67975518D01*
X111659502Y-67855820D01*
X111600537Y-67745506D01*
X111521185Y-67648815D01*
X111424494Y-67569463D01*
X111314180Y-67510498D01*
X111194482Y-67474188D01*
X111070000Y-67461928D01*
X109855750Y-67465000D01*
X109697000Y-67623750D01*
X109443000Y-67623750D01*
X109284250Y-67465000D01*
X108070000Y-67461928D01*
X107945518Y-67474188D01*
X107825820Y-67510498D01*
X107715506Y-67569463D01*
X107618815Y-67648815D01*
X107539463Y-67745506D01*
X107480498Y-67855820D01*
X107444188Y-67975518D01*
X107431928Y-68100000D01*
X102260000Y-68100000D01*
X102260000Y-60989392D01*
X102282269Y-60739872D01*
X104445000Y-60739872D01*
X104445000Y-61180128D01*
X104530890Y-61611925D01*
X104699369Y-62018669D01*
X104943962Y-62384729D01*
X105255271Y-62696038D01*
X105621331Y-62940631D01*
X106028075Y-63109110D01*
X106459872Y-63195000D01*
X106900128Y-63195000D01*
X107331925Y-63109110D01*
X107738669Y-62940631D01*
X108104729Y-62696038D01*
X108416038Y-62384729D01*
X108660631Y-62018669D01*
X108829110Y-61611925D01*
X108915000Y-61180128D01*
X108915000Y-60739872D01*
X108875243Y-60540000D01*
X111541928Y-60540000D01*
X111554188Y-60664482D01*
X111590498Y-60784180D01*
X111649463Y-60894494D01*
X111728815Y-60991185D01*
X111825506Y-61070537D01*
X111935820Y-61129502D01*
X112055518Y-61165812D01*
X112180000Y-61178072D01*
X112744250Y-61175000D01*
X112903000Y-61016250D01*
X112903000Y-59817000D01*
X111703750Y-59817000D01*
X111545000Y-59975750D01*
X111541928Y-60540000D01*
X108875243Y-60540000D01*
X108829110Y-60308075D01*
X108660631Y-59901331D01*
X108416038Y-59535271D01*
X108104729Y-59223962D01*
X107738669Y-58979369D01*
X107402203Y-58840000D01*
X111541928Y-58840000D01*
X111545000Y-59404250D01*
X111703750Y-59563000D01*
X112903000Y-59563000D01*
X112903000Y-58363750D01*
X112744250Y-58205000D01*
X112180000Y-58201928D01*
X112055518Y-58214188D01*
X111935820Y-58250498D01*
X111825506Y-58309463D01*
X111728815Y-58388815D01*
X111649463Y-58485506D01*
X111590498Y-58595820D01*
X111554188Y-58715518D01*
X111541928Y-58840000D01*
X107402203Y-58840000D01*
X107331925Y-58810890D01*
X106900128Y-58725000D01*
X106459872Y-58725000D01*
X106028075Y-58810890D01*
X105621331Y-58979369D01*
X105255271Y-59223962D01*
X104943962Y-59535271D01*
X104699369Y-59901331D01*
X104530890Y-60308075D01*
X104445000Y-60739872D01*
X102282269Y-60739872D01*
X102332437Y-60177751D01*
X102539672Y-59420226D01*
X102877777Y-58711375D01*
X103336067Y-58073596D01*
X103900055Y-57527054D01*
X104551913Y-57089023D01*
X105271038Y-56773349D01*
X106039768Y-56588794D01*
X106704207Y-56540000D01*
X195550608Y-56540000D01*
X196362249Y-56612437D01*
G36*
X147603321Y-69445274D02*
G01*
X147495148Y-69706427D01*
X147440001Y-69983666D01*
X147440001Y-70266336D01*
X147495148Y-70543575D01*
X147603321Y-70804728D01*
X147760364Y-71039760D01*
X147960242Y-71239638D01*
X148195274Y-71396681D01*
X148205866Y-71401068D01*
X148019870Y-71512616D01*
X147811482Y-71701587D01*
X147643964Y-71927581D01*
X147523755Y-72181914D01*
X147483097Y-72315962D01*
X147605086Y-72538001D01*
X148748001Y-72538001D01*
X148748001Y-72518001D01*
X149002001Y-72518001D01*
X149002001Y-72538001D01*
X150144916Y-72538001D01*
X150165583Y-72500384D01*
X153905000Y-76239802D01*
X153905000Y-76301939D01*
X153944774Y-76501898D01*
X154022795Y-76690256D01*
X154136063Y-76859774D01*
X154261290Y-76985001D01*
X150093044Y-76985001D01*
X149989638Y-76830242D01*
X149789760Y-76630364D01*
X149557242Y-76475001D01*
X149789760Y-76319638D01*
X149989638Y-76119760D01*
X150146681Y-75884728D01*
X150254854Y-75623575D01*
X150310001Y-75346336D01*
X150310001Y-75063666D01*
X150254854Y-74786427D01*
X150146681Y-74525274D01*
X149989638Y-74290242D01*
X149789760Y-74090364D01*
X149554728Y-73933321D01*
X149544136Y-73928934D01*
X149730132Y-73817386D01*
X149938520Y-73628415D01*
X150106038Y-73402421D01*
X150226247Y-73148088D01*
X150266905Y-73014040D01*
X150144916Y-72792001D01*
X149002001Y-72792001D01*
X149002001Y-72812001D01*
X148748001Y-72812001D01*
X148748001Y-72792001D01*
X147605086Y-72792001D01*
X147483097Y-73014040D01*
X147523755Y-73148088D01*
X147643964Y-73402421D01*
X147811482Y-73628415D01*
X148019870Y-73817386D01*
X148205866Y-73928934D01*
X148195274Y-73933321D01*
X147960242Y-74090364D01*
X147760364Y-74290242D01*
X147603321Y-74525274D01*
X147495148Y-74786427D01*
X147440001Y-75063666D01*
X147440001Y-75346336D01*
X147495148Y-75623575D01*
X147603321Y-75884728D01*
X147760364Y-76119760D01*
X147960242Y-76319638D01*
X148192760Y-76475001D01*
X147960242Y-76630364D01*
X147760364Y-76830242D01*
X147603321Y-77065274D01*
X147495148Y-77326427D01*
X147440001Y-77603666D01*
X147440001Y-77886336D01*
X147495148Y-78163575D01*
X147603321Y-78424728D01*
X147760364Y-78659760D01*
X147960242Y-78859638D01*
X148192760Y-79015001D01*
X147960242Y-79170364D01*
X147760364Y-79370242D01*
X147603321Y-79605274D01*
X147495148Y-79866427D01*
X147440001Y-80143666D01*
X147440001Y-80426336D01*
X147495148Y-80703575D01*
X147603321Y-80964728D01*
X147760364Y-81199760D01*
X147960242Y-81399638D01*
X148192760Y-81555001D01*
X147960242Y-81710364D01*
X147760364Y-81910242D01*
X147603321Y-82145274D01*
X147495148Y-82406427D01*
X147440001Y-82683666D01*
X147440001Y-82966336D01*
X147495148Y-83243575D01*
X147603321Y-83504728D01*
X147760364Y-83739760D01*
X147960242Y-83939638D01*
X148192760Y-84095001D01*
X147960242Y-84250364D01*
X147760364Y-84450242D01*
X147603321Y-84685274D01*
X147495148Y-84946427D01*
X147440001Y-85223666D01*
X147440001Y-85506336D01*
X147495148Y-85783575D01*
X147603321Y-86044728D01*
X147760364Y-86279760D01*
X147960242Y-86479638D01*
X148192760Y-86635001D01*
X147960242Y-86790364D01*
X147760364Y-86990242D01*
X147603321Y-87225274D01*
X147495148Y-87486427D01*
X147440001Y-87763666D01*
X147440001Y-87935200D01*
X146810000Y-87305199D01*
X146810000Y-70164801D01*
X147751915Y-69222887D01*
X147603321Y-69445274D01*
G37*
X147603321Y-69445274D02*
X147495148Y-69706427D01*
X147440001Y-69983666D01*
X147440001Y-70266336D01*
X147495148Y-70543575D01*
X147603321Y-70804728D01*
X147760364Y-71039760D01*
X147960242Y-71239638D01*
X148195274Y-71396681D01*
X148205866Y-71401068D01*
X148019870Y-71512616D01*
X147811482Y-71701587D01*
X147643964Y-71927581D01*
X147523755Y-72181914D01*
X147483097Y-72315962D01*
X147605086Y-72538001D01*
X148748001Y-72538001D01*
X148748001Y-72518001D01*
X149002001Y-72518001D01*
X149002001Y-72538001D01*
X150144916Y-72538001D01*
X150165583Y-72500384D01*
X153905000Y-76239802D01*
X153905000Y-76301939D01*
X153944774Y-76501898D01*
X154022795Y-76690256D01*
X154136063Y-76859774D01*
X154261290Y-76985001D01*
X150093044Y-76985001D01*
X149989638Y-76830242D01*
X149789760Y-76630364D01*
X149557242Y-76475001D01*
X149789760Y-76319638D01*
X149989638Y-76119760D01*
X150146681Y-75884728D01*
X150254854Y-75623575D01*
X150310001Y-75346336D01*
X150310001Y-75063666D01*
X150254854Y-74786427D01*
X150146681Y-74525274D01*
X149989638Y-74290242D01*
X149789760Y-74090364D01*
X149554728Y-73933321D01*
X149544136Y-73928934D01*
X149730132Y-73817386D01*
X149938520Y-73628415D01*
X150106038Y-73402421D01*
X150226247Y-73148088D01*
X150266905Y-73014040D01*
X150144916Y-72792001D01*
X149002001Y-72792001D01*
X149002001Y-72812001D01*
X148748001Y-72812001D01*
X148748001Y-72792001D01*
X147605086Y-72792001D01*
X147483097Y-73014040D01*
X147523755Y-73148088D01*
X147643964Y-73402421D01*
X147811482Y-73628415D01*
X148019870Y-73817386D01*
X148205866Y-73928934D01*
X148195274Y-73933321D01*
X147960242Y-74090364D01*
X147760364Y-74290242D01*
X147603321Y-74525274D01*
X147495148Y-74786427D01*
X147440001Y-75063666D01*
X147440001Y-75346336D01*
X147495148Y-75623575D01*
X147603321Y-75884728D01*
X147760364Y-76119760D01*
X147960242Y-76319638D01*
X148192760Y-76475001D01*
X147960242Y-76630364D01*
X147760364Y-76830242D01*
X147603321Y-77065274D01*
X147495148Y-77326427D01*
X147440001Y-77603666D01*
X147440001Y-77886336D01*
X147495148Y-78163575D01*
X147603321Y-78424728D01*
X147760364Y-78659760D01*
X147960242Y-78859638D01*
X148192760Y-79015001D01*
X147960242Y-79170364D01*
X147760364Y-79370242D01*
X147603321Y-79605274D01*
X147495148Y-79866427D01*
X147440001Y-80143666D01*
X147440001Y-80426336D01*
X147495148Y-80703575D01*
X147603321Y-80964728D01*
X147760364Y-81199760D01*
X147960242Y-81399638D01*
X148192760Y-81555001D01*
X147960242Y-81710364D01*
X147760364Y-81910242D01*
X147603321Y-82145274D01*
X147495148Y-82406427D01*
X147440001Y-82683666D01*
X147440001Y-82966336D01*
X147495148Y-83243575D01*
X147603321Y-83504728D01*
X147760364Y-83739760D01*
X147960242Y-83939638D01*
X148192760Y-84095001D01*
X147960242Y-84250364D01*
X147760364Y-84450242D01*
X147603321Y-84685274D01*
X147495148Y-84946427D01*
X147440001Y-85223666D01*
X147440001Y-85506336D01*
X147495148Y-85783575D01*
X147603321Y-86044728D01*
X147760364Y-86279760D01*
X147960242Y-86479638D01*
X148192760Y-86635001D01*
X147960242Y-86790364D01*
X147760364Y-86990242D01*
X147603321Y-87225274D01*
X147495148Y-87486427D01*
X147440001Y-87763666D01*
X147440001Y-87935200D01*
X146810000Y-87305199D01*
X146810000Y-70164801D01*
X147751915Y-69222887D01*
X147603321Y-69445274D01*
M02*
